<?xml version="1.0" encoding="UTF-8" standalone="no"?><svg xmlns="http://www.w3.org/2000/svg" xmlns:xlink="http://www.w3.org/1999/xlink" contentScriptType="application/ecmascript" contentStyleType="text/css" height="213px" preserveAspectRatio="none" style="width:491px;height:213px;background:#FFF5EE;" version="1.1" viewBox="0 0 491 213" width="491px" zoomAndPan="magnify"><defs><filter height="300%" id="f6yqoso2k50f1" width="300%" x="-1" y="-1"><feGaussianBlur result="blurOut" stdDeviation="2.0"/><feColorMatrix in="blurOut" result="blurOut2" type="matrix" values="0 0 0 0 0 0 0 0 0 0 0 0 0 0 0 0 0 0 .4 0"/><feOffset dx="4.0" dy="4.0" in="blurOut2" result="blurOut3"/><feBlend in="SourceGraphic" in2="blurOut3" mode="normal"/></filter></defs><g><!--MD5=[7d2c4ae7970c32f414f93e7b18676929]
class Metadata--><rect fill="#FEFECE" filter="url(#f6yqoso2k50f1)" height="48" id="Metadata" style="stroke: #A80036; stroke-width: 1.5;" width="92" x="232.5" y="14.5"/><ellipse cx="247.5" cy="30.5" fill="#ADD1B2" rx="11" ry="11" style="stroke: #A80036; stroke-width: 1.0;"/><path d="M250.4688,36.1406 Q249.8906,36.4375 249.25,36.5781 Q248.6094,36.7344 247.9063,36.7344 Q245.4063,36.7344 244.0781,35.0938 Q242.7656,33.4375 242.7656,30.3125 Q242.7656,27.1875 244.0781,25.5313 Q245.4063,23.875 247.9063,23.875 Q248.6094,23.875 249.25,24.0313 Q249.9063,24.1875 250.4688,24.4844 L250.4688,27.2031 Q249.8438,26.625 249.25,26.3594 Q248.6563,26.0781 248.0313,26.0781 Q246.6875,26.0781 246,27.1563 Q245.3125,28.2188 245.3125,30.3125 Q245.3125,32.4063 246,33.4844 Q246.6875,34.5469 248.0313,34.5469 Q248.6563,34.5469 249.25,34.2813 Q249.8438,34 250.4688,33.4219 L250.4688,36.1406 Z "/><text fill="#000000" font-family="sans-serif" font-size="12" lengthAdjust="spacingAndGlyphs" textLength="60" x="261.5" y="34.6543">Metadata</text><line style="stroke: #A80036; stroke-width: 1.5;" x1="233.5" x2="323.5" y1="46.5" y2="46.5"/><line style="stroke: #A80036; stroke-width: 1.5;" x1="233.5" x2="323.5" y1="54.5" y2="54.5"/><!--MD5=[79b2c35a8607833edf9d17d918b0cb90]
class Signature--><rect fill="#FEFECE" filter="url(#f6yqoso2k50f1)" height="60.8047" id="Signature" style="stroke: #A80036; stroke-width: 1.5;" width="93" x="104" y="8"/><ellipse cx="119" cy="24" fill="#ADD1B2" rx="11" ry="11" style="stroke: #A80036; stroke-width: 1.0;"/><path d="M121.9688,29.6406 Q121.3906,29.9375 120.75,30.0781 Q120.1094,30.2344 119.4063,30.2344 Q116.9063,30.2344 115.5781,28.5938 Q114.2656,26.9375 114.2656,23.8125 Q114.2656,20.6875 115.5781,19.0313 Q116.9063,17.375 119.4063,17.375 Q120.1094,17.375 120.75,17.5313 Q121.4063,17.6875 121.9688,17.9844 L121.9688,20.7031 Q121.3438,20.125 120.75,19.8594 Q120.1563,19.5781 119.5313,19.5781 Q118.1875,19.5781 117.5,20.6563 Q116.8125,21.7188 116.8125,23.8125 Q116.8125,25.9063 117.5,26.9844 Q118.1875,28.0469 119.5313,28.0469 Q120.1563,28.0469 120.75,27.7813 Q121.3438,27.5 121.9688,26.9219 L121.9688,29.6406 Z "/><text fill="#000000" font-family="sans-serif" font-size="12" lengthAdjust="spacingAndGlyphs" textLength="61" x="133" y="28.1543">Signature</text><line style="stroke: #A80036; stroke-width: 1.5;" x1="105" x2="196" y1="40" y2="40"/><text fill="#000000" font-family="sans-serif" font-size="11" lengthAdjust="spacingAndGlyphs" textLength="54" x="110" y="54.2104">signature</text><line style="stroke: #A80036; stroke-width: 1.5;" x1="105" x2="196" y1="60.8047" y2="60.8047"/><!--MD5=[2086e18d236f9616263f91fe5276f8cf]
class Key--><rect fill="#FEFECE" filter="url(#f6yqoso2k50f1)" height="48" id="Key" style="stroke: #A80036; stroke-width: 1.5;" width="53" x="124" y="129"/><ellipse cx="139" cy="145" fill="#ADD1B2" rx="11" ry="11" style="stroke: #A80036; stroke-width: 1.0;"/><path d="M141.9688,150.6406 Q141.3906,150.9375 140.75,151.0781 Q140.1094,151.2344 139.4063,151.2344 Q136.9063,151.2344 135.5781,149.5938 Q134.2656,147.9375 134.2656,144.8125 Q134.2656,141.6875 135.5781,140.0313 Q136.9063,138.375 139.4063,138.375 Q140.1094,138.375 140.75,138.5313 Q141.4063,138.6875 141.9688,138.9844 L141.9688,141.7031 Q141.3438,141.125 140.75,140.8594 Q140.1563,140.5781 139.5313,140.5781 Q138.1875,140.5781 137.5,141.6563 Q136.8125,142.7188 136.8125,144.8125 Q136.8125,146.9063 137.5,147.9844 Q138.1875,149.0469 139.5313,149.0469 Q140.1563,149.0469 140.75,148.7813 Q141.3438,148.5 141.9688,147.9219 L141.9688,150.6406 Z "/><text fill="#000000" font-family="sans-serif" font-size="12" lengthAdjust="spacingAndGlyphs" textLength="21" x="153" y="149.1543">Key</text><line style="stroke: #A80036; stroke-width: 1.5;" x1="125" x2="176" y1="161" y2="161"/><line style="stroke: #A80036; stroke-width: 1.5;" x1="125" x2="176" y1="169" y2="169"/><!--MD5=[f9a29335b499db729be669fd1bd54958]
class Account--><rect fill="#FEFECE" filter="url(#f6yqoso2k50f1)" height="48" id="Account" style="stroke: #A80036; stroke-width: 1.5;" width="83" x="6" y="129"/><ellipse cx="21" cy="145" fill="#ADD1B2" rx="11" ry="11" style="stroke: #A80036; stroke-width: 1.0;"/><path d="M23.9688,150.6406 Q23.3906,150.9375 22.75,151.0781 Q22.1094,151.2344 21.4063,151.2344 Q18.9063,151.2344 17.5781,149.5938 Q16.2656,147.9375 16.2656,144.8125 Q16.2656,141.6875 17.5781,140.0313 Q18.9063,138.375 21.4063,138.375 Q22.1094,138.375 22.75,138.5313 Q23.4063,138.6875 23.9688,138.9844 L23.9688,141.7031 Q23.3438,141.125 22.75,140.8594 Q22.1563,140.5781 21.5313,140.5781 Q20.1875,140.5781 19.5,141.6563 Q18.8125,142.7188 18.8125,144.8125 Q18.8125,146.9063 19.5,147.9844 Q20.1875,149.0469 21.5313,149.0469 Q22.1563,149.0469 22.75,148.7813 Q23.3438,148.5 23.9688,147.9219 L23.9688,150.6406 Z "/><text fill="#000000" font-family="sans-serif" font-size="12" lengthAdjust="spacingAndGlyphs" textLength="51" x="35" y="149.1543">Account</text><line style="stroke: #A80036; stroke-width: 1.5;" x1="7" x2="88" y1="161" y2="161"/><line style="stroke: #A80036; stroke-width: 1.5;" x1="7" x2="88" y1="169" y2="169"/><!--MD5=[81381f6940610dc517ced37cfb71f559]
class Signable--><rect fill="#FEFECE" filter="url(#f6yqoso2k50f1)" height="48" id="Signable" style="stroke: #A80036; stroke-width: 1.5;" width="86" x="359.5" y="14.5"/><ellipse cx="374.5" cy="30.5" fill="#ADD1B2" rx="11" ry="11" style="stroke: #A80036; stroke-width: 1.0;"/><path d="M377.4688,36.1406 Q376.8906,36.4375 376.25,36.5781 Q375.6094,36.7344 374.9063,36.7344 Q372.4063,36.7344 371.0781,35.0938 Q369.7656,33.4375 369.7656,30.3125 Q369.7656,27.1875 371.0781,25.5313 Q372.4063,23.875 374.9063,23.875 Q375.6094,23.875 376.25,24.0313 Q376.9063,24.1875 377.4688,24.4844 L377.4688,27.2031 Q376.8438,26.625 376.25,26.3594 Q375.6563,26.0781 375.0313,26.0781 Q373.6875,26.0781 373,27.1563 Q372.3125,28.2188 372.3125,30.3125 Q372.3125,32.4063 373,33.4844 Q373.6875,34.5469 375.0313,34.5469 Q375.6563,34.5469 376.25,34.2813 Q376.8438,34 377.4688,33.4219 L377.4688,36.1406 Z "/><text fill="#000000" font-family="sans-serif" font-size="12" lengthAdjust="spacingAndGlyphs" textLength="54" x="388.5" y="34.6543">Signable</text><line style="stroke: #A80036; stroke-width: 1.5;" x1="360.5" x2="444.5" y1="46.5" y2="46.5"/><line style="stroke: #A80036; stroke-width: 1.5;" x1="360.5" x2="444.5" y1="54.5" y2="54.5"/><!--MD5=[caebf2ddd0fe15aa1cd7c0f919e7d6a1]
class Layout--><rect fill="#FEFECE" filter="url(#f6yqoso2k50f1)" height="48" id="Layout" style="stroke: #A80036; stroke-width: 1.5;" width="73" x="316" y="129"/><ellipse cx="331" cy="145" fill="#ADD1B2" rx="11" ry="11" style="stroke: #A80036; stroke-width: 1.0;"/><path d="M333.9688,150.6406 Q333.3906,150.9375 332.75,151.0781 Q332.1094,151.2344 331.4063,151.2344 Q328.9063,151.2344 327.5781,149.5938 Q326.2656,147.9375 326.2656,144.8125 Q326.2656,141.6875 327.5781,140.0313 Q328.9063,138.375 331.4063,138.375 Q332.1094,138.375 332.75,138.5313 Q333.4063,138.6875 333.9688,138.9844 L333.9688,141.7031 Q333.3438,141.125 332.75,140.8594 Q332.1563,140.5781 331.5313,140.5781 Q330.1875,140.5781 329.5,141.6563 Q328.8125,142.7188 328.8125,144.8125 Q328.8125,146.9063 329.5,147.9844 Q330.1875,149.0469 331.5313,149.0469 Q332.1563,149.0469 332.75,148.7813 Q333.3438,148.5 333.9688,147.9219 L333.9688,150.6406 Z "/><text fill="#000000" font-family="sans-serif" font-size="12" lengthAdjust="spacingAndGlyphs" textLength="41" x="345" y="149.1543">Layout</text><line style="stroke: #A80036; stroke-width: 1.5;" x1="317" x2="388" y1="161" y2="161"/><line style="stroke: #A80036; stroke-width: 1.5;" x1="317" x2="388" y1="169" y2="169"/><!--MD5=[d189332174d53557e6def82bbd003869]
class Link--><rect fill="#FEFECE" filter="url(#f6yqoso2k50f1)" height="48" id="Link" style="stroke: #A80036; stroke-width: 1.5;" width="56" x="424.5" y="129"/><ellipse cx="439.5" cy="145" fill="#ADD1B2" rx="11" ry="11" style="stroke: #A80036; stroke-width: 1.0;"/><path d="M442.4688,150.6406 Q441.8906,150.9375 441.25,151.0781 Q440.6094,151.2344 439.9063,151.2344 Q437.4063,151.2344 436.0781,149.5938 Q434.7656,147.9375 434.7656,144.8125 Q434.7656,141.6875 436.0781,140.0313 Q437.4063,138.375 439.9063,138.375 Q440.6094,138.375 441.25,138.5313 Q441.9063,138.6875 442.4688,138.9844 L442.4688,141.7031 Q441.8438,141.125 441.25,140.8594 Q440.6563,140.5781 440.0313,140.5781 Q438.6875,140.5781 438,141.6563 Q437.3125,142.7188 437.3125,144.8125 Q437.3125,146.9063 438,147.9844 Q438.6875,149.0469 440.0313,149.0469 Q440.6563,149.0469 441.25,148.7813 Q441.8438,148.5 442.4688,147.9219 L442.4688,150.6406 Z "/><text fill="#000000" font-family="sans-serif" font-size="12" lengthAdjust="spacingAndGlyphs" textLength="24" x="453.5" y="149.1543">Link</text><line style="stroke: #A80036; stroke-width: 1.5;" x1="425.5" x2="479.5" y1="161" y2="161"/><line style="stroke: #A80036; stroke-width: 1.5;" x1="425.5" x2="479.5" y1="169" y2="169"/><!--MD5=[d9c1eed8cf7c875ef8a212287a73fa00]
reverse link Signature to Metadata--><path d="M202.2455,38.5 C212.2763,38.5 222.3071,38.5 232.3379,38.5 " fill="none" id="Signature&lt;-Metadata" style="stroke: #A80036; stroke-width: 1.0;"/><polygon fill="#A80036" points="197,38.5,206,42.5,202,38.5,206,34.5,197,38.5" style="stroke: #A80036; stroke-width: 1.0;"/><text fill="#000000" font-family="sans-serif" font-size="13" lengthAdjust="spacingAndGlyphs" textLength="23" x="205.1563" y="34.5353">1..*</text><text fill="#000000" font-family="sans-serif" font-size="13" lengthAdjust="spacingAndGlyphs" textLength="8" x="216.3433" y="34.3822">1</text><!--MD5=[ed57cc4273ea760f58f8bed0273c21d7]
link Metadata to Signable--><path d="M324.5156,38.5 C334.3731,38.5 344.2307,38.5 354.0882,38.5 " fill="none" id="Metadata-&gt;Signable" style="stroke: #A80036; stroke-width: 1.0;"/><polygon fill="#A80036" points="359.243,38.5,350.243,34.5,354.243,38.5,350.243,42.5,359.243,38.5" style="stroke: #A80036; stroke-width: 1.0;"/><text fill="#000000" font-family="sans-serif" font-size="13" lengthAdjust="spacingAndGlyphs" textLength="8" x="332.4868" y="34.3822">1</text><text fill="#000000" font-family="sans-serif" font-size="13" lengthAdjust="spacingAndGlyphs" textLength="23" x="328.5428" y="34.5215">1..*</text><!--MD5=[14eb11bf44d41762abf5930cb935e70a]
reverse link Signable to Layout--><path d="M383.9773,80.917 C376.953,97.0026 369.196,114.7661 363.14,128.6343 " fill="none" id="Signable&lt;-Layout" style="stroke: #A80036; stroke-width: 1.0;"/><polygon fill="none" points="377.5995,78.0303,392.0184,62.503,390.4296,83.633,377.5995,78.0303" style="stroke: #A80036; stroke-width: 1.0;"/><!--MD5=[f98e75c4cceb6ba644f5e1ccdfc51b9d]
reverse link Signable to Link--><path d="M421.0227,80.917 C428.047,97.0026 435.804,114.7661 441.86,128.6343 " fill="none" id="Signable&lt;-Link" style="stroke: #A80036; stroke-width: 1.0;"/><polygon fill="none" points="414.5704,83.633,412.9816,62.503,427.4005,78.0303,414.5704,83.633" style="stroke: #A80036; stroke-width: 1.0;"/><!--MD5=[01a1d1c61194c5abb9b94c9e20f3f455]
link Signature to Key--><path d="M150.5,69.1839 C150.5,86.1131 150.5,107.0245 150.5,123.7248 " fill="none" id="Signature-&gt;Key" style="stroke: #A80036; stroke-width: 1.0;"/><polygon fill="#A80036" points="150.5,128.7634,154.5,119.7634,150.5,123.7634,146.5,119.7634,150.5,128.7634" style="stroke: #A80036; stroke-width: 1.0;"/><text fill="#000000" font-family="sans-serif" font-size="13" lengthAdjust="spacingAndGlyphs" textLength="8" x="141.7125" y="88.8005">1</text><text fill="#000000" font-family="sans-serif" font-size="13" lengthAdjust="spacingAndGlyphs" textLength="8" x="141.525" y="118.1107">1</text><!--MD5=[8a31c0b3fc8048f0467810548e2e3417]
link Account to Key--><path d="M89.3438,153 C100.8105,153 112.2773,153 123.7441,153 " fill="none" id="Account-Key" style="stroke: #A80036; stroke-width: 1.0;"/><text fill="#000000" font-family="sans-serif" font-size="13" lengthAdjust="spacingAndGlyphs" textLength="8" x="96.9367" y="148.8357">1</text><text fill="#000000" font-family="sans-serif" font-size="13" lengthAdjust="spacingAndGlyphs" textLength="8" x="107.8629" y="148.162">1</text><text fill="#000000" font-family="sans-serif" font-size="14" lengthAdjust="spacingAndGlyphs" textLength="212" x="143.5" y="199.9951">Metadata for Layouts and Links</text><!--MD5=[7b7bf631af7e56202bd292b3e36f68f9]
@startuml

caption Metadata for Layouts and Links

skinparam shadowing<<with_shadow>> true
skinparam backgroundColor #SeaShell

class Metadata {  
}

class Signature {
    signature
}

class Key {
}

class Account {
}

class Signable {
}

class Layout {
}

class Link {
}

Metadata "1" -left-> "1..*" Signature
Metadata "1" -right-> "1..*" Signable
Signable <|- - Layout
Signable <|- - Link
Signature "1" -down-> "1" Key
Account "1" -right- "1" Key

@enduml

PlantUML version 1.2020.10(Sun May 17 11:35:57 CEST 2020)
(GPL source distribution)
Java Runtime: OpenJDK Runtime Environment
JVM: OpenJDK 64-Bit Server VM
Java Version: 1.8.0_252-8u252-b09-1~18.04-b09
Operating System: Linux
Default Encoding: UTF-8
Language: en
Country: US
--></g></svg>