<?xml version="1.0" encoding="UTF-8" standalone="no"?><svg xmlns="http://www.w3.org/2000/svg" xmlns:xlink="http://www.w3.org/1999/xlink" contentScriptType="application/ecmascript" contentStyleType="text/css" height="778px" preserveAspectRatio="none" style="width:640px;height:778px;background:#FFF5EE;" version="1.1" viewBox="0 0 640 778" width="640px" zoomAndPan="magnify"><defs><filter height="300%" id="fawk0ynt9t1km" width="300%" x="-1" y="-1"><feGaussianBlur result="blurOut" stdDeviation="2.0"/><feColorMatrix in="blurOut" result="blurOut2" type="matrix" values="0 0 0 0 0 0 0 0 0 0 0 0 0 0 0 0 0 0 .4 0"/><feOffset dx="4.0" dy="4.0" in="blurOut2" result="blurOut3"/><feBlend in="SourceGraphic" in2="blurOut3" mode="normal"/></filter></defs><g><text fill="#000000" font-family="sans-serif" font-size="14" lengthAdjust="spacingAndGlyphs" textLength="243" x="197.75" y="764.8467">Manage a Layout on a Supply Chain</text><line style="stroke: #A80036; stroke-width: 1.0; stroke-dasharray: 5.0,5.0;" x1="69" x2="69" y1="86.2969" y2="668.5547"/><line style="stroke: #A80036; stroke-width: 1.0; stroke-dasharray: 5.0,5.0;" x1="244.5" x2="244.5" y1="86.2969" y2="668.5547"/><line style="stroke: #A80036; stroke-width: 1.0; stroke-dasharray: 5.0,5.0;" x1="432.5" x2="432.5" y1="86.2969" y2="668.5547"/><text fill="#000000" font-family="sans-serif" font-size="14" lengthAdjust="spacingAndGlyphs" textLength="117" x="8" y="82.9951">personalAccount</text><ellipse cx="69.5" cy="13" fill="#FEFECE" filter="url(#fawk0ynt9t1km)" rx="8" ry="8" style="stroke: #A80036; stroke-width: 2.0;"/><path d="M69.5,21 L69.5,48 M56.5,29 L82.5,29 M69.5,48 L56.5,63 M69.5,48 L82.5,63 " fill="none" filter="url(#fawk0ynt9t1km)" style="stroke: #A80036; stroke-width: 2.0;"/><text fill="#000000" font-family="sans-serif" font-size="14" lengthAdjust="spacingAndGlyphs" textLength="117" x="8" y="680.5498">personalAccount</text><ellipse cx="69.5" cy="693.8516" fill="#FEFECE" filter="url(#fawk0ynt9t1km)" rx="8" ry="8" style="stroke: #A80036; stroke-width: 2.0;"/><path d="M69.5,701.8516 L69.5,728.8516 M56.5,709.8516 L82.5,709.8516 M69.5,728.8516 L56.5,743.8516 M69.5,728.8516 L82.5,743.8516 " fill="none" filter="url(#fawk0ynt9t1km)" style="stroke: #A80036; stroke-width: 2.0;"/><rect fill="#FEFECE" filter="url(#fawk0ynt9t1km)" height="30.2969" style="stroke: #A80036; stroke-width: 1.5;" width="70" x="207.5" y="51"/><text fill="#000000" font-family="sans-serif" font-size="14" lengthAdjust="spacingAndGlyphs" textLength="56" x="214.5" y="70.9951">browser</text><rect fill="#FEFECE" filter="url(#fawk0ynt9t1km)" height="30.2969" style="stroke: #A80036; stroke-width: 1.5;" width="70" x="207.5" y="667.5547"/><text fill="#000000" font-family="sans-serif" font-size="14" lengthAdjust="spacingAndGlyphs" textLength="56" x="214.5" y="687.5498">browser</text><rect fill="#FEFECE" filter="url(#fawk0ynt9t1km)" height="30.2969" style="stroke: #A80036; stroke-width: 1.5;" width="102" x="379.5" y="51"/><text fill="#000000" font-family="sans-serif" font-size="14" lengthAdjust="spacingAndGlyphs" textLength="88" x="386.5" y="70.9951">Argos Notary</text><rect fill="#FEFECE" filter="url(#fawk0ynt9t1km)" height="30.2969" style="stroke: #A80036; stroke-width: 1.5;" width="102" x="379.5" y="667.5547"/><text fill="#000000" font-family="sans-serif" font-size="14" lengthAdjust="spacingAndGlyphs" textLength="88" x="386.5" y="687.5498">Argos Notary</text><polygon fill="#A80036" points="232.5,113.4297,242.5,117.4297,232.5,121.4297,236.5,117.4297" style="stroke: #A80036; stroke-width: 1.0;"/><line style="stroke: #A80036; stroke-width: 1.0;" x1="69.5" x2="238.5" y1="117.4297" y2="117.4297"/><text fill="#000000" font-family="sans-serif" font-size="13" lengthAdjust="spacingAndGlyphs" textLength="151" x="76.5" y="112.3638">navigate to supplychain</text><polygon fill="#A80036" points="80.5,142.5625,70.5,146.5625,80.5,150.5625,76.5,146.5625" style="stroke: #A80036; stroke-width: 1.0;"/><line style="stroke: #A80036; stroke-width: 1.0; stroke-dasharray: 2.0,2.0;" x1="74.5" x2="243.5" y1="146.5625" y2="146.5625"/><text fill="#000000" font-family="sans-serif" font-size="13" lengthAdjust="spacingAndGlyphs" textLength="111" x="86.5" y="141.4966">show supplychain</text><polygon fill="#A80036" points="232.5,171.6953,242.5,175.6953,232.5,179.6953,236.5,175.6953" style="stroke: #A80036; stroke-width: 1.0;"/><line style="stroke: #A80036; stroke-width: 1.0;" x1="69.5" x2="238.5" y1="175.6953" y2="175.6953"/><text fill="#000000" font-family="sans-serif" font-size="13" lengthAdjust="spacingAndGlyphs" textLength="96" x="76.5" y="170.6294">manage layout</text><polygon fill="#A80036" points="420.5,200.8281,430.5,204.8281,420.5,208.8281,424.5,204.8281" style="stroke: #A80036; stroke-width: 1.0;"/><line style="stroke: #A80036; stroke-width: 1.0;" x1="244.5" x2="426.5" y1="204.8281" y2="204.8281"/><text fill="#000000" font-family="sans-serif" font-size="13" lengthAdjust="spacingAndGlyphs" textLength="164" x="251.5" y="199.7622">get layout for supplychain</text><polygon fill="#A80036" points="255.5,229.9609,245.5,233.9609,255.5,237.9609,251.5,233.9609" style="stroke: #A80036; stroke-width: 1.0;"/><line style="stroke: #A80036; stroke-width: 1.0; stroke-dasharray: 2.0,2.0;" x1="249.5" x2="431.5" y1="233.9609" y2="233.9609"/><text fill="#000000" font-family="sans-serif" font-size="13" lengthAdjust="spacingAndGlyphs" textLength="39" x="261.5" y="228.895">layout</text><polygon fill="#A80036" points="80.5,259.0938,70.5,263.0938,80.5,267.0938,76.5,263.0938" style="stroke: #A80036; stroke-width: 1.0;"/><line style="stroke: #A80036; stroke-width: 1.0; stroke-dasharray: 2.0,2.0;" x1="74.5" x2="243.5" y1="263.0938" y2="263.0938"/><text fill="#000000" font-family="sans-serif" font-size="13" lengthAdjust="spacingAndGlyphs" textLength="75" x="86.5" y="258.0278">show layout</text><polygon fill="#A80036" points="232.5,288.2266,242.5,292.2266,232.5,296.2266,236.5,292.2266" style="stroke: #A80036; stroke-width: 1.0;"/><line style="stroke: #A80036; stroke-width: 1.0;" x1="69.5" x2="238.5" y1="292.2266" y2="292.2266"/><text fill="#000000" font-family="sans-serif" font-size="13" lengthAdjust="spacingAndGlyphs" textLength="90" x="76.5" y="287.1606">change layout</text><polygon fill="#A80036" points="80.5,317.3594,70.5,321.3594,80.5,325.3594,76.5,321.3594" style="stroke: #A80036; stroke-width: 1.0;"/><line style="stroke: #A80036; stroke-width: 1.0; stroke-dasharray: 2.0,2.0;" x1="74.5" x2="243.5" y1="321.3594" y2="321.3594"/><text fill="#000000" font-family="sans-serif" font-size="13" lengthAdjust="spacingAndGlyphs" textLength="134" x="86.5" y="316.2935">show changed layout</text><polygon fill="#A80036" points="232.5,346.4922,242.5,350.4922,232.5,354.4922,236.5,350.4922" style="stroke: #A80036; stroke-width: 1.0;"/><line style="stroke: #A80036; stroke-width: 1.0;" x1="69.5" x2="238.5" y1="350.4922" y2="350.4922"/><text fill="#000000" font-family="sans-serif" font-size="13" lengthAdjust="spacingAndGlyphs" textLength="102" x="76.5" y="345.4263">sign and submit</text><polygon fill="#A80036" points="80.5,375.625,70.5,379.625,80.5,383.625,76.5,379.625" style="stroke: #A80036; stroke-width: 1.0;"/><line style="stroke: #A80036; stroke-width: 1.0;" x1="74.5" x2="243.5" y1="379.625" y2="379.625"/><text fill="#000000" font-family="sans-serif" font-size="13" lengthAdjust="spacingAndGlyphs" textLength="100" x="86.5" y="374.5591">ask passphrase</text><polygon fill="#A80036" points="232.5,404.7578,242.5,408.7578,232.5,412.7578,236.5,408.7578" style="stroke: #A80036; stroke-width: 1.0;"/><line style="stroke: #A80036; stroke-width: 1.0; stroke-dasharray: 2.0,2.0;" x1="69.5" x2="238.5" y1="408.7578" y2="408.7578"/><text fill="#000000" font-family="sans-serif" font-size="13" lengthAdjust="spacingAndGlyphs" textLength="74" x="76.5" y="403.6919">passphrase</text><polygon fill="#A80036" points="420.5,433.8906,430.5,437.8906,420.5,441.8906,424.5,437.8906" style="stroke: #A80036; stroke-width: 1.0;"/><line style="stroke: #A80036; stroke-width: 1.0;" x1="244.5" x2="426.5" y1="437.8906" y2="437.8906"/><text fill="#000000" font-family="sans-serif" font-size="13" lengthAdjust="spacingAndGlyphs" textLength="95" x="251.5" y="432.8247">get private key</text><polygon fill="#A80036" points="255.5,463.0234,245.5,467.0234,255.5,471.0234,251.5,467.0234" style="stroke: #A80036; stroke-width: 1.0;"/><line style="stroke: #A80036; stroke-width: 1.0; stroke-dasharray: 2.0,2.0;" x1="249.5" x2="431.5" y1="467.0234" y2="467.0234"/><text fill="#000000" font-family="sans-serif" font-size="13" lengthAdjust="spacingAndGlyphs" textLength="70" x="261.5" y="461.9575">private key</text><line style="stroke: #A80036; stroke-width: 1.0;" x1="244.5" x2="286.5" y1="496.1563" y2="496.1563"/><line style="stroke: #A80036; stroke-width: 1.0;" x1="286.5" x2="286.5" y1="496.1563" y2="509.1563"/><line style="stroke: #A80036; stroke-width: 1.0;" x1="245.5" x2="286.5" y1="509.1563" y2="509.1563"/><polygon fill="#A80036" points="255.5,505.1563,245.5,509.1563,255.5,513.1563,251.5,509.1563" style="stroke: #A80036; stroke-width: 1.0;"/><text fill="#000000" font-family="sans-serif" font-size="13" lengthAdjust="spacingAndGlyphs" textLength="122" x="251.5" y="491.0903">decrypt private key</text><line style="stroke: #A80036; stroke-width: 1.0;" x1="244.5" x2="286.5" y1="538.2891" y2="538.2891"/><line style="stroke: #A80036; stroke-width: 1.0;" x1="286.5" x2="286.5" y1="538.2891" y2="551.2891"/><line style="stroke: #A80036; stroke-width: 1.0;" x1="245.5" x2="286.5" y1="551.2891" y2="551.2891"/><polygon fill="#A80036" points="255.5,547.2891,245.5,551.2891,255.5,555.2891,251.5,551.2891" style="stroke: #A80036; stroke-width: 1.0;"/><text fill="#000000" font-family="sans-serif" font-size="13" lengthAdjust="spacingAndGlyphs" textLength="69" x="251.5" y="533.2231">sign layout</text><polygon fill="#A80036" points="420.5,576.4219,430.5,580.4219,420.5,584.4219,424.5,580.4219" style="stroke: #A80036; stroke-width: 1.0;"/><line style="stroke: #A80036; stroke-width: 1.0;" x1="244.5" x2="426.5" y1="580.4219" y2="580.4219"/><text fill="#000000" font-family="sans-serif" font-size="13" lengthAdjust="spacingAndGlyphs" textLength="163" x="251.5" y="575.356">add layout with metadata</text><line style="stroke: #A80036; stroke-width: 1.0;" x1="432.5" x2="474.5" y1="609.5547" y2="609.5547"/><line style="stroke: #A80036; stroke-width: 1.0;" x1="474.5" x2="474.5" y1="609.5547" y2="622.5547"/><line style="stroke: #A80036; stroke-width: 1.0;" x1="433.5" x2="474.5" y1="622.5547" y2="622.5547"/><polygon fill="#A80036" points="443.5,618.5547,433.5,622.5547,443.5,626.5547,439.5,622.5547" style="stroke: #A80036; stroke-width: 1.0;"/><text fill="#000000" font-family="sans-serif" font-size="13" lengthAdjust="spacingAndGlyphs" textLength="189" x="439.5" y="604.4888">replace layout on supplychain</text><polygon fill="#A80036" points="255.5,632.5547,245.5,636.5547,255.5,640.5547,251.5,636.5547" style="stroke: #A80036; stroke-width: 1.0;"/><line style="stroke: #A80036; stroke-width: 1.0; stroke-dasharray: 2.0,2.0;" x1="249.5" x2="431.5" y1="636.5547" y2="636.5547"/><polygon fill="#A80036" points="80.5,646.5547,70.5,650.5547,80.5,654.5547,76.5,650.5547" style="stroke: #A80036; stroke-width: 1.0;"/><line style="stroke: #A80036; stroke-width: 1.0; stroke-dasharray: 2.0,2.0;" x1="74.5" x2="243.5" y1="650.5547" y2="650.5547"/><!--MD5=[9ec410255aad745b35c0e63d9edb0c62]
@startuml

caption Manage a Layout on a Supply Chain

skinparam shadowing<<with_shadow>> true
skinparam backgroundColor #SeaShell

actor personalAccount as account
participant browser as client
participant "Argos Notary" as argos

account -> client: navigate to supplychain
client - -> account: show supplychain

account -> client: manage layout
client -> argos: get layout for supplychain
argos - -> client: layout
client - -> account: show layout

account -> client: change layout
client - -> account: show changed layout

account -> client: sign and submit
client -> account: ask passphrase
account - -> client: passphrase

client -> argos: get private key
argos - -> client: private key

client -> client: decrypt private key

client -> client: sign layout
client -> argos: add layout with metadata

argos -> argos: replace layout on supplychain
argos - -> client
client - -> account

@enduml

PlantUML version 1.2020.11(Sat May 30 12:13:43 CEST 2020)
(GPL source distribution)
Java Runtime: OpenJDK Runtime Environment
JVM: OpenJDK 64-Bit Server VM
Default Encoding: UTF-8
Language: en
Country: US
--></g></svg>