<?xml version="1.0" encoding="UTF-8" standalone="no"?><svg xmlns="http://www.w3.org/2000/svg" xmlns:xlink="http://www.w3.org/1999/xlink" contentScriptType="application/ecmascript" contentStyleType="text/css" height="787px" preserveAspectRatio="none" style="width:636px;height:787px;background:#FFF5EE;" version="1.1" viewBox="0 0 636 787" width="636px" zoomAndPan="magnify"><defs><filter height="300%" id="fzx912bq0fsov" width="300%" x="-1" y="-1"><feGaussianBlur result="blurOut" stdDeviation="2.0"/><feColorMatrix in="blurOut" result="blurOut2" type="matrix" values="0 0 0 0 0 0 0 0 0 0 0 0 0 0 0 0 0 0 .4 0"/><feOffset dx="4.0" dy="4.0" in="blurOut2" result="blurOut3"/><feBlend in="SourceGraphic" in2="blurOut3" mode="normal"/></filter></defs><g><text fill="#000000" font-family="sans-serif" font-size="14" lengthAdjust="spacingAndGlyphs" textLength="306" x="166" y="773.5811">Create a Link object and add to Argos Notary</text><line style="stroke: #A80036; stroke-width: 1.0; stroke-dasharray: 5.0,5.0;" x1="39" x2="39" y1="86.2969" y2="677.2891"/><line style="stroke: #A80036; stroke-width: 1.0; stroke-dasharray: 5.0,5.0;" x1="216.5" x2="216.5" y1="86.2969" y2="677.2891"/><line style="stroke: #A80036; stroke-width: 1.0; stroke-dasharray: 5.0,5.0;" x1="485" x2="485" y1="86.2969" y2="677.2891"/><line style="stroke: #A80036; stroke-width: 1.0; stroke-dasharray: 5.0,5.0;" x1="589" x2="589" y1="86.2969" y2="677.2891"/><text fill="#000000" font-family="sans-serif" font-size="14" lengthAdjust="spacingAndGlyphs" textLength="56" x="8" y="82.9951">account</text><ellipse cx="39" cy="13" fill="#FEFECE" filter="url(#fzx912bq0fsov)" rx="8" ry="8" style="stroke: #A80036; stroke-width: 2.0;"/><path d="M39,21 L39,48 M26,29 L52,29 M39,48 L26,63 M39,48 L52,63 " fill="none" filter="url(#fzx912bq0fsov)" style="stroke: #A80036; stroke-width: 2.0;"/><text fill="#000000" font-family="sans-serif" font-size="14" lengthAdjust="spacingAndGlyphs" textLength="56" x="8" y="689.2842">account</text><ellipse cx="39" cy="702.5859" fill="#FEFECE" filter="url(#fzx912bq0fsov)" rx="8" ry="8" style="stroke: #A80036; stroke-width: 2.0;"/><path d="M39,710.5859 L39,737.5859 M26,718.5859 L52,718.5859 M39,737.5859 L26,752.5859 M39,737.5859 L52,752.5859 " fill="none" filter="url(#fzx912bq0fsov)" style="stroke: #A80036; stroke-width: 2.0;"/><rect fill="#FEFECE" filter="url(#fzx912bq0fsov)" height="30.2969" style="stroke: #A80036; stroke-width: 1.5;" width="51" x="189.5" y="51"/><text fill="#000000" font-family="sans-serif" font-size="14" lengthAdjust="spacingAndGlyphs" textLength="37" x="196.5" y="70.9951">client</text><rect fill="#FEFECE" filter="url(#fzx912bq0fsov)" height="30.2969" style="stroke: #A80036; stroke-width: 1.5;" width="51" x="189.5" y="676.2891"/><text fill="#000000" font-family="sans-serif" font-size="14" lengthAdjust="spacingAndGlyphs" textLength="37" x="196.5" y="696.2842">client</text><rect fill="#FEFECE" filter="url(#fzx912bq0fsov)" height="30.2969" style="stroke: #A80036; stroke-width: 1.5;" width="102" x="432" y="51"/><text fill="#000000" font-family="sans-serif" font-size="14" lengthAdjust="spacingAndGlyphs" textLength="88" x="439" y="70.9951">Argos Notary</text><rect fill="#FEFECE" filter="url(#fzx912bq0fsov)" height="30.2969" style="stroke: #A80036; stroke-width: 1.5;" width="102" x="432" y="676.2891"/><text fill="#000000" font-family="sans-serif" font-size="14" lengthAdjust="spacingAndGlyphs" textLength="88" x="439" y="696.2842">Argos Notary</text><text fill="#000000" font-family="sans-serif" font-size="14" lengthAdjust="spacingAndGlyphs" textLength="76" x="548" y="82.9951">temp store</text><path d="M571,34 C571,24 589,24 589,24 C589,24 607,24 607,34 L607,60 C607,70 589,70 589,70 C589,70 571,70 571,60 L571,34 " fill="#FEFECE" filter="url(#fzx912bq0fsov)" style="stroke: #000000; stroke-width: 1.5;"/><path d="M571,34 C571,44 589,44 589,44 C589,44 607,44 607,34 " fill="none" style="stroke: #000000; stroke-width: 1.5;"/><text fill="#000000" font-family="sans-serif" font-size="14" lengthAdjust="spacingAndGlyphs" textLength="76" x="548" y="689.2842">temp store</text><path d="M571,702.5859 C571,692.5859 589,692.5859 589,692.5859 C589,692.5859 607,692.5859 607,702.5859 L607,728.5859 C607,738.5859 589,738.5859 589,738.5859 C589,738.5859 571,738.5859 571,728.5859 L571,702.5859 " fill="#FEFECE" filter="url(#fzx912bq0fsov)" style="stroke: #000000; stroke-width: 1.5;"/><path d="M571,702.5859 C571,712.5859 589,712.5859 589,712.5859 C589,712.5859 607,712.5859 607,702.5859 " fill="none" style="stroke: #000000; stroke-width: 1.5;"/><polygon fill="#A80036" points="205,113.4297,215,117.4297,205,121.4297,209,117.4297" style="stroke: #A80036; stroke-width: 1.0;"/><line style="stroke: #A80036; stroke-width: 1.0;" x1="39" x2="211" y1="117.4297" y2="117.4297"/><text fill="#000000" font-family="sans-serif" font-size="13" lengthAdjust="spacingAndGlyphs" textLength="154" x="46" y="112.3638">collect material artifacts</text><line style="stroke: #A80036; stroke-width: 1.0;" x1="217" x2="259" y1="146.5625" y2="146.5625"/><line style="stroke: #A80036; stroke-width: 1.0;" x1="259" x2="259" y1="146.5625" y2="159.5625"/><line style="stroke: #A80036; stroke-width: 1.0;" x1="218" x2="259" y1="159.5625" y2="159.5625"/><polygon fill="#A80036" points="228,155.5625,218,159.5625,228,163.5625,224,159.5625" style="stroke: #A80036; stroke-width: 1.0;"/><text fill="#000000" font-family="sans-serif" font-size="13" lengthAdjust="spacingAndGlyphs" textLength="41" x="224" y="141.4966">collect</text><polygon fill="#A80036" points="577,184.6953,587,188.6953,577,192.6953,581,188.6953" style="stroke: #A80036; stroke-width: 1.0;"/><line style="stroke: #A80036; stroke-width: 1.0;" x1="217" x2="583" y1="188.6953" y2="188.6953"/><text fill="#000000" font-family="sans-serif" font-size="13" lengthAdjust="spacingAndGlyphs" textLength="97" x="224" y="183.6294">store materials</text><polygon fill="#A80036" points="228,198.6953,218,202.6953,228,206.6953,224,202.6953" style="stroke: #A80036; stroke-width: 1.0;"/><line style="stroke: #A80036; stroke-width: 1.0; stroke-dasharray: 2.0,2.0;" x1="222" x2="588" y1="202.6953" y2="202.6953"/><polygon fill="#A80036" points="50,212.6953,40,216.6953,50,220.6953,46,216.6953" style="stroke: #A80036; stroke-width: 1.0;"/><line style="stroke: #A80036; stroke-width: 1.0; stroke-dasharray: 2.0,2.0;" x1="44" x2="216" y1="216.6953" y2="216.6953"/><line style="stroke: #A80036; stroke-width: 1.0;" x1="39" x2="81" y1="245.8281" y2="245.8281"/><line style="stroke: #A80036; stroke-width: 1.0;" x1="81" x2="81" y1="245.8281" y2="258.8281"/><line style="stroke: #A80036; stroke-width: 1.0;" x1="40" x2="81" y1="258.8281" y2="258.8281"/><polygon fill="#A80036" points="50,254.8281,40,258.8281,50,262.8281,46,258.8281" style="stroke: #A80036; stroke-width: 1.0;"/><text fill="#000000" font-family="sans-serif" font-size="13" lengthAdjust="spacingAndGlyphs" textLength="71" x="46" y="240.7622">run actions</text><polygon fill="#A80036" points="205,283.9609,215,287.9609,205,291.9609,209,287.9609" style="stroke: #A80036; stroke-width: 1.0;"/><line style="stroke: #A80036; stroke-width: 1.0;" x1="39" x2="211" y1="287.9609" y2="287.9609"/><text fill="#000000" font-family="sans-serif" font-size="13" lengthAdjust="spacingAndGlyphs" textLength="150" x="46" y="282.895">collect product artifacts</text><line style="stroke: #A80036; stroke-width: 1.0;" x1="217" x2="259" y1="317.0938" y2="317.0938"/><line style="stroke: #A80036; stroke-width: 1.0;" x1="259" x2="259" y1="317.0938" y2="330.0938"/><line style="stroke: #A80036; stroke-width: 1.0;" x1="218" x2="259" y1="330.0938" y2="330.0938"/><polygon fill="#A80036" points="228,326.0938,218,330.0938,228,334.0938,224,330.0938" style="stroke: #A80036; stroke-width: 1.0;"/><text fill="#000000" font-family="sans-serif" font-size="13" lengthAdjust="spacingAndGlyphs" textLength="41" x="224" y="312.0278">collect</text><polygon fill="#A80036" points="205,355.2266,215,359.2266,205,363.2266,209,359.2266" style="stroke: #A80036; stroke-width: 1.0;"/><line style="stroke: #A80036; stroke-width: 1.0;" x1="39" x2="211" y1="359.2266" y2="359.2266"/><text fill="#000000" font-family="sans-serif" font-size="13" lengthAdjust="spacingAndGlyphs" textLength="102" x="46" y="354.1606">sign and submit</text><polygon fill="#A80036" points="577,384.3594,587,388.3594,577,392.3594,581,388.3594" style="stroke: #A80036; stroke-width: 1.0;"/><line style="stroke: #A80036; stroke-width: 1.0;" x1="217" x2="583" y1="388.3594" y2="388.3594"/><text fill="#000000" font-family="sans-serif" font-size="13" lengthAdjust="spacingAndGlyphs" textLength="85" x="224" y="383.2935">get materials</text><polygon fill="#A80036" points="228,413.4922,218,417.4922,228,421.4922,224,417.4922" style="stroke: #A80036; stroke-width: 1.0;"/><line style="stroke: #A80036; stroke-width: 1.0; stroke-dasharray: 2.0,2.0;" x1="222" x2="588" y1="417.4922" y2="417.4922"/><text fill="#000000" font-family="sans-serif" font-size="13" lengthAdjust="spacingAndGlyphs" textLength="60" x="234" y="412.4263">materials</text><line style="stroke: #A80036; stroke-width: 1.0;" x1="217" x2="259" y1="446.625" y2="446.625"/><line style="stroke: #A80036; stroke-width: 1.0;" x1="259" x2="259" y1="446.625" y2="459.625"/><line style="stroke: #A80036; stroke-width: 1.0;" x1="218" x2="259" y1="459.625" y2="459.625"/><polygon fill="#A80036" points="228,455.625,218,459.625,228,463.625,224,459.625" style="stroke: #A80036; stroke-width: 1.0;"/><text fill="#000000" font-family="sans-serif" font-size="13" lengthAdjust="spacingAndGlyphs" textLength="109" x="224" y="441.5591">create link object</text><polygon fill="#A80036" points="473,484.7578,483,488.7578,473,492.7578,477,488.7578" style="stroke: #A80036; stroke-width: 1.0;"/><line style="stroke: #A80036; stroke-width: 1.0;" x1="217" x2="479" y1="488.7578" y2="488.7578"/><text fill="#000000" font-family="sans-serif" font-size="13" lengthAdjust="spacingAndGlyphs" textLength="95" x="224" y="483.6919">get private key</text><polygon fill="#A80036" points="228,513.8906,218,517.8906,228,521.8906,224,517.8906" style="stroke: #A80036; stroke-width: 1.0;"/><line style="stroke: #A80036; stroke-width: 1.0; stroke-dasharray: 2.0,2.0;" x1="222" x2="484" y1="517.8906" y2="517.8906"/><text fill="#000000" font-family="sans-serif" font-size="13" lengthAdjust="spacingAndGlyphs" textLength="70" x="234" y="512.8247">private key</text><line style="stroke: #A80036; stroke-width: 1.0;" x1="217" x2="259" y1="547.0234" y2="547.0234"/><line style="stroke: #A80036; stroke-width: 1.0;" x1="259" x2="259" y1="547.0234" y2="560.0234"/><line style="stroke: #A80036; stroke-width: 1.0;" x1="218" x2="259" y1="560.0234" y2="560.0234"/><polygon fill="#A80036" points="228,556.0234,218,560.0234,228,564.0234,224,560.0234" style="stroke: #A80036; stroke-width: 1.0;"/><text fill="#000000" font-family="sans-serif" font-size="13" lengthAdjust="spacingAndGlyphs" textLength="122" x="224" y="541.9575">decrypt private key</text><line style="stroke: #A80036; stroke-width: 1.0;" x1="217" x2="259" y1="589.1563" y2="589.1563"/><line style="stroke: #A80036; stroke-width: 1.0;" x1="259" x2="259" y1="589.1563" y2="602.1563"/><line style="stroke: #A80036; stroke-width: 1.0;" x1="218" x2="259" y1="602.1563" y2="602.1563"/><polygon fill="#A80036" points="228,598.1563,218,602.1563,228,606.1563,224,602.1563" style="stroke: #A80036; stroke-width: 1.0;"/><text fill="#000000" font-family="sans-serif" font-size="13" lengthAdjust="spacingAndGlyphs" textLength="51" x="224" y="584.0903">sign link</text><polygon fill="#A80036" points="473,627.2891,483,631.2891,473,635.2891,477,631.2891" style="stroke: #A80036; stroke-width: 1.0;"/><line style="stroke: #A80036; stroke-width: 1.0;" x1="217" x2="479" y1="631.2891" y2="631.2891"/><text fill="#000000" font-family="sans-serif" font-size="13" lengthAdjust="spacingAndGlyphs" textLength="244" x="224" y="626.2231">add link with metadata on supplychain</text><polygon fill="#A80036" points="228,641.2891,218,645.2891,228,649.2891,224,645.2891" style="stroke: #A80036; stroke-width: 1.0;"/><line style="stroke: #A80036; stroke-width: 1.0; stroke-dasharray: 2.0,2.0;" x1="222" x2="484" y1="645.2891" y2="645.2891"/><polygon fill="#A80036" points="50,655.2891,40,659.2891,50,663.2891,46,659.2891" style="stroke: #A80036; stroke-width: 1.0;"/><line style="stroke: #A80036; stroke-width: 1.0; stroke-dasharray: 2.0,2.0;" x1="44" x2="216" y1="659.2891" y2="659.2891"/><!--MD5=[24053e06f339826d7adcf9bc526fc4eb]
@startuml

caption Create a Link object and add to Argos Notary

skinparam shadowing<<with_shadow>> true
skinparam backgroundColor #SeaShell

actor account
participant client as client
participant "Argos Notary" as argos
database "temp store" as store

account -> client: collect material artifacts
client -> client: collect
client -> store: store materials
store - -> client
client - -> account

account -> account: run actions

account -> client: collect product artifacts
client -> client: collect

account -> client: sign and submit
client -> store: get materials
store - -> client: materials
client -> client: create link object
client -> argos: get private key
argos - -> client: private key
client -> client: decrypt private key
client -> client: sign link

client -> argos: add link with metadata on supplychain
argos - -> client
client - -> account

@enduml

PlantUML version 1.2020.11(Sat May 30 12:13:43 CEST 2020)
(GPL source distribution)
Java Runtime: OpenJDK Runtime Environment
JVM: OpenJDK 64-Bit Server VM
Default Encoding: UTF-8
Language: en
Country: US
--></g></svg>