<?xml version="1.0" encoding="UTF-8" standalone="no"?><svg xmlns="http://www.w3.org/2000/svg" xmlns:xlink="http://www.w3.org/1999/xlink" contentScriptType="application/ecmascript" contentStyleType="text/css" height="711px" preserveAspectRatio="none" style="width:725px;height:711px;background:#FFF5EE;" version="1.1" viewBox="0 0 725 711" width="725px" zoomAndPan="magnify"><defs><filter height="300%" id="f11epeb39zbh1c" width="300%" x="-1" y="-1"><feGaussianBlur result="blurOut" stdDeviation="2.0"/><feColorMatrix in="blurOut" result="blurOut2" type="matrix" values="0 0 0 0 0 0 0 0 0 0 0 0 0 0 0 0 0 0 .4 0"/><feOffset dx="4.0" dy="4.0" in="blurOut2" result="blurOut3"/><feBlend in="SourceGraphic" in2="blurOut3" mode="normal"/></filter></defs><g><text fill="#000000" font-family="sans-serif" font-size="14" lengthAdjust="spacingAndGlyphs" textLength="247" x="238" y="698.3154">Verification request on Argos Notary</text><line style="stroke: #A80036; stroke-width: 1.0; stroke-dasharray: 5.0,5.0;" x1="39" x2="39" y1="86.2969" y2="602.0234"/><line style="stroke: #A80036; stroke-width: 1.0; stroke-dasharray: 5.0,5.0;" x1="234.5" x2="234.5" y1="86.2969" y2="602.0234"/><line style="stroke: #A80036; stroke-width: 1.0; stroke-dasharray: 5.0,5.0;" x1="448" x2="448" y1="86.2969" y2="602.0234"/><text fill="#000000" font-family="sans-serif" font-size="14" lengthAdjust="spacingAndGlyphs" textLength="56" x="8" y="82.9951">account</text><ellipse cx="39" cy="13" fill="#FEFECE" filter="url(#f11epeb39zbh1c)" rx="8" ry="8" style="stroke: #A80036; stroke-width: 2.0;"/><path d="M39,21 L39,48 M26,29 L52,29 M39,48 L26,63 M39,48 L52,63 " fill="none" filter="url(#f11epeb39zbh1c)" style="stroke: #A80036; stroke-width: 2.0;"/><text fill="#000000" font-family="sans-serif" font-size="14" lengthAdjust="spacingAndGlyphs" textLength="56" x="8" y="614.0186">account</text><ellipse cx="39" cy="627.3203" fill="#FEFECE" filter="url(#f11epeb39zbh1c)" rx="8" ry="8" style="stroke: #A80036; stroke-width: 2.0;"/><path d="M39,635.3203 L39,662.3203 M26,643.3203 L52,643.3203 M39,662.3203 L26,677.3203 M39,662.3203 L52,677.3203 " fill="none" filter="url(#f11epeb39zbh1c)" style="stroke: #A80036; stroke-width: 2.0;"/><rect fill="#FEFECE" filter="url(#f11epeb39zbh1c)" height="30.2969" style="stroke: #A80036; stroke-width: 1.5;" width="51" x="207.5" y="51"/><text fill="#000000" font-family="sans-serif" font-size="14" lengthAdjust="spacingAndGlyphs" textLength="37" x="214.5" y="70.9951">client</text><rect fill="#FEFECE" filter="url(#f11epeb39zbh1c)" height="30.2969" style="stroke: #A80036; stroke-width: 1.5;" width="51" x="207.5" y="601.0234"/><text fill="#000000" font-family="sans-serif" font-size="14" lengthAdjust="spacingAndGlyphs" textLength="37" x="214.5" y="621.0186">client</text><rect fill="#FEFECE" filter="url(#f11epeb39zbh1c)" height="30.2969" style="stroke: #A80036; stroke-width: 1.5;" width="102" x="395" y="51"/><text fill="#000000" font-family="sans-serif" font-size="14" lengthAdjust="spacingAndGlyphs" textLength="88" x="402" y="70.9951">Argos Notary</text><rect fill="#FEFECE" filter="url(#f11epeb39zbh1c)" height="30.2969" style="stroke: #A80036; stroke-width: 1.5;" width="102" x="395" y="601.0234"/><text fill="#000000" font-family="sans-serif" font-size="14" lengthAdjust="spacingAndGlyphs" textLength="88" x="402" y="621.0186">Argos Notary</text><polygon fill="#A80036" points="223,113.4297,233,117.4297,223,121.4297,227,117.4297" style="stroke: #A80036; stroke-width: 1.0;"/><line style="stroke: #A80036; stroke-width: 1.0;" x1="39" x2="229" y1="117.4297" y2="117.4297"/><text fill="#000000" font-family="sans-serif" font-size="13" lengthAdjust="spacingAndGlyphs" textLength="172" x="46" y="112.3638">verify deployment package</text><line style="stroke: #A80036; stroke-width: 1.0;" x1="235" x2="277" y1="146.5625" y2="146.5625"/><line style="stroke: #A80036; stroke-width: 1.0;" x1="277" x2="277" y1="146.5625" y2="159.5625"/><line style="stroke: #A80036; stroke-width: 1.0;" x1="236" x2="277" y1="159.5625" y2="159.5625"/><polygon fill="#A80036" points="246,155.5625,236,159.5625,246,163.5625,242,159.5625" style="stroke: #A80036; stroke-width: 1.0;"/><text fill="#000000" font-family="sans-serif" font-size="13" lengthAdjust="spacingAndGlyphs" textLength="97" x="242" y="141.4966">collect artifacts</text><polygon fill="#A80036" points="436,184.6953,446,188.6953,436,192.6953,440,188.6953" style="stroke: #A80036; stroke-width: 1.0;"/><line style="stroke: #A80036; stroke-width: 1.0;" x1="235" x2="442" y1="188.6953" y2="188.6953"/><text fill="#000000" font-family="sans-serif" font-size="13" lengthAdjust="spacingAndGlyphs" textLength="189" x="242" y="183.6294">verify artifacts on supplychain</text><line style="stroke: #A80036; stroke-width: 1.0;" x1="448" x2="490" y1="217.8281" y2="217.8281"/><line style="stroke: #A80036; stroke-width: 1.0;" x1="490" x2="490" y1="217.8281" y2="230.8281"/><line style="stroke: #A80036; stroke-width: 1.0;" x1="449" x2="490" y1="230.8281" y2="230.8281"/><polygon fill="#A80036" points="459,226.8281,449,230.8281,459,234.8281,455,230.8281" style="stroke: #A80036; stroke-width: 1.0;"/><text fill="#000000" font-family="sans-serif" font-size="13" lengthAdjust="spacingAndGlyphs" textLength="64" x="455" y="212.7622">get layout</text><line style="stroke: #A80036; stroke-width: 1.0;" x1="448" x2="490" y1="259.9609" y2="259.9609"/><line style="stroke: #A80036; stroke-width: 1.0;" x1="490" x2="490" y1="259.9609" y2="272.9609"/><line style="stroke: #A80036; stroke-width: 1.0;" x1="449" x2="490" y1="272.9609" y2="272.9609"/><polygon fill="#A80036" points="459,268.9609,449,272.9609,459,276.9609,455,272.9609" style="stroke: #A80036; stroke-width: 1.0;"/><text fill="#000000" font-family="sans-serif" font-size="13" lengthAdjust="spacingAndGlyphs" textLength="77" x="455" y="254.895">verify layout</text><line style="stroke: #A80036; stroke-width: 1.0;" x1="448" x2="490" y1="302.0938" y2="302.0938"/><line style="stroke: #A80036; stroke-width: 1.0;" x1="490" x2="490" y1="302.0938" y2="315.0938"/><line style="stroke: #A80036; stroke-width: 1.0;" x1="449" x2="490" y1="315.0938" y2="315.0938"/><polygon fill="#A80036" points="459,311.0938,449,315.0938,459,319.0938,455,315.0938" style="stroke: #A80036; stroke-width: 1.0;"/><text fill="#000000" font-family="sans-serif" font-size="13" lengthAdjust="spacingAndGlyphs" textLength="229" x="455" y="297.0278">get links with expected endproducts</text><line style="stroke: #A80036; stroke-width: 1.0;" x1="448" x2="490" y1="344.2266" y2="344.2266"/><line style="stroke: #A80036; stroke-width: 1.0;" x1="490" x2="490" y1="344.2266" y2="357.2266"/><line style="stroke: #A80036; stroke-width: 1.0;" x1="449" x2="490" y1="357.2266" y2="357.2266"/><polygon fill="#A80036" points="459,353.2266,449,357.2266,459,361.2266,455,357.2266" style="stroke: #A80036; stroke-width: 1.0;"/><text fill="#000000" font-family="sans-serif" font-size="13" lengthAdjust="spacingAndGlyphs" textLength="258" x="455" y="339.1606">get all links with run id's and match rules</text><line style="stroke: #A80036; stroke-width: 1.0;" x1="448" x2="490" y1="386.3594" y2="386.3594"/><line style="stroke: #A80036; stroke-width: 1.0;" x1="490" x2="490" y1="386.3594" y2="399.3594"/><line style="stroke: #A80036; stroke-width: 1.0;" x1="449" x2="490" y1="399.3594" y2="399.3594"/><polygon fill="#A80036" points="459,395.3594,449,399.3594,459,403.3594,455,399.3594" style="stroke: #A80036; stroke-width: 1.0;"/><text fill="#000000" font-family="sans-serif" font-size="13" lengthAdjust="spacingAndGlyphs" textLength="66" x="455" y="381.2935">verify links</text><line style="stroke: #A80036; stroke-width: 1.0;" x1="448" x2="490" y1="428.4922" y2="428.4922"/><line style="stroke: #A80036; stroke-width: 1.0;" x1="490" x2="490" y1="428.4922" y2="441.4922"/><line style="stroke: #A80036; stroke-width: 1.0;" x1="449" x2="490" y1="441.4922" y2="441.4922"/><polygon fill="#A80036" points="459,437.4922,449,441.4922,459,445.4922,455,441.4922" style="stroke: #A80036; stroke-width: 1.0;"/><text fill="#000000" font-family="sans-serif" font-size="13" lengthAdjust="spacingAndGlyphs" textLength="195" x="455" y="423.4263">permutate in possible link sets</text><line style="stroke: #A80036; stroke-width: 1.0;" x1="448" x2="490" y1="470.625" y2="470.625"/><line style="stroke: #A80036; stroke-width: 1.0;" x1="490" x2="490" y1="470.625" y2="483.625"/><line style="stroke: #A80036; stroke-width: 1.0;" x1="449" x2="490" y1="483.625" y2="483.625"/><polygon fill="#A80036" points="459,479.625,449,483.625,459,487.625,455,483.625" style="stroke: #A80036; stroke-width: 1.0;"/><text fill="#000000" font-family="sans-serif" font-size="13" lengthAdjust="spacingAndGlyphs" textLength="193" x="455" y="465.5591">verify number of links per step</text><line style="stroke: #A80036; stroke-width: 1.0;" x1="448" x2="490" y1="512.7578" y2="512.7578"/><line style="stroke: #A80036; stroke-width: 1.0;" x1="490" x2="490" y1="512.7578" y2="525.7578"/><line style="stroke: #A80036; stroke-width: 1.0;" x1="449" x2="490" y1="525.7578" y2="525.7578"/><polygon fill="#A80036" points="459,521.7578,449,525.7578,459,529.7578,455,525.7578" style="stroke: #A80036; stroke-width: 1.0;"/><text fill="#000000" font-family="sans-serif" font-size="13" lengthAdjust="spacingAndGlyphs" textLength="69" x="455" y="507.6919">verify rules</text><polygon fill="#A80036" points="246,550.8906,236,554.8906,246,558.8906,242,554.8906" style="stroke: #A80036; stroke-width: 1.0;"/><line style="stroke: #A80036; stroke-width: 1.0; stroke-dasharray: 2.0,2.0;" x1="240" x2="447" y1="554.8906" y2="554.8906"/><text fill="#000000" font-family="sans-serif" font-size="13" lengthAdjust="spacingAndGlyphs" textLength="79" x="252" y="549.8247">report result</text><polygon fill="#A80036" points="50,580.0234,40,584.0234,50,588.0234,46,584.0234" style="stroke: #A80036; stroke-width: 1.0;"/><line style="stroke: #A80036; stroke-width: 1.0; stroke-dasharray: 2.0,2.0;" x1="44" x2="234" y1="584.0234" y2="584.0234"/><text fill="#000000" font-family="sans-serif" font-size="13" lengthAdjust="spacingAndGlyphs" textLength="79" x="56" y="578.9575">report result</text><!--MD5=[5285ca1ab6c75063e58f4dfea88e6ad7]
@startuml

caption Verification request on Argos Notary

skinparam shadowing<<with_shadow>> true
skinparam backgroundColor #SeaShell

actor account
participant client as client
participant "Argos Notary" as argos

account -> client: verify deployment package
client -> client: collect artifacts

client -> argos: verify artifacts on supplychain
argos -> argos: get layout
argos -> argos: verify layout
argos -> argos: get links with expected endproducts
argos -> argos: get all links with run id's and match rules
argos -> argos: verify links
argos -> argos: permutate in possible link sets
argos -> argos: verify number of links per step
argos -> argos: verify rules
argos - -> client: report result
client - -> account: report result

@enduml

PlantUML version 1.2020.10(Sun May 17 11:35:57 CEST 2020)
(GPL source distribution)
Java Runtime: OpenJDK Runtime Environment
JVM: OpenJDK 64-Bit Server VM
Java Version: 1.8.0_252-8u252-b09-1~18.04-b09
Operating System: Linux
Default Encoding: UTF-8
Language: en
Country: US
--></g></svg>