<?xml version="1.0" encoding="UTF-8" standalone="no"?><svg xmlns="http://www.w3.org/2000/svg" xmlns:xlink="http://www.w3.org/1999/xlink" contentScriptType="application/ecmascript" contentStyleType="text/css" height="816px" preserveAspectRatio="none" style="width:758px;height:816px;background:#FFF5EE;" version="1.1" viewBox="0 0 758 816" width="758px" zoomAndPan="magnify"><defs><filter height="300%" id="f5aum7j69tyb5" width="300%" x="-1" y="-1"><feGaussianBlur result="blurOut" stdDeviation="2.0"/><feColorMatrix in="blurOut" result="blurOut2" type="matrix" values="0 0 0 0 0 0 0 0 0 0 0 0 0 0 0 0 0 0 .4 0"/><feOffset dx="4.0" dy="4.0" in="blurOut2" result="blurOut3"/><feBlend in="SourceGraphic" in2="blurOut3" mode="normal"/></filter></defs><g><text fill="#000000" font-family="sans-serif" font-size="14" lengthAdjust="spacingAndGlyphs" textLength="228" x="262" y="802.7139">Release request on Argos Notary</text><rect fill="#FFF5EE" filter="url(#f5aum7j69tyb5)" height="59.2656" style="stroke: #000000; stroke-width: 2.0;" width="315" x="180.5" y="132.4297"/><rect fill="#FFF5EE" filter="url(#f5aum7j69tyb5)" height="354.1953" style="stroke: #000000; stroke-width: 2.0;" width="340" x="399" y="234.8281"/><line style="stroke: #A80036; stroke-width: 1.0; stroke-dasharray: 5.0,5.0;" x1="39" x2="39" y1="86.2969" y2="706.4219"/><line style="stroke: #A80036; stroke-width: 1.0; stroke-dasharray: 5.0,5.0;" x1="217.5" x2="217.5" y1="86.2969" y2="706.4219"/><line style="stroke: #A80036; stroke-width: 1.0; stroke-dasharray: 5.0,5.0;" x1="462" x2="462" y1="86.2969" y2="706.4219"/><text fill="#000000" font-family="sans-serif" font-size="14" lengthAdjust="spacingAndGlyphs" textLength="56" x="8" y="82.9951">account</text><ellipse cx="39" cy="13" fill="#FEFECE" filter="url(#f5aum7j69tyb5)" rx="8" ry="8" style="stroke: #A80036; stroke-width: 2.0;"/><path d="M39,21 L39,48 M26,29 L52,29 M39,48 L26,63 M39,48 L52,63 " fill="none" filter="url(#f5aum7j69tyb5)" style="stroke: #A80036; stroke-width: 2.0;"/><text fill="#000000" font-family="sans-serif" font-size="14" lengthAdjust="spacingAndGlyphs" textLength="56" x="8" y="718.417">account</text><ellipse cx="39" cy="731.7188" fill="#FEFECE" filter="url(#f5aum7j69tyb5)" rx="8" ry="8" style="stroke: #A80036; stroke-width: 2.0;"/><path d="M39,739.7188 L39,766.7188 M26,747.7188 L52,747.7188 M39,766.7188 L26,781.7188 M39,766.7188 L52,781.7188 " fill="none" filter="url(#f5aum7j69tyb5)" style="stroke: #A80036; stroke-width: 2.0;"/><rect fill="#FEFECE" filter="url(#f5aum7j69tyb5)" height="30.2969" style="stroke: #A80036; stroke-width: 1.5;" width="51" x="190.5" y="51"/><text fill="#000000" font-family="sans-serif" font-size="14" lengthAdjust="spacingAndGlyphs" textLength="37" x="197.5" y="70.9951">client</text><rect fill="#FEFECE" filter="url(#f5aum7j69tyb5)" height="30.2969" style="stroke: #A80036; stroke-width: 1.5;" width="51" x="190.5" y="705.4219"/><text fill="#000000" font-family="sans-serif" font-size="14" lengthAdjust="spacingAndGlyphs" textLength="37" x="197.5" y="725.417">client</text><rect fill="#FEFECE" filter="url(#f5aum7j69tyb5)" height="30.2969" style="stroke: #A80036; stroke-width: 1.5;" width="102" x="409" y="51"/><text fill="#000000" font-family="sans-serif" font-size="14" lengthAdjust="spacingAndGlyphs" textLength="88" x="416" y="70.9951">Argos Notary</text><rect fill="#FEFECE" filter="url(#f5aum7j69tyb5)" height="30.2969" style="stroke: #A80036; stroke-width: 1.5;" width="102" x="409" y="705.4219"/><text fill="#000000" font-family="sans-serif" font-size="14" lengthAdjust="spacingAndGlyphs" textLength="88" x="416" y="725.417">Argos Notary</text><polygon fill="#A80036" points="206,113.4297,216,117.4297,206,121.4297,210,117.4297" style="stroke: #A80036; stroke-width: 1.0;"/><line style="stroke: #A80036; stroke-width: 1.0;" x1="39" x2="212" y1="117.4297" y2="117.4297"/><text fill="#000000" font-family="sans-serif" font-size="13" lengthAdjust="spacingAndGlyphs" textLength="155" x="46" y="112.3638">release deployable units</text><path d="M180.5,132.4297 L257.5,132.4297 L257.5,139.4297 L247.5,149.4297 L180.5,149.4297 L180.5,132.4297 " fill="#EEEEEE" style="stroke: #000000; stroke-width: 1.0;"/><rect fill="none" height="59.2656" style="stroke: #000000; stroke-width: 2.0;" width="315" x="180.5" y="132.4297"/><text fill="#000000" font-family="sans-serif" font-size="13" font-weight="bold" lengthAdjust="spacingAndGlyphs" textLength="32" x="195.5" y="145.4966">loop</text><text fill="#000000" font-family="sans-serif" font-size="11" font-weight="bold" lengthAdjust="spacingAndGlyphs" textLength="218" x="272.5" y="144.6401">[number of deployable unit times]</text><line style="stroke: #A80036; stroke-width: 1.0;" x1="218" x2="260" y1="170.6953" y2="170.6953"/><line style="stroke: #A80036; stroke-width: 1.0;" x1="260" x2="260" y1="170.6953" y2="183.6953"/><line style="stroke: #A80036; stroke-width: 1.0;" x1="219" x2="260" y1="183.6953" y2="183.6953"/><polygon fill="#A80036" points="229,179.6953,219,183.6953,229,187.6953,225,183.6953" style="stroke: #A80036; stroke-width: 1.0;"/><text fill="#000000" font-family="sans-serif" font-size="13" lengthAdjust="spacingAndGlyphs" textLength="230" x="225" y="165.6294">collect artifact set in deployable unit</text><polygon fill="#A80036" points="450,215.8281,460,219.8281,450,223.8281,454,219.8281" style="stroke: #A80036; stroke-width: 1.0;"/><line style="stroke: #A80036; stroke-width: 1.0;" x1="218" x2="456" y1="219.8281" y2="219.8281"/><text fill="#000000" font-family="sans-serif" font-size="13" lengthAdjust="spacingAndGlyphs" textLength="202" x="225" y="214.7622">release artifacts on supplychain</text><path d="M399,234.8281 L476,234.8281 L476,241.8281 L466,251.8281 L399,251.8281 L399,234.8281 " fill="#EEEEEE" style="stroke: #000000; stroke-width: 1.0;"/><rect fill="none" height="354.1953" style="stroke: #000000; stroke-width: 2.0;" width="340" x="399" y="234.8281"/><text fill="#000000" font-family="sans-serif" font-size="13" font-weight="bold" lengthAdjust="spacingAndGlyphs" textLength="32" x="414" y="247.895">loop</text><text fill="#000000" font-family="sans-serif" font-size="11" font-weight="bold" lengthAdjust="spacingAndGlyphs" textLength="218" x="491" y="247.0386">[number of deployable unit times]</text><line style="stroke: #A80036; stroke-width: 1.0;" x1="462" x2="504" y1="273.0938" y2="273.0938"/><line style="stroke: #A80036; stroke-width: 1.0;" x1="504" x2="504" y1="273.0938" y2="286.0938"/><line style="stroke: #A80036; stroke-width: 1.0;" x1="463" x2="504" y1="286.0938" y2="286.0938"/><polygon fill="#A80036" points="473,282.0938,463,286.0938,473,290.0938,469,286.0938" style="stroke: #A80036; stroke-width: 1.0;"/><text fill="#000000" font-family="sans-serif" font-size="13" lengthAdjust="spacingAndGlyphs" textLength="64" x="469" y="268.0278">get layout</text><line style="stroke: #A80036; stroke-width: 1.0;" x1="462" x2="504" y1="315.2266" y2="315.2266"/><line style="stroke: #A80036; stroke-width: 1.0;" x1="504" x2="504" y1="315.2266" y2="328.2266"/><line style="stroke: #A80036; stroke-width: 1.0;" x1="463" x2="504" y1="328.2266" y2="328.2266"/><polygon fill="#A80036" points="473,324.2266,463,328.2266,473,332.2266,469,328.2266" style="stroke: #A80036; stroke-width: 1.0;"/><text fill="#000000" font-family="sans-serif" font-size="13" lengthAdjust="spacingAndGlyphs" textLength="77" x="469" y="310.1606">verify layout</text><line style="stroke: #A80036; stroke-width: 1.0;" x1="462" x2="504" y1="357.3594" y2="357.3594"/><line style="stroke: #A80036; stroke-width: 1.0;" x1="504" x2="504" y1="357.3594" y2="370.3594"/><line style="stroke: #A80036; stroke-width: 1.0;" x1="463" x2="504" y1="370.3594" y2="370.3594"/><polygon fill="#A80036" points="473,366.3594,463,370.3594,473,374.3594,469,370.3594" style="stroke: #A80036; stroke-width: 1.0;"/><text fill="#000000" font-family="sans-serif" font-size="13" lengthAdjust="spacingAndGlyphs" textLength="229" x="469" y="352.2935">get links with expected endproducts</text><line style="stroke: #A80036; stroke-width: 1.0;" x1="462" x2="504" y1="399.4922" y2="399.4922"/><line style="stroke: #A80036; stroke-width: 1.0;" x1="504" x2="504" y1="399.4922" y2="412.4922"/><line style="stroke: #A80036; stroke-width: 1.0;" x1="463" x2="504" y1="412.4922" y2="412.4922"/><polygon fill="#A80036" points="473,408.4922,463,412.4922,473,416.4922,469,412.4922" style="stroke: #A80036; stroke-width: 1.0;"/><text fill="#000000" font-family="sans-serif" font-size="13" lengthAdjust="spacingAndGlyphs" textLength="258" x="469" y="394.4263">get all links with run id's and match rules</text><line style="stroke: #A80036; stroke-width: 1.0;" x1="462" x2="504" y1="441.625" y2="441.625"/><line style="stroke: #A80036; stroke-width: 1.0;" x1="504" x2="504" y1="441.625" y2="454.625"/><line style="stroke: #A80036; stroke-width: 1.0;" x1="463" x2="504" y1="454.625" y2="454.625"/><polygon fill="#A80036" points="473,450.625,463,454.625,473,458.625,469,454.625" style="stroke: #A80036; stroke-width: 1.0;"/><text fill="#000000" font-family="sans-serif" font-size="13" lengthAdjust="spacingAndGlyphs" textLength="66" x="469" y="436.5591">verify links</text><line style="stroke: #A80036; stroke-width: 1.0;" x1="462" x2="504" y1="483.7578" y2="483.7578"/><line style="stroke: #A80036; stroke-width: 1.0;" x1="504" x2="504" y1="483.7578" y2="496.7578"/><line style="stroke: #A80036; stroke-width: 1.0;" x1="463" x2="504" y1="496.7578" y2="496.7578"/><polygon fill="#A80036" points="473,492.7578,463,496.7578,473,500.7578,469,496.7578" style="stroke: #A80036; stroke-width: 1.0;"/><text fill="#000000" font-family="sans-serif" font-size="13" lengthAdjust="spacingAndGlyphs" textLength="195" x="469" y="478.6919">permutate in possible link sets</text><line style="stroke: #A80036; stroke-width: 1.0;" x1="462" x2="504" y1="525.8906" y2="525.8906"/><line style="stroke: #A80036; stroke-width: 1.0;" x1="504" x2="504" y1="525.8906" y2="538.8906"/><line style="stroke: #A80036; stroke-width: 1.0;" x1="463" x2="504" y1="538.8906" y2="538.8906"/><polygon fill="#A80036" points="473,534.8906,463,538.8906,473,542.8906,469,538.8906" style="stroke: #A80036; stroke-width: 1.0;"/><text fill="#000000" font-family="sans-serif" font-size="13" lengthAdjust="spacingAndGlyphs" textLength="193" x="469" y="520.8247">verify number of links per step</text><line style="stroke: #A80036; stroke-width: 1.0;" x1="462" x2="504" y1="568.0234" y2="568.0234"/><line style="stroke: #A80036; stroke-width: 1.0;" x1="504" x2="504" y1="568.0234" y2="581.0234"/><line style="stroke: #A80036; stroke-width: 1.0;" x1="463" x2="504" y1="581.0234" y2="581.0234"/><polygon fill="#A80036" points="473,577.0234,463,581.0234,473,585.0234,469,581.0234" style="stroke: #A80036; stroke-width: 1.0;"/><text fill="#000000" font-family="sans-serif" font-size="13" lengthAdjust="spacingAndGlyphs" textLength="69" x="469" y="562.9575">verify rules</text><line style="stroke: #A80036; stroke-width: 1.0; stroke-dasharray: 2.0,2.0;" x1="462" x2="504" y1="617.1563" y2="617.1563"/><line style="stroke: #A80036; stroke-width: 1.0; stroke-dasharray: 2.0,2.0;" x1="504" x2="504" y1="617.1563" y2="630.1563"/><line style="stroke: #A80036; stroke-width: 1.0; stroke-dasharray: 2.0,2.0;" x1="463" x2="504" y1="630.1563" y2="630.1563"/><polygon fill="#A80036" points="473,626.1563,463,630.1563,473,634.1563,469,630.1563" style="stroke: #A80036; stroke-width: 1.0;"/><text fill="#000000" font-family="sans-serif" font-size="13" lengthAdjust="spacingAndGlyphs" textLength="207" x="469" y="612.0903">create and store release dossier</text><polygon fill="#A80036" points="229,655.2891,219,659.2891,229,663.2891,225,659.2891" style="stroke: #A80036; stroke-width: 1.0;"/><line style="stroke: #A80036; stroke-width: 1.0; stroke-dasharray: 2.0,2.0;" x1="223" x2="461" y1="659.2891" y2="659.2891"/><text fill="#000000" font-family="sans-serif" font-size="13" lengthAdjust="spacingAndGlyphs" textLength="79" x="235" y="654.2231">report result</text><polygon fill="#A80036" points="50,684.4219,40,688.4219,50,692.4219,46,688.4219" style="stroke: #A80036; stroke-width: 1.0;"/><line style="stroke: #A80036; stroke-width: 1.0; stroke-dasharray: 2.0,2.0;" x1="44" x2="217" y1="688.4219" y2="688.4219"/><text fill="#000000" font-family="sans-serif" font-size="13" lengthAdjust="spacingAndGlyphs" textLength="79" x="56" y="683.356">report result</text><!--MD5=[3f7895c7bd8860dfba02de1426088f42]
@startuml

caption Release request on Argos Notary

skinparam shadowing<<with_shadow>> true
skinparam backgroundColor #SeaShell

actor account
participant client as client
participant "Argos Notary" as argos

account -> client: release deployable units
loop number of deployable unit times
   client -> client: collect artifact set in deployable unit
end
client -> argos: release artifacts on supplychain
loop number of deployable unit times
    argos -> argos: get layout
    argos -> argos: verify layout
    argos -> argos: get links with expected endproducts
    argos -> argos: get all links with run id's and match rules
    argos -> argos: verify links
    argos -> argos: permutate in possible link sets
    argos -> argos: verify number of links per step
    argos -> argos: verify rules
end
argos - -> argos: create and store release dossier
argos - -> client: report result
client - -> account: report result
@enduml

PlantUML version 1.2020.15(Sun Jun 28 13:39:45 CEST 2020)
(GPL source distribution)
Java Runtime: OpenJDK Runtime Environment
JVM: OpenJDK 64-Bit Server VM
Default Encoding: UTF-8
Language: en
Country: US
--></g></svg>