<?xml version="1.0" encoding="UTF-8" standalone="no"?><svg xmlns="http://www.w3.org/2000/svg" xmlns:xlink="http://www.w3.org/1999/xlink" contentScriptType="application/ecmascript" contentStyleType="text/css" height="289px" preserveAspectRatio="none" style="width:382px;height:289px;background:#FFF5EE;" version="1.1" viewBox="0 0 382 289" width="382px" zoomAndPan="magnify"><defs><filter height="300%" id="fw60ayuj70e1i" width="300%" x="-1" y="-1"><feGaussianBlur result="blurOut" stdDeviation="2.0"/><feColorMatrix in="blurOut" result="blurOut2" type="matrix" values="0 0 0 0 0 0 0 0 0 0 0 0 0 0 0 0 0 0 .4 0"/><feOffset dx="4.0" dy="4.0" in="blurOut2" result="blurOut3"/><feBlend in="SourceGraphic" in2="blurOut3" mode="normal"/></filter></defs><g><!--MD5=[d189332174d53557e6def82bbd003869]
class Link--><rect fill="#FEFECE" filter="url(#fw60ayuj70e1i)" height="60.8047" id="Link" style="stroke: #A80036; stroke-width: 1.5;" width="56" x="46.8986" y="38.5375"/><ellipse cx="61.8986" cy="54.5375" fill="#ADD1B2" rx="11" ry="11" style="stroke: #A80036; stroke-width: 1.0;"/><path d="M64.8674,60.1781 Q64.2892,60.475 63.6486,60.6156 Q63.008,60.7719 62.3049,60.7719 Q59.8049,60.7719 58.4767,59.1312 Q57.1642,57.475 57.1642,54.35 Q57.1642,51.225 58.4767,49.5687 Q59.8049,47.9125 62.3049,47.9125 Q63.008,47.9125 63.6486,48.0687 Q64.3049,48.225 64.8674,48.5219 L64.8674,51.2406 Q64.2424,50.6625 63.6486,50.3969 Q63.0549,50.1156 62.4299,50.1156 Q61.0861,50.1156 60.3986,51.1937 Q59.7111,52.2562 59.7111,54.35 Q59.7111,56.4437 60.3986,57.5219 Q61.0861,58.5844 62.4299,58.5844 Q63.0549,58.5844 63.6486,58.3187 Q64.2424,58.0375 64.8674,57.4594 L64.8674,60.1781 Z "/><text fill="#000000" font-family="sans-serif" font-size="12" lengthAdjust="spacingAndGlyphs" textLength="24" x="75.8986" y="58.6918">Link</text><line style="stroke: #A80036; stroke-width: 1.5;" x1="47.8986" x2="101.8986" y1="70.5375" y2="70.5375"/><text fill="#000000" font-family="sans-serif" font-size="11" lengthAdjust="spacingAndGlyphs" textLength="29" x="52.8986" y="84.7479">runId</text><line style="stroke: #A80036; stroke-width: 1.5;" x1="47.8986" x2="101.8986" y1="91.3422" y2="91.3422"/><!--MD5=[00cff116ff6c3ad2c4e5e0dddbe6ceff]
class Artifact--><rect fill="#FEFECE" filter="url(#fw60ayuj70e1i)" height="73.6094" id="Artifact" style="stroke: #A80036; stroke-width: 1.5;" width="77" x="36.3986" y="176.5375"/><ellipse cx="51.3986" cy="192.5375" fill="#ADD1B2" rx="11" ry="11" style="stroke: #A80036; stroke-width: 1.0;"/><path d="M54.3674,198.1781 Q53.7892,198.475 53.1486,198.6156 Q52.508,198.7719 51.8049,198.7719 Q49.3049,198.7719 47.9767,197.1313 Q46.6642,195.475 46.6642,192.35 Q46.6642,189.225 47.9767,187.5688 Q49.3049,185.9125 51.8049,185.9125 Q52.508,185.9125 53.1486,186.0688 Q53.8049,186.225 54.3674,186.5219 L54.3674,189.2406 Q53.7424,188.6625 53.1486,188.3969 Q52.5549,188.1156 51.9299,188.1156 Q50.5861,188.1156 49.8986,189.1938 Q49.2111,190.2563 49.2111,192.35 Q49.2111,194.4438 49.8986,195.5219 Q50.5861,196.5844 51.9299,196.5844 Q52.5549,196.5844 53.1486,196.3188 Q53.7424,196.0375 54.3674,195.4594 L54.3674,198.1781 Z "/><text fill="#000000" font-family="sans-serif" font-size="12" lengthAdjust="spacingAndGlyphs" textLength="45" x="65.3986" y="196.6918">Artifact</text><line style="stroke: #A80036; stroke-width: 1.5;" x1="37.3986" x2="112.3986" y1="208.5375" y2="208.5375"/><text fill="#000000" font-family="sans-serif" font-size="11" lengthAdjust="spacingAndGlyphs" textLength="15" x="42.3986" y="222.7479">uri</text><text fill="#000000" font-family="sans-serif" font-size="11" lengthAdjust="spacingAndGlyphs" textLength="28" x="42.3986" y="235.5526">hash</text><line style="stroke: #A80036; stroke-width: 1.5;" x1="37.3986" x2="112.3986" y1="242.1469" y2="242.1469"/><!--MD5=[a538883d7f0f7706ce941341ae97cf4d]
class LayoutSegment--><rect fill="#FEFECE" filter="url(#fw60ayuj70e1i)" height="48" id="LayoutSegment" style="stroke: #A80036; stroke-width: 1.5;" width="129" x="138.3986" y="45.0375"/><ellipse cx="153.3986" cy="61.0375" fill="#ADD1B2" rx="11" ry="11" style="stroke: #A80036; stroke-width: 1.0;"/><path d="M156.3674,66.6781 Q155.7892,66.975 155.1486,67.1156 Q154.508,67.2719 153.8049,67.2719 Q151.3049,67.2719 149.9767,65.6313 Q148.6642,63.975 148.6642,60.85 Q148.6642,57.725 149.9767,56.0687 Q151.3049,54.4125 153.8049,54.4125 Q154.508,54.4125 155.1486,54.5687 Q155.8049,54.725 156.3674,55.0219 L156.3674,57.7406 Q155.7424,57.1625 155.1486,56.8969 Q154.5549,56.6156 153.9299,56.6156 Q152.5861,56.6156 151.8986,57.6937 Q151.2111,58.7562 151.2111,60.85 Q151.2111,62.9437 151.8986,64.0219 Q152.5861,65.0844 153.9299,65.0844 Q154.5549,65.0844 155.1486,64.8188 Q155.7424,64.5375 156.3674,63.9594 L156.3674,66.6781 Z "/><text fill="#000000" font-family="sans-serif" font-size="12" lengthAdjust="spacingAndGlyphs" textLength="97" x="167.3986" y="65.1918">LayoutSegment</text><line style="stroke: #A80036; stroke-width: 1.5;" x1="139.3986" x2="266.3986" y1="77.0375" y2="77.0375"/><line style="stroke: #A80036; stroke-width: 1.5;" x1="139.3986" x2="266.3986" y1="85.0375" y2="85.0375"/><!--MD5=[5a2ba6e4c7f78036fecb159f353da9e9]
class Step--><rect fill="#FEFECE" filter="url(#fw60ayuj70e1i)" height="48" id="Step" style="stroke: #A80036; stroke-width: 1.5;" width="61" x="302.3986" y="45.0375"/><ellipse cx="317.3986" cy="61.0375" fill="#ADD1B2" rx="11" ry="11" style="stroke: #A80036; stroke-width: 1.0;"/><path d="M320.3674,66.6781 Q319.7892,66.975 319.1486,67.1156 Q318.508,67.2719 317.8049,67.2719 Q315.3049,67.2719 313.9767,65.6313 Q312.6642,63.975 312.6642,60.85 Q312.6642,57.725 313.9767,56.0687 Q315.3049,54.4125 317.8049,54.4125 Q318.508,54.4125 319.1486,54.5687 Q319.8049,54.725 320.3674,55.0219 L320.3674,57.7406 Q319.7424,57.1625 319.1486,56.8969 Q318.5549,56.6156 317.9299,56.6156 Q316.5861,56.6156 315.8986,57.6937 Q315.2111,58.7562 315.2111,60.85 Q315.2111,62.9437 315.8986,64.0219 Q316.5861,65.0844 317.9299,65.0844 Q318.5549,65.0844 319.1486,64.8188 Q319.7424,64.5375 320.3674,63.9594 L320.3674,66.6781 Z "/><text fill="#000000" font-family="sans-serif" font-size="12" lengthAdjust="spacingAndGlyphs" textLength="29" x="331.3986" y="65.1918">Step</text><line style="stroke: #A80036; stroke-width: 1.5;" x1="303.3986" x2="362.3986" y1="77.0375" y2="77.0375"/><line style="stroke: #A80036; stroke-width: 1.5;" x1="303.3986" x2="362.3986" y1="85.0375" y2="85.0375"/><!--MD5=[edee868d0827e6f463eb67775695443c]
link LayoutSegment to Step--><path d="M267.6447,69.0375 C279.2001,69.0375 290.7555,69.0375 302.3109,69.0375 " fill="none" id="LayoutSegment-Step" style="stroke: #A80036; stroke-width: 1.0;"/><text fill="#000000" font-family="sans-serif" font-size="13" lengthAdjust="spacingAndGlyphs" textLength="8" x="275.5935" y="65.2449">1</text><text fill="#000000" font-family="sans-serif" font-size="13" lengthAdjust="spacingAndGlyphs" textLength="8" x="286.3125" y="64.3854">1</text><!--MD5=[575f6921bd0933d36fe15cc930ba6053]
link Link to LayoutSegment--><path d="M102.8986,69.0375 C112.8779,69.0375 122.8571,69.0375 132.8364,69.0375 " fill="none" id="Link-&gt;LayoutSegment" style="stroke: #A80036; stroke-width: 1.0;"/><polygon fill="#A80036" points="138.0549,69.0375,129.0549,65.0375,133.0549,69.0375,129.0549,73.0375,138.0549,69.0375" style="stroke: #A80036; stroke-width: 1.0;"/><text fill="#000000" font-family="sans-serif" font-size="13" lengthAdjust="spacingAndGlyphs" textLength="8" x="111.0986" y="64.2246">1</text><text fill="#000000" font-family="sans-serif" font-size="13" lengthAdjust="spacingAndGlyphs" textLength="8" x="122.5251" y="65.2913">1</text><!--MD5=[6e0fe58ea72936dc6d42cc7ca277c4f1]
link Link to Step--><path d="M103.1459,43.0818 C113.4733,35.2237 125.7447,27.603 138.3986,23.5375 C192.9839,6 212.6868,6.3992 267.3986,23.5375 C279.763,27.4106 291.8401,34.5318 302.1878,42.009 " fill="none" id="Link-&gt;Step" style="stroke: #A80036; stroke-width: 1.0;"/><polygon fill="#A80036" points="306.2138,44.9987,301.3731,36.4215,302.1996,42.0177,296.6035,42.8442,306.2138,44.9987" style="stroke: #A80036; stroke-width: 1.0;"/><text fill="#000000" font-family="sans-serif" font-size="13" lengthAdjust="spacingAndGlyphs" textLength="8" x="111.0062" y="32.0339">1</text><text fill="#000000" font-family="sans-serif" font-size="13" lengthAdjust="spacingAndGlyphs" textLength="8" x="290.3508" y="34.0008">1</text><!--MD5=[6f7d5829cf0f0de2745085b8c655a37b]
link Link to Artifact--><path d="M46.618,89.3347 C29.8862,104.0408 13.3145,125.0417 20.8986,146.5375 C24.0441,155.4529 28.9342,164.0546 34.5141,171.9529 " fill="none" id="Link-&gt;Artifact" style="stroke: #A80036; stroke-width: 1.0;"/><polygon fill="#A80036" points="37.6783,176.2661,35.5796,166.6435,34.7206,172.2347,29.1294,171.3757,37.6783,176.2661" style="stroke: #A80036; stroke-width: 1.0;"/><text fill="#000000" font-family="sans-serif" font-size="13" lengthAdjust="spacingAndGlyphs" textLength="60" x="21.8986" y="142.6044">materials</text><text fill="#000000" font-family="sans-serif" font-size="13" lengthAdjust="spacingAndGlyphs" textLength="8" x="30.7496" y="89.5609">1</text><text fill="#000000" font-family="sans-serif" font-size="13" lengthAdjust="spacingAndGlyphs" textLength="23" x="6" y="165.4047">0..*</text><!--MD5=[6f7d5829cf0f0de2745085b8c655a37b]
link Link to Artifact--><path d="M82.1776,99.6417 C84.115,109.1622 85.9357,119.7332 86.8986,129.5375 C88.2334,143.1274 87.0282,157.889 84.9475,171.192 " fill="none" id="Link-&gt;Artifact-1" style="stroke: #A80036; stroke-width: 1.0;"/><polygon fill="#A80036" points="84.0765,176.4063,89.5048,168.1884,84.9004,171.4746,81.6141,166.8702,84.0765,176.4063" style="stroke: #A80036; stroke-width: 1.0;"/><text fill="#000000" font-family="sans-serif" font-size="13" lengthAdjust="spacingAndGlyphs" textLength="56" x="87.8986" y="142.6044">products</text><text fill="#000000" font-family="sans-serif" font-size="13" lengthAdjust="spacingAndGlyphs" textLength="8" x="74.8539" y="119.6014">1</text><text fill="#000000" font-family="sans-serif" font-size="13" lengthAdjust="spacingAndGlyphs" textLength="23" x="60.6629" y="165.5699">0..*</text><text fill="#000000" font-family="sans-serif" font-size="14" lengthAdjust="spacingAndGlyphs" textLength="167" x="98.6993" y="276.142">Link and related Classes</text><!--MD5=[36af75a1ef5672ef3f6c9688e549ef61]
@startuml

caption Link and related Classes

skinparam shadowing<<with_shadow>> true
skinparam backgroundColor #SeaShell

class Link {
    runId
}

class Artifact {
    uri
    hash
}

class LayoutSegment {
}

class LayoutSegment {
}


LayoutSegment "1" -right- "1" Step
Link "1" -right-> "1" LayoutSegment
Link "1" -right-> "1" Step
Link "1" - -> "0..*" Artifact: materials
Link "1" - -> "0..*" Artifact: products

@enduml

PlantUML version 1.2020.15(Sun Jun 28 13:39:45 CEST 2020)
(GPL source distribution)
Java Runtime: OpenJDK Runtime Environment
JVM: OpenJDK 64-Bit Server VM
Default Encoding: UTF-8
Language: en
Country: US
--></g></svg>