<?xml version="1.0" encoding="UTF-8" standalone="no"?><svg xmlns="http://www.w3.org/2000/svg" xmlns:xlink="http://www.w3.org/1999/xlink" contentScriptType="application/ecmascript" contentStyleType="text/css" height="644px" preserveAspectRatio="none" style="width:814px;height:644px;background:#FFF5EE;" version="1.1" viewBox="0 0 814 644" width="814px" zoomAndPan="magnify"><defs><filter height="300%" id="f1wjsfavtqbf66" width="300%" x="-1" y="-1"><feGaussianBlur result="blurOut" stdDeviation="2.0"/><feColorMatrix in="blurOut" result="blurOut2" type="matrix" values="0 0 0 0 0 0 0 0 0 0 0 0 0 0 0 0 0 0 .4 0"/><feOffset dx="4.0" dy="4.0" in="blurOut2" result="blurOut3"/><feBlend in="SourceGraphic" in2="blurOut3" mode="normal"/></filter></defs><g><!--MD5=[caebf2ddd0fe15aa1cd7c0f919e7d6a1]
class Layout--><rect fill="#FEFECE" filter="url(#f1wjsfavtqbf66)" height="60.8047" id="Layout" style="stroke: #A80036; stroke-width: 1.5;" width="132" x="220" y="14.5"/><ellipse cx="261.55" cy="30.5" fill="#ADD1B2" rx="11" ry="11" style="stroke: #A80036; stroke-width: 1.0;"/><path d="M264.5188,36.1406 Q263.9406,36.4375 263.3,36.5781 Q262.6594,36.7344 261.9563,36.7344 Q259.4563,36.7344 258.1281,35.0938 Q256.8156,33.4375 256.8156,30.3125 Q256.8156,27.1875 258.1281,25.5313 Q259.4563,23.875 261.9563,23.875 Q262.6594,23.875 263.3,24.0313 Q263.9563,24.1875 264.5188,24.4844 L264.5188,27.2031 Q263.8938,26.625 263.3,26.3594 Q262.7063,26.0781 262.0813,26.0781 Q260.7375,26.0781 260.05,27.1563 Q259.3625,28.2188 259.3625,30.3125 Q259.3625,32.4063 260.05,33.4844 Q260.7375,34.5469 262.0813,34.5469 Q262.7063,34.5469 263.3,34.2813 Q263.8938,34 264.5188,33.4219 L264.5188,36.1406 Z "/><text fill="#000000" font-family="sans-serif" font-size="12" lengthAdjust="spacingAndGlyphs" textLength="41" x="281.45" y="34.6543">Layout</text><line style="stroke: #A80036; stroke-width: 1.5;" x1="221" x2="351" y1="46.5" y2="46.5"/><text fill="#000000" font-family="sans-serif" font-size="11" lengthAdjust="spacingAndGlyphs" textLength="120" x="226" y="60.7104">List authorizedKeyIds</text><line style="stroke: #A80036; stroke-width: 1.5;" x1="221" x2="351" y1="67.3047" y2="67.3047"/><!--MD5=[2086e18d236f9616263f91fe5276f8cf]
class Key--><rect fill="#FEFECE" filter="url(#f1wjsfavtqbf66)" height="48" id="Key" style="stroke: #A80036; stroke-width: 1.5;" width="53" x="131.5" y="21"/><ellipse cx="146.5" cy="37" fill="#ADD1B2" rx="11" ry="11" style="stroke: #A80036; stroke-width: 1.0;"/><path d="M149.4688,42.6406 Q148.8906,42.9375 148.25,43.0781 Q147.6094,43.2344 146.9063,43.2344 Q144.4063,43.2344 143.0781,41.5938 Q141.7656,39.9375 141.7656,36.8125 Q141.7656,33.6875 143.0781,32.0313 Q144.4063,30.375 146.9063,30.375 Q147.6094,30.375 148.25,30.5313 Q148.9063,30.6875 149.4688,30.9844 L149.4688,33.7031 Q148.8438,33.125 148.25,32.8594 Q147.6563,32.5781 147.0313,32.5781 Q145.6875,32.5781 145,33.6563 Q144.3125,34.7188 144.3125,36.8125 Q144.3125,38.9063 145,39.9844 Q145.6875,41.0469 147.0313,41.0469 Q147.6563,41.0469 148.25,40.7813 Q148.8438,40.5 149.4688,39.9219 L149.4688,42.6406 Z "/><text fill="#000000" font-family="sans-serif" font-size="12" lengthAdjust="spacingAndGlyphs" textLength="21" x="160.5" y="41.1543">Key</text><line style="stroke: #A80036; stroke-width: 1.5;" x1="132.5" x2="183.5" y1="53" y2="53"/><line style="stroke: #A80036; stroke-width: 1.5;" x1="132.5" x2="183.5" y1="61" y2="61"/><!--MD5=[f9a29335b499db729be669fd1bd54958]
class Account--><rect fill="#FEFECE" filter="url(#f1wjsfavtqbf66)" height="48" id="Account" style="stroke: #A80036; stroke-width: 1.5;" width="83" x="116.5" y="204"/><ellipse cx="131.5" cy="220" fill="#ADD1B2" rx="11" ry="11" style="stroke: #A80036; stroke-width: 1.0;"/><path d="M134.4688,225.6406 Q133.8906,225.9375 133.25,226.0781 Q132.6094,226.2344 131.9063,226.2344 Q129.4063,226.2344 128.0781,224.5938 Q126.7656,222.9375 126.7656,219.8125 Q126.7656,216.6875 128.0781,215.0313 Q129.4063,213.375 131.9063,213.375 Q132.6094,213.375 133.25,213.5313 Q133.9063,213.6875 134.4688,213.9844 L134.4688,216.7031 Q133.8438,216.125 133.25,215.8594 Q132.6563,215.5781 132.0313,215.5781 Q130.6875,215.5781 130,216.6563 Q129.3125,217.7188 129.3125,219.8125 Q129.3125,221.9063 130,222.9844 Q130.6875,224.0469 132.0313,224.0469 Q132.6563,224.0469 133.25,223.7813 Q133.8438,223.5 134.4688,222.9219 L134.4688,225.6406 Z "/><text fill="#000000" font-family="sans-serif" font-size="12" lengthAdjust="spacingAndGlyphs" textLength="51" x="145.5" y="224.1543">Account</text><line style="stroke: #A80036; stroke-width: 1.5;" x1="117.5" x2="198.5" y1="236" y2="236"/><line style="stroke: #A80036; stroke-width: 1.5;" x1="117.5" x2="198.5" y1="244" y2="244"/><!--MD5=[4780b93a58732a310f8ecb67ba60e08e]
class PublicKey--><rect fill="#FEFECE" filter="url(#f1wjsfavtqbf66)" height="48" id="PublicKey" style="stroke: #A80036; stroke-width: 1.5;" width="90" x="6" y="21"/><ellipse cx="21" cy="37" fill="#ADD1B2" rx="11" ry="11" style="stroke: #A80036; stroke-width: 1.0;"/><path d="M23.9688,42.6406 Q23.3906,42.9375 22.75,43.0781 Q22.1094,43.2344 21.4063,43.2344 Q18.9063,43.2344 17.5781,41.5938 Q16.2656,39.9375 16.2656,36.8125 Q16.2656,33.6875 17.5781,32.0313 Q18.9063,30.375 21.4063,30.375 Q22.1094,30.375 22.75,30.5313 Q23.4063,30.6875 23.9688,30.9844 L23.9688,33.7031 Q23.3438,33.125 22.75,32.8594 Q22.1563,32.5781 21.5313,32.5781 Q20.1875,32.5781 19.5,33.6563 Q18.8125,34.7188 18.8125,36.8125 Q18.8125,38.9063 19.5,39.9844 Q20.1875,41.0469 21.5313,41.0469 Q22.1563,41.0469 22.75,40.7813 Q23.3438,40.5 23.9688,39.9219 L23.9688,42.6406 Z "/><text fill="#000000" font-family="sans-serif" font-size="12" lengthAdjust="spacingAndGlyphs" textLength="58" x="35" y="41.1543">PublicKey</text><line style="stroke: #A80036; stroke-width: 1.5;" x1="7" x2="95" y1="53" y2="53"/><line style="stroke: #A80036; stroke-width: 1.5;" x1="7" x2="95" y1="61" y2="61"/><!--MD5=[a538883d7f0f7706ce941341ae97cf4d]
class LayoutSegment--><rect fill="#FEFECE" filter="url(#f1wjsfavtqbf66)" height="48" id="LayoutSegment" style="stroke: #A80036; stroke-width: 1.5;" width="129" x="387.5" y="21"/><ellipse cx="402.5" cy="37" fill="#ADD1B2" rx="11" ry="11" style="stroke: #A80036; stroke-width: 1.0;"/><path d="M405.4688,42.6406 Q404.8906,42.9375 404.25,43.0781 Q403.6094,43.2344 402.9063,43.2344 Q400.4063,43.2344 399.0781,41.5938 Q397.7656,39.9375 397.7656,36.8125 Q397.7656,33.6875 399.0781,32.0313 Q400.4063,30.375 402.9063,30.375 Q403.6094,30.375 404.25,30.5313 Q404.9063,30.6875 405.4688,30.9844 L405.4688,33.7031 Q404.8438,33.125 404.25,32.8594 Q403.6563,32.5781 403.0313,32.5781 Q401.6875,32.5781 401,33.6563 Q400.3125,34.7188 400.3125,36.8125 Q400.3125,38.9063 401,39.9844 Q401.6875,41.0469 403.0313,41.0469 Q403.6563,41.0469 404.25,40.7813 Q404.8438,40.5 405.4688,39.9219 L405.4688,42.6406 Z "/><text fill="#000000" font-family="sans-serif" font-size="12" lengthAdjust="spacingAndGlyphs" textLength="97" x="416.5" y="41.1543">LayoutSegment</text><line style="stroke: #A80036; stroke-width: 1.5;" x1="388.5" x2="515.5" y1="53" y2="53"/><line style="stroke: #A80036; stroke-width: 1.5;" x1="388.5" x2="515.5" y1="61" y2="61"/><!--MD5=[5a2ba6e4c7f78036fecb159f353da9e9]
class Step--><rect fill="#FEFECE" filter="url(#f1wjsfavtqbf66)" height="73.6094" id="Step" style="stroke: #A80036; stroke-width: 1.5;" width="165" x="551.5" y="8"/><ellipse cx="615.25" cy="24" fill="#ADD1B2" rx="11" ry="11" style="stroke: #A80036; stroke-width: 1.0;"/><path d="M618.2188,29.6406 Q617.6406,29.9375 617,30.0781 Q616.3594,30.2344 615.6563,30.2344 Q613.1563,30.2344 611.8281,28.5938 Q610.5156,26.9375 610.5156,23.8125 Q610.5156,20.6875 611.8281,19.0313 Q613.1563,17.375 615.6563,17.375 Q616.3594,17.375 617,17.5313 Q617.6563,17.6875 618.2188,17.9844 L618.2188,20.7031 Q617.5938,20.125 617,19.8594 Q616.4063,19.5781 615.7813,19.5781 Q614.4375,19.5781 613.75,20.6563 Q613.0625,21.7188 613.0625,23.8125 Q613.0625,25.9063 613.75,26.9844 Q614.4375,28.0469 615.7813,28.0469 Q616.4063,28.0469 617,27.7813 Q617.5938,27.5 618.2188,26.9219 L618.2188,29.6406 Z "/><text fill="#000000" font-family="sans-serif" font-size="12" lengthAdjust="spacingAndGlyphs" textLength="29" x="635.75" y="28.1543">Step</text><line style="stroke: #A80036; stroke-width: 1.5;" x1="552.5" x2="715.5" y1="40" y2="40"/><text fill="#000000" font-family="sans-serif" font-size="11" lengthAdjust="spacingAndGlyphs" textLength="153" x="557.5" y="54.2104">int requiredNumberOfLinks</text><text fill="#000000" font-family="sans-serif" font-size="11" lengthAdjust="spacingAndGlyphs" textLength="120" x="557.5" y="67.0151">List authorizedKeyIds</text><line style="stroke: #A80036; stroke-width: 1.5;" x1="552.5" x2="715.5" y1="73.6094" y2="73.6094"/><!--MD5=[8e3e8bdd45f0aaad585c39f385f3d00b]
class RuleType--><rect fill="#FEFECE" filter="url(#f1wjsfavtqbf66)" height="137.6328" id="RuleType" style="stroke: #A80036; stroke-width: 1.5;" width="88" x="462" y="159"/><ellipse cx="477" cy="175" fill="#EB937F" rx="11" ry="11" style="stroke: #A80036; stroke-width: 1.0;"/><path d="M481.1094,181 L473.3906,181 L473.3906,168.6094 L481.1094,168.6094 L481.1094,170.7656 L475.8438,170.7656 L475.8438,173.4375 L480.6094,173.4375 L480.6094,175.5938 L475.8438,175.5938 L475.8438,178.8438 L481.1094,178.8438 L481.1094,181 Z "/><text fill="#000000" font-family="sans-serif" font-size="12" lengthAdjust="spacingAndGlyphs" textLength="56" x="491" y="179.1543">RuleType</text><line style="stroke: #A80036; stroke-width: 1.5;" x1="463" x2="549" y1="191" y2="191"/><text fill="#000000" font-family="sans-serif" font-size="11" lengthAdjust="spacingAndGlyphs" textLength="37" x="468" y="205.2104">ALLOW</text><text fill="#000000" font-family="sans-serif" font-size="11" lengthAdjust="spacingAndGlyphs" textLength="43" x="468" y="218.0151">CREATE</text><text fill="#000000" font-family="sans-serif" font-size="11" lengthAdjust="spacingAndGlyphs" textLength="42" x="468" y="230.8198">DELETE</text><text fill="#000000" font-family="sans-serif" font-size="11" lengthAdjust="spacingAndGlyphs" textLength="56" x="468" y="243.6245">DISALLOW</text><text fill="#000000" font-family="sans-serif" font-size="11" lengthAdjust="spacingAndGlyphs" textLength="39" x="468" y="256.4292">MATCH</text><text fill="#000000" font-family="sans-serif" font-size="11" lengthAdjust="spacingAndGlyphs" textLength="42" x="468" y="269.2339">MODIFY</text><text fill="#000000" font-family="sans-serif" font-size="11" lengthAdjust="spacingAndGlyphs" textLength="48" x="468" y="282.0386">REQUIRE</text><line style="stroke: #A80036; stroke-width: 1.5;" x1="463" x2="549" y1="288.6328" y2="288.6328"/><!--MD5=[4cf87534c235239d37db4adfd136fff4]
class Rule--><rect fill="#FEFECE" filter="url(#f1wjsfavtqbf66)" height="60.8047" id="Rule" style="stroke: #A80036; stroke-width: 1.5;" width="59" x="621.5" y="197.5"/><ellipse cx="636.5" cy="213.5" fill="#ADD1B2" rx="11" ry="11" style="stroke: #A80036; stroke-width: 1.0;"/><path d="M639.4688,219.1406 Q638.8906,219.4375 638.25,219.5781 Q637.6094,219.7344 636.9063,219.7344 Q634.4063,219.7344 633.0781,218.0938 Q631.7656,216.4375 631.7656,213.3125 Q631.7656,210.1875 633.0781,208.5313 Q634.4063,206.875 636.9063,206.875 Q637.6094,206.875 638.25,207.0313 Q638.9063,207.1875 639.4688,207.4844 L639.4688,210.2031 Q638.8438,209.625 638.25,209.3594 Q637.6563,209.0781 637.0313,209.0781 Q635.6875,209.0781 635,210.1563 Q634.3125,211.2188 634.3125,213.3125 Q634.3125,215.4063 635,216.4844 Q635.6875,217.5469 637.0313,217.5469 Q637.6563,217.5469 638.25,217.2813 Q638.8438,217 639.4688,216.4219 L639.4688,219.1406 Z "/><text fill="#000000" font-family="sans-serif" font-size="12" lengthAdjust="spacingAndGlyphs" textLength="27" x="650.5" y="217.6543">Rule</text><line style="stroke: #A80036; stroke-width: 1.5;" x1="622.5" x2="679.5" y1="229.5" y2="229.5"/><text fill="#000000" font-family="sans-serif" font-size="11" lengthAdjust="spacingAndGlyphs" textLength="24" x="627.5" y="243.7104">type</text><line style="stroke: #A80036; stroke-width: 1.5;" x1="622.5" x2="679.5" y1="250.3047" y2="250.3047"/><!--MD5=[62ab7431544a0ae8be0f4a3b954cd430]
class MatchRule--><rect fill="#FEFECE" filter="url(#f1wjsfavtqbf66)" height="99.2188" id="MatchRule" style="stroke: #A80036; stroke-width: 1.5;" width="197" x="207.5" y="358"/><ellipse cx="269.25" cy="374" fill="#ADD1B2" rx="11" ry="11" style="stroke: #A80036; stroke-width: 1.0;"/><path d="M272.2188,379.6406 Q271.6406,379.9375 271,380.0781 Q270.3594,380.2344 269.6563,380.2344 Q267.1563,380.2344 265.8281,378.5938 Q264.5156,376.9375 264.5156,373.8125 Q264.5156,370.6875 265.8281,369.0313 Q267.1563,367.375 269.6563,367.375 Q270.3594,367.375 271,367.5313 Q271.6563,367.6875 272.2188,367.9844 L272.2188,370.7031 Q271.5938,370.125 271,369.8594 Q270.4063,369.5781 269.7813,369.5781 Q268.4375,369.5781 267.75,370.6563 Q267.0625,371.7188 267.0625,373.8125 Q267.0625,375.9063 267.75,376.9844 Q268.4375,378.0469 269.7813,378.0469 Q270.4063,378.0469 271,377.7813 Q271.5938,377.5 272.2188,376.9219 L272.2188,379.6406 Z "/><text fill="#000000" font-family="sans-serif" font-size="12" lengthAdjust="spacingAndGlyphs" textLength="65" x="289.75" y="378.1543">MatchRule</text><line style="stroke: #A80036; stroke-width: 1.5;" x1="208.5" x2="403.5" y1="390" y2="390"/><text fill="#000000" font-family="sans-serif" font-size="11" lengthAdjust="spacingAndGlyphs" textLength="134" x="213.5" y="404.2104">String sourcePathPrefix</text><text fill="#000000" font-family="sans-serif" font-size="11" lengthAdjust="spacingAndGlyphs" textLength="158" x="213.5" y="417.0151">String destinationPathPrefix</text><text fill="#000000" font-family="sans-serif" font-size="11" lengthAdjust="spacingAndGlyphs" textLength="185" x="213.5" y="429.8198">String destinationSegmentName</text><text fill="#000000" font-family="sans-serif" font-size="11" lengthAdjust="spacingAndGlyphs" textLength="160" x="213.5" y="442.6245">String destinationStepName</text><line style="stroke: #A80036; stroke-width: 1.5;" x1="208.5" x2="403.5" y1="449.2188" y2="449.2188"/><!--MD5=[ee58d554a12ce2a7ed61f9176d620f8c]
class ArtifactType--><rect fill="#FEFECE" filter="url(#f1wjsfavtqbf66)" height="73.6094" id="ArtifactType" style="stroke: #A80036; stroke-width: 1.5;" width="106" x="253" y="534"/><ellipse cx="268" cy="550" fill="#EB937F" rx="11" ry="11" style="stroke: #A80036; stroke-width: 1.0;"/><path d="M272.1094,556 L264.3906,556 L264.3906,543.6094 L272.1094,543.6094 L272.1094,545.7656 L266.8438,545.7656 L266.8438,548.4375 L271.6094,548.4375 L271.6094,550.5938 L266.8438,550.5938 L266.8438,553.8438 L272.1094,553.8438 L272.1094,556 Z "/><text fill="#000000" font-family="sans-serif" font-size="12" lengthAdjust="spacingAndGlyphs" textLength="74" x="282" y="554.1543">ArtifactType</text><line style="stroke: #A80036; stroke-width: 1.5;" x1="254" x2="358" y1="566" y2="566"/><text fill="#000000" font-family="sans-serif" font-size="11" lengthAdjust="spacingAndGlyphs" textLength="61" x="259" y="580.2104">MATERIALS</text><text fill="#000000" font-family="sans-serif" font-size="11" lengthAdjust="spacingAndGlyphs" textLength="62" x="259" y="593.0151">PRODUCTS</text><line style="stroke: #A80036; stroke-width: 1.5;" x1="254" x2="358" y1="599.6094" y2="599.6094"/><!--MD5=[e296bde6a703fe5188c0f2e4e65f6940]
reverse link Rule to MatchRule--><path d="M605.9055,269.015 C593.7809,278.9096 580.3216,288.9405 567,297 C516.0578,327.8195 454.9635,354.1911 404.6946,373.4342 " fill="none" id="Rule&lt;-MatchRule" style="stroke: #A80036; stroke-width: 1.0;"/><polygon fill="none" points="601.6949,263.4074,621.4737,255.8047,610.753,274.0822,601.6949,263.4074" style="stroke: #A80036; stroke-width: 1.0;"/><!--MD5=[51f73d4a21d8e1d2777c1ee614281dd8]
reverse link RuleType to Rule--><path d="M555.4801,228 C577.3179,228 602.2648,228 621.1866,228 " fill="none" id="RuleType&lt;-Rule" style="stroke: #A80036; stroke-width: 1.0;"/><polygon fill="#A80036" points="550.2927,228,559.2927,232,555.2927,228,559.2927,224,550.2927,228" style="stroke: #A80036; stroke-width: 1.0;"/><text fill="#000000" font-family="sans-serif" font-size="13" lengthAdjust="spacingAndGlyphs" textLength="35" x="568.25" y="221.0669">has a</text><!--MD5=[e76c52c9c70b3836d93f81fe9de18327]
link MatchRule to ArtifactType--><path d="M306,457.4438 C306,482.0484 306,511.2072 306,533.8163 " fill="none" id="MatchRule-ArtifactType" style="stroke: #A80036; stroke-width: 1.0;"/><text fill="#000000" font-family="sans-serif" font-size="13" lengthAdjust="spacingAndGlyphs" textLength="101" x="307" y="500.0669">destinationType</text><text fill="#000000" font-family="sans-serif" font-size="13" lengthAdjust="spacingAndGlyphs" textLength="8" x="297.4625" y="477.2239">1</text><text fill="#000000" font-family="sans-serif" font-size="13" lengthAdjust="spacingAndGlyphs" textLength="8" x="297.2875" y="522.9705">1</text><!--MD5=[704ddff186113afeeec12b5f4a76b0da]
link Layout to LayoutSegment--><path d="M352.1406,45 C362.1058,45 372.0711,45 382.0363,45 " fill="none" id="Layout-&gt;LayoutSegment" style="stroke: #A80036; stroke-width: 1.0;"/><polygon fill="#A80036" points="387.2474,45,378.2474,41,382.2474,45,378.2474,49,387.2474,45" style="stroke: #A80036; stroke-width: 1.0;"/><text fill="#000000" font-family="sans-serif" font-size="13" lengthAdjust="spacingAndGlyphs" textLength="8" x="359.8122" y="41.2645">1</text><text fill="#000000" font-family="sans-serif" font-size="13" lengthAdjust="spacingAndGlyphs" textLength="23" x="356.3839" y="41.3003">1..*</text><!--MD5=[9af194cb173835e74a79e996c8dffe48]
reverse link Key to Layout--><path d="M189.7379,45 C199.7543,45 209.7707,45 219.7871,45 " fill="none" id="Key&lt;-Layout" style="stroke: #A80036; stroke-width: 1.0;"/><polygon fill="#A80036" points="184.5,45,193.5,49,189.5,45,193.5,41,184.5,45" style="stroke: #A80036; stroke-width: 1.0;"/><text fill="#000000" font-family="sans-serif" font-size="13" lengthAdjust="spacingAndGlyphs" textLength="23" x="192.3375" y="40.5337">1..*</text><text fill="#000000" font-family="sans-serif" font-size="13" lengthAdjust="spacingAndGlyphs" textLength="8" x="204.1076" y="41.2645">1</text><!--MD5=[58828663ce0ec4a2bbfa4ca3bc13e701]
link Layout to MatchRule--><path d="M287.688,75.5941 C291.0699,136.892 298.7164,275.4852 302.9814,352.7884 " fill="none" id="Layout-&gt;MatchRule" style="stroke: #A80036; stroke-width: 1.0;"/><polygon fill="#A80036" points="303.2574,357.7901,306.7556,348.5834,302.982,352.7977,298.7677,349.0241,303.2574,357.7901" style="stroke: #A80036; stroke-width: 1.0;"/><text fill="#000000" font-family="sans-serif" font-size="13" lengthAdjust="spacingAndGlyphs" textLength="139" x="301" y="232.5669">expectedEndProducts</text><text fill="#000000" font-family="sans-serif" font-size="13" lengthAdjust="spacingAndGlyphs" textLength="8" x="279.2112" y="95.5517">1</text><text fill="#000000" font-family="sans-serif" font-size="13" lengthAdjust="spacingAndGlyphs" textLength="23" x="278.2545" y="346.8058">1..*</text><!--MD5=[2e4f5e8b8d2c97b15fccf554ea4368d3]
link PublicKey to Key--><path d="M96.1406,45 C107.9003,45 119.6601,45 131.4198,45 " fill="none" id="PublicKey-Key" style="stroke: #A80036; stroke-width: 1.0;"/><text fill="#000000" font-family="sans-serif" font-size="13" lengthAdjust="spacingAndGlyphs" textLength="8" x="103.9724" y="40.8822">1</text><text fill="#000000" font-family="sans-serif" font-size="13" lengthAdjust="spacingAndGlyphs" textLength="8" x="115.5836" y="40.162">1</text><!--MD5=[a263db43295751bcd15eff1220047a80]
link Key to Account--><path d="M158,69.301 C158,104.3995 158,168.8985 158,203.89 " fill="none" id="Key-Account" style="stroke: #A80036; stroke-width: 1.0;"/><text fill="#000000" font-family="sans-serif" font-size="13" lengthAdjust="spacingAndGlyphs" textLength="8" x="149.025" y="89.1356">1</text><text fill="#000000" font-family="sans-serif" font-size="13" lengthAdjust="spacingAndGlyphs" textLength="8" x="148.975" y="192.8738">1</text><!--MD5=[edee868d0827e6f463eb67775695443c]
link LayoutSegment to Step--><path d="M516.6953,45 C526.4504,45 536.2055,45 545.9606,45 " fill="none" id="LayoutSegment-&gt;Step" style="stroke: #A80036; stroke-width: 1.0;"/><polygon fill="#A80036" points="551.0619,45,542.0619,41,546.0619,45,542.0619,49,551.0619,45" style="stroke: #A80036; stroke-width: 1.0;"/><text fill="#000000" font-family="sans-serif" font-size="13" lengthAdjust="spacingAndGlyphs" textLength="8" x="524.6382" y="41.2074">1</text><text fill="#000000" font-family="sans-serif" font-size="13" lengthAdjust="spacingAndGlyphs" textLength="23" x="520.5364" y="41.4901">1..*</text><!--MD5=[33627ab4b46d8f3aa6179801f35e654a]
link Step to Rule--><path d="M575.4737,82.0501 C561.9365,95.4576 553.2242,111.6161 560,129 C571.573,158.6916 596.6774,184.8669 617.5924,202.8338 " fill="none" id="Step-&gt;Rule" style="stroke: #A80036; stroke-width: 1.0;"/><polygon fill="#A80036" points="621.4447,206.0921,617.1559,197.2261,617.627,202.8633,611.9898,203.3344,621.4447,206.0921" style="stroke: #A80036; stroke-width: 1.0;"/><text fill="#000000" font-family="sans-serif" font-size="13" lengthAdjust="spacingAndGlyphs" textLength="117" x="561" y="125.0669">expectedMaterials</text><text fill="#000000" font-family="sans-serif" font-size="13" lengthAdjust="spacingAndGlyphs" textLength="8" x="557.1178" y="101.539">1</text><text fill="#000000" font-family="sans-serif" font-size="13" lengthAdjust="spacingAndGlyphs" textLength="23" x="590.6185" y="197.5844">0..*</text><!--MD5=[33627ab4b46d8f3aa6179801f35e654a]
link Step to Rule--><path d="M667.5645,82.3502 C673.8991,91.4547 679.5993,101.5892 683,112 C691.7572,138.809 682.3794,169.6015 671.558,192.7208 " fill="none" id="Step-&gt;Rule-1" style="stroke: #A80036; stroke-width: 1.0;"/><polygon fill="#A80036" points="669.3794,197.2389,676.8914,190.8695,671.5511,192.7351,669.6854,187.3948,669.3794,197.2389" style="stroke: #A80036; stroke-width: 1.0;"/><text fill="#000000" font-family="sans-serif" font-size="13" lengthAdjust="spacingAndGlyphs" textLength="115" x="687" y="125.0669">expectedProducts</text><text fill="#000000" font-family="sans-serif" font-size="13" lengthAdjust="spacingAndGlyphs" textLength="8" x="664.2763" y="101.6068">1</text><text fill="#000000" font-family="sans-serif" font-size="13" lengthAdjust="spacingAndGlyphs" textLength="23" x="647.7983" y="186.4483">0..*</text><text fill="#000000" font-family="sans-serif" font-size="14" lengthAdjust="spacingAndGlyphs" textLength="185" x="318" y="630.9951">Layout and related Classes</text><!--MD5=[b7b22bf0b46cb8971d498815911fd801]
@startuml

caption Layout and related Classes

skinparam shadowing<<with_shadow>> true
skinparam backgroundColor #SeaShell

class Layout {
  
}

class Key {
}

class Account {
}

class PublicKey {
}

class Layout {
    List authorizedKeyIds
}

class LayoutSegment {
}

class Step {
    int requiredNumberOfLinks
    List authorizedKeyIds
}


enum RuleType {
    ALLOW
    CREATE
    DELETE
    DISALLOW
    MATCH
    MODIFY
    REQUIRE
}

class Rule {
    type
}

class MatchRule {
    String sourcePathPrefix
    String destinationPathPrefix
    String destinationSegmentName
    String destinationStepName
}

enum ArtifactType {
    MATERIALS
    PRODUCTS
}

Rule <|- - MatchRule

Rule -left-> RuleType: has a
MatchRule "1" - - "1" ArtifactType: destinationType

Layout "1" -right-> "1..*" LayoutSegment
Layout "1" -left-> "1..*" Key
Layout "1" - -> "1..*" MatchRule: expectedEndProducts
Key "1" -left- "1" PublicKey
Key "1" - - "1" Account
LayoutSegment "1" -right-> "1..*" Step
Step "1" - -> "0..*" Rule: expectedMaterials
Step "1" - -> "0..*" Rule: expectedProducts

@enduml

PlantUML version 1.2020.11(Sat May 30 12:13:43 CEST 2020)
(GPL source distribution)
Java Runtime: OpenJDK Runtime Environment
JVM: OpenJDK 64-Bit Server VM
Default Encoding: UTF-8
Language: en
Country: US
--></g></svg>