<?xml version="1.0" encoding="UTF-8" standalone="no"?><svg xmlns="http://www.w3.org/2000/svg" xmlns:xlink="http://www.w3.org/1999/xlink" contentScriptType="application/ecmascript" contentStyleType="text/css" height="459px" preserveAspectRatio="none" style="width:744px;height:459px;background:#FFF5EE;" version="1.1" viewBox="0 0 744 459" width="744px" zoomAndPan="magnify"><defs><filter height="300%" id="f1ag6676wbfa7n" width="300%" x="-1" y="-1"><feGaussianBlur result="blurOut" stdDeviation="2.0"/><feColorMatrix in="blurOut" result="blurOut2" type="matrix" values="0 0 0 0 0 0 0 0 0 0 0 0 0 0 0 0 0 0 .4 0"/><feOffset dx="4.0" dy="4.0" in="blurOut2" result="blurOut3"/><feBlend in="SourceGraphic" in2="blurOut3" mode="normal"/></filter></defs><g><text fill="#000000" font-family="sans-serif" font-size="14" lengthAdjust="spacingAndGlyphs" textLength="247" x="247.5" y="445.5186">Verification request on Argos Notary</text><line style="stroke: #A80036; stroke-width: 1.0; stroke-dasharray: 5.0,5.0;" x1="39" x2="39" y1="86.2969" y2="349.2266"/><line style="stroke: #A80036; stroke-width: 1.0; stroke-dasharray: 5.0,5.0;" x1="197.5" x2="197.5" y1="86.2969" y2="349.2266"/><line style="stroke: #A80036; stroke-width: 1.0; stroke-dasharray: 5.0,5.0;" x1="442" x2="442" y1="86.2969" y2="349.2266"/><text fill="#000000" font-family="sans-serif" font-size="14" lengthAdjust="spacingAndGlyphs" textLength="56" x="8" y="82.9951">account</text><ellipse cx="39" cy="13" fill="#FEFECE" filter="url(#f1ag6676wbfa7n)" rx="8" ry="8" style="stroke: #A80036; stroke-width: 2.0;"/><path d="M39,21 L39,48 M26,29 L52,29 M39,48 L26,63 M39,48 L52,63 " fill="none" filter="url(#f1ag6676wbfa7n)" style="stroke: #A80036; stroke-width: 2.0;"/><text fill="#000000" font-family="sans-serif" font-size="14" lengthAdjust="spacingAndGlyphs" textLength="56" x="8" y="361.2217">account</text><ellipse cx="39" cy="374.5234" fill="#FEFECE" filter="url(#f1ag6676wbfa7n)" rx="8" ry="8" style="stroke: #A80036; stroke-width: 2.0;"/><path d="M39,382.5234 L39,409.5234 M26,390.5234 L52,390.5234 M39,409.5234 L26,424.5234 M39,409.5234 L52,424.5234 " fill="none" filter="url(#f1ag6676wbfa7n)" style="stroke: #A80036; stroke-width: 2.0;"/><rect fill="#FEFECE" filter="url(#f1ag6676wbfa7n)" height="30.2969" style="stroke: #A80036; stroke-width: 1.5;" width="51" x="170.5" y="51"/><text fill="#000000" font-family="sans-serif" font-size="14" lengthAdjust="spacingAndGlyphs" textLength="37" x="177.5" y="70.9951">client</text><rect fill="#FEFECE" filter="url(#f1ag6676wbfa7n)" height="30.2969" style="stroke: #A80036; stroke-width: 1.5;" width="51" x="170.5" y="348.2266"/><text fill="#000000" font-family="sans-serif" font-size="14" lengthAdjust="spacingAndGlyphs" textLength="37" x="177.5" y="368.2217">client</text><rect fill="#FEFECE" filter="url(#f1ag6676wbfa7n)" height="30.2969" style="stroke: #A80036; stroke-width: 1.5;" width="102" x="389" y="51"/><text fill="#000000" font-family="sans-serif" font-size="14" lengthAdjust="spacingAndGlyphs" textLength="88" x="396" y="70.9951">Argos Notary</text><rect fill="#FEFECE" filter="url(#f1ag6676wbfa7n)" height="30.2969" style="stroke: #A80036; stroke-width: 1.5;" width="102" x="389" y="348.2266"/><text fill="#000000" font-family="sans-serif" font-size="14" lengthAdjust="spacingAndGlyphs" textLength="88" x="396" y="368.2217">Argos Notary</text><polygon fill="#A80036" points="186,113.4297,196,117.4297,186,121.4297,190,117.4297" style="stroke: #A80036; stroke-width: 1.0;"/><line style="stroke: #A80036; stroke-width: 1.0;" x1="39" x2="192" y1="117.4297" y2="117.4297"/><text fill="#000000" font-family="sans-serif" font-size="13" lengthAdjust="spacingAndGlyphs" textLength="135" x="46" y="112.3638">verify deployable unit</text><line style="stroke: #A80036; stroke-width: 1.0;" x1="198" x2="240" y1="146.5625" y2="146.5625"/><line style="stroke: #A80036; stroke-width: 1.0;" x1="240" x2="240" y1="146.5625" y2="159.5625"/><line style="stroke: #A80036; stroke-width: 1.0;" x1="199" x2="240" y1="159.5625" y2="159.5625"/><polygon fill="#A80036" points="209,155.5625,199,159.5625,209,163.5625,205,159.5625" style="stroke: #A80036; stroke-width: 1.0;"/><text fill="#000000" font-family="sans-serif" font-size="13" lengthAdjust="spacingAndGlyphs" textLength="230" x="205" y="141.4966">collect artifact set in deployable unit</text><polygon fill="#A80036" points="430,184.6953,440,188.6953,430,192.6953,434,188.6953" style="stroke: #A80036; stroke-width: 1.0;"/><line style="stroke: #A80036; stroke-width: 1.0;" x1="198" x2="436" y1="188.6953" y2="188.6953"/><text fill="#000000" font-family="sans-serif" font-size="13" lengthAdjust="spacingAndGlyphs" textLength="206" x="205" y="183.6294">verify artifact set on supplychain</text><line style="stroke: #A80036; stroke-width: 1.0;" x1="442" x2="484" y1="217.8281" y2="217.8281"/><line style="stroke: #A80036; stroke-width: 1.0;" x1="484" x2="484" y1="217.8281" y2="230.8281"/><line style="stroke: #A80036; stroke-width: 1.0;" x1="443" x2="484" y1="230.8281" y2="230.8281"/><polygon fill="#A80036" points="453,226.8281,443,230.8281,453,234.8281,449,230.8281" style="stroke: #A80036; stroke-width: 1.0;"/><text fill="#000000" font-family="sans-serif" font-size="13" lengthAdjust="spacingAndGlyphs" textLength="191" x="449" y="212.7622">create hash of artifact hashes</text><line style="stroke: #A80036; stroke-width: 1.0;" x1="442" x2="484" y1="259.9609" y2="259.9609"/><line style="stroke: #A80036; stroke-width: 1.0;" x1="484" x2="484" y1="259.9609" y2="272.9609"/><line style="stroke: #A80036; stroke-width: 1.0;" x1="443" x2="484" y1="272.9609" y2="272.9609"/><polygon fill="#A80036" points="453,268.9609,443,272.9609,453,276.9609,449,272.9609" style="stroke: #A80036; stroke-width: 1.0;"/><text fill="#000000" font-family="sans-serif" font-size="13" lengthAdjust="spacingAndGlyphs" textLength="283" x="449" y="254.895">check existence of release dossier with hash</text><polygon fill="#A80036" points="209,298.0938,199,302.0938,209,306.0938,205,302.0938" style="stroke: #A80036; stroke-width: 1.0;"/><line style="stroke: #A80036; stroke-width: 1.0; stroke-dasharray: 2.0,2.0;" x1="203" x2="441" y1="302.0938" y2="302.0938"/><text fill="#000000" font-family="sans-serif" font-size="13" lengthAdjust="spacingAndGlyphs" textLength="79" x="215" y="297.0278">report result</text><polygon fill="#A80036" points="50,327.2266,40,331.2266,50,335.2266,46,331.2266" style="stroke: #A80036; stroke-width: 1.0;"/><line style="stroke: #A80036; stroke-width: 1.0; stroke-dasharray: 2.0,2.0;" x1="44" x2="197" y1="331.2266" y2="331.2266"/><text fill="#000000" font-family="sans-serif" font-size="13" lengthAdjust="spacingAndGlyphs" textLength="79" x="56" y="326.1606">report result</text><!--MD5=[0318f5134af626ec30a3a0b8ddf3406f]
@startuml

caption Verification request on Argos Notary

skinparam shadowing<<with_shadow>> true
skinparam backgroundColor #SeaShell

actor account
participant client as client
participant "Argos Notary" as argos

account -> client: verify deployable unit
client -> client: collect artifact set in deployable unit
client -> argos: verify artifact set on supplychain
argos -> argos: create hash of artifact hashes
argos -> argos: check existence of release dossier with hash
argos - -> client: report result
client - -> account: report result
@enduml

PlantUML version 1.2020.15(Sun Jun 28 13:39:45 CEST 2020)
(GPL source distribution)
Java Runtime: OpenJDK Runtime Environment
JVM: OpenJDK 64-Bit Server VM
Default Encoding: UTF-8
Language: en
Country: US
--></g></svg>