<?xml version="1.0" encoding="UTF-8" standalone="no"?><svg xmlns="http://www.w3.org/2000/svg" xmlns:xlink="http://www.w3.org/1999/xlink" contentScriptType="application/ecmascript" contentStyleType="text/css" height="213px" preserveAspectRatio="none" style="width:495px;height:213px;background:#FFF5EE;" version="1.1" viewBox="0 0 495 213" width="495px" zoomAndPan="magnify"><defs><filter height="300%" id="f146txpoqv7ukn" width="300%" x="-1" y="-1"><feGaussianBlur result="blurOut" stdDeviation="2.0"/><feColorMatrix in="blurOut" result="blurOut2" type="matrix" values="0 0 0 0 0 0 0 0 0 0 0 0 0 0 0 0 0 0 .4 0"/><feOffset dx="4.0" dy="4.0" in="blurOut2" result="blurOut3"/><feBlend in="SourceGraphic" in2="blurOut3" mode="normal"/></filter></defs><g><!--MD5=[9e889c3b7ce7a0d9a566b2970e51be83]
class MetaBlock--><rect fill="#FEFECE" filter="url(#f146txpoqv7ukn)" height="48" id="MetaBlock" style="stroke: #A80036; stroke-width: 1.5;" width="96" x="232.5" y="14.5"/><ellipse cx="247.5" cy="30.5" fill="#ADD1B2" rx="11" ry="11" style="stroke: #A80036; stroke-width: 1.0;"/><path d="M250.4688,36.1406 Q249.8906,36.4375 249.25,36.5781 Q248.6094,36.7344 247.9063,36.7344 Q245.4063,36.7344 244.0781,35.0938 Q242.7656,33.4375 242.7656,30.3125 Q242.7656,27.1875 244.0781,25.5313 Q245.4063,23.875 247.9063,23.875 Q248.6094,23.875 249.25,24.0313 Q249.9063,24.1875 250.4688,24.4844 L250.4688,27.2031 Q249.8438,26.625 249.25,26.3594 Q248.6563,26.0781 248.0313,26.0781 Q246.6875,26.0781 246,27.1563 Q245.3125,28.2188 245.3125,30.3125 Q245.3125,32.4063 246,33.4844 Q246.6875,34.5469 248.0313,34.5469 Q248.6563,34.5469 249.25,34.2813 Q249.8438,34 250.4688,33.4219 L250.4688,36.1406 Z "/><text fill="#000000" font-family="sans-serif" font-size="12" lengthAdjust="spacingAndGlyphs" textLength="64" x="261.5" y="34.6543">MetaBlock</text><line style="stroke: #A80036; stroke-width: 1.5;" x1="233.5" x2="327.5" y1="46.5" y2="46.5"/><line style="stroke: #A80036; stroke-width: 1.5;" x1="233.5" x2="327.5" y1="54.5" y2="54.5"/><!--MD5=[79b2c35a8607833edf9d17d918b0cb90]
class Signature--><rect fill="#FEFECE" filter="url(#f146txpoqv7ukn)" height="60.8047" id="Signature" style="stroke: #A80036; stroke-width: 1.5;" width="93" x="104" y="8"/><ellipse cx="119" cy="24" fill="#ADD1B2" rx="11" ry="11" style="stroke: #A80036; stroke-width: 1.0;"/><path d="M121.9688,29.6406 Q121.3906,29.9375 120.75,30.0781 Q120.1094,30.2344 119.4063,30.2344 Q116.9063,30.2344 115.5781,28.5938 Q114.2656,26.9375 114.2656,23.8125 Q114.2656,20.6875 115.5781,19.0313 Q116.9063,17.375 119.4063,17.375 Q120.1094,17.375 120.75,17.5313 Q121.4063,17.6875 121.9688,17.9844 L121.9688,20.7031 Q121.3438,20.125 120.75,19.8594 Q120.1563,19.5781 119.5313,19.5781 Q118.1875,19.5781 117.5,20.6563 Q116.8125,21.7188 116.8125,23.8125 Q116.8125,25.9063 117.5,26.9844 Q118.1875,28.0469 119.5313,28.0469 Q120.1563,28.0469 120.75,27.7813 Q121.3438,27.5 121.9688,26.9219 L121.9688,29.6406 Z "/><text fill="#000000" font-family="sans-serif" font-size="12" lengthAdjust="spacingAndGlyphs" textLength="61" x="133" y="28.1543">Signature</text><line style="stroke: #A80036; stroke-width: 1.5;" x1="105" x2="196" y1="40" y2="40"/><text fill="#000000" font-family="sans-serif" font-size="11" lengthAdjust="spacingAndGlyphs" textLength="54" x="110" y="54.2104">signature</text><line style="stroke: #A80036; stroke-width: 1.5;" x1="105" x2="196" y1="60.8047" y2="60.8047"/><!--MD5=[2086e18d236f9616263f91fe5276f8cf]
class Key--><rect fill="#FEFECE" filter="url(#f146txpoqv7ukn)" height="48" id="Key" style="stroke: #A80036; stroke-width: 1.5;" width="53" x="124" y="129"/><ellipse cx="139" cy="145" fill="#ADD1B2" rx="11" ry="11" style="stroke: #A80036; stroke-width: 1.0;"/><path d="M141.9688,150.6406 Q141.3906,150.9375 140.75,151.0781 Q140.1094,151.2344 139.4063,151.2344 Q136.9063,151.2344 135.5781,149.5938 Q134.2656,147.9375 134.2656,144.8125 Q134.2656,141.6875 135.5781,140.0313 Q136.9063,138.375 139.4063,138.375 Q140.1094,138.375 140.75,138.5313 Q141.4063,138.6875 141.9688,138.9844 L141.9688,141.7031 Q141.3438,141.125 140.75,140.8594 Q140.1563,140.5781 139.5313,140.5781 Q138.1875,140.5781 137.5,141.6563 Q136.8125,142.7188 136.8125,144.8125 Q136.8125,146.9063 137.5,147.9844 Q138.1875,149.0469 139.5313,149.0469 Q140.1563,149.0469 140.75,148.7813 Q141.3438,148.5 141.9688,147.9219 L141.9688,150.6406 Z "/><text fill="#000000" font-family="sans-serif" font-size="12" lengthAdjust="spacingAndGlyphs" textLength="21" x="153" y="149.1543">Key</text><line style="stroke: #A80036; stroke-width: 1.5;" x1="125" x2="176" y1="161" y2="161"/><line style="stroke: #A80036; stroke-width: 1.5;" x1="125" x2="176" y1="169" y2="169"/><!--MD5=[f9a29335b499db729be669fd1bd54958]
class Account--><rect fill="#FEFECE" filter="url(#f146txpoqv7ukn)" height="48" id="Account" style="stroke: #A80036; stroke-width: 1.5;" width="83" x="6" y="129"/><ellipse cx="21" cy="145" fill="#ADD1B2" rx="11" ry="11" style="stroke: #A80036; stroke-width: 1.0;"/><path d="M23.9688,150.6406 Q23.3906,150.9375 22.75,151.0781 Q22.1094,151.2344 21.4063,151.2344 Q18.9063,151.2344 17.5781,149.5938 Q16.2656,147.9375 16.2656,144.8125 Q16.2656,141.6875 17.5781,140.0313 Q18.9063,138.375 21.4063,138.375 Q22.1094,138.375 22.75,138.5313 Q23.4063,138.6875 23.9688,138.9844 L23.9688,141.7031 Q23.3438,141.125 22.75,140.8594 Q22.1563,140.5781 21.5313,140.5781 Q20.1875,140.5781 19.5,141.6563 Q18.8125,142.7188 18.8125,144.8125 Q18.8125,146.9063 19.5,147.9844 Q20.1875,149.0469 21.5313,149.0469 Q22.1563,149.0469 22.75,148.7813 Q23.3438,148.5 23.9688,147.9219 L23.9688,150.6406 Z "/><text fill="#000000" font-family="sans-serif" font-size="12" lengthAdjust="spacingAndGlyphs" textLength="51" x="35" y="149.1543">Account</text><line style="stroke: #A80036; stroke-width: 1.5;" x1="7" x2="88" y1="161" y2="161"/><line style="stroke: #A80036; stroke-width: 1.5;" x1="7" x2="88" y1="169" y2="169"/><!--MD5=[81381f6940610dc517ced37cfb71f559]
class Signable--><rect fill="#FEFECE" filter="url(#f146txpoqv7ukn)" height="48" id="Signable" style="stroke: #A80036; stroke-width: 1.5;" width="86" x="363.5" y="14.5"/><ellipse cx="378.5" cy="30.5" fill="#ADD1B2" rx="11" ry="11" style="stroke: #A80036; stroke-width: 1.0;"/><path d="M381.4688,36.1406 Q380.8906,36.4375 380.25,36.5781 Q379.6094,36.7344 378.9063,36.7344 Q376.4063,36.7344 375.0781,35.0938 Q373.7656,33.4375 373.7656,30.3125 Q373.7656,27.1875 375.0781,25.5313 Q376.4063,23.875 378.9063,23.875 Q379.6094,23.875 380.25,24.0313 Q380.9063,24.1875 381.4688,24.4844 L381.4688,27.2031 Q380.8438,26.625 380.25,26.3594 Q379.6563,26.0781 379.0313,26.0781 Q377.6875,26.0781 377,27.1563 Q376.3125,28.2188 376.3125,30.3125 Q376.3125,32.4063 377,33.4844 Q377.6875,34.5469 379.0313,34.5469 Q379.6563,34.5469 380.25,34.2813 Q380.8438,34 381.4688,33.4219 L381.4688,36.1406 Z "/><text fill="#000000" font-family="sans-serif" font-size="12" lengthAdjust="spacingAndGlyphs" textLength="54" x="392.5" y="34.6543">Signable</text><line style="stroke: #A80036; stroke-width: 1.5;" x1="364.5" x2="448.5" y1="46.5" y2="46.5"/><line style="stroke: #A80036; stroke-width: 1.5;" x1="364.5" x2="448.5" y1="54.5" y2="54.5"/><!--MD5=[caebf2ddd0fe15aa1cd7c0f919e7d6a1]
class Layout--><rect fill="#FEFECE" filter="url(#f146txpoqv7ukn)" height="48" id="Layout" style="stroke: #A80036; stroke-width: 1.5;" width="73" x="320" y="129"/><ellipse cx="335" cy="145" fill="#ADD1B2" rx="11" ry="11" style="stroke: #A80036; stroke-width: 1.0;"/><path d="M337.9688,150.6406 Q337.3906,150.9375 336.75,151.0781 Q336.1094,151.2344 335.4063,151.2344 Q332.9063,151.2344 331.5781,149.5938 Q330.2656,147.9375 330.2656,144.8125 Q330.2656,141.6875 331.5781,140.0313 Q332.9063,138.375 335.4063,138.375 Q336.1094,138.375 336.75,138.5313 Q337.4063,138.6875 337.9688,138.9844 L337.9688,141.7031 Q337.3438,141.125 336.75,140.8594 Q336.1563,140.5781 335.5313,140.5781 Q334.1875,140.5781 333.5,141.6563 Q332.8125,142.7188 332.8125,144.8125 Q332.8125,146.9063 333.5,147.9844 Q334.1875,149.0469 335.5313,149.0469 Q336.1563,149.0469 336.75,148.7813 Q337.3438,148.5 337.9688,147.9219 L337.9688,150.6406 Z "/><text fill="#000000" font-family="sans-serif" font-size="12" lengthAdjust="spacingAndGlyphs" textLength="41" x="349" y="149.1543">Layout</text><line style="stroke: #A80036; stroke-width: 1.5;" x1="321" x2="392" y1="161" y2="161"/><line style="stroke: #A80036; stroke-width: 1.5;" x1="321" x2="392" y1="169" y2="169"/><!--MD5=[d189332174d53557e6def82bbd003869]
class Link--><rect fill="#FEFECE" filter="url(#f146txpoqv7ukn)" height="48" id="Link" style="stroke: #A80036; stroke-width: 1.5;" width="56" x="428.5" y="129"/><ellipse cx="443.5" cy="145" fill="#ADD1B2" rx="11" ry="11" style="stroke: #A80036; stroke-width: 1.0;"/><path d="M446.4688,150.6406 Q445.8906,150.9375 445.25,151.0781 Q444.6094,151.2344 443.9063,151.2344 Q441.4063,151.2344 440.0781,149.5938 Q438.7656,147.9375 438.7656,144.8125 Q438.7656,141.6875 440.0781,140.0313 Q441.4063,138.375 443.9063,138.375 Q444.6094,138.375 445.25,138.5313 Q445.9063,138.6875 446.4688,138.9844 L446.4688,141.7031 Q445.8438,141.125 445.25,140.8594 Q444.6563,140.5781 444.0313,140.5781 Q442.6875,140.5781 442,141.6563 Q441.3125,142.7188 441.3125,144.8125 Q441.3125,146.9063 442,147.9844 Q442.6875,149.0469 444.0313,149.0469 Q444.6563,149.0469 445.25,148.7813 Q445.8438,148.5 446.4688,147.9219 L446.4688,150.6406 Z "/><text fill="#000000" font-family="sans-serif" font-size="12" lengthAdjust="spacingAndGlyphs" textLength="24" x="457.5" y="149.1543">Link</text><line style="stroke: #A80036; stroke-width: 1.5;" x1="429.5" x2="483.5" y1="161" y2="161"/><line style="stroke: #A80036; stroke-width: 1.5;" x1="429.5" x2="483.5" y1="169" y2="169"/><!--MD5=[fb48e2b68a9b7de4f4892360fc8fd506]
reverse link Signature to MetaBlock--><path d="M202.434,38.5 C212.407,38.5 222.38,38.5 232.353,38.5 " fill="none" id="Signature&lt;-MetaBlock" style="stroke: #A80036; stroke-width: 1.0;"/><polygon fill="#A80036" points="197.2188,38.5,206.2188,42.5,202.2188,38.5,206.2188,34.5,197.2188,38.5" style="stroke: #A80036; stroke-width: 1.0;"/><text fill="#000000" font-family="sans-serif" font-size="13" lengthAdjust="spacingAndGlyphs" textLength="23" x="205.042" y="34.5811">1..*</text><text fill="#000000" font-family="sans-serif" font-size="13" lengthAdjust="spacingAndGlyphs" textLength="8" x="216.368" y="34.4286">1</text><!--MD5=[b95b15b75752beea71b75b6b85f23bb5]
link MetaBlock to Signable--><path d="M328.7344,38.5 C338.5642,38.5 348.3941,38.5 358.224,38.5 " fill="none" id="MetaBlock-&gt;Signable" style="stroke: #A80036; stroke-width: 1.0;"/><polygon fill="#A80036" points="363.3644,38.5,354.3644,34.5,358.3644,38.5,354.3644,42.5,363.3644,38.5" style="stroke: #A80036; stroke-width: 1.0;"/><text fill="#000000" font-family="sans-serif" font-size="13" lengthAdjust="spacingAndGlyphs" textLength="8" x="336.4063" y="34.4751">1</text><text fill="#000000" font-family="sans-serif" font-size="13" lengthAdjust="spacingAndGlyphs" textLength="23" x="332.3398" y="34.4751">1..*</text><!--MD5=[14eb11bf44d41762abf5930cb935e70a]
reverse link Signable to Layout--><path d="M387.9773,80.917 C380.953,97.0026 373.196,114.7661 367.14,128.6343 " fill="none" id="Signable&lt;-Layout" style="stroke: #A80036; stroke-width: 1.0;"/><polygon fill="none" points="381.5995,78.0303,396.0184,62.503,394.4296,83.633,381.5995,78.0303" style="stroke: #A80036; stroke-width: 1.0;"/><!--MD5=[f98e75c4cceb6ba644f5e1ccdfc51b9d]
reverse link Signable to Link--><path d="M425.0227,80.917 C432.047,97.0026 439.804,114.7661 445.86,128.6343 " fill="none" id="Signable&lt;-Link" style="stroke: #A80036; stroke-width: 1.0;"/><polygon fill="none" points="418.5704,83.633,416.9816,62.503,431.4005,78.0303,418.5704,83.633" style="stroke: #A80036; stroke-width: 1.0;"/><!--MD5=[01a1d1c61194c5abb9b94c9e20f3f455]
link Signature to Key--><path d="M150.5,69.1839 C150.5,86.1131 150.5,107.0245 150.5,123.7248 " fill="none" id="Signature-&gt;Key" style="stroke: #A80036; stroke-width: 1.0;"/><polygon fill="#A80036" points="150.5,128.7634,154.5,119.7634,150.5,123.7634,146.5,119.7634,150.5,128.7634" style="stroke: #A80036; stroke-width: 1.0;"/><text fill="#000000" font-family="sans-serif" font-size="13" lengthAdjust="spacingAndGlyphs" textLength="8" x="141.7125" y="88.8005">1</text><text fill="#000000" font-family="sans-serif" font-size="13" lengthAdjust="spacingAndGlyphs" textLength="8" x="141.525" y="118.1107">1</text><!--MD5=[8a31c0b3fc8048f0467810548e2e3417]
link Account to Key--><path d="M89.3438,153 C100.8105,153 112.2773,153 123.7441,153 " fill="none" id="Account-Key" style="stroke: #A80036; stroke-width: 1.0;"/><text fill="#000000" font-family="sans-serif" font-size="13" lengthAdjust="spacingAndGlyphs" textLength="8" x="96.9367" y="148.8357">1</text><text fill="#000000" font-family="sans-serif" font-size="13" lengthAdjust="spacingAndGlyphs" textLength="8" x="107.8629" y="148.162">1</text><text fill="#000000" font-family="sans-serif" font-size="14" lengthAdjust="spacingAndGlyphs" textLength="220" x="141.5" y="199.9951">MetaBlock for Layouts and Links</text><!--MD5=[f025a12bf85abd58c65b1a10d99bd159]
@startuml

caption MetaBlock for Layouts and Links

skinparam shadowing<<with_shadow>> true
skinparam backgroundColor #SeaShell

class MetaBlock {  
}

class Signature {
    signature
}

class Key {
}

class Account {
}

class Signable {
}

class Layout {
}

class Link {
}

MetaBlock "1" -left-> "1..*" Signature
MetaBlock "1" -right-> "1..*" Signable
Signable <|- - Layout
Signable <|- - Link
Signature "1" -down-> "1" Key
Account "1" -right- "1" Key

@enduml

PlantUML version 1.2020.11(Sat May 30 12:13:43 CEST 2020)
(GPL source distribution)
Java Runtime: OpenJDK Runtime Environment
JVM: OpenJDK 64-Bit Server VM
Default Encoding: UTF-8
Language: en
Country: US
--></g></svg>