<?xml version="1.0" encoding="UTF-8" standalone="no"?><svg xmlns="http://www.w3.org/2000/svg" xmlns:xlink="http://www.w3.org/1999/xlink" contentScriptType="application/ecmascript" contentStyleType="text/css" height="215px" preserveAspectRatio="none" style="width:504px;height:215px;background:#FFF5EE;" version="1.1" viewBox="0 0 504 215" width="504px" zoomAndPan="magnify"><defs><filter height="300%" id="f146txpoqv7ukn" width="300%" x="-1" y="-1"><feGaussianBlur result="blurOut" stdDeviation="2.0"/><feColorMatrix in="blurOut" result="blurOut2" type="matrix" values="0 0 0 0 0 0 0 0 0 0 0 0 0 0 0 0 0 0 .4 0"/><feOffset dx="4.0" dy="4.0" in="blurOut2" result="blurOut3"/><feBlend in="SourceGraphic" in2="blurOut3" mode="normal"/></filter></defs><g><!--MD5=[9e889c3b7ce7a0d9a566b2970e51be83]
class MetaBlock--><rect fill="#FEFECE" filter="url(#f146txpoqv7ukn)" height="48" id="MetaBlock" style="stroke: #A80036; stroke-width: 1.5;" width="96" x="233.5" y="13.5"/><ellipse cx="248.5" cy="29.5" fill="#ADD1B2" rx="11" ry="11" style="stroke: #A80036; stroke-width: 1.0;"/><path d="M251.4688,35.1406 Q250.8906,35.4375 250.25,35.5781 Q249.6094,35.7344 248.9063,35.7344 Q246.4063,35.7344 245.0781,34.0938 Q243.7656,32.4375 243.7656,29.3125 Q243.7656,26.1875 245.0781,24.5313 Q246.4063,22.875 248.9063,22.875 Q249.6094,22.875 250.25,23.0313 Q250.9063,23.1875 251.4688,23.4844 L251.4688,26.2031 Q250.8438,25.625 250.25,25.3594 Q249.6563,25.0781 249.0313,25.0781 Q247.6875,25.0781 247,26.1563 Q246.3125,27.2188 246.3125,29.3125 Q246.3125,31.4063 247,32.4844 Q247.6875,33.5469 249.0313,33.5469 Q249.6563,33.5469 250.25,33.2813 Q250.8438,33 251.4688,32.4219 L251.4688,35.1406 Z "/><text fill="#000000" font-family="sans-serif" font-size="12" lengthAdjust="spacingAndGlyphs" textLength="64" x="262.5" y="33.6543">MetaBlock</text><line style="stroke: #A80036; stroke-width: 1.5;" x1="234.5" x2="328.5" y1="45.5" y2="45.5"/><line style="stroke: #A80036; stroke-width: 1.5;" x1="234.5" x2="328.5" y1="53.5" y2="53.5"/><!--MD5=[79b2c35a8607833edf9d17d918b0cb90]
class Signature--><rect fill="#FEFECE" filter="url(#f146txpoqv7ukn)" height="60.8047" id="Signature" style="stroke: #A80036; stroke-width: 1.5;" width="93" x="105" y="7"/><ellipse cx="120" cy="23" fill="#ADD1B2" rx="11" ry="11" style="stroke: #A80036; stroke-width: 1.0;"/><path d="M122.9688,28.6406 Q122.3906,28.9375 121.75,29.0781 Q121.1094,29.2344 120.4063,29.2344 Q117.9063,29.2344 116.5781,27.5938 Q115.2656,25.9375 115.2656,22.8125 Q115.2656,19.6875 116.5781,18.0313 Q117.9063,16.375 120.4063,16.375 Q121.1094,16.375 121.75,16.5313 Q122.4063,16.6875 122.9688,16.9844 L122.9688,19.7031 Q122.3438,19.125 121.75,18.8594 Q121.1563,18.5781 120.5313,18.5781 Q119.1875,18.5781 118.5,19.6563 Q117.8125,20.7188 117.8125,22.8125 Q117.8125,24.9063 118.5,25.9844 Q119.1875,27.0469 120.5313,27.0469 Q121.1563,27.0469 121.75,26.7813 Q122.3438,26.5 122.9688,25.9219 L122.9688,28.6406 Z "/><text fill="#000000" font-family="sans-serif" font-size="12" lengthAdjust="spacingAndGlyphs" textLength="61" x="134" y="27.1543">Signature</text><line style="stroke: #A80036; stroke-width: 1.5;" x1="106" x2="197" y1="39" y2="39"/><text fill="#000000" font-family="sans-serif" font-size="11" lengthAdjust="spacingAndGlyphs" textLength="54" x="111" y="53.2104">signature</text><line style="stroke: #A80036; stroke-width: 1.5;" x1="106" x2="197" y1="59.8047" y2="59.8047"/><!--MD5=[2086e18d236f9616263f91fe5276f8cf]
class Key--><rect fill="#FEFECE" filter="url(#f146txpoqv7ukn)" height="48" id="Key" style="stroke: #A80036; stroke-width: 1.5;" width="53" x="125" y="128"/><ellipse cx="140" cy="144" fill="#ADD1B2" rx="11" ry="11" style="stroke: #A80036; stroke-width: 1.0;"/><path d="M142.9688,149.6406 Q142.3906,149.9375 141.75,150.0781 Q141.1094,150.2344 140.4063,150.2344 Q137.9063,150.2344 136.5781,148.5938 Q135.2656,146.9375 135.2656,143.8125 Q135.2656,140.6875 136.5781,139.0313 Q137.9063,137.375 140.4063,137.375 Q141.1094,137.375 141.75,137.5313 Q142.4063,137.6875 142.9688,137.9844 L142.9688,140.7031 Q142.3438,140.125 141.75,139.8594 Q141.1563,139.5781 140.5313,139.5781 Q139.1875,139.5781 138.5,140.6563 Q137.8125,141.7188 137.8125,143.8125 Q137.8125,145.9063 138.5,146.9844 Q139.1875,148.0469 140.5313,148.0469 Q141.1563,148.0469 141.75,147.7813 Q142.3438,147.5 142.9688,146.9219 L142.9688,149.6406 Z "/><text fill="#000000" font-family="sans-serif" font-size="12" lengthAdjust="spacingAndGlyphs" textLength="21" x="154" y="148.1543">Key</text><line style="stroke: #A80036; stroke-width: 1.5;" x1="126" x2="177" y1="160" y2="160"/><line style="stroke: #A80036; stroke-width: 1.5;" x1="126" x2="177" y1="168" y2="168"/><!--MD5=[f9a29335b499db729be669fd1bd54958]
class Account--><rect fill="#FEFECE" filter="url(#f146txpoqv7ukn)" height="48" id="Account" style="stroke: #A80036; stroke-width: 1.5;" width="83" x="7" y="128"/><ellipse cx="22" cy="144" fill="#ADD1B2" rx="11" ry="11" style="stroke: #A80036; stroke-width: 1.0;"/><path d="M24.9688,149.6406 Q24.3906,149.9375 23.75,150.0781 Q23.1094,150.2344 22.4063,150.2344 Q19.9063,150.2344 18.5781,148.5938 Q17.2656,146.9375 17.2656,143.8125 Q17.2656,140.6875 18.5781,139.0313 Q19.9063,137.375 22.4063,137.375 Q23.1094,137.375 23.75,137.5313 Q24.4063,137.6875 24.9688,137.9844 L24.9688,140.7031 Q24.3438,140.125 23.75,139.8594 Q23.1563,139.5781 22.5313,139.5781 Q21.1875,139.5781 20.5,140.6563 Q19.8125,141.7188 19.8125,143.8125 Q19.8125,145.9063 20.5,146.9844 Q21.1875,148.0469 22.5313,148.0469 Q23.1563,148.0469 23.75,147.7813 Q24.3438,147.5 24.9688,146.9219 L24.9688,149.6406 Z "/><text fill="#000000" font-family="sans-serif" font-size="12" lengthAdjust="spacingAndGlyphs" textLength="51" x="36" y="148.1543">Account</text><line style="stroke: #A80036; stroke-width: 1.5;" x1="8" x2="89" y1="160" y2="160"/><line style="stroke: #A80036; stroke-width: 1.5;" x1="8" x2="89" y1="168" y2="168"/><!--MD5=[81381f6940610dc517ced37cfb71f559]
class Signable--><rect fill="#FEFECE" filter="url(#f146txpoqv7ukn)" height="48" id="Signable" style="stroke: #A80036; stroke-width: 1.5;" width="86" x="364.5" y="13.5"/><ellipse cx="379.5" cy="29.5" fill="#ADD1B2" rx="11" ry="11" style="stroke: #A80036; stroke-width: 1.0;"/><path d="M382.4688,35.1406 Q381.8906,35.4375 381.25,35.5781 Q380.6094,35.7344 379.9063,35.7344 Q377.4063,35.7344 376.0781,34.0938 Q374.7656,32.4375 374.7656,29.3125 Q374.7656,26.1875 376.0781,24.5313 Q377.4063,22.875 379.9063,22.875 Q380.6094,22.875 381.25,23.0313 Q381.9063,23.1875 382.4688,23.4844 L382.4688,26.2031 Q381.8438,25.625 381.25,25.3594 Q380.6563,25.0781 380.0313,25.0781 Q378.6875,25.0781 378,26.1563 Q377.3125,27.2188 377.3125,29.3125 Q377.3125,31.4063 378,32.4844 Q378.6875,33.5469 380.0313,33.5469 Q380.6563,33.5469 381.25,33.2813 Q381.8438,33 382.4688,32.4219 L382.4688,35.1406 Z "/><text fill="#000000" font-family="sans-serif" font-size="12" lengthAdjust="spacingAndGlyphs" textLength="54" x="393.5" y="33.6543">Signable</text><line style="stroke: #A80036; stroke-width: 1.5;" x1="365.5" x2="449.5" y1="45.5" y2="45.5"/><line style="stroke: #A80036; stroke-width: 1.5;" x1="365.5" x2="449.5" y1="53.5" y2="53.5"/><!--MD5=[caebf2ddd0fe15aa1cd7c0f919e7d6a1]
class Layout--><rect fill="#FEFECE" filter="url(#f146txpoqv7ukn)" height="48" id="Layout" style="stroke: #A80036; stroke-width: 1.5;" width="73" x="321" y="128"/><ellipse cx="336" cy="144" fill="#ADD1B2" rx="11" ry="11" style="stroke: #A80036; stroke-width: 1.0;"/><path d="M338.9688,149.6406 Q338.3906,149.9375 337.75,150.0781 Q337.1094,150.2344 336.4063,150.2344 Q333.9063,150.2344 332.5781,148.5938 Q331.2656,146.9375 331.2656,143.8125 Q331.2656,140.6875 332.5781,139.0313 Q333.9063,137.375 336.4063,137.375 Q337.1094,137.375 337.75,137.5313 Q338.4063,137.6875 338.9688,137.9844 L338.9688,140.7031 Q338.3438,140.125 337.75,139.8594 Q337.1563,139.5781 336.5313,139.5781 Q335.1875,139.5781 334.5,140.6563 Q333.8125,141.7188 333.8125,143.8125 Q333.8125,145.9063 334.5,146.9844 Q335.1875,148.0469 336.5313,148.0469 Q337.1563,148.0469 337.75,147.7813 Q338.3438,147.5 338.9688,146.9219 L338.9688,149.6406 Z "/><text fill="#000000" font-family="sans-serif" font-size="12" lengthAdjust="spacingAndGlyphs" textLength="41" x="350" y="148.1543">Layout</text><line style="stroke: #A80036; stroke-width: 1.5;" x1="322" x2="393" y1="160" y2="160"/><line style="stroke: #A80036; stroke-width: 1.5;" x1="322" x2="393" y1="168" y2="168"/><!--MD5=[d189332174d53557e6def82bbd003869]
class Link--><rect fill="#FEFECE" filter="url(#f146txpoqv7ukn)" height="48" id="Link" style="stroke: #A80036; stroke-width: 1.5;" width="56" x="429.5" y="128"/><ellipse cx="444.5" cy="144" fill="#ADD1B2" rx="11" ry="11" style="stroke: #A80036; stroke-width: 1.0;"/><path d="M447.4688,149.6406 Q446.8906,149.9375 446.25,150.0781 Q445.6094,150.2344 444.9063,150.2344 Q442.4063,150.2344 441.0781,148.5938 Q439.7656,146.9375 439.7656,143.8125 Q439.7656,140.6875 441.0781,139.0313 Q442.4063,137.375 444.9063,137.375 Q445.6094,137.375 446.25,137.5313 Q446.9063,137.6875 447.4688,137.9844 L447.4688,140.7031 Q446.8438,140.125 446.25,139.8594 Q445.6563,139.5781 445.0313,139.5781 Q443.6875,139.5781 443,140.6563 Q442.3125,141.7188 442.3125,143.8125 Q442.3125,145.9063 443,146.9844 Q443.6875,148.0469 445.0313,148.0469 Q445.6563,148.0469 446.25,147.7813 Q446.8438,147.5 447.4688,146.9219 L447.4688,149.6406 Z "/><text fill="#000000" font-family="sans-serif" font-size="12" lengthAdjust="spacingAndGlyphs" textLength="24" x="458.5" y="148.1543">Link</text><line style="stroke: #A80036; stroke-width: 1.5;" x1="430.5" x2="484.5" y1="160" y2="160"/><line style="stroke: #A80036; stroke-width: 1.5;" x1="430.5" x2="484.5" y1="168" y2="168"/><!--MD5=[fb48e2b68a9b7de4f4892360fc8fd506]
reverse link Signature to MetaBlock--><path d="M203.434,37.5 C213.407,37.5 223.38,37.5 233.353,37.5 " fill="none" id="Signature&lt;-MetaBlock" style="stroke: #A80036; stroke-width: 1.0;"/><polygon fill="#A80036" points="198.2188,37.5,207.2188,41.5,203.2188,37.5,207.2188,33.5,198.2188,37.5" style="stroke: #A80036; stroke-width: 1.0;"/><text fill="#000000" font-family="sans-serif" font-size="13" lengthAdjust="spacingAndGlyphs" textLength="23" x="206.042" y="33.5811">1..*</text><text fill="#000000" font-family="sans-serif" font-size="13" lengthAdjust="spacingAndGlyphs" textLength="8" x="217.368" y="33.4286">1</text><!--MD5=[b95b15b75752beea71b75b6b85f23bb5]
link MetaBlock to Signable--><path d="M329.7344,37.5 C339.5642,37.5 349.3941,37.5 359.224,37.5 " fill="none" id="MetaBlock-&gt;Signable" style="stroke: #A80036; stroke-width: 1.0;"/><polygon fill="#A80036" points="364.3644,37.5,355.3644,33.5,359.3644,37.5,355.3644,41.5,364.3644,37.5" style="stroke: #A80036; stroke-width: 1.0;"/><text fill="#000000" font-family="sans-serif" font-size="13" lengthAdjust="spacingAndGlyphs" textLength="8" x="337.4063" y="33.4751">1</text><text fill="#000000" font-family="sans-serif" font-size="13" lengthAdjust="spacingAndGlyphs" textLength="23" x="333.3398" y="33.4751">1..*</text><!--MD5=[14eb11bf44d41762abf5930cb935e70a]
reverse link Signable to Layout--><path d="M388.9773,79.917 C381.953,96.0026 374.196,113.7661 368.14,127.6343 " fill="none" id="Signable&lt;-Layout" style="stroke: #A80036; stroke-width: 1.0;"/><polygon fill="none" points="382.5995,77.0303,397.0184,61.503,395.4296,82.633,382.5995,77.0303" style="stroke: #A80036; stroke-width: 1.0;"/><!--MD5=[f98e75c4cceb6ba644f5e1ccdfc51b9d]
reverse link Signable to Link--><path d="M426.0227,79.917 C433.047,96.0026 440.804,113.7661 446.86,127.6343 " fill="none" id="Signable&lt;-Link" style="stroke: #A80036; stroke-width: 1.0;"/><polygon fill="none" points="419.5704,82.633,417.9816,61.503,432.4005,77.0303,419.5704,82.633" style="stroke: #A80036; stroke-width: 1.0;"/><!--MD5=[01a1d1c61194c5abb9b94c9e20f3f455]
link Signature to Key--><path d="M151.5,68.1839 C151.5,85.1131 151.5,106.0245 151.5,122.7248 " fill="none" id="Signature-&gt;Key" style="stroke: #A80036; stroke-width: 1.0;"/><polygon fill="#A80036" points="151.5,127.7634,155.5,118.7634,151.5,122.7634,147.5,118.7634,151.5,127.7634" style="stroke: #A80036; stroke-width: 1.0;"/><text fill="#000000" font-family="sans-serif" font-size="13" lengthAdjust="spacingAndGlyphs" textLength="8" x="142.7125" y="87.8005">1</text><text fill="#000000" font-family="sans-serif" font-size="13" lengthAdjust="spacingAndGlyphs" textLength="8" x="142.525" y="117.1107">1</text><!--MD5=[8a31c0b3fc8048f0467810548e2e3417]
link Account to Key--><path d="M90.3438,152 C101.8105,152 113.2773,152 124.7441,152 " fill="none" id="Account-Key" style="stroke: #A80036; stroke-width: 1.0;"/><text fill="#000000" font-family="sans-serif" font-size="13" lengthAdjust="spacingAndGlyphs" textLength="8" x="97.9367" y="147.8357">1</text><text fill="#000000" font-family="sans-serif" font-size="13" lengthAdjust="spacingAndGlyphs" textLength="8" x="108.8629" y="147.162">1</text><text fill="#000000" font-family="sans-serif" font-size="14" lengthAdjust="spacingAndGlyphs" textLength="220" x="133.25" y="201.9951">MetaBlock for Layouts and Links</text><!--MD5=[deee2c3b8bcb1e6f9c77374a1e541352]
@startuml

caption MetaBlock for Layouts and Links

skinparam shadowing<<with_shadow>> true
skinparam backgroundColor #SeaShell

class MetaBlock {  
}

class Signature {
    signature
}

class Key {
}

class Account {
}

class Signable {
}

class Layout {
}

class Link {
}

MetaBlock "1" -left-> "1..*" Signature
MetaBlock "1" -right-> "1..*" Signable
Signable <|- - Layout
Signable <|- - Link
Signature "1" -down-> "1" Key
Account "1" -right- "1" Key

@enduml

PlantUML version 1.2020.15(Sun Jun 28 13:39:45 CEST 2020)
(GPL source distribution)
Java Runtime: OpenJDK Runtime Environment
JVM: OpenJDK 64-Bit Server VM
Default Encoding: UTF-8
Language: en
Country: US
--></g></svg>