<?xml version="1.0" encoding="UTF-8" standalone="no"?><svg xmlns="http://www.w3.org/2000/svg" xmlns:xlink="http://www.w3.org/1999/xlink" contentScriptType="application/ecmascript" contentStyleType="text/css" height="284px" preserveAspectRatio="none" style="width:380px;height:284px;background:#FFF5EE;" version="1.1" viewBox="0 0 380 284" width="380px" zoomAndPan="magnify"><defs><filter height="300%" id="fw60ayuj70e1i" width="300%" x="-1" y="-1"><feGaussianBlur result="blurOut" stdDeviation="2.0"/><feColorMatrix in="blurOut" result="blurOut2" type="matrix" values="0 0 0 0 0 0 0 0 0 0 0 0 0 0 0 0 0 0 .4 0"/><feOffset dx="4.0" dy="4.0" in="blurOut2" result="blurOut3"/><feBlend in="SourceGraphic" in2="blurOut3" mode="normal"/></filter></defs><g><!--MD5=[d189332174d53557e6def82bbd003869]
class Link--><rect fill="#FEFECE" filter="url(#fw60ayuj70e1i)" height="60.8047" id="Link" style="stroke: #A80036; stroke-width: 1.5;" width="56" x="53.2203" y="36"/><ellipse cx="68.2203" cy="52" fill="#ADD1B2" rx="11" ry="11" style="stroke: #A80036; stroke-width: 1.0;"/><path d="M71.1891,57.6406 Q70.6109,57.9375 69.9703,58.0781 Q69.3297,58.2344 68.6266,58.2344 Q66.1266,58.2344 64.7984,56.5938 Q63.4859,54.9375 63.4859,51.8125 Q63.4859,48.6875 64.7984,47.0313 Q66.1266,45.375 68.6266,45.375 Q69.3297,45.375 69.9703,45.5313 Q70.6266,45.6875 71.1891,45.9844 L71.1891,48.7031 Q70.5641,48.125 69.9703,47.8594 Q69.3766,47.5781 68.7516,47.5781 Q67.4078,47.5781 66.7203,48.6563 Q66.0328,49.7188 66.0328,51.8125 Q66.0328,53.9063 66.7203,54.9844 Q67.4078,56.0469 68.7516,56.0469 Q69.3766,56.0469 69.9703,55.7813 Q70.5641,55.5 71.1891,54.9219 L71.1891,57.6406 Z "/><text fill="#000000" font-family="sans-serif" font-size="12" lengthAdjust="spacingAndGlyphs" textLength="24" x="82.2203" y="56.1543">Link</text><line style="stroke: #A80036; stroke-width: 1.5;" x1="54.2203" x2="108.2203" y1="68" y2="68"/><text fill="#000000" font-family="sans-serif" font-size="11" lengthAdjust="spacingAndGlyphs" textLength="29" x="59.2203" y="82.2104">runId</text><line style="stroke: #A80036; stroke-width: 1.5;" x1="54.2203" x2="108.2203" y1="88.8047" y2="88.8047"/><!--MD5=[00cff116ff6c3ad2c4e5e0dddbe6ceff]
class Artifact--><rect fill="#FEFECE" filter="url(#fw60ayuj70e1i)" height="73.6094" id="Artifact" style="stroke: #A80036; stroke-width: 1.5;" width="77" x="42.7203" y="174"/><ellipse cx="57.7203" cy="190" fill="#ADD1B2" rx="11" ry="11" style="stroke: #A80036; stroke-width: 1.0;"/><path d="M60.6891,195.6406 Q60.1109,195.9375 59.4703,196.0781 Q58.8297,196.2344 58.1266,196.2344 Q55.6266,196.2344 54.2984,194.5938 Q52.9859,192.9375 52.9859,189.8125 Q52.9859,186.6875 54.2984,185.0313 Q55.6266,183.375 58.1266,183.375 Q58.8297,183.375 59.4703,183.5313 Q60.1266,183.6875 60.6891,183.9844 L60.6891,186.7031 Q60.0641,186.125 59.4703,185.8594 Q58.8766,185.5781 58.2516,185.5781 Q56.9078,185.5781 56.2203,186.6563 Q55.5328,187.7188 55.5328,189.8125 Q55.5328,191.9063 56.2203,192.9844 Q56.9078,194.0469 58.2516,194.0469 Q58.8766,194.0469 59.4703,193.7813 Q60.0641,193.5 60.6891,192.9219 L60.6891,195.6406 Z "/><text fill="#000000" font-family="sans-serif" font-size="12" lengthAdjust="spacingAndGlyphs" textLength="45" x="71.7203" y="194.1543">Artifact</text><line style="stroke: #A80036; stroke-width: 1.5;" x1="43.7203" x2="118.7203" y1="206" y2="206"/><text fill="#000000" font-family="sans-serif" font-size="11" lengthAdjust="spacingAndGlyphs" textLength="15" x="48.7203" y="220.2104">uri</text><text fill="#000000" font-family="sans-serif" font-size="11" lengthAdjust="spacingAndGlyphs" textLength="28" x="48.7203" y="233.0151">hash</text><line style="stroke: #A80036; stroke-width: 1.5;" x1="43.7203" x2="118.7203" y1="239.6094" y2="239.6094"/><!--MD5=[a538883d7f0f7706ce941341ae97cf4d]
class LayoutSegment--><rect fill="#FEFECE" filter="url(#fw60ayuj70e1i)" height="48" id="LayoutSegment" style="stroke: #A80036; stroke-width: 1.5;" width="129" x="144.7203" y="42.5"/><ellipse cx="159.7203" cy="58.5" fill="#ADD1B2" rx="11" ry="11" style="stroke: #A80036; stroke-width: 1.0;"/><path d="M162.6891,64.1406 Q162.1109,64.4375 161.4703,64.5781 Q160.8297,64.7344 160.1266,64.7344 Q157.6266,64.7344 156.2984,63.0938 Q154.9859,61.4375 154.9859,58.3125 Q154.9859,55.1875 156.2984,53.5313 Q157.6266,51.875 160.1266,51.875 Q160.8297,51.875 161.4703,52.0313 Q162.1266,52.1875 162.6891,52.4844 L162.6891,55.2031 Q162.0641,54.625 161.4703,54.3594 Q160.8766,54.0781 160.2516,54.0781 Q158.9078,54.0781 158.2203,55.1563 Q157.5328,56.2188 157.5328,58.3125 Q157.5328,60.4063 158.2203,61.4844 Q158.9078,62.5469 160.2516,62.5469 Q160.8766,62.5469 161.4703,62.2813 Q162.0641,62 162.6891,61.4219 L162.6891,64.1406 Z "/><text fill="#000000" font-family="sans-serif" font-size="12" lengthAdjust="spacingAndGlyphs" textLength="97" x="173.7203" y="62.6543">LayoutSegment</text><line style="stroke: #A80036; stroke-width: 1.5;" x1="145.7203" x2="272.7203" y1="74.5" y2="74.5"/><line style="stroke: #A80036; stroke-width: 1.5;" x1="145.7203" x2="272.7203" y1="82.5" y2="82.5"/><!--MD5=[5a2ba6e4c7f78036fecb159f353da9e9]
class Step--><rect fill="#FEFECE" filter="url(#fw60ayuj70e1i)" height="48" id="Step" style="stroke: #A80036; stroke-width: 1.5;" width="61" x="308.7203" y="42.5"/><ellipse cx="323.7203" cy="58.5" fill="#ADD1B2" rx="11" ry="11" style="stroke: #A80036; stroke-width: 1.0;"/><path d="M326.6891,64.1406 Q326.1109,64.4375 325.4703,64.5781 Q324.8297,64.7344 324.1266,64.7344 Q321.6266,64.7344 320.2984,63.0938 Q318.9859,61.4375 318.9859,58.3125 Q318.9859,55.1875 320.2984,53.5313 Q321.6266,51.875 324.1266,51.875 Q324.8297,51.875 325.4703,52.0313 Q326.1266,52.1875 326.6891,52.4844 L326.6891,55.2031 Q326.0641,54.625 325.4703,54.3594 Q324.8766,54.0781 324.2516,54.0781 Q322.9078,54.0781 322.2203,55.1563 Q321.5328,56.2188 321.5328,58.3125 Q321.5328,60.4063 322.2203,61.4844 Q322.9078,62.5469 324.2516,62.5469 Q324.8766,62.5469 325.4703,62.2813 Q326.0641,62 326.6891,61.4219 L326.6891,64.1406 Z "/><text fill="#000000" font-family="sans-serif" font-size="12" lengthAdjust="spacingAndGlyphs" textLength="29" x="337.7203" y="62.6543">Step</text><line style="stroke: #A80036; stroke-width: 1.5;" x1="309.7203" x2="368.7203" y1="74.5" y2="74.5"/><line style="stroke: #A80036; stroke-width: 1.5;" x1="309.7203" x2="368.7203" y1="82.5" y2="82.5"/><!--MD5=[edee868d0827e6f463eb67775695443c]
link LayoutSegment to Step--><path d="M273.9664,66.5 C285.5218,66.5 297.0772,66.5 308.6326,66.5 " fill="none" id="LayoutSegment-Step" style="stroke: #A80036; stroke-width: 1.0;"/><text fill="#000000" font-family="sans-serif" font-size="13" lengthAdjust="spacingAndGlyphs" textLength="8" x="281.9152" y="62.7074">1</text><text fill="#000000" font-family="sans-serif" font-size="13" lengthAdjust="spacingAndGlyphs" textLength="8" x="292.6342" y="61.8479">1</text><!--MD5=[575f6921bd0933d36fe15cc930ba6053]
link Link to LayoutSegment--><path d="M109.2203,66.5 C119.1996,66.5 129.1788,66.5 139.1581,66.5 " fill="none" id="Link-&gt;LayoutSegment" style="stroke: #A80036; stroke-width: 1.0;"/><polygon fill="#A80036" points="144.3766,66.5,135.3766,62.5,139.3766,66.5,135.3766,70.5,144.3766,66.5" style="stroke: #A80036; stroke-width: 1.0;"/><text fill="#000000" font-family="sans-serif" font-size="13" lengthAdjust="spacingAndGlyphs" textLength="8" x="117.4203" y="61.6871">1</text><text fill="#000000" font-family="sans-serif" font-size="13" lengthAdjust="spacingAndGlyphs" textLength="8" x="128.8468" y="62.7538">1</text><!--MD5=[6e0fe58ea72936dc6d42cc7ca277c4f1]
link Link to Step--><path d="M109.4676,40.5443 C119.795,32.6862 132.0664,25.0655 144.7203,21 C199.3056,3.4625 219.0085,3.8617 273.7203,21 C286.0847,24.8731 298.1618,31.9943 308.5095,39.4715 " fill="none" id="Link-&gt;Step" style="stroke: #A80036; stroke-width: 1.0;"/><polygon fill="#A80036" points="312.5355,42.4612,307.6948,33.884,308.5213,39.4802,302.9252,40.3067,312.5355,42.4612" style="stroke: #A80036; stroke-width: 1.0;"/><text fill="#000000" font-family="sans-serif" font-size="13" lengthAdjust="spacingAndGlyphs" textLength="8" x="117.3279" y="29.4964">1</text><text fill="#000000" font-family="sans-serif" font-size="13" lengthAdjust="spacingAndGlyphs" textLength="8" x="296.6725" y="31.4633">1</text><!--MD5=[6f7d5829cf0f0de2745085b8c655a37b]
link Link to Artifact--><path d="M52.9397,86.7972 C36.2079,101.5033 19.6362,122.5042 27.2203,144 C30.3658,152.9154 35.2559,161.5171 40.8358,169.4154 " fill="none" id="Link-&gt;Artifact" style="stroke: #A80036; stroke-width: 1.0;"/><polygon fill="#A80036" points="44,173.7286,41.9013,164.106,41.0423,169.6972,35.4511,168.8382,44,173.7286" style="stroke: #A80036; stroke-width: 1.0;"/><text fill="#000000" font-family="sans-serif" font-size="13" lengthAdjust="spacingAndGlyphs" textLength="60" x="28.2203" y="140.0669">materials</text><text fill="#000000" font-family="sans-serif" font-size="13" lengthAdjust="spacingAndGlyphs" textLength="8" x="37.0713" y="87.0234">1</text><text fill="#000000" font-family="sans-serif" font-size="13" lengthAdjust="spacingAndGlyphs" textLength="23" x="12.3217" y="162.8672">0..*</text><!--MD5=[6f7d5829cf0f0de2745085b8c655a37b]
link Link to Artifact--><path d="M88.4993,97.1042 C90.4367,106.6247 92.2574,117.1957 93.2203,127 C94.5551,140.5899 93.3499,155.3515 91.2692,168.6545 " fill="none" id="Link-&gt;Artifact-1" style="stroke: #A80036; stroke-width: 1.0;"/><polygon fill="#A80036" points="90.3982,173.8688,95.8265,165.6509,91.2221,168.9371,87.9358,164.3327,90.3982,173.8688" style="stroke: #A80036; stroke-width: 1.0;"/><text fill="#000000" font-family="sans-serif" font-size="13" lengthAdjust="spacingAndGlyphs" textLength="56" x="94.2203" y="140.0669">products</text><text fill="#000000" font-family="sans-serif" font-size="13" lengthAdjust="spacingAndGlyphs" textLength="8" x="81.1756" y="117.0639">1</text><text fill="#000000" font-family="sans-serif" font-size="13" lengthAdjust="spacingAndGlyphs" textLength="23" x="66.9846" y="163.0324">0..*</text><text fill="#000000" font-family="sans-serif" font-size="14" lengthAdjust="spacingAndGlyphs" textLength="167" x="118" y="270.9951">Link and related Classes</text><!--MD5=[84920f3a8d19a59976a3252342e023ff]
@startuml

caption Link and related Classes

skinparam shadowing<<with_shadow>> true
skinparam backgroundColor #SeaShell

class Link {
    runId
}

class Artifact {
    uri
    hash
}

class LayoutSegment {
}

class LayoutSegment {
}


LayoutSegment "1" -right- "1" Step
Link "1" -right-> "1" LayoutSegment
Link "1" -right-> "1" Step
Link "1" - -> "0..*" Artifact: materials
Link "1" - -> "0..*" Artifact: products

@enduml

PlantUML version 1.2020.10(Sun May 17 11:35:57 CEST 2020)
(GPL source distribution)
Java Runtime: OpenJDK Runtime Environment
JVM: OpenJDK 64-Bit Server VM
Java Version: 1.8.0_252-8u252-b09-1~18.04-b09
Operating System: Linux
Default Encoding: UTF-8
Language: en
Country: US
--></g></svg>