<?xml version="1.0" encoding="UTF-8" standalone="no"?><svg xmlns="http://www.w3.org/2000/svg" xmlns:xlink="http://www.w3.org/1999/xlink" contentScriptType="application/ecmascript" contentStyleType="text/css" height="1524px" preserveAspectRatio="none" style="width:1290px;height:1524px;" version="1.1" viewBox="0 0 1290 1524" width="1290px" zoomAndPan="magnify"><defs><filter height="300%" id="fxvfcg8v2vznv" width="300%" x="-1" y="-1"><feGaussianBlur result="blurOut" stdDeviation="2.0"/><feColorMatrix in="blurOut" result="blurOut2" type="matrix" values="0 0 0 0 0 0 0 0 0 0 0 0 0 0 0 0 0 0 .4 0"/><feOffset dx="4.0" dy="4.0" in="blurOut2" result="blurOut3"/><feBlend in="SourceGraphic" in2="blurOut3" mode="normal"/></filter></defs><g><!--MD5=[79b2c35a8607833edf9d17d918b0cb90]
class Signature--><rect fill="#FFC0CB" filter="url(#fxvfcg8v2vznv)" height="96.2656" id="Signature" rx="12.5" ry="12.5" style="stroke: #708090; stroke-width: 1.5;" width="126" x="465.5" y="209"/><ellipse cx="479.5" cy="232.1484" fill="#FFFAFA" rx="10" ry="10" style="stroke: #708090; stroke-width: 1.0;"/><path d="M481.3281,236.3984 Q480.9219,236.6016 480.4688,236.7109 Q480.0156,236.8203 479.5313,236.8203 Q477.75,236.8203 476.8125,235.6641 Q475.8906,234.4922 475.8906,232.2891 Q475.8906,230.0703 476.8125,228.9141 Q477.75,227.7422 479.5313,227.7422 Q480.0156,227.7422 480.4688,227.8516 Q480.9375,227.9453 481.3281,228.1641 L481.3281,230.0859 Q480.8906,229.6797 480.4688,229.4922 Q480.0469,229.2891 479.6094,229.2891 Q478.6563,229.2891 478.1719,230.0547 Q477.6875,230.8047 477.6875,232.2891 Q477.6875,233.7578 478.1719,234.5078 Q478.6563,235.2578 479.6094,235.2578 Q480.0469,235.2578 480.4688,235.0703 Q480.8906,234.8828 481.3281,234.4766 L481.3281,236.3984 Z "/><text fill="#000000" font-family="sans-serif" font-size="14" font-weight="bold" lengthAdjust="spacingAndGlyphs" textLength="76" x="502.5" y="236.9951">Signature</text><line style="stroke: #708090; stroke-width: 1.5;" x1="466.5" x2="590.5" y1="255.2969" y2="255.2969"/><text fill="#000000" font-family="sans-serif" font-size="12" lengthAdjust="spacingAndGlyphs" textLength="60" x="481.5" y="280.4355">signature</text><line style="stroke: #708090; stroke-width: 1.5;" x1="466.5" x2="590.5" y1="297.2656" y2="297.2656"/><!--MD5=[2086e18d236f9616263f91fe5276f8cf]
class Key--><rect fill="#FFC0CB" filter="url(#fxvfcg8v2vznv)" height="96.2656" id="Key" rx="12.5" ry="12.5" style="stroke: #708090; stroke-width: 1.5;" width="80" x="488.5" y="515"/><ellipse cx="502.5" cy="538.1484" fill="#FFFAFA" rx="10" ry="10" style="stroke: #708090; stroke-width: 1.0;"/><path d="M504.3281,542.3984 Q503.9219,542.6016 503.4688,542.7109 Q503.0156,542.8203 502.5313,542.8203 Q500.75,542.8203 499.8125,541.6641 Q498.8906,540.4922 498.8906,538.2891 Q498.8906,536.0703 499.8125,534.9141 Q500.75,533.7422 502.5313,533.7422 Q503.0156,533.7422 503.4688,533.8516 Q503.9375,533.9453 504.3281,534.1641 L504.3281,536.0859 Q503.8906,535.6797 503.4688,535.4922 Q503.0469,535.2891 502.6094,535.2891 Q501.6563,535.2891 501.1719,536.0547 Q500.6875,536.8047 500.6875,538.2891 Q500.6875,539.7578 501.1719,540.5078 Q501.6563,541.2578 502.6094,541.2578 Q503.0469,541.2578 503.4688,541.0703 Q503.8906,540.8828 504.3281,540.4766 L504.3281,542.3984 Z "/><text fill="#000000" font-family="sans-serif" font-size="14" font-weight="bold" lengthAdjust="spacingAndGlyphs" textLength="30" x="525.5" y="542.9951">Key</text><line style="stroke: #708090; stroke-width: 1.5;" x1="489.5" x2="567.5" y1="561.2969" y2="561.2969"/><text fill="#000000" font-family="sans-serif" font-size="12" lengthAdjust="spacingAndGlyphs" textLength="32" x="504.5" y="586.4355">keyId</text><line style="stroke: #708090; stroke-width: 1.5;" x1="489.5" x2="567.5" y1="603.2656" y2="603.2656"/><!--MD5=[670714b8b13484707ba57e7da2903ab4]
class PubKey--><rect fill="#FFC0CB" filter="url(#fxvfcg8v2vznv)" height="96.2656" id="PubKey" rx="12.5" ry="12.5" style="stroke: #708090; stroke-width: 1.5;" width="110" x="603.5" y="515"/><ellipse cx="617.5" cy="538.1484" fill="#FFFAFA" rx="10" ry="10" style="stroke: #708090; stroke-width: 1.0;"/><path d="M619.3281,542.3984 Q618.9219,542.6016 618.4688,542.7109 Q618.0156,542.8203 617.5313,542.8203 Q615.75,542.8203 614.8125,541.6641 Q613.8906,540.4922 613.8906,538.2891 Q613.8906,536.0703 614.8125,534.9141 Q615.75,533.7422 617.5313,533.7422 Q618.0156,533.7422 618.4688,533.8516 Q618.9375,533.9453 619.3281,534.1641 L619.3281,536.0859 Q618.8906,535.6797 618.4688,535.4922 Q618.0469,535.2891 617.6094,535.2891 Q616.6563,535.2891 616.1719,536.0547 Q615.6875,536.8047 615.6875,538.2891 Q615.6875,539.7578 616.1719,540.5078 Q616.6563,541.2578 617.6094,541.2578 Q618.0469,541.2578 618.4688,541.0703 Q618.8906,540.8828 619.3281,540.4766 L619.3281,542.3984 Z "/><text fill="#000000" font-family="sans-serif" font-size="14" font-weight="bold" lengthAdjust="spacingAndGlyphs" textLength="60" x="640.5" y="542.9951">PubKey</text><line style="stroke: #708090; stroke-width: 1.5;" x1="604.5" x2="712.5" y1="561.2969" y2="561.2969"/><text fill="#000000" font-family="sans-serif" font-size="12" lengthAdjust="spacingAndGlyphs" textLength="32" x="619.5" y="586.4355">keyId</text><line style="stroke: #708090; stroke-width: 1.5;" x1="604.5" x2="712.5" y1="603.2656" y2="603.2656"/><!--MD5=[361b5ccf95a296519de30c4319c656f1]
class RSAKey--><rect fill="#FFC0CB" filter="url(#fxvfcg8v2vznv)" height="62.2969" id="RSAKey" rx="12.5" ry="12.5" style="stroke: #708090; stroke-width: 1.5;" width="111" x="462" y="743"/><ellipse cx="476" cy="766.1484" fill="#FFFAFA" rx="10" ry="10" style="stroke: #708090; stroke-width: 1.0;"/><path d="M477.8281,770.3984 Q477.4219,770.6016 476.9688,770.7109 Q476.5156,770.8203 476.0313,770.8203 Q474.25,770.8203 473.3125,769.6641 Q472.3906,768.4922 472.3906,766.2891 Q472.3906,764.0703 473.3125,762.9141 Q474.25,761.7422 476.0313,761.7422 Q476.5156,761.7422 476.9688,761.8516 Q477.4375,761.9453 477.8281,762.1641 L477.8281,764.0859 Q477.3906,763.6797 476.9688,763.4922 Q476.5469,763.2891 476.1094,763.2891 Q475.1563,763.2891 474.6719,764.0547 Q474.1875,764.8047 474.1875,766.2891 Q474.1875,767.7578 474.6719,768.5078 Q475.1563,769.2578 476.1094,769.2578 Q476.5469,769.2578 476.9688,769.0703 Q477.3906,768.8828 477.8281,768.4766 L477.8281,770.3984 Z "/><text fill="#000000" font-family="sans-serif" font-size="14" font-weight="bold" lengthAdjust="spacingAndGlyphs" textLength="61" x="499" y="770.9951">RSAKey</text><line style="stroke: #708090; stroke-width: 1.5;" x1="463" x2="572" y1="789.2969" y2="789.2969"/><line style="stroke: #708090; stroke-width: 1.5;" x1="463" x2="572" y1="797.2969" y2="797.2969"/><!--MD5=[4e91015b59db08b230e9bac411411292]
class GPGKey--><rect fill="#FFC0CB" filter="url(#fxvfcg8v2vznv)" height="62.2969" id="GPGKey" rx="12.5" ry="12.5" style="stroke: #708090; stroke-width: 1.5;" width="114" x="608.5" y="743"/><ellipse cx="622.5" cy="766.1484" fill="#FFFAFA" rx="10" ry="10" style="stroke: #708090; stroke-width: 1.0;"/><path d="M624.3281,770.3984 Q623.9219,770.6016 623.4688,770.7109 Q623.0156,770.8203 622.5313,770.8203 Q620.75,770.8203 619.8125,769.6641 Q618.8906,768.4922 618.8906,766.2891 Q618.8906,764.0703 619.8125,762.9141 Q620.75,761.7422 622.5313,761.7422 Q623.0156,761.7422 623.4688,761.8516 Q623.9375,761.9453 624.3281,762.1641 L624.3281,764.0859 Q623.8906,763.6797 623.4688,763.4922 Q623.0469,763.2891 622.6094,763.2891 Q621.6563,763.2891 621.1719,764.0547 Q620.6875,764.8047 620.6875,766.2891 Q620.6875,767.7578 621.1719,768.5078 Q621.6563,769.2578 622.6094,769.2578 Q623.0469,769.2578 623.4688,769.0703 Q623.8906,768.8828 624.3281,768.4766 L624.3281,770.3984 Z "/><text fill="#000000" font-family="sans-serif" font-size="14" font-weight="bold" lengthAdjust="spacingAndGlyphs" textLength="64" x="645.5" y="770.9951">GPGKey</text><line style="stroke: #708090; stroke-width: 1.5;" x1="609.5" x2="721.5" y1="789.2969" y2="789.2969"/><line style="stroke: #708090; stroke-width: 1.5;" x1="609.5" x2="721.5" y1="797.2969" y2="797.2969"/><!--MD5=[d349b59a04f19c907a7ef8de1809a931]
class Verifyable--><rect fill="#AFEEEE" filter="url(#fxvfcg8v2vznv)" height="62.2969" id="Verifyable" rx="12.5" ry="12.5" style="stroke: #708090; stroke-width: 1.5;" width="130" x="161.5" y="7"/><ellipse cx="175.5" cy="30.1484" fill="#FFFAFA" rx="10" ry="10" style="stroke: #708090; stroke-width: 1.0;"/><path d="M177.3281,34.3984 Q176.9219,34.6016 176.4688,34.7109 Q176.0156,34.8203 175.5313,34.8203 Q173.75,34.8203 172.8125,33.6641 Q171.8906,32.4922 171.8906,30.2891 Q171.8906,28.0703 172.8125,26.9141 Q173.75,25.7422 175.5313,25.7422 Q176.0156,25.7422 176.4688,25.8516 Q176.9375,25.9453 177.3281,26.1641 L177.3281,28.0859 Q176.8906,27.6797 176.4688,27.4922 Q176.0469,27.2891 175.6094,27.2891 Q174.6563,27.2891 174.1719,28.0547 Q173.6875,28.8047 173.6875,30.2891 Q173.6875,31.7578 174.1719,32.5078 Q174.6563,33.2578 175.6094,33.2578 Q176.0469,33.2578 176.4688,33.0703 Q176.8906,32.8828 177.3281,32.4766 L177.3281,34.3984 Z "/><text fill="#000000" font-family="sans-serif" font-size="14" font-weight="bold" lengthAdjust="spacingAndGlyphs" textLength="80" x="198.5" y="34.9951">Verifyable</text><line style="stroke: #708090; stroke-width: 1.5;" x1="162.5" x2="290.5" y1="53.2969" y2="53.2969"/><line style="stroke: #708090; stroke-width: 1.5;" x1="162.5" x2="290.5" y1="61.2969" y2="61.2969"/><!--MD5=[81381f6940610dc517ced37cfb71f559]
class Signable--><rect fill="#AFEEEE" filter="url(#fxvfcg8v2vznv)" height="62.2969" id="Signable" rx="12.5" ry="12.5" style="stroke: #708090; stroke-width: 1.5;" width="117" x="7" y="532"/><ellipse cx="21" cy="555.1484" fill="#FFFAFA" rx="10" ry="10" style="stroke: #708090; stroke-width: 1.0;"/><path d="M22.8281,559.3984 Q22.4219,559.6016 21.9688,559.7109 Q21.5156,559.8203 21.0313,559.8203 Q19.25,559.8203 18.3125,558.6641 Q17.3906,557.4922 17.3906,555.2891 Q17.3906,553.0703 18.3125,551.9141 Q19.25,550.7422 21.0313,550.7422 Q21.5156,550.7422 21.9688,550.8516 Q22.4375,550.9453 22.8281,551.1641 L22.8281,553.0859 Q22.3906,552.6797 21.9688,552.4922 Q21.5469,552.2891 21.1094,552.2891 Q20.1563,552.2891 19.6719,553.0547 Q19.1875,553.8047 19.1875,555.2891 Q19.1875,556.7578 19.6719,557.5078 Q20.1563,558.2578 21.1094,558.2578 Q21.5469,558.2578 21.9688,558.0703 Q22.3906,557.8828 22.8281,557.4766 L22.8281,559.3984 Z "/><text fill="#000000" font-family="sans-serif" font-size="14" font-weight="bold" lengthAdjust="spacingAndGlyphs" textLength="67" x="44" y="559.9951">Signable</text><line style="stroke: #708090; stroke-width: 1.5;" x1="8" x2="123" y1="578.2969" y2="578.2969"/><line style="stroke: #708090; stroke-width: 1.5;" x1="8" x2="123" y1="586.2969" y2="586.2969"/><!--MD5=[444cace2dc642d914d4ec3994830e2b5]
class LayoutMetablock--><rect fill="#98FB98" filter="url(#fxvfcg8v2vznv)" height="62.2969" id="LayoutMetablock" rx="12.5" ry="12.5" style="stroke: #708090; stroke-width: 1.5;" width="183" x="239" y="226"/><ellipse cx="253" cy="249.1484" fill="#FFFAFA" rx="10" ry="10" style="stroke: #708090; stroke-width: 1.0;"/><path d="M254.8281,253.3984 Q254.4219,253.6016 253.9688,253.7109 Q253.5156,253.8203 253.0313,253.8203 Q251.25,253.8203 250.3125,252.6641 Q249.3906,251.4922 249.3906,249.2891 Q249.3906,247.0703 250.3125,245.9141 Q251.25,244.7422 253.0313,244.7422 Q253.5156,244.7422 253.9688,244.8516 Q254.4375,244.9453 254.8281,245.1641 L254.8281,247.0859 Q254.3906,246.6797 253.9688,246.4922 Q253.5469,246.2891 253.1094,246.2891 Q252.1563,246.2891 251.6719,247.0547 Q251.1875,247.8047 251.1875,249.2891 Q251.1875,250.7578 251.6719,251.5078 Q252.1563,252.2578 253.1094,252.2578 Q253.5469,252.2578 253.9688,252.0703 Q254.3906,251.8828 254.8281,251.4766 L254.8281,253.3984 Z "/><text fill="#000000" font-family="sans-serif" font-size="14" font-weight="bold" lengthAdjust="spacingAndGlyphs" textLength="133" x="276" y="253.9951">LayoutMetablock</text><line style="stroke: #708090; stroke-width: 1.5;" x1="240" x2="421" y1="272.2969" y2="272.2969"/><line style="stroke: #708090; stroke-width: 1.5;" x1="240" x2="421" y1="280.2969" y2="280.2969"/><!--MD5=[f3bad60b4b985436259fc33e8a775701]
class LinkMetablock--><rect fill="#98FB98" filter="url(#fxvfcg8v2vznv)" height="62.2969" id="LinkMetablock" rx="12.5" ry="12.5" style="stroke: #708090; stroke-width: 1.5;" width="162" x="41.5" y="226"/><ellipse cx="55.5" cy="249.1484" fill="#FFFAFA" rx="10" ry="10" style="stroke: #708090; stroke-width: 1.0;"/><path d="M57.3281,253.3984 Q56.9219,253.6016 56.4688,253.7109 Q56.0156,253.8203 55.5313,253.8203 Q53.75,253.8203 52.8125,252.6641 Q51.8906,251.4922 51.8906,249.2891 Q51.8906,247.0703 52.8125,245.9141 Q53.75,244.7422 55.5313,244.7422 Q56.0156,244.7422 56.4688,244.8516 Q56.9375,244.9453 57.3281,245.1641 L57.3281,247.0859 Q56.8906,246.6797 56.4688,246.4922 Q56.0469,246.2891 55.6094,246.2891 Q54.6563,246.2891 54.1719,247.0547 Q53.6875,247.8047 53.6875,249.2891 Q53.6875,250.7578 54.1719,251.5078 Q54.6563,252.2578 55.6094,252.2578 Q56.0469,252.2578 56.4688,252.0703 Q56.8906,251.8828 57.3281,251.4766 L57.3281,253.3984 Z "/><text fill="#000000" font-family="sans-serif" font-size="14" font-weight="bold" lengthAdjust="spacingAndGlyphs" textLength="112" x="78.5" y="253.9951">LinkMetablock</text><line style="stroke: #708090; stroke-width: 1.5;" x1="42.5" x2="202.5" y1="272.2969" y2="272.2969"/><line style="stroke: #708090; stroke-width: 1.5;" x1="42.5" x2="202.5" y1="280.2969" y2="280.2969"/><!--MD5=[caebf2ddd0fe15aa1cd7c0f919e7d6a1]
class Layout--><rect fill="#DCDCDC" filter="url(#fxvfcg8v2vznv)" height="62.2969" id="Layout" rx="12.5" ry="12.5" style="stroke: #708090; stroke-width: 1.5;" width="103" x="197" y="532"/><ellipse cx="211" cy="555.1484" fill="#FFFAFA" rx="10" ry="10" style="stroke: #708090; stroke-width: 1.0;"/><path d="M212.8281,559.3984 Q212.4219,559.6016 211.9688,559.7109 Q211.5156,559.8203 211.0313,559.8203 Q209.25,559.8203 208.3125,558.6641 Q207.3906,557.4922 207.3906,555.2891 Q207.3906,553.0703 208.3125,551.9141 Q209.25,550.7422 211.0313,550.7422 Q211.5156,550.7422 211.9688,550.8516 Q212.4375,550.9453 212.8281,551.1641 L212.8281,553.0859 Q212.3906,552.6797 211.9688,552.4922 Q211.5469,552.2891 211.1094,552.2891 Q210.1563,552.2891 209.6719,553.0547 Q209.1875,553.8047 209.1875,555.2891 Q209.1875,556.7578 209.6719,557.5078 Q210.1563,558.2578 211.1094,558.2578 Q211.5469,558.2578 211.9688,558.0703 Q212.3906,557.8828 212.8281,557.4766 L212.8281,559.3984 Z "/><text fill="#000000" font-family="sans-serif" font-size="14" font-weight="bold" lengthAdjust="spacingAndGlyphs" textLength="53" x="234" y="559.9951">Layout</text><line style="stroke: #708090; stroke-width: 1.5;" x1="198" x2="299" y1="578.2969" y2="578.2969"/><line style="stroke: #708090; stroke-width: 1.5;" x1="198" x2="299" y1="586.2969" y2="586.2969"/><!--MD5=[d189332174d53557e6def82bbd003869]
class Link--><rect fill="#DCDCDC" filter="url(#fxvfcg8v2vznv)" height="96.2656" id="Link" rx="12.5" ry="12.5" style="stroke: #708090; stroke-width: 1.5;" width="82" x="177.5" y="962"/><ellipse cx="191.5" cy="985.1484" fill="#FFFAFA" rx="10" ry="10" style="stroke: #708090; stroke-width: 1.0;"/><path d="M193.3281,989.3984 Q192.9219,989.6016 192.4688,989.7109 Q192.0156,989.8203 191.5313,989.8203 Q189.75,989.8203 188.8125,988.6641 Q187.8906,987.4922 187.8906,985.2891 Q187.8906,983.0703 188.8125,981.9141 Q189.75,980.7422 191.5313,980.7422 Q192.0156,980.7422 192.4688,980.8516 Q192.9375,980.9453 193.3281,981.1641 L193.3281,983.0859 Q192.8906,982.6797 192.4688,982.4922 Q192.0469,982.2891 191.6094,982.2891 Q190.6563,982.2891 190.1719,983.0547 Q189.6875,983.8047 189.6875,985.2891 Q189.6875,986.7578 190.1719,987.5078 Q190.6563,988.2578 191.6094,988.2578 Q192.0469,988.2578 192.4688,988.0703 Q192.8906,987.8828 193.3281,987.4766 L193.3281,989.3984 Z "/><text fill="#000000" font-family="sans-serif" font-size="14" font-weight="bold" lengthAdjust="spacingAndGlyphs" textLength="32" x="214.5" y="989.9951">Link</text><line style="stroke: #708090; stroke-width: 1.5;" x1="178.5" x2="258.5" y1="1008.2969" y2="1008.2969"/><text fill="#000000" font-family="sans-serif" font-size="12" lengthAdjust="spacingAndGlyphs" textLength="33" x="193.5" y="1033.4355">runID</text><line style="stroke: #708090; stroke-width: 1.5;" x1="178.5" x2="258.5" y1="1050.2656" y2="1050.2656"/><!--MD5=[521817ab83e81da341a3f4b5e91bae41]
class Command--><rect fill="#DCDCDC" filter="url(#fxvfcg8v2vznv)" height="62.2969" id="Command" rx="12.5" ry="12.5" style="stroke: #708090; stroke-width: 1.5;" width="128" x="294.5" y="979"/><ellipse cx="308.5" cy="1002.1484" fill="#FFFAFA" rx="10" ry="10" style="stroke: #708090; stroke-width: 1.0;"/><path d="M310.3281,1006.3984 Q309.9219,1006.6016 309.4688,1006.7109 Q309.0156,1006.8203 308.5313,1006.8203 Q306.75,1006.8203 305.8125,1005.6641 Q304.8906,1004.4922 304.8906,1002.2891 Q304.8906,1000.0703 305.8125,998.9141 Q306.75,997.7422 308.5313,997.7422 Q309.0156,997.7422 309.4688,997.8516 Q309.9375,997.9453 310.3281,998.1641 L310.3281,1000.0859 Q309.8906,999.6797 309.4688,999.4922 Q309.0469,999.2891 308.6094,999.2891 Q307.6563,999.2891 307.1719,1000.0547 Q306.6875,1000.8047 306.6875,1002.2891 Q306.6875,1003.7578 307.1719,1004.5078 Q307.6563,1005.2578 308.6094,1005.2578 Q309.0469,1005.2578 309.4688,1005.0703 Q309.8906,1004.8828 310.3281,1004.4766 L310.3281,1006.3984 Z "/><text fill="#000000" font-family="sans-serif" font-size="14" font-weight="bold" lengthAdjust="spacingAndGlyphs" textLength="78" x="331.5" y="1006.9951">Command</text><line style="stroke: #708090; stroke-width: 1.5;" x1="295.5" x2="421.5" y1="1025.2969" y2="1025.2969"/><line style="stroke: #708090; stroke-width: 1.5;" x1="295.5" x2="421.5" y1="1033.2969" y2="1033.2969"/><!--MD5=[5a2ba6e4c7f78036fecb159f353da9e9]
class Step--><rect fill="#DCDCDC" filter="url(#fxvfcg8v2vznv)" height="96.2656" id="Step" rx="12.5" ry="12.5" style="stroke: #708090; stroke-width: 1.5;" width="86" x="336.5" y="1224"/><ellipse cx="350.5" cy="1247.1484" fill="#FFFAFA" rx="10" ry="10" style="stroke: #708090; stroke-width: 1.0;"/><path d="M352.3281,1251.3984 Q351.9219,1251.6016 351.4688,1251.7109 Q351.0156,1251.8203 350.5313,1251.8203 Q348.75,1251.8203 347.8125,1250.6641 Q346.8906,1249.4922 346.8906,1247.2891 Q346.8906,1245.0703 347.8125,1243.9141 Q348.75,1242.7422 350.5313,1242.7422 Q351.0156,1242.7422 351.4688,1242.8516 Q351.9375,1242.9453 352.3281,1243.1641 L352.3281,1245.0859 Q351.8906,1244.6797 351.4688,1244.4922 Q351.0469,1244.2891 350.6094,1244.2891 Q349.6563,1244.2891 349.1719,1245.0547 Q348.6875,1245.8047 348.6875,1247.2891 Q348.6875,1248.7578 349.1719,1249.5078 Q349.6563,1250.2578 350.6094,1250.2578 Q351.0469,1250.2578 351.4688,1250.0703 Q351.8906,1249.8828 352.3281,1249.4766 L352.3281,1251.3984 Z "/><text fill="#000000" font-family="sans-serif" font-size="14" font-weight="bold" lengthAdjust="spacingAndGlyphs" textLength="36" x="373.5" y="1251.9951">Step</text><line style="stroke: #708090; stroke-width: 1.5;" x1="337.5" x2="421.5" y1="1270.2969" y2="1270.2969"/><text fill="#000000" font-family="sans-serif" font-size="12" lengthAdjust="spacingAndGlyphs" textLength="35" x="352.5" y="1295.4355">name</text><line style="stroke: #708090; stroke-width: 1.5;" x1="337.5" x2="421.5" y1="1312.2656" y2="1312.2656"/><!--MD5=[00cff116ff6c3ad2c4e5e0dddbe6ceff]
class Artifact--><rect fill="#DCDCDC" filter="url(#fxvfcg8v2vznv)" height="62.2969" id="Artifact" rx="12.5" ry="12.5" style="stroke: #708090; stroke-width: 1.5;" width="108" x="193.5" y="1241"/><ellipse cx="207.5" cy="1264.1484" fill="#FFFAFA" rx="10" ry="10" style="stroke: #708090; stroke-width: 1.0;"/><path d="M209.3281,1268.3984 Q208.9219,1268.6016 208.4688,1268.7109 Q208.0156,1268.8203 207.5313,1268.8203 Q205.75,1268.8203 204.8125,1267.6641 Q203.8906,1266.4922 203.8906,1264.2891 Q203.8906,1262.0703 204.8125,1260.9141 Q205.75,1259.7422 207.5313,1259.7422 Q208.0156,1259.7422 208.4688,1259.8516 Q208.9375,1259.9453 209.3281,1260.1641 L209.3281,1262.0859 Q208.8906,1261.6797 208.4688,1261.4922 Q208.0469,1261.2891 207.6094,1261.2891 Q206.6563,1261.2891 206.1719,1262.0547 Q205.6875,1262.8047 205.6875,1264.2891 Q205.6875,1265.7578 206.1719,1266.5078 Q206.6563,1267.2578 207.6094,1267.2578 Q208.0469,1267.2578 208.4688,1267.0703 Q208.8906,1266.8828 209.3281,1266.4766 L209.3281,1268.3984 Z "/><text fill="#000000" font-family="sans-serif" font-size="14" font-weight="bold" lengthAdjust="spacingAndGlyphs" textLength="58" x="230.5" y="1268.9951">Artifact</text><line style="stroke: #708090; stroke-width: 1.5;" x1="194.5" x2="300.5" y1="1287.2969" y2="1287.2969"/><line style="stroke: #708090; stroke-width: 1.5;" x1="194.5" x2="300.5" y1="1295.2969" y2="1295.2969"/><!--MD5=[bcf36559a79562a0967a10297fba1c26]
class Privilege--><rect fill="#FFF8DC" filter="url(#fxvfcg8v2vznv)" height="96.2656" id="Privilege" rx="12.5" ry="12.5" style="stroke: #708090; stroke-width: 1.5;" width="118" x="964.5" y="515"/><ellipse cx="978.5" cy="538.1484" fill="#FFFAFA" rx="10" ry="10" style="stroke: #708090; stroke-width: 1.0;"/><path d="M980.3281,542.3984 Q979.9219,542.6016 979.4688,542.7109 Q979.0156,542.8203 978.5313,542.8203 Q976.75,542.8203 975.8125,541.6641 Q974.8906,540.4922 974.8906,538.2891 Q974.8906,536.0703 975.8125,534.9141 Q976.75,533.7422 978.5313,533.7422 Q979.0156,533.7422 979.4688,533.8516 Q979.9375,533.9453 980.3281,534.1641 L980.3281,536.0859 Q979.8906,535.6797 979.4688,535.4922 Q979.0469,535.2891 978.6094,535.2891 Q977.6563,535.2891 977.1719,536.0547 Q976.6875,536.8047 976.6875,538.2891 Q976.6875,539.7578 977.1719,540.5078 Q977.6563,541.2578 978.6094,541.2578 Q979.0469,541.2578 979.4688,541.0703 Q979.8906,540.8828 980.3281,540.4766 L980.3281,542.3984 Z "/><text fill="#000000" font-family="sans-serif" font-size="14" font-weight="bold" lengthAdjust="spacingAndGlyphs" textLength="68" x="1001.5" y="542.9951">Privilege</text><line style="stroke: #708090; stroke-width: 1.5;" x1="965.5" x2="1081.5" y1="561.2969" y2="561.2969"/><text fill="#000000" font-family="sans-serif" font-size="12" lengthAdjust="spacingAndGlyphs" textLength="27" x="980.5" y="586.4355">type</text><line style="stroke: #708090; stroke-width: 1.5;" x1="965.5" x2="1081.5" y1="603.2656" y2="603.2656"/><!--MD5=[a3638c1e5b65d287ecad7f06f5c0f212]
class Role--><rect fill="#FFF8DC" filter="url(#fxvfcg8v2vznv)" height="62.2969" id="Role" rx="12.5" ry="12.5" style="stroke: #708090; stroke-width: 1.5;" width="84" x="1121.5" y="743"/><ellipse cx="1135.5" cy="766.1484" fill="#FFFAFA" rx="10" ry="10" style="stroke: #708090; stroke-width: 1.0;"/><path d="M1137.3281,770.3984 Q1136.9219,770.6016 1136.4688,770.7109 Q1136.0156,770.8203 1135.5313,770.8203 Q1133.75,770.8203 1132.8125,769.6641 Q1131.8906,768.4922 1131.8906,766.2891 Q1131.8906,764.0703 1132.8125,762.9141 Q1133.75,761.7422 1135.5313,761.7422 Q1136.0156,761.7422 1136.4688,761.8516 Q1136.9375,761.9453 1137.3281,762.1641 L1137.3281,764.0859 Q1136.8906,763.6797 1136.4688,763.4922 Q1136.0469,763.2891 1135.6094,763.2891 Q1134.6563,763.2891 1134.1719,764.0547 Q1133.6875,764.8047 1133.6875,766.2891 Q1133.6875,767.7578 1134.1719,768.5078 Q1134.6563,769.2578 1135.6094,769.2578 Q1136.0469,769.2578 1136.4688,769.0703 Q1136.8906,768.8828 1137.3281,768.4766 L1137.3281,770.3984 Z "/><text fill="#000000" font-family="sans-serif" font-size="14" font-weight="bold" lengthAdjust="spacingAndGlyphs" textLength="34" x="1158.5" y="770.9951">Role</text><line style="stroke: #708090; stroke-width: 1.5;" x1="1122.5" x2="1204.5" y1="789.2969" y2="789.2969"/><line style="stroke: #708090; stroke-width: 1.5;" x1="1122.5" x2="1204.5" y1="797.2969" y2="797.2969"/><!--MD5=[3fd616f346a44cd59a91eb10b19e157c]
class User--><rect fill="#FFF8DC" filter="url(#fxvfcg8v2vznv)" height="96.2656" id="User" rx="12.5" ry="12.5" style="stroke: #708090; stroke-width: 1.5;" width="87" x="1118" y="515"/><ellipse cx="1132" cy="538.1484" fill="#FFFAFA" rx="10" ry="10" style="stroke: #708090; stroke-width: 1.0;"/><path d="M1133.8281,542.3984 Q1133.4219,542.6016 1132.9688,542.7109 Q1132.5156,542.8203 1132.0313,542.8203 Q1130.25,542.8203 1129.3125,541.6641 Q1128.3906,540.4922 1128.3906,538.2891 Q1128.3906,536.0703 1129.3125,534.9141 Q1130.25,533.7422 1132.0313,533.7422 Q1132.5156,533.7422 1132.9688,533.8516 Q1133.4375,533.9453 1133.8281,534.1641 L1133.8281,536.0859 Q1133.3906,535.6797 1132.9688,535.4922 Q1132.5469,535.2891 1132.1094,535.2891 Q1131.1563,535.2891 1130.6719,536.0547 Q1130.1875,536.8047 1130.1875,538.2891 Q1130.1875,539.7578 1130.6719,540.5078 Q1131.1563,541.2578 1132.1094,541.2578 Q1132.5469,541.2578 1132.9688,541.0703 Q1133.3906,540.8828 1133.8281,540.4766 L1133.8281,542.3984 Z "/><text fill="#000000" font-family="sans-serif" font-size="14" font-weight="bold" lengthAdjust="spacingAndGlyphs" textLength="37" x="1155" y="542.9951">User</text><line style="stroke: #708090; stroke-width: 1.5;" x1="1119" x2="1204" y1="561.2969" y2="561.2969"/><text fill="#000000" font-family="sans-serif" font-size="12" lengthAdjust="spacingAndGlyphs" textLength="30" x="1134" y="586.4355">UUID</text><line style="stroke: #708090; stroke-width: 1.5;" x1="1119" x2="1204" y1="603.2656" y2="603.2656"/><!--MD5=[0612e3ad1f3e0bbf67c9e8686966830a]
class ImportLink--><rect fill="#FFF8DC" filter="url(#fxvfcg8v2vznv)" height="62.2969" id="ImportLink" rx="12.5" ry="12.5" style="stroke: #708090; stroke-width: 1.5;" width="133" x="829" y="743"/><ellipse cx="843" cy="766.1484" fill="#FFFAFA" rx="10" ry="10" style="stroke: #708090; stroke-width: 1.0;"/><path d="M844.8281,770.3984 Q844.4219,770.6016 843.9688,770.7109 Q843.5156,770.8203 843.0313,770.8203 Q841.25,770.8203 840.3125,769.6641 Q839.3906,768.4922 839.3906,766.2891 Q839.3906,764.0703 840.3125,762.9141 Q841.25,761.7422 843.0313,761.7422 Q843.5156,761.7422 843.9688,761.8516 Q844.4375,761.9453 844.8281,762.1641 L844.8281,764.0859 Q844.3906,763.6797 843.9688,763.4922 Q843.5469,763.2891 843.1094,763.2891 Q842.1563,763.2891 841.6719,764.0547 Q841.1875,764.8047 841.1875,766.2891 Q841.1875,767.7578 841.6719,768.5078 Q842.1563,769.2578 843.1094,769.2578 Q843.5469,769.2578 843.9688,769.0703 Q844.3906,768.8828 844.8281,768.4766 L844.8281,770.3984 Z "/><text fill="#000000" font-family="sans-serif" font-size="14" font-weight="bold" lengthAdjust="spacingAndGlyphs" textLength="83" x="866" y="770.9951">ImportLink</text><line style="stroke: #708090; stroke-width: 1.5;" x1="830" x2="961" y1="789.2969" y2="789.2969"/><line style="stroke: #708090; stroke-width: 1.5;" x1="830" x2="961" y1="797.2969" y2="797.2969"/><!--MD5=[dda496a2ed7283fc728b8870bbd50c15]
class Read--><rect fill="#FFF8DC" filter="url(#fxvfcg8v2vznv)" height="62.2969" id="Read" rx="12.5" ry="12.5" style="stroke: #708090; stroke-width: 1.5;" width="89" x="997" y="743"/><ellipse cx="1011" cy="766.1484" fill="#FFFAFA" rx="10" ry="10" style="stroke: #708090; stroke-width: 1.0;"/><path d="M1012.8281,770.3984 Q1012.4219,770.6016 1011.9688,770.7109 Q1011.5156,770.8203 1011.0313,770.8203 Q1009.25,770.8203 1008.3125,769.6641 Q1007.3906,768.4922 1007.3906,766.2891 Q1007.3906,764.0703 1008.3125,762.9141 Q1009.25,761.7422 1011.0313,761.7422 Q1011.5156,761.7422 1011.9688,761.8516 Q1012.4375,761.9453 1012.8281,762.1641 L1012.8281,764.0859 Q1012.3906,763.6797 1011.9688,763.4922 Q1011.5469,763.2891 1011.1094,763.2891 Q1010.1563,763.2891 1009.6719,764.0547 Q1009.1875,764.8047 1009.1875,766.2891 Q1009.1875,767.7578 1009.6719,768.5078 Q1010.1563,769.2578 1011.1094,769.2578 Q1011.5469,769.2578 1011.9688,769.0703 Q1012.3906,768.8828 1012.8281,768.4766 L1012.8281,770.3984 Z "/><text fill="#000000" font-family="sans-serif" font-size="14" font-weight="bold" lengthAdjust="spacingAndGlyphs" textLength="39" x="1034" y="770.9951">Read</text><line style="stroke: #708090; stroke-width: 1.5;" x1="998" x2="1085" y1="789.2969" y2="789.2969"/><line style="stroke: #708090; stroke-width: 1.5;" x1="998" x2="1085" y1="797.2969" y2="797.2969"/><!--MD5=[4cf87534c235239d37db4adfd136fff4]
class Rule--><rect fill="#DDA0DD" filter="url(#fxvfcg8v2vznv)" height="96.2656" id="Rule" rx="12.5" ry="12.5" style="stroke: #708090; stroke-width: 1.5;" width="84" x="996.5" y="1224"/><ellipse cx="1010.5" cy="1247.1484" fill="#FFFAFA" rx="10" ry="10" style="stroke: #708090; stroke-width: 1.0;"/><path d="M1012.3281,1251.3984 Q1011.9219,1251.6016 1011.4688,1251.7109 Q1011.0156,1251.8203 1010.5313,1251.8203 Q1008.75,1251.8203 1007.8125,1250.6641 Q1006.8906,1249.4922 1006.8906,1247.2891 Q1006.8906,1245.0703 1007.8125,1243.9141 Q1008.75,1242.7422 1010.5313,1242.7422 Q1011.0156,1242.7422 1011.4688,1242.8516 Q1011.9375,1242.9453 1012.3281,1243.1641 L1012.3281,1245.0859 Q1011.8906,1244.6797 1011.4688,1244.4922 Q1011.0469,1244.2891 1010.6094,1244.2891 Q1009.6563,1244.2891 1009.1719,1245.0547 Q1008.6875,1245.8047 1008.6875,1247.2891 Q1008.6875,1248.7578 1009.1719,1249.5078 Q1009.6563,1250.2578 1010.6094,1250.2578 Q1011.0469,1250.2578 1011.4688,1250.0703 Q1011.8906,1249.8828 1012.3281,1249.4766 L1012.3281,1251.3984 Z "/><text fill="#000000" font-family="sans-serif" font-size="14" font-weight="bold" lengthAdjust="spacingAndGlyphs" textLength="34" x="1033.5" y="1251.9951">Rule</text><line style="stroke: #708090; stroke-width: 1.5;" x1="997.5" x2="1079.5" y1="1270.2969" y2="1270.2969"/><text fill="#000000" font-family="sans-serif" font-size="12" lengthAdjust="spacingAndGlyphs" textLength="47" x="1012.5" y="1295.4355">pattern</text><line style="stroke: #708090; stroke-width: 1.5;" x1="997.5" x2="1079.5" y1="1312.2656" y2="1312.2656"/><!--MD5=[2986c7513eb31cc9a7d08cb983b766c4]
class Modifyable--><rect fill="#DDA0DD" filter="url(#fxvfcg8v2vznv)" height="62.2969" id="Modifyable" rx="12.5" ry="12.5" style="stroke: #708090; stroke-width: 1.5;" width="135" x="829" y="979"/><ellipse cx="843" cy="1002.1484" fill="#FFFAFA" rx="10" ry="10" style="stroke: #708090; stroke-width: 1.0;"/><path d="M844.8281,1006.3984 Q844.4219,1006.6016 843.9688,1006.7109 Q843.5156,1006.8203 843.0313,1006.8203 Q841.25,1006.8203 840.3125,1005.6641 Q839.3906,1004.4922 839.3906,1002.2891 Q839.3906,1000.0703 840.3125,998.9141 Q841.25,997.7422 843.0313,997.7422 Q843.5156,997.7422 843.9688,997.8516 Q844.4375,997.9453 844.8281,998.1641 L844.8281,1000.0859 Q844.3906,999.6797 843.9688,999.4922 Q843.5469,999.2891 843.1094,999.2891 Q842.1563,999.2891 841.6719,1000.0547 Q841.1875,1000.8047 841.1875,1002.2891 Q841.1875,1003.7578 841.6719,1004.5078 Q842.1563,1005.2578 843.1094,1005.2578 Q843.5469,1005.2578 843.9688,1005.0703 Q844.3906,1004.8828 844.8281,1004.4766 L844.8281,1006.3984 Z "/><text fill="#000000" font-family="sans-serif" font-size="14" font-weight="bold" lengthAdjust="spacingAndGlyphs" textLength="85" x="866" y="1006.9951">Modifyable</text><line style="stroke: #708090; stroke-width: 1.5;" x1="830" x2="963" y1="1025.2969" y2="1025.2969"/><line style="stroke: #708090; stroke-width: 1.5;" x1="830" x2="963" y1="1033.2969" y2="1033.2969"/><!--MD5=[e22b377fdee134cc691ca5772e976162]
class Allow--><rect fill="#DDA0DD" filter="url(#fxvfcg8v2vznv)" height="62.2969" id="Allow" rx="12.5" ry="12.5" style="stroke: #708090; stroke-width: 1.5;" width="93" x="999" y="979"/><ellipse cx="1013" cy="1002.1484" fill="#FFFAFA" rx="10" ry="10" style="stroke: #708090; stroke-width: 1.0;"/><path d="M1014.8281,1006.3984 Q1014.4219,1006.6016 1013.9688,1006.7109 Q1013.5156,1006.8203 1013.0313,1006.8203 Q1011.25,1006.8203 1010.3125,1005.6641 Q1009.3906,1004.4922 1009.3906,1002.2891 Q1009.3906,1000.0703 1010.3125,998.9141 Q1011.25,997.7422 1013.0313,997.7422 Q1013.5156,997.7422 1013.9688,997.8516 Q1014.4375,997.9453 1014.8281,998.1641 L1014.8281,1000.0859 Q1014.3906,999.6797 1013.9688,999.4922 Q1013.5469,999.2891 1013.1094,999.2891 Q1012.1563,999.2891 1011.6719,1000.0547 Q1011.1875,1000.8047 1011.1875,1002.2891 Q1011.1875,1003.7578 1011.6719,1004.5078 Q1012.1563,1005.2578 1013.1094,1005.2578 Q1013.5469,1005.2578 1013.9688,1005.0703 Q1014.3906,1004.8828 1014.8281,1004.4766 L1014.8281,1006.3984 Z "/><text fill="#000000" font-family="sans-serif" font-size="14" font-weight="bold" lengthAdjust="spacingAndGlyphs" textLength="43" x="1036" y="1006.9951">Allow</text><line style="stroke: #708090; stroke-width: 1.5;" x1="1000" x2="1091" y1="1025.2969" y2="1025.2969"/><line style="stroke: #708090; stroke-width: 1.5;" x1="1000" x2="1091" y1="1033.2969" y2="1033.2969"/><!--MD5=[862a72e8ee5ccde404fa80ac21773f88]
class DisAllow--><rect fill="#DDA0DD" filter="url(#fxvfcg8v2vznv)" height="62.2969" id="DisAllow" rx="12.5" ry="12.5" style="stroke: #708090; stroke-width: 1.5;" width="117" x="816" y="1443"/><ellipse cx="830" cy="1466.1484" fill="#FFFAFA" rx="10" ry="10" style="stroke: #708090; stroke-width: 1.0;"/><path d="M831.8281,1470.3984 Q831.4219,1470.6016 830.9688,1470.7109 Q830.5156,1470.8203 830.0313,1470.8203 Q828.25,1470.8203 827.3125,1469.6641 Q826.3906,1468.4922 826.3906,1466.2891 Q826.3906,1464.0703 827.3125,1462.9141 Q828.25,1461.7422 830.0313,1461.7422 Q830.5156,1461.7422 830.9688,1461.8516 Q831.4375,1461.9453 831.8281,1462.1641 L831.8281,1464.0859 Q831.3906,1463.6797 830.9688,1463.4922 Q830.5469,1463.2891 830.1094,1463.2891 Q829.1563,1463.2891 828.6719,1464.0547 Q828.1875,1464.8047 828.1875,1466.2891 Q828.1875,1467.7578 828.6719,1468.5078 Q829.1563,1469.2578 830.1094,1469.2578 Q830.5469,1469.2578 830.9688,1469.0703 Q831.3906,1468.8828 831.8281,1468.4766 L831.8281,1470.3984 Z "/><text fill="#000000" font-family="sans-serif" font-size="14" font-weight="bold" lengthAdjust="spacingAndGlyphs" textLength="67" x="853" y="1470.9951">DisAllow</text><line style="stroke: #708090; stroke-width: 1.5;" x1="817" x2="932" y1="1489.2969" y2="1489.2969"/><line style="stroke: #708090; stroke-width: 1.5;" x1="817" x2="932" y1="1497.2969" y2="1497.2969"/><!--MD5=[fca1a1cf771ede4ee5724c80f986db9c]
class CreateRule--><rect fill="#DDA0DD" filter="url(#fxvfcg8v2vznv)" height="62.2969" id="CreateRule" rx="12.5" ry="12.5" style="stroke: #708090; stroke-width: 1.5;" width="137" x="1127" y="979"/><ellipse cx="1141" cy="1002.1484" fill="#FFFAFA" rx="10" ry="10" style="stroke: #708090; stroke-width: 1.0;"/><path d="M1142.8281,1006.3984 Q1142.4219,1006.6016 1141.9688,1006.7109 Q1141.5156,1006.8203 1141.0313,1006.8203 Q1139.25,1006.8203 1138.3125,1005.6641 Q1137.3906,1004.4922 1137.3906,1002.2891 Q1137.3906,1000.0703 1138.3125,998.9141 Q1139.25,997.7422 1141.0313,997.7422 Q1141.5156,997.7422 1141.9688,997.8516 Q1142.4375,997.9453 1142.8281,998.1641 L1142.8281,1000.0859 Q1142.3906,999.6797 1141.9688,999.4922 Q1141.5469,999.2891 1141.1094,999.2891 Q1140.1563,999.2891 1139.6719,1000.0547 Q1139.1875,1000.8047 1139.1875,1002.2891 Q1139.1875,1003.7578 1139.6719,1004.5078 Q1140.1563,1005.2578 1141.1094,1005.2578 Q1141.5469,1005.2578 1141.9688,1005.0703 Q1142.3906,1004.8828 1142.8281,1004.4766 L1142.8281,1006.3984 Z "/><text fill="#000000" font-family="sans-serif" font-size="14" font-weight="bold" lengthAdjust="spacingAndGlyphs" textLength="87" x="1164" y="1006.9951">CreateRule</text><line style="stroke: #708090; stroke-width: 1.5;" x1="1128" x2="1263" y1="1025.2969" y2="1025.2969"/><line style="stroke: #708090; stroke-width: 1.5;" x1="1128" x2="1263" y1="1033.2969" y2="1033.2969"/><!--MD5=[6b117240a185dcc11c7a786b22745e3e]
class ModifyRule--><rect fill="#DDA0DD" filter="url(#fxvfcg8v2vznv)" height="62.2969" id="ModifyRule" rx="12.5" ry="12.5" style="stroke: #708090; stroke-width: 1.5;" width="136" x="968.5" y="1443"/><ellipse cx="982.5" cy="1466.1484" fill="#FFFAFA" rx="10" ry="10" style="stroke: #708090; stroke-width: 1.0;"/><path d="M984.3281,1470.3984 Q983.9219,1470.6016 983.4688,1470.7109 Q983.0156,1470.8203 982.5313,1470.8203 Q980.75,1470.8203 979.8125,1469.6641 Q978.8906,1468.4922 978.8906,1466.2891 Q978.8906,1464.0703 979.8125,1462.9141 Q980.75,1461.7422 982.5313,1461.7422 Q983.0156,1461.7422 983.4688,1461.8516 Q983.9375,1461.9453 984.3281,1462.1641 L984.3281,1464.0859 Q983.8906,1463.6797 983.4688,1463.4922 Q983.0469,1463.2891 982.6094,1463.2891 Q981.6563,1463.2891 981.1719,1464.0547 Q980.6875,1464.8047 980.6875,1466.2891 Q980.6875,1467.7578 981.1719,1468.5078 Q981.6563,1469.2578 982.6094,1469.2578 Q983.0469,1469.2578 983.4688,1469.0703 Q983.8906,1468.8828 984.3281,1468.4766 L984.3281,1470.3984 Z "/><text fill="#000000" font-family="sans-serif" font-size="14" font-weight="bold" lengthAdjust="spacingAndGlyphs" textLength="86" x="1005.5" y="1470.9951">ModifyRule</text><line style="stroke: #708090; stroke-width: 1.5;" x1="969.5" x2="1103.5" y1="1489.2969" y2="1489.2969"/><line style="stroke: #708090; stroke-width: 1.5;" x1="969.5" x2="1103.5" y1="1497.2969" y2="1497.2969"/><!--MD5=[62ab7431544a0ae8be0f4a3b954cd430]
class MatchRule--><rect fill="#DDA0DD" filter="url(#fxvfcg8v2vznv)" height="62.2969" id="MatchRule" rx="12.5" ry="12.5" style="stroke: #708090; stroke-width: 1.5;" width="131" x="1140" y="1443"/><ellipse cx="1154" cy="1466.1484" fill="#FFFAFA" rx="10" ry="10" style="stroke: #708090; stroke-width: 1.0;"/><path d="M1155.8281,1470.3984 Q1155.4219,1470.6016 1154.9688,1470.7109 Q1154.5156,1470.8203 1154.0313,1470.8203 Q1152.25,1470.8203 1151.3125,1469.6641 Q1150.3906,1468.4922 1150.3906,1466.2891 Q1150.3906,1464.0703 1151.3125,1462.9141 Q1152.25,1461.7422 1154.0313,1461.7422 Q1154.5156,1461.7422 1154.9688,1461.8516 Q1155.4375,1461.9453 1155.8281,1462.1641 L1155.8281,1464.0859 Q1155.3906,1463.6797 1154.9688,1463.4922 Q1154.5469,1463.2891 1154.1094,1463.2891 Q1153.1563,1463.2891 1152.6719,1464.0547 Q1152.1875,1464.8047 1152.1875,1466.2891 Q1152.1875,1467.7578 1152.6719,1468.5078 Q1153.1563,1469.2578 1154.1094,1469.2578 Q1154.5469,1469.2578 1154.9688,1469.0703 Q1155.3906,1468.8828 1155.8281,1468.4766 L1155.8281,1470.3984 Z "/><text fill="#000000" font-family="sans-serif" font-size="14" font-weight="bold" lengthAdjust="spacingAndGlyphs" textLength="81" x="1177" y="1470.9951">MatchRule</text><line style="stroke: #708090; stroke-width: 1.5;" x1="1141" x2="1270" y1="1489.2969" y2="1489.2969"/><line style="stroke: #708090; stroke-width: 1.5;" x1="1141" x2="1270" y1="1497.2969" y2="1497.2969"/><!--MD5=[974f42fcacf8ac3433a80aaf64f5303a]
class DeleteRule--><rect fill="#DDA0DD" filter="url(#fxvfcg8v2vznv)" height="62.2969" id="DeleteRule" rx="12.5" ry="12.5" style="stroke: #708090; stroke-width: 1.5;" width="135" x="1116" y="1241"/><ellipse cx="1130" cy="1264.1484" fill="#FFFAFA" rx="10" ry="10" style="stroke: #708090; stroke-width: 1.0;"/><path d="M1131.8281,1268.3984 Q1131.4219,1268.6016 1130.9688,1268.7109 Q1130.5156,1268.8203 1130.0313,1268.8203 Q1128.25,1268.8203 1127.3125,1267.6641 Q1126.3906,1266.4922 1126.3906,1264.2891 Q1126.3906,1262.0703 1127.3125,1260.9141 Q1128.25,1259.7422 1130.0313,1259.7422 Q1130.5156,1259.7422 1130.9688,1259.8516 Q1131.4375,1259.9453 1131.8281,1260.1641 L1131.8281,1262.0859 Q1131.3906,1261.6797 1130.9688,1261.4922 Q1130.5469,1261.2891 1130.1094,1261.2891 Q1129.1563,1261.2891 1128.6719,1262.0547 Q1128.1875,1262.8047 1128.1875,1264.2891 Q1128.1875,1265.7578 1128.6719,1266.5078 Q1129.1563,1267.2578 1130.1094,1267.2578 Q1130.5469,1267.2578 1130.9688,1267.0703 Q1131.3906,1266.8828 1131.8281,1266.4766 L1131.8281,1268.3984 Z "/><text fill="#000000" font-family="sans-serif" font-size="14" font-weight="bold" lengthAdjust="spacingAndGlyphs" textLength="85" x="1153" y="1268.9951">DeleteRule</text><line style="stroke: #708090; stroke-width: 1.5;" x1="1117" x2="1250" y1="1287.2969" y2="1287.2969"/><line style="stroke: #708090; stroke-width: 1.5;" x1="1117" x2="1250" y1="1295.2969" y2="1295.2969"/><!--MD5=[fdf6a7140b22ca240cbdf051adcedc3d]
class RequireRule--><rect fill="#DDA0DD" filter="url(#fxvfcg8v2vznv)" height="62.2969" id="RequireRule" rx="12.5" ry="12.5" style="stroke: #708090; stroke-width: 1.5;" width="145" x="816" y="1241"/><ellipse cx="830" cy="1264.1484" fill="#FFFAFA" rx="10" ry="10" style="stroke: #708090; stroke-width: 1.0;"/><path d="M831.8281,1268.3984 Q831.4219,1268.6016 830.9688,1268.7109 Q830.5156,1268.8203 830.0313,1268.8203 Q828.25,1268.8203 827.3125,1267.6641 Q826.3906,1266.4922 826.3906,1264.2891 Q826.3906,1262.0703 827.3125,1260.9141 Q828.25,1259.7422 830.0313,1259.7422 Q830.5156,1259.7422 830.9688,1259.8516 Q831.4375,1259.9453 831.8281,1260.1641 L831.8281,1262.0859 Q831.3906,1261.6797 830.9688,1261.4922 Q830.5469,1261.2891 830.1094,1261.2891 Q829.1563,1261.2891 828.6719,1262.0547 Q828.1875,1262.8047 828.1875,1264.2891 Q828.1875,1265.7578 828.6719,1266.5078 Q829.1563,1267.2578 830.1094,1267.2578 Q830.5469,1267.2578 830.9688,1267.0703 Q831.3906,1266.8828 831.8281,1266.4766 L831.8281,1268.3984 Z "/><text fill="#000000" font-family="sans-serif" font-size="14" font-weight="bold" lengthAdjust="spacingAndGlyphs" textLength="95" x="853" y="1268.9951">RequireRule</text><line style="stroke: #708090; stroke-width: 1.5;" x1="817" x2="960" y1="1287.2969" y2="1287.2969"/><line style="stroke: #708090; stroke-width: 1.5;" x1="817" x2="960" y1="1295.2969" y2="1295.2969"/><!--MD5=[7f45976635210019d8fdbf63ea652dc0]
class SupplyChain--><rect fill="#D2B48C" filter="url(#fxvfcg8v2vznv)" height="130.2344" id="SupplyChain" rx="12.5" ry="12.5" style="stroke: #708090; stroke-width: 1.5;" width="147" x="747" y="192"/><ellipse cx="761" cy="215.1484" fill="#FFFAFA" rx="10" ry="10" style="stroke: #708090; stroke-width: 1.0;"/><path d="M762.8281,219.3984 Q762.4219,219.6016 761.9688,219.7109 Q761.5156,219.8203 761.0313,219.8203 Q759.25,219.8203 758.3125,218.6641 Q757.3906,217.4922 757.3906,215.2891 Q757.3906,213.0703 758.3125,211.9141 Q759.25,210.7422 761.0313,210.7422 Q761.5156,210.7422 761.9688,210.8516 Q762.4375,210.9453 762.8281,211.1641 L762.8281,213.0859 Q762.3906,212.6797 761.9688,212.4922 Q761.5469,212.2891 761.1094,212.2891 Q760.1563,212.2891 759.6719,213.0547 Q759.1875,213.8047 759.1875,215.2891 Q759.1875,216.7578 759.6719,217.5078 Q760.1563,218.2578 761.1094,218.2578 Q761.5469,218.2578 761.9688,218.0703 Q762.3906,217.8828 762.8281,217.4766 L762.8281,219.3984 Z "/><text fill="#000000" font-family="sans-serif" font-size="14" font-weight="bold" lengthAdjust="spacingAndGlyphs" textLength="97" x="784" y="219.9951">SupplyChain</text><line style="stroke: #708090; stroke-width: 1.5;" x1="748" x2="893" y1="238.2969" y2="238.2969"/><text fill="#000000" font-family="sans-serif" font-size="12" lengthAdjust="spacingAndGlyphs" textLength="30" x="763" y="263.4355">UUID</text><text fill="#000000" font-family="sans-serif" font-size="12" lengthAdjust="spacingAndGlyphs" textLength="35" x="763" y="297.4043">name</text><line style="stroke: #708090; stroke-width: 1.5;" x1="748" x2="893" y1="314.2344" y2="314.2344"/><!--MD5=[e84c991d4d3bbf916ee1653c86a9249d]
class Label--><rect fill="#D2B48C" filter="url(#fxvfcg8v2vznv)" height="62.2969" id="Label" rx="12.5" ry="12.5" style="stroke: #708090; stroke-width: 1.5;" width="92" x="977.5" y="383"/><ellipse cx="991.5" cy="406.1484" fill="#FFFAFA" rx="10" ry="10" style="stroke: #708090; stroke-width: 1.0;"/><path d="M993.3281,410.3984 Q992.9219,410.6016 992.4688,410.7109 Q992.0156,410.8203 991.5313,410.8203 Q989.75,410.8203 988.8125,409.6641 Q987.8906,408.4922 987.8906,406.2891 Q987.8906,404.0703 988.8125,402.9141 Q989.75,401.7422 991.5313,401.7422 Q992.0156,401.7422 992.4688,401.8516 Q992.9375,401.9453 993.3281,402.1641 L993.3281,404.0859 Q992.8906,403.6797 992.4688,403.4922 Q992.0469,403.2891 991.6094,403.2891 Q990.6563,403.2891 990.1719,404.0547 Q989.6875,404.8047 989.6875,406.2891 Q989.6875,407.7578 990.1719,408.5078 Q990.6563,409.2578 991.6094,409.2578 Q992.0469,409.2578 992.4688,409.0703 Q992.8906,408.8828 993.3281,408.4766 L993.3281,410.3984 Z "/><text fill="#000000" font-family="sans-serif" font-size="14" font-weight="bold" lengthAdjust="spacingAndGlyphs" textLength="42" x="1014.5" y="410.9951">Label</text><line style="stroke: #708090; stroke-width: 1.5;" x1="978.5" x2="1068.5" y1="429.2969" y2="429.2969"/><line style="stroke: #708090; stroke-width: 1.5;" x1="978.5" x2="1068.5" y1="437.2969" y2="437.2969"/><!--MD5=[01a1d1c61194c5abb9b94c9e20f3f455]
link Signature to Key--><path d="M528.5,305.1491 C528.5,362.4581 528.5,457.5832 528.5,514.8795 " fill="none" id="Signature-Key" style="stroke: #2F4F4F; stroke-width: 2.0;"/><text fill="#000000" font-family="sans-serif" font-size="12" font-weight="bold" lengthAdjust="spacingAndGlyphs" textLength="24" x="491.8188" y="334.2097">0..*</text><text fill="#000000" font-family="sans-serif" font-size="12" font-weight="bold" lengthAdjust="spacingAndGlyphs" textLength="8" x="508.5313" y="493.9804">1</text><!--MD5=[932c3ab2ae12c1926429f54ba9ee4019]
link Key to PubKey--><path d="M568.6172,593.7244 C580.2036,598.6375 591.7901,600.119 603.3766,598.1688 " fill="none" id="Key-PubKey" style="stroke: #2F4F4F; stroke-width: 2.0;"/><text fill="#000000" font-family="sans-serif" font-size="12" font-weight="bold" lengthAdjust="spacingAndGlyphs" textLength="8" x="577.437" y="586.2502">1</text><text fill="#000000" font-family="sans-serif" font-size="12" font-weight="bold" lengthAdjust="spacingAndGlyphs" textLength="8" x="577.7005" y="626.9812">1</text><!--MD5=[932c3ab2ae12c1926429f54ba9ee4019]
link Key to PubKey--><path d="M568.6172,532.2756 C580.2036,527.3625 591.7901,525.881 603.3766,527.8312 " fill="none" id="Key-PubKey-1" style="stroke: #2F4F4F; stroke-width: 2.0;"/><text fill="#000000" font-family="sans-serif" font-size="12" font-weight="bold" lengthAdjust="spacingAndGlyphs" textLength="8" x="577.437" y="506.3062">1</text><text fill="#000000" font-family="sans-serif" font-size="12" font-weight="bold" lengthAdjust="spacingAndGlyphs" textLength="8" x="577.7005" y="546.2678">1</text><!--MD5=[340a49dceead4662fbe20ba28d0724b4]
reverse link Key to GPGKey--><path d="M570.7013,627.9962 C595.4711,666.1452 625.6499,712.625 645.2034,742.7403 " fill="none" id="Key&lt;-GPGKey" style="stroke: #2F4F4F; stroke-width: 2.0;"/><polygon fill="none" points="564.7793,631.7295,559.7588,611.1432,576.5213,624.1055,564.7793,631.7295" style="stroke: #2F4F4F; stroke-width: 2.0;"/><!--MD5=[6d74af857fc86cf013bcba32b2c0b860]
reverse link Key to RSAKey--><path d="M524.9358,631.3679 C522.9816,668.853 520.6537,713.5068 519.1297,742.7403 " fill="none" id="Key&lt;-RSAKey" style="stroke: #2F4F4F; stroke-width: 2.0;"/><polygon fill="none" points="517.9583,630.7516,525.9902,611.1432,531.9393,631.4805,517.9583,630.7516" style="stroke: #2F4F4F; stroke-width: 2.0;"/><!--MD5=[c2fb049a6b614a05ceef69b7411a554a]
reverse link Verifyable to LayoutMetablock--><path d="M249.998,87.4813 C270.1245,129.8632 298.4944,189.6036 315.627,225.6808 " fill="none" id="Verifyable&lt;-LayoutMetablock" style="stroke: #2F4F4F; stroke-width: 2.0;"/><polygon fill="none" points="243.6569,90.4465,241.4007,69.3774,256.3034,84.4409,243.6569,90.4465" style="stroke: #2F4F4F; stroke-width: 2.0;"/><!--MD5=[8b59ddd73ab686702e1e6a6ad4ad4892]
reverse link Verifyable to LinkMetablock--><path d="M203.002,87.4813 C182.8755,129.8632 154.5056,189.6036 137.373,225.6808 " fill="none" id="Verifyable&lt;-LinkMetablock" style="stroke: #2F4F4F; stroke-width: 2.0;"/><polygon fill="none" points="196.6966,84.4409,211.5993,69.3774,209.3431,90.4465,196.6966,84.4409" style="stroke: #2F4F4F; stroke-width: 2.0;"/><!--MD5=[fff0dda1d7430378c6ea2d37b64bc3a3]
link Layout to Layout--><path d="M300.0057,548.4071 C319.2001,547.9287 335,552.793 335,563 C335,573.207 319.2001,578.0713 300.0057,577.5929 " fill="none" id="Layout-Layout" style="stroke: #2F4F4F; stroke-width: 2.0;"/><text fill="#000000" font-family="sans-serif" font-size="12" font-weight="bold" lengthAdjust="spacingAndGlyphs" textLength="72" x="351" y="567.6387">Sublayout</text><text fill="#000000" font-family="sans-serif" font-size="12" font-weight="bold" lengthAdjust="spacingAndGlyphs" textLength="24" x="318.0454" y="569.7911">0..*</text><text fill="#000000" font-family="sans-serif" font-size="12" font-weight="bold" lengthAdjust="spacingAndGlyphs" textLength="24" x="318.0454" y="602.1691">0..*</text><!--MD5=[aa25861726b1928c35e82e465862d345]
link Layout to Signable--><path d="M196.9977,563 C179.4419,563 161.886,563 144.3302,563 " fill="none" id="Layout-&gt;Signable" style="stroke: #2F4F4F; stroke-width: 2.0;"/><polygon fill="none" points="144.1172,569.9999,124.1172,563,144.1172,555.9999,144.1172,569.9999" style="stroke: #2F4F4F; stroke-width: 2.0;"/><!--MD5=[f98e75c4cceb6ba644f5e1ccdfc51b9d]
reverse link Signable to Link--><path d="M84.5515,613.079 C90.0034,631.4857 94.5,652.6759 94.5,672.5 C94.5,672.5 94.5,672.5 94.5,883.5 C94.5,931.7827 141.1381,968.4221 177.2098,989.5396 " fill="none" id="Signable&lt;-Link" style="stroke: #2F4F4F; stroke-width: 2.0;"/><polygon fill="none" points="77.8917,615.2346,78.3042,594.049,91.1933,610.8679,77.8917,615.2346" style="stroke: #2F4F4F; stroke-width: 2.0;"/><!--MD5=[6e0fe58ea72936dc6d42cc7ca277c4f1]
link Link to Step--><path d="M259.5416,1050.1834 C289.3478,1079.504 324.9024,1114.8245 327.5,1119 C347.5801,1151.278 360.9716,1192.2504 369.1294,1223.6706 " fill="none" id="Link-Step" style="stroke: #2F4F4F; stroke-width: 2.0; stroke-dasharray: 7.0,7.0;"/><text fill="#000000" font-family="sans-serif" font-size="12" font-weight="bold" lengthAdjust="spacingAndGlyphs" textLength="24" x="277.6188" y="1078.6297">0..*</text><text fill="#000000" font-family="sans-serif" font-size="12" font-weight="bold" lengthAdjust="spacingAndGlyphs" textLength="8" x="347.8546" y="1203.1451">1</text><!--MD5=[ccb43da9acbbf5a5e7c62164fd1a6149]
link LinkMetablock to Link--><path d="M134.6279,288.0398 C145.7489,319.3322 160.5,369.2699 160.5,414 C160.5,414 160.5,414 160.5,883.5 C160.5,911.0426 172.0016,939.1404 184.7612,961.8372 " fill="none" id="LinkMetablock-Link" style="stroke: #2F4F4F; stroke-width: 2.0;"/><text fill="#000000" font-family="sans-serif" font-size="12" font-weight="bold" lengthAdjust="spacingAndGlyphs" textLength="8" x="116.3061" y="317.4071">1</text><text fill="#000000" font-family="sans-serif" font-size="12" font-weight="bold" lengthAdjust="spacingAndGlyphs" textLength="8" x="160.3463" y="941.334">1</text><!--MD5=[7cc389c5c9e669d413d456863fbdce35]
link LayoutMetablock to Layout--><path d="M322.1861,288.0249 C306.4696,346.6743 272.5693,473.1803 256.8359,531.893 " fill="none" id="LayoutMetablock-Layout" style="stroke: #2F4F4F; stroke-width: 2.0;"/><text fill="#000000" font-family="sans-serif" font-size="12" font-weight="bold" lengthAdjust="spacingAndGlyphs" textLength="8" x="300.3509" y="317.3897">1</text><text fill="#000000" font-family="sans-serif" font-size="12" font-weight="bold" lengthAdjust="spacingAndGlyphs" textLength="8" x="237.7916" y="511.3161">1</text><!--MD5=[d99b807618542cb84fb3e26205dfbee7]
reverse link Layout to Link--><path d="M238.5554,614.2033 C235.7763,632.5206 233.5,653.3645 233.5,672.5 C233.5,672.5 233.5,672.5 233.5,883.5 C233.5,909.4859 230.34,938.2669 226.9208,961.8028 " fill="none" id="Layout&lt;-Link" style="stroke: #2F4F4F; stroke-width: 2.0;"/><polygon fill="none" points="231.6544,613.03,241.8771,594.4693,245.4602,615.3538,231.6544,613.03" style="stroke: #2F4F4F; stroke-width: 2.0;"/><!--MD5=[6f7d5829cf0f0de2745085b8c655a37b]
link Link to Artifact--><path d="M177.2328,1037.8029 C141.7485,1065.4529 99.1126,1109.9908 118.5,1154 C134.4684,1190.2481 167.6786,1220.2038 196.4025,1240.8628 " fill="none" id="Link-Artifact" style="stroke: #2F4F4F; stroke-width: 2.0;"/><text fill="#000000" font-family="sans-serif" font-size="12" font-weight="bold" lengthAdjust="spacingAndGlyphs" textLength="67" x="129.5" y="1141.1387">Materials</text><text fill="#000000" font-family="sans-serif" font-size="12" font-weight="bold" lengthAdjust="spacingAndGlyphs" textLength="24" x="135.5221" y="1027.362">0..*</text><text fill="#000000" font-family="sans-serif" font-size="12" font-weight="bold" lengthAdjust="spacingAndGlyphs" textLength="24" x="151.6663" y="1222.0541">0..*</text><!--MD5=[6f7d5829cf0f0de2745085b8c655a37b]
link Link to Artifact--><path d="M223.819,1058.0548 C229.7056,1111.2372 239.0217,1195.4031 244.0343,1240.6894 " fill="none" id="Link-Artifact-1" style="stroke: #2F4F4F; stroke-width: 2.0;"/><text fill="#000000" font-family="sans-serif" font-size="12" font-weight="bold" lengthAdjust="spacingAndGlyphs" textLength="63" x="245.5" y="1141.1387">Products</text><text fill="#000000" font-family="sans-serif" font-size="12" font-weight="bold" lengthAdjust="spacingAndGlyphs" textLength="24" x="187.6817" y="1087.5096">0..*</text><text fill="#000000" font-family="sans-serif" font-size="12" font-weight="bold" lengthAdjust="spacingAndGlyphs" textLength="24" x="205.3391" y="1220.0749">0..*</text><!--MD5=[ffed4036c202b67bc91f5ed664fd560a]
link Link to Command--><path d="M259.5156,1010 C271.1154,1010 282.7151,1010 294.3148,1010 " fill="none" id="Link-Command" style="stroke: #2F4F4F; stroke-width: 2.0;"/><text fill="#000000" font-family="sans-serif" font-size="12" font-weight="bold" lengthAdjust="spacingAndGlyphs" textLength="8" x="268.704" y="993.6237">1</text><text fill="#000000" font-family="sans-serif" font-size="12" font-weight="bold" lengthAdjust="spacingAndGlyphs" textLength="8" x="268.6754" y="1033.4672">1</text><!--MD5=[253a7f7478d3de8cde6bd71dd6456ef1]
reverse link Privilege to ImportLink--><path d="M983.9146,628.2541 C960.8015,666.3545 932.6911,712.6929 914.4633,742.7403 " fill="none" id="Privilege&lt;-ImportLink" style="stroke: #2F4F4F; stroke-width: 2.0;"/><polygon fill="none" points="977.9365,624.6122,994.2947,611.1432,989.9063,631.8734,977.9365,624.6122" style="stroke: #2F4F4F; stroke-width: 2.0;"/><!--MD5=[e2f114a5224f788b11f7fe58e0a3660a]
link Label to Privilege--><path d="M1023.5,445.2353 C1023.5,465.3744 1023.5,491.9684 1023.5,514.788 " fill="none" id="Label-Privilege" style="stroke: #2F4F4F; stroke-width: 2.0;"/><!--MD5=[56ff74fa3aa8b89e1192b44f0b31fd5f]
reverse link Privilege to Read--><path d="M1029.3101,631.1071 C1032.5124,668.6457 1036.3337,713.439 1038.8333,742.7403 " fill="none" id="Privilege&lt;-Read" style="stroke: #2F4F4F; stroke-width: 2.0;"/><polygon fill="none" points="1022.3324,631.6658,1027.607,611.1432,1036.2817,630.4758,1022.3324,631.6658" style="stroke: #2F4F4F; stroke-width: 2.0;"/><!--MD5=[8f7f99506195280e19a4b3efbf1695f9]
link SupplyChain to Label--><path d="M894.0747,313.9026 C924.1434,337.1577 957.7577,363.155 983.1923,382.8261 " fill="none" id="SupplyChain-Label" style="stroke: #2F4F4F; stroke-width: 2.0;"/><text fill="#000000" font-family="sans-serif" font-size="12" font-weight="bold" lengthAdjust="spacingAndGlyphs" textLength="24" x="911.9895" y="305.4175">0..*</text><text fill="#000000" font-family="sans-serif" font-size="12" font-weight="bold" lengthAdjust="spacingAndGlyphs" textLength="24" x="937.7043" y="362.2368">0..*</text><!--MD5=[70c37dc9bfbc8656942103c36f1181e4]
link User to Role--><path d="M1161.9563,611.1432 C1162.3391,651.5243 1162.8745,708.0128 1163.2037,742.7403 " fill="none" id="User-Role" style="stroke: #2F4F4F; stroke-width: 2.0;"/><text fill="#000000" font-family="sans-serif" font-size="12" font-weight="bold" lengthAdjust="spacingAndGlyphs" textLength="8" x="1142.3057" y="640.2031">1</text><text fill="#000000" font-family="sans-serif" font-size="12" font-weight="bold" lengthAdjust="spacingAndGlyphs" textLength="24" x="1125.0928" y="722.1352">0..*</text><!--MD5=[b1acf8123dc85dbb254f4a3ac2bb325e]
link User to Label--><path d="M1126.3565,514.6923 C1118.1984,504.2863 1109.3134,493.551 1100.5,484 C1088.1256,470.59 1073.5299,456.8654 1060.3919,445.1619 " fill="none" id="User-Label" style="stroke: #2F4F4F; stroke-width: 2.0;"/><text fill="#000000" font-family="sans-serif" font-size="12" font-weight="bold" lengthAdjust="spacingAndGlyphs" textLength="24" x="1099.2459" y="494.0731">0..*</text><text fill="#000000" font-family="sans-serif" font-size="12" font-weight="bold" lengthAdjust="spacingAndGlyphs" textLength="24" x="1028.9514" y="474.5502">0..*</text><!--MD5=[f3f3933bce629452ed49903371cc559f]
link Privilege to Role--><path d="M1055.4433,611.1432 C1082.2365,651.5243 1119.717,708.0128 1142.7589,742.7403 " fill="none" id="Privilege-Role" style="stroke: #2F4F4F; stroke-width: 2.0;"/><text fill="#000000" font-family="sans-serif" font-size="12" font-weight="bold" lengthAdjust="spacingAndGlyphs" textLength="24" x="1022.6551" y="640.2031">1..*</text><text fill="#000000" font-family="sans-serif" font-size="12" font-weight="bold" lengthAdjust="spacingAndGlyphs" textLength="24" x="1152.991" y="722.1352">1..*</text><!--MD5=[c03eb4e22041656ea6553382b6e45112]
link Allow to Rule--><path d="M1044.6695,1041.0837 C1043.6072,1080.8438 1041.7372,1150.8373 1040.3336,1203.3727 " fill="none" id="Allow-&gt;Rule" style="stroke: #2F4F4F; stroke-width: 2.0;"/><polygon fill="none" points="1047.3245,1203.8077,1039.7928,1223.6136,1033.3295,1203.4337,1047.3245,1203.8077" style="stroke: #2F4F4F; stroke-width: 2.0;"/><!--MD5=[1e2180d05b97e06557390bcf6bd97b5b]
link CreateRule to Rule--><path d="M1176.8735,1041.0837 C1152.6252,1081.549 1109.6114,1153.3299 1077.9588,1206.1516 " fill="none" id="CreateRule-&gt;Rule" style="stroke: #2F4F4F; stroke-width: 2.0;"/><polygon fill="none" points="1083.7797,1210.056,1067.4949,1223.6136,1071.7708,1202.8598,1083.7797,1210.056" style="stroke: #2F4F4F; stroke-width: 2.0;"/><!--MD5=[d4e53339337740aaa1b08c1827cfd815]
reverse link Rule to DeleteRule--><path d="M1100.8951,1272 C1105.8081,1272 1110.7211,1272 1115.6341,1272 " fill="none" id="Rule&lt;-DeleteRule" style="stroke: #2F4F4F; stroke-width: 2.0;"/><polygon fill="none" points="1100.6973,1278.9999,1080.6973,1272,1100.6972,1264.9999,1100.6973,1278.9999" style="stroke: #2F4F4F; stroke-width: 2.0;"/><!--MD5=[ebd7323bd83b0088a3121e66060ce73c]
reverse link Rule to DisAllow--><path d="M986.5845,1335.9447 C957.6062,1371.6375 922.8084,1414.4982 899.7537,1442.8948 " fill="none" id="Rule&lt;-DisAllow" style="stroke: #2F4F4F; stroke-width: 2.0;"/><polygon fill="none" points="981.3857,1331.2423,999.4263,1320.1274,992.2546,1340.0665,981.3857,1331.2423" style="stroke: #2F4F4F; stroke-width: 2.0;"/><!--MD5=[e296bde6a703fe5188c0f2e4e65f6940]
reverse link Rule to MatchRule--><path d="M1091.3652,1335.9447 C1120.8736,1371.6375 1156.3079,1414.4982 1179.7844,1442.8948 " fill="none" id="Rule&lt;-MatchRule" style="stroke: #2F4F4F; stroke-width: 2.0;"/><polygon fill="none" points="1085.637,1340.002,1078.2885,1320.1274,1096.4271,1331.0815,1085.637,1340.002" style="stroke: #2F4F4F; stroke-width: 2.0;"/><!--MD5=[ccb8f02aac5fe7927d101caa3a1f6775]
reverse link Rule to ModifyRule--><path d="M1037.8236,1340.3196 C1037.4793,1375.0889 1037.0777,1415.6494 1036.808,1442.8948 " fill="none" id="Rule&lt;-ModifyRule" style="stroke: #2F4F4F; stroke-width: 2.0;"/><polygon fill="none" points="1030.8257,1340.0571,1038.0235,1320.1274,1044.825,1340.1958,1030.8257,1340.0571" style="stroke: #2F4F4F; stroke-width: 2.0;"/><!--MD5=[794b143d8d0455d2f4d9f1a04b39677c]
link RequireRule to Rule--><path d="M961.1563,1272 C966.0846,1272 971.013,1272 975.9414,1272 " fill="none" id="RequireRule-&gt;Rule" style="stroke: #2F4F4F; stroke-width: 2.0;"/><polygon fill="none" points="976.2027,1264.9999,996.2026,1272,976.2026,1278.9999,976.2027,1264.9999" style="stroke: #2F4F4F; stroke-width: 2.0;"/><!--MD5=[ff4f850990088b2f9a461d2b57e3881b]
link Modifyable to Rule--><path d="M913.3469,1041.0837 C935.2307,1081.4609 974.0132,1153.0173 1002.6239,1205.8061 " fill="none" id="Modifyable-&gt;Rule" style="stroke: #2F4F4F; stroke-width: 2.0;"/><polygon fill="none" points="1008.8995,1202.6945,1012.2753,1223.6136,996.591,1209.3656,1008.8995,1202.6945" style="stroke: #2F4F4F; stroke-width: 2.0;"/><!--MD5=[84d3cf0de11e72a95b6f38c1ff0b5ed8]
link PubKey to Layout--><path d="M628.2068,514.8771 C611.6361,493.1723 589.0032,469.7985 562.1667,458 C465.9638,415.7049 347.0168,487.5338 287.0025,531.9378 " fill="none" id="PubKey-Layout" style="stroke: #2F4F4F; stroke-width: 2.0;"/><text fill="#000000" font-family="sans-serif" font-size="12" font-weight="bold" lengthAdjust="spacingAndGlyphs" textLength="24" x="637.0406" y="493.9776">0..*</text><text fill="#000000" font-family="sans-serif" font-size="12" font-weight="bold" lengthAdjust="spacingAndGlyphs" textLength="24" x="317.7774" y="520.0662">0..*</text><!--MD5=[6c51240bf1efb9f3f98a5a092d1acbef]
link Key to Step--><path d="M568.5004,606.9418 C573.9021,611.4337 579.6196,615.59 585.5,619 C661.3909,663.0093 775.5,584.7717 775.5,672.5 C775.5,672.5 775.5,672.5 775.5,1136.5 C775.5,1210.4349 525.2673,1252.4474 422.6328,1266.5696 " fill="none" id="Key-Step" style="stroke: #2F4F4F; stroke-width: 2.0;"/><text fill="#000000" font-family="sans-serif" font-size="12" font-weight="bold" lengthAdjust="spacingAndGlyphs" textLength="78" x="786.5" y="888.1387">authorized</text><text fill="#000000" font-family="sans-serif" font-size="12" font-weight="bold" lengthAdjust="spacingAndGlyphs" textLength="24" x="538.213" y="640.6191">1..*</text><text fill="#000000" font-family="sans-serif" font-size="12" font-weight="bold" lengthAdjust="spacingAndGlyphs" textLength="5" x="440.4562" y="1289.3144">-</text><!--MD5=[23e0bbe62cab2ce685671c337870a036]
link SupplyChain to LayoutMetablock--><path d="M774.9688,191.9362 C760.854,176.8185 743.9572,162.7477 725,154.5 C670.1853,130.6518 512.3072,134.428 456,154.5 C416.5174,168.5745 380.4806,200.9884 357.2536,225.6255 " fill="none" id="SupplyChain-LayoutMetablock" style="stroke: #2F4F4F; stroke-width: 2.0;"/><!--MD5=[25e70e2bcc8cbfd10a5fb9cc756abc5a]
link SupplyChain to LinkMetablock--><path d="M774.9688,191.9362 C760.854,176.8185 743.9572,162.7477 725,154.5 C675.4834,132.9568 289.5236,135.4378 239,154.5 C201.444,168.6696 168.14,201.0678 146.8608,225.6753 " fill="none" id="SupplyChain-LinkMetablock" style="stroke: #2F4F4F; stroke-width: 2.0;"/><!--MD5=[abdd0bce8f1fcdc263ace47b6cac4a87]
link Rule to Step--><path d="M1014.1581,1223.7717 C1001.3423,1204.0655 983.5534,1183.5636 961,1173.5 C863.7533,1130.1073 540.6516,1222.2531 422.9073,1258.3333 " fill="none" id="Rule-Step" style="stroke: #2F4F4F; stroke-width: 2.0;"/><text fill="#000000" font-family="sans-serif" font-size="12" font-weight="bold" lengthAdjust="spacingAndGlyphs" textLength="24" x="973.9309" y="1203.2597">0..*</text><text fill="#000000" font-family="sans-serif" font-size="12" font-weight="bold" lengthAdjust="spacingAndGlyphs" textLength="8" x="440.6214" y="1242.4656">1</text><!--MD5=[b9b0365ce8bce448c1f965965fa4f80e]
@startuml

skinparam roundcorner 25
skinparam defaultFontColor Black
skinparam defaultFontSize 12
skinparam Padding 10
skinparam pageMargin 40
skinparam classFontSize 14
skinparam classFontColor black
skinparam classFontStyle bold
skinparam ArrowFontStyle bold
skinparam ArrowThickness 2
skinparam class {
	BackgroundColor PaleGreen
	ArrowColor DarkSlateGray
	ArrowFontColor Black
	BorderColor SlateGray
}
skinparam stereotypeCBackgroundColor Snow

class SupplyChain #Tan {
  UUID
  name
}

class Label #Tan {
}

together  {
    class Signature #pink {
    signature
    }

    together {
        class Key #pink {
        keyId
        }

        class PubKey #pink {
        keyId
        }
    }

    together {
        class RSAKey #pink {
        }

        class GPGKey #pink {
        }
    }
    Signature "0..*" -down- "1" Key
    Key "1" - "1" PubKey
    Key <|-down- GPGKey
    Key <|-down- RSAKey
}


together {
    class Verifyable #PaleTurquoise {
    }

    together {
        class LayoutMetablock {
        }

        class LinkMetablock {
        }
    }

    class Signable #PaleTurquoise {
    }

    together {
        class Layout #Gainsboro {
        }

        class Link  #Gainsboro {
        runID
        }

        class Command  #Gainsboro {
        }
    }

    together {
        class Step  #Gainsboro {
        name
        }

        class Artifact  #Gainsboro {
        }
    }
    Verifyable <|-down- LayoutMetablock
    Verifyable <|-down LinkMetablock
    Layout  "0..*" - "0..*" Layout : Sublayout
    Signable <|-left- Layout
    Signable <|-down- Link
    Link "0..*" .. "1" Step
    LinkMetablock "1" -down- "1" Link
    LayoutMetablock "1" -down- "1" Layout
    Layout <|-down- Link
    Artifact "0..*" -up- "0..*" Link : Materials
    Artifact "0..*" -up- "0..*" Link : Products
    Command "1" -left- "1" Link
}


together {
    class Privilege #cornsilk {
        type
    }

    class Role #cornsilk {
    }

    class User #cornsilk {
        UUID
    }

        Class ImportLink #cornsilk {
        }

        Class Read #cornsilk {
        }
    ImportLink -up-|> Privilege
    Label -down- Privilege
    Read -up-|> Privilege
    SupplyChain  "0..*" -down- "0..*" Label
    User "1" -down- "0..*" Role
    User "0..*" - "0..*" Label
    Privilege "1..*" -down- "1..*" Role
}

together {
    class Rule #Plum
    {
        pattern
    }


        Class Modifyable #Plum {
        }

        Class Allow  #Plum {
        }

        Class DisAllow #Plum {
        }

        Class CreateRule #Plum {
        }

        Class ModifyRule #Plum {

        }
        Class MatchRule #Plum {
        }

        Class DeleteRule #Plum {
        }

        Class RequireRule #Plum {
        }
    }
    Rule <|-up- Allow
    Rule <|-up- CreateRule
    Rule <|-right- DeleteRule
    Rule <|-down- DisAllow
    Rule <|-down- MatchRule
    Rule <|-down- ModifyRule
    Rule <|-left- RequireRule
    Rule <|-up- Modifyable


PubKey "0..*" - "0..*" Layout
Key "1..*" -down- "-" Step : authorized
Key "1" - "1" PubKey

SupplyChain - LayoutMetablock
SupplyChain - LinkMetablock

Rule "0..*" - "1" Step

@enduml

PlantUML version 1.2020.15(Sun Jun 28 13:39:45 CEST 2020)
(GPL source distribution)
Java Runtime: OpenJDK Runtime Environment
JVM: OpenJDK 64-Bit Server VM
Default Encoding: UTF-8
Language: en
Country: US
--></g></svg>