<?xml version="1.0" encoding="UTF-8" standalone="no"?><svg xmlns="http://www.w3.org/2000/svg" xmlns:xlink="http://www.w3.org/1999/xlink" contentScriptType="application/ecmascript" contentStyleType="text/css" height="1556px" preserveAspectRatio="none" style="width:1297px;height:1556px;" version="1.1" viewBox="0 0 1297 1556" width="1297px" zoomAndPan="magnify"><defs><filter height="300%" id="fxvfcg8v2vznv" width="300%" x="-1" y="-1"><feGaussianBlur result="blurOut" stdDeviation="2.0"/><feColorMatrix in="blurOut" result="blurOut2" type="matrix" values="0 0 0 0 0 0 0 0 0 0 0 0 0 0 0 0 0 0 .4 0"/><feOffset dx="4.0" dy="4.0" in="blurOut2" result="blurOut3"/><feBlend in="SourceGraphic" in2="blurOut3" mode="normal"/></filter></defs><g><!--MD5=[79b2c35a8607833edf9d17d918b0cb90]
class Signature--><rect fill="#FFC0CB" filter="url(#fxvfcg8v2vznv)" height="96.2656" id="Signature" rx="12.5" ry="12.5" style="stroke: #708090; stroke-width: 1.5;" width="126" x="481" y="249"/><ellipse cx="495" cy="272.1484" fill="#FFFAFA" rx="10" ry="10" style="stroke: #708090; stroke-width: 1.0;"/><path d="M496.8281,276.3984 Q496.4219,276.6016 495.9688,276.7109 Q495.5156,276.8203 495.0313,276.8203 Q493.25,276.8203 492.3125,275.6641 Q491.3906,274.4922 491.3906,272.2891 Q491.3906,270.0703 492.3125,268.9141 Q493.25,267.7422 495.0313,267.7422 Q495.5156,267.7422 495.9688,267.8516 Q496.4375,267.9453 496.8281,268.1641 L496.8281,270.0859 Q496.3906,269.6797 495.9688,269.4922 Q495.5469,269.2891 495.1094,269.2891 Q494.1563,269.2891 493.6719,270.0547 Q493.1875,270.8047 493.1875,272.2891 Q493.1875,273.7578 493.6719,274.5078 Q494.1563,275.2578 495.1094,275.2578 Q495.5469,275.2578 495.9688,275.0703 Q496.3906,274.8828 496.8281,274.4766 L496.8281,276.3984 Z "/><text fill="#000000" font-family="sans-serif" font-size="14" font-weight="bold" lengthAdjust="spacingAndGlyphs" textLength="76" x="518" y="276.9951">Signature</text><line style="stroke: #708090; stroke-width: 1.5;" x1="482" x2="606" y1="295.2969" y2="295.2969"/><text fill="#000000" font-family="sans-serif" font-size="12" lengthAdjust="spacingAndGlyphs" textLength="60" x="497" y="320.4355">signature</text><line style="stroke: #708090; stroke-width: 1.5;" x1="482" x2="606" y1="337.2656" y2="337.2656"/><!--MD5=[2086e18d236f9616263f91fe5276f8cf]
class Key--><rect fill="#FFC0CB" filter="url(#fxvfcg8v2vznv)" height="96.2656" id="Key" rx="12.5" ry="12.5" style="stroke: #708090; stroke-width: 1.5;" width="80" x="504" y="555"/><ellipse cx="518" cy="578.1484" fill="#FFFAFA" rx="10" ry="10" style="stroke: #708090; stroke-width: 1.0;"/><path d="M519.8281,582.3984 Q519.4219,582.6016 518.9688,582.7109 Q518.5156,582.8203 518.0313,582.8203 Q516.25,582.8203 515.3125,581.6641 Q514.3906,580.4922 514.3906,578.2891 Q514.3906,576.0703 515.3125,574.9141 Q516.25,573.7422 518.0313,573.7422 Q518.5156,573.7422 518.9688,573.8516 Q519.4375,573.9453 519.8281,574.1641 L519.8281,576.0859 Q519.3906,575.6797 518.9688,575.4922 Q518.5469,575.2891 518.1094,575.2891 Q517.1563,575.2891 516.6719,576.0547 Q516.1875,576.8047 516.1875,578.2891 Q516.1875,579.7578 516.6719,580.5078 Q517.1563,581.2578 518.1094,581.2578 Q518.5469,581.2578 518.9688,581.0703 Q519.3906,580.8828 519.8281,580.4766 L519.8281,582.3984 Z "/><text fill="#000000" font-family="sans-serif" font-size="14" font-weight="bold" lengthAdjust="spacingAndGlyphs" textLength="30" x="541" y="582.9951">Key</text><line style="stroke: #708090; stroke-width: 1.5;" x1="505" x2="583" y1="601.2969" y2="601.2969"/><text fill="#000000" font-family="sans-serif" font-size="12" lengthAdjust="spacingAndGlyphs" textLength="32" x="520" y="626.4355">keyId</text><line style="stroke: #708090; stroke-width: 1.5;" x1="505" x2="583" y1="643.2656" y2="643.2656"/><!--MD5=[670714b8b13484707ba57e7da2903ab4]
class PubKey--><rect fill="#FFC0CB" filter="url(#fxvfcg8v2vznv)" height="96.2656" id="PubKey" rx="12.5" ry="12.5" style="stroke: #708090; stroke-width: 1.5;" width="110" x="619" y="555"/><ellipse cx="633" cy="578.1484" fill="#FFFAFA" rx="10" ry="10" style="stroke: #708090; stroke-width: 1.0;"/><path d="M634.8281,582.3984 Q634.4219,582.6016 633.9688,582.7109 Q633.5156,582.8203 633.0313,582.8203 Q631.25,582.8203 630.3125,581.6641 Q629.3906,580.4922 629.3906,578.2891 Q629.3906,576.0703 630.3125,574.9141 Q631.25,573.7422 633.0313,573.7422 Q633.5156,573.7422 633.9688,573.8516 Q634.4375,573.9453 634.8281,574.1641 L634.8281,576.0859 Q634.3906,575.6797 633.9688,575.4922 Q633.5469,575.2891 633.1094,575.2891 Q632.1563,575.2891 631.6719,576.0547 Q631.1875,576.8047 631.1875,578.2891 Q631.1875,579.7578 631.6719,580.5078 Q632.1563,581.2578 633.1094,581.2578 Q633.5469,581.2578 633.9688,581.0703 Q634.3906,580.8828 634.8281,580.4766 L634.8281,582.3984 Z "/><text fill="#000000" font-family="sans-serif" font-size="14" font-weight="bold" lengthAdjust="spacingAndGlyphs" textLength="60" x="656" y="582.9951">PubKey</text><line style="stroke: #708090; stroke-width: 1.5;" x1="620" x2="728" y1="601.2969" y2="601.2969"/><text fill="#000000" font-family="sans-serif" font-size="12" lengthAdjust="spacingAndGlyphs" textLength="32" x="635" y="626.4355">keyId</text><line style="stroke: #708090; stroke-width: 1.5;" x1="620" x2="728" y1="643.2656" y2="643.2656"/><!--MD5=[361b5ccf95a296519de30c4319c656f1]
class RSAKey--><rect fill="#FFC0CB" filter="url(#fxvfcg8v2vznv)" height="62.2969" id="RSAKey" rx="12.5" ry="12.5" style="stroke: #708090; stroke-width: 1.5;" width="111" x="477.5" y="783"/><ellipse cx="491.5" cy="806.1484" fill="#FFFAFA" rx="10" ry="10" style="stroke: #708090; stroke-width: 1.0;"/><path d="M493.3281,810.3984 Q492.9219,810.6016 492.4688,810.7109 Q492.0156,810.8203 491.5313,810.8203 Q489.75,810.8203 488.8125,809.6641 Q487.8906,808.4922 487.8906,806.2891 Q487.8906,804.0703 488.8125,802.9141 Q489.75,801.7422 491.5313,801.7422 Q492.0156,801.7422 492.4688,801.8516 Q492.9375,801.9453 493.3281,802.1641 L493.3281,804.0859 Q492.8906,803.6797 492.4688,803.4922 Q492.0469,803.2891 491.6094,803.2891 Q490.6563,803.2891 490.1719,804.0547 Q489.6875,804.8047 489.6875,806.2891 Q489.6875,807.7578 490.1719,808.5078 Q490.6563,809.2578 491.6094,809.2578 Q492.0469,809.2578 492.4688,809.0703 Q492.8906,808.8828 493.3281,808.4766 L493.3281,810.3984 Z "/><text fill="#000000" font-family="sans-serif" font-size="14" font-weight="bold" lengthAdjust="spacingAndGlyphs" textLength="61" x="514.5" y="810.9951">RSAKey</text><line style="stroke: #708090; stroke-width: 1.5;" x1="478.5" x2="587.5" y1="829.2969" y2="829.2969"/><line style="stroke: #708090; stroke-width: 1.5;" x1="478.5" x2="587.5" y1="837.2969" y2="837.2969"/><!--MD5=[4e91015b59db08b230e9bac411411292]
class GPGKey--><rect fill="#FFC0CB" filter="url(#fxvfcg8v2vznv)" height="62.2969" id="GPGKey" rx="12.5" ry="12.5" style="stroke: #708090; stroke-width: 1.5;" width="114" x="624" y="783"/><ellipse cx="638" cy="806.1484" fill="#FFFAFA" rx="10" ry="10" style="stroke: #708090; stroke-width: 1.0;"/><path d="M639.8281,810.3984 Q639.4219,810.6016 638.9688,810.7109 Q638.5156,810.8203 638.0313,810.8203 Q636.25,810.8203 635.3125,809.6641 Q634.3906,808.4922 634.3906,806.2891 Q634.3906,804.0703 635.3125,802.9141 Q636.25,801.7422 638.0313,801.7422 Q638.5156,801.7422 638.9688,801.8516 Q639.4375,801.9453 639.8281,802.1641 L639.8281,804.0859 Q639.3906,803.6797 638.9688,803.4922 Q638.5469,803.2891 638.1094,803.2891 Q637.1563,803.2891 636.6719,804.0547 Q636.1875,804.8047 636.1875,806.2891 Q636.1875,807.7578 636.6719,808.5078 Q637.1563,809.2578 638.1094,809.2578 Q638.5469,809.2578 638.9688,809.0703 Q639.3906,808.8828 639.8281,808.4766 L639.8281,810.3984 Z "/><text fill="#000000" font-family="sans-serif" font-size="14" font-weight="bold" lengthAdjust="spacingAndGlyphs" textLength="64" x="661" y="810.9951">GPGKey</text><line style="stroke: #708090; stroke-width: 1.5;" x1="625" x2="737" y1="829.2969" y2="829.2969"/><line style="stroke: #708090; stroke-width: 1.5;" x1="625" x2="737" y1="837.2969" y2="837.2969"/><!--MD5=[d349b59a04f19c907a7ef8de1809a931]
class Verifyable--><rect fill="#AFEEEE" filter="url(#fxvfcg8v2vznv)" height="62.2969" id="Verifyable" rx="12.5" ry="12.5" style="stroke: #708090; stroke-width: 1.5;" width="130" x="177" y="47"/><ellipse cx="191" cy="70.1484" fill="#FFFAFA" rx="10" ry="10" style="stroke: #708090; stroke-width: 1.0;"/><path d="M192.8281,74.3984 Q192.4219,74.6016 191.9688,74.7109 Q191.5156,74.8203 191.0313,74.8203 Q189.25,74.8203 188.3125,73.6641 Q187.3906,72.4922 187.3906,70.2891 Q187.3906,68.0703 188.3125,66.9141 Q189.25,65.7422 191.0313,65.7422 Q191.5156,65.7422 191.9688,65.8516 Q192.4375,65.9453 192.8281,66.1641 L192.8281,68.0859 Q192.3906,67.6797 191.9688,67.4922 Q191.5469,67.2891 191.1094,67.2891 Q190.1563,67.2891 189.6719,68.0547 Q189.1875,68.8047 189.1875,70.2891 Q189.1875,71.7578 189.6719,72.5078 Q190.1563,73.2578 191.1094,73.2578 Q191.5469,73.2578 191.9688,73.0703 Q192.3906,72.8828 192.8281,72.4766 L192.8281,74.3984 Z "/><text fill="#000000" font-family="sans-serif" font-size="14" font-weight="bold" lengthAdjust="spacingAndGlyphs" textLength="80" x="214" y="74.9951">Verifyable</text><line style="stroke: #708090; stroke-width: 1.5;" x1="178" x2="306" y1="93.2969" y2="93.2969"/><line style="stroke: #708090; stroke-width: 1.5;" x1="178" x2="306" y1="101.2969" y2="101.2969"/><!--MD5=[81381f6940610dc517ced37cfb71f559]
class Signable--><rect fill="#AFEEEE" filter="url(#fxvfcg8v2vznv)" height="62.2969" id="Signable" rx="12.5" ry="12.5" style="stroke: #708090; stroke-width: 1.5;" width="117" x="22.5" y="572"/><ellipse cx="36.5" cy="595.1484" fill="#FFFAFA" rx="10" ry="10" style="stroke: #708090; stroke-width: 1.0;"/><path d="M38.3281,599.3984 Q37.9219,599.6016 37.4688,599.7109 Q37.0156,599.8203 36.5313,599.8203 Q34.75,599.8203 33.8125,598.6641 Q32.8906,597.4922 32.8906,595.2891 Q32.8906,593.0703 33.8125,591.9141 Q34.75,590.7422 36.5313,590.7422 Q37.0156,590.7422 37.4688,590.8516 Q37.9375,590.9453 38.3281,591.1641 L38.3281,593.0859 Q37.8906,592.6797 37.4688,592.4922 Q37.0469,592.2891 36.6094,592.2891 Q35.6563,592.2891 35.1719,593.0547 Q34.6875,593.8047 34.6875,595.2891 Q34.6875,596.7578 35.1719,597.5078 Q35.6563,598.2578 36.6094,598.2578 Q37.0469,598.2578 37.4688,598.0703 Q37.8906,597.8828 38.3281,597.4766 L38.3281,599.3984 Z "/><text fill="#000000" font-family="sans-serif" font-size="14" font-weight="bold" lengthAdjust="spacingAndGlyphs" textLength="67" x="59.5" y="599.9951">Signable</text><line style="stroke: #708090; stroke-width: 1.5;" x1="23.5" x2="138.5" y1="618.2969" y2="618.2969"/><line style="stroke: #708090; stroke-width: 1.5;" x1="23.5" x2="138.5" y1="626.2969" y2="626.2969"/><!--MD5=[444cace2dc642d914d4ec3994830e2b5]
class LayoutMetablock--><rect fill="#98FB98" filter="url(#fxvfcg8v2vznv)" height="62.2969" id="LayoutMetablock" rx="12.5" ry="12.5" style="stroke: #708090; stroke-width: 1.5;" width="183" x="254.5" y="266"/><ellipse cx="268.5" cy="289.1484" fill="#FFFAFA" rx="10" ry="10" style="stroke: #708090; stroke-width: 1.0;"/><path d="M270.3281,293.3984 Q269.9219,293.6016 269.4688,293.7109 Q269.0156,293.8203 268.5313,293.8203 Q266.75,293.8203 265.8125,292.6641 Q264.8906,291.4922 264.8906,289.2891 Q264.8906,287.0703 265.8125,285.9141 Q266.75,284.7422 268.5313,284.7422 Q269.0156,284.7422 269.4688,284.8516 Q269.9375,284.9453 270.3281,285.1641 L270.3281,287.0859 Q269.8906,286.6797 269.4688,286.4922 Q269.0469,286.2891 268.6094,286.2891 Q267.6563,286.2891 267.1719,287.0547 Q266.6875,287.8047 266.6875,289.2891 Q266.6875,290.7578 267.1719,291.5078 Q267.6563,292.2578 268.6094,292.2578 Q269.0469,292.2578 269.4688,292.0703 Q269.8906,291.8828 270.3281,291.4766 L270.3281,293.3984 Z "/><text fill="#000000" font-family="sans-serif" font-size="14" font-weight="bold" lengthAdjust="spacingAndGlyphs" textLength="133" x="291.5" y="293.9951">LayoutMetablock</text><line style="stroke: #708090; stroke-width: 1.5;" x1="255.5" x2="436.5" y1="312.2969" y2="312.2969"/><line style="stroke: #708090; stroke-width: 1.5;" x1="255.5" x2="436.5" y1="320.2969" y2="320.2969"/><!--MD5=[f3bad60b4b985436259fc33e8a775701]
class LinkMetablock--><rect fill="#98FB98" filter="url(#fxvfcg8v2vznv)" height="62.2969" id="LinkMetablock" rx="12.5" ry="12.5" style="stroke: #708090; stroke-width: 1.5;" width="162" x="57" y="266"/><ellipse cx="71" cy="289.1484" fill="#FFFAFA" rx="10" ry="10" style="stroke: #708090; stroke-width: 1.0;"/><path d="M72.8281,293.3984 Q72.4219,293.6016 71.9688,293.7109 Q71.5156,293.8203 71.0313,293.8203 Q69.25,293.8203 68.3125,292.6641 Q67.3906,291.4922 67.3906,289.2891 Q67.3906,287.0703 68.3125,285.9141 Q69.25,284.7422 71.0313,284.7422 Q71.5156,284.7422 71.9688,284.8516 Q72.4375,284.9453 72.8281,285.1641 L72.8281,287.0859 Q72.3906,286.6797 71.9688,286.4922 Q71.5469,286.2891 71.1094,286.2891 Q70.1563,286.2891 69.6719,287.0547 Q69.1875,287.8047 69.1875,289.2891 Q69.1875,290.7578 69.6719,291.5078 Q70.1563,292.2578 71.1094,292.2578 Q71.5469,292.2578 71.9688,292.0703 Q72.3906,291.8828 72.8281,291.4766 L72.8281,293.3984 Z "/><text fill="#000000" font-family="sans-serif" font-size="14" font-weight="bold" lengthAdjust="spacingAndGlyphs" textLength="112" x="94" y="293.9951">LinkMetablock</text><line style="stroke: #708090; stroke-width: 1.5;" x1="58" x2="218" y1="312.2969" y2="312.2969"/><line style="stroke: #708090; stroke-width: 1.5;" x1="58" x2="218" y1="320.2969" y2="320.2969"/><!--MD5=[caebf2ddd0fe15aa1cd7c0f919e7d6a1]
class Layout--><rect fill="#DCDCDC" filter="url(#fxvfcg8v2vznv)" height="62.2969" id="Layout" rx="12.5" ry="12.5" style="stroke: #708090; stroke-width: 1.5;" width="103" x="212.5" y="572"/><ellipse cx="226.5" cy="595.1484" fill="#FFFAFA" rx="10" ry="10" style="stroke: #708090; stroke-width: 1.0;"/><path d="M228.3281,599.3984 Q227.9219,599.6016 227.4688,599.7109 Q227.0156,599.8203 226.5313,599.8203 Q224.75,599.8203 223.8125,598.6641 Q222.8906,597.4922 222.8906,595.2891 Q222.8906,593.0703 223.8125,591.9141 Q224.75,590.7422 226.5313,590.7422 Q227.0156,590.7422 227.4688,590.8516 Q227.9375,590.9453 228.3281,591.1641 L228.3281,593.0859 Q227.8906,592.6797 227.4688,592.4922 Q227.0469,592.2891 226.6094,592.2891 Q225.6563,592.2891 225.1719,593.0547 Q224.6875,593.8047 224.6875,595.2891 Q224.6875,596.7578 225.1719,597.5078 Q225.6563,598.2578 226.6094,598.2578 Q227.0469,598.2578 227.4688,598.0703 Q227.8906,597.8828 228.3281,597.4766 L228.3281,599.3984 Z "/><text fill="#000000" font-family="sans-serif" font-size="14" font-weight="bold" lengthAdjust="spacingAndGlyphs" textLength="53" x="249.5" y="599.9951">Layout</text><line style="stroke: #708090; stroke-width: 1.5;" x1="213.5" x2="314.5" y1="618.2969" y2="618.2969"/><line style="stroke: #708090; stroke-width: 1.5;" x1="213.5" x2="314.5" y1="626.2969" y2="626.2969"/><!--MD5=[d189332174d53557e6def82bbd003869]
class Link--><rect fill="#DCDCDC" filter="url(#fxvfcg8v2vznv)" height="96.2656" id="Link" rx="12.5" ry="12.5" style="stroke: #708090; stroke-width: 1.5;" width="82" x="193" y="1002"/><ellipse cx="207" cy="1025.1484" fill="#FFFAFA" rx="10" ry="10" style="stroke: #708090; stroke-width: 1.0;"/><path d="M208.8281,1029.3984 Q208.4219,1029.6016 207.9688,1029.7109 Q207.5156,1029.8203 207.0313,1029.8203 Q205.25,1029.8203 204.3125,1028.6641 Q203.3906,1027.4922 203.3906,1025.2891 Q203.3906,1023.0703 204.3125,1021.9141 Q205.25,1020.7422 207.0313,1020.7422 Q207.5156,1020.7422 207.9688,1020.8516 Q208.4375,1020.9453 208.8281,1021.1641 L208.8281,1023.0859 Q208.3906,1022.6797 207.9688,1022.4922 Q207.5469,1022.2891 207.1094,1022.2891 Q206.1563,1022.2891 205.6719,1023.0547 Q205.1875,1023.8047 205.1875,1025.2891 Q205.1875,1026.7578 205.6719,1027.5078 Q206.1563,1028.2578 207.1094,1028.2578 Q207.5469,1028.2578 207.9688,1028.0703 Q208.3906,1027.8828 208.8281,1027.4766 L208.8281,1029.3984 Z "/><text fill="#000000" font-family="sans-serif" font-size="14" font-weight="bold" lengthAdjust="spacingAndGlyphs" textLength="32" x="230" y="1029.9951">Link</text><line style="stroke: #708090; stroke-width: 1.5;" x1="194" x2="274" y1="1048.2969" y2="1048.2969"/><text fill="#000000" font-family="sans-serif" font-size="12" lengthAdjust="spacingAndGlyphs" textLength="33" x="209" y="1073.4355">runID</text><line style="stroke: #708090; stroke-width: 1.5;" x1="194" x2="274" y1="1090.2656" y2="1090.2656"/><!--MD5=[521817ab83e81da341a3f4b5e91bae41]
class Command--><rect fill="#DCDCDC" filter="url(#fxvfcg8v2vznv)" height="62.2969" id="Command" rx="12.5" ry="12.5" style="stroke: #708090; stroke-width: 1.5;" width="128" x="310" y="1019"/><ellipse cx="324" cy="1042.1484" fill="#FFFAFA" rx="10" ry="10" style="stroke: #708090; stroke-width: 1.0;"/><path d="M325.8281,1046.3984 Q325.4219,1046.6016 324.9688,1046.7109 Q324.5156,1046.8203 324.0313,1046.8203 Q322.25,1046.8203 321.3125,1045.6641 Q320.3906,1044.4922 320.3906,1042.2891 Q320.3906,1040.0703 321.3125,1038.9141 Q322.25,1037.7422 324.0313,1037.7422 Q324.5156,1037.7422 324.9688,1037.8516 Q325.4375,1037.9453 325.8281,1038.1641 L325.8281,1040.0859 Q325.3906,1039.6797 324.9688,1039.4922 Q324.5469,1039.2891 324.1094,1039.2891 Q323.1563,1039.2891 322.6719,1040.0547 Q322.1875,1040.8047 322.1875,1042.2891 Q322.1875,1043.7578 322.6719,1044.5078 Q323.1563,1045.2578 324.1094,1045.2578 Q324.5469,1045.2578 324.9688,1045.0703 Q325.3906,1044.8828 325.8281,1044.4766 L325.8281,1046.3984 Z "/><text fill="#000000" font-family="sans-serif" font-size="14" font-weight="bold" lengthAdjust="spacingAndGlyphs" textLength="78" x="347" y="1046.9951">Command</text><line style="stroke: #708090; stroke-width: 1.5;" x1="311" x2="437" y1="1065.2969" y2="1065.2969"/><line style="stroke: #708090; stroke-width: 1.5;" x1="311" x2="437" y1="1073.2969" y2="1073.2969"/><!--MD5=[5a2ba6e4c7f78036fecb159f353da9e9]
class Step--><rect fill="#DCDCDC" filter="url(#fxvfcg8v2vznv)" height="96.2656" id="Step" rx="12.5" ry="12.5" style="stroke: #708090; stroke-width: 1.5;" width="86" x="352" y="1264"/><ellipse cx="366" cy="1287.1484" fill="#FFFAFA" rx="10" ry="10" style="stroke: #708090; stroke-width: 1.0;"/><path d="M367.8281,1291.3984 Q367.4219,1291.6016 366.9688,1291.7109 Q366.5156,1291.8203 366.0313,1291.8203 Q364.25,1291.8203 363.3125,1290.6641 Q362.3906,1289.4922 362.3906,1287.2891 Q362.3906,1285.0703 363.3125,1283.9141 Q364.25,1282.7422 366.0313,1282.7422 Q366.5156,1282.7422 366.9688,1282.8516 Q367.4375,1282.9453 367.8281,1283.1641 L367.8281,1285.0859 Q367.3906,1284.6797 366.9688,1284.4922 Q366.5469,1284.2891 366.1094,1284.2891 Q365.1563,1284.2891 364.6719,1285.0547 Q364.1875,1285.8047 364.1875,1287.2891 Q364.1875,1288.7578 364.6719,1289.5078 Q365.1563,1290.2578 366.1094,1290.2578 Q366.5469,1290.2578 366.9688,1290.0703 Q367.3906,1289.8828 367.8281,1289.4766 L367.8281,1291.3984 Z "/><text fill="#000000" font-family="sans-serif" font-size="14" font-weight="bold" lengthAdjust="spacingAndGlyphs" textLength="36" x="389" y="1291.9951">Step</text><line style="stroke: #708090; stroke-width: 1.5;" x1="353" x2="437" y1="1310.2969" y2="1310.2969"/><text fill="#000000" font-family="sans-serif" font-size="12" lengthAdjust="spacingAndGlyphs" textLength="35" x="368" y="1335.4355">name</text><line style="stroke: #708090; stroke-width: 1.5;" x1="353" x2="437" y1="1352.2656" y2="1352.2656"/><!--MD5=[00cff116ff6c3ad2c4e5e0dddbe6ceff]
class Artifact--><rect fill="#DCDCDC" filter="url(#fxvfcg8v2vznv)" height="62.2969" id="Artifact" rx="12.5" ry="12.5" style="stroke: #708090; stroke-width: 1.5;" width="108" x="209" y="1281"/><ellipse cx="223" cy="1304.1484" fill="#FFFAFA" rx="10" ry="10" style="stroke: #708090; stroke-width: 1.0;"/><path d="M224.8281,1308.3984 Q224.4219,1308.6016 223.9688,1308.7109 Q223.5156,1308.8203 223.0313,1308.8203 Q221.25,1308.8203 220.3125,1307.6641 Q219.3906,1306.4922 219.3906,1304.2891 Q219.3906,1302.0703 220.3125,1300.9141 Q221.25,1299.7422 223.0313,1299.7422 Q223.5156,1299.7422 223.9688,1299.8516 Q224.4375,1299.9453 224.8281,1300.1641 L224.8281,1302.0859 Q224.3906,1301.6797 223.9688,1301.4922 Q223.5469,1301.2891 223.1094,1301.2891 Q222.1563,1301.2891 221.6719,1302.0547 Q221.1875,1302.8047 221.1875,1304.2891 Q221.1875,1305.7578 221.6719,1306.5078 Q222.1563,1307.2578 223.1094,1307.2578 Q223.5469,1307.2578 223.9688,1307.0703 Q224.3906,1306.8828 224.8281,1306.4766 L224.8281,1308.3984 Z "/><text fill="#000000" font-family="sans-serif" font-size="14" font-weight="bold" lengthAdjust="spacingAndGlyphs" textLength="58" x="246" y="1308.9951">Artifact</text><line style="stroke: #708090; stroke-width: 1.5;" x1="210" x2="316" y1="1327.2969" y2="1327.2969"/><line style="stroke: #708090; stroke-width: 1.5;" x1="210" x2="316" y1="1335.2969" y2="1335.2969"/><!--MD5=[bcf36559a79562a0967a10297fba1c26]
class Privilege--><rect fill="#FFF8DC" filter="url(#fxvfcg8v2vznv)" height="96.2656" id="Privilege" rx="12.5" ry="12.5" style="stroke: #708090; stroke-width: 1.5;" width="118" x="980" y="555"/><ellipse cx="994" cy="578.1484" fill="#FFFAFA" rx="10" ry="10" style="stroke: #708090; stroke-width: 1.0;"/><path d="M995.8281,582.3984 Q995.4219,582.6016 994.9688,582.7109 Q994.5156,582.8203 994.0313,582.8203 Q992.25,582.8203 991.3125,581.6641 Q990.3906,580.4922 990.3906,578.2891 Q990.3906,576.0703 991.3125,574.9141 Q992.25,573.7422 994.0313,573.7422 Q994.5156,573.7422 994.9688,573.8516 Q995.4375,573.9453 995.8281,574.1641 L995.8281,576.0859 Q995.3906,575.6797 994.9688,575.4922 Q994.5469,575.2891 994.1094,575.2891 Q993.1563,575.2891 992.6719,576.0547 Q992.1875,576.8047 992.1875,578.2891 Q992.1875,579.7578 992.6719,580.5078 Q993.1563,581.2578 994.1094,581.2578 Q994.5469,581.2578 994.9688,581.0703 Q995.3906,580.8828 995.8281,580.4766 L995.8281,582.3984 Z "/><text fill="#000000" font-family="sans-serif" font-size="14" font-weight="bold" lengthAdjust="spacingAndGlyphs" textLength="68" x="1017" y="582.9951">Privilege</text><line style="stroke: #708090; stroke-width: 1.5;" x1="981" x2="1097" y1="601.2969" y2="601.2969"/><text fill="#000000" font-family="sans-serif" font-size="12" lengthAdjust="spacingAndGlyphs" textLength="27" x="996" y="626.4355">type</text><line style="stroke: #708090; stroke-width: 1.5;" x1="981" x2="1097" y1="643.2656" y2="643.2656"/><!--MD5=[a3638c1e5b65d287ecad7f06f5c0f212]
class Role--><rect fill="#FFF8DC" filter="url(#fxvfcg8v2vznv)" height="62.2969" id="Role" rx="12.5" ry="12.5" style="stroke: #708090; stroke-width: 1.5;" width="84" x="1137" y="783"/><ellipse cx="1151" cy="806.1484" fill="#FFFAFA" rx="10" ry="10" style="stroke: #708090; stroke-width: 1.0;"/><path d="M1152.8281,810.3984 Q1152.4219,810.6016 1151.9688,810.7109 Q1151.5156,810.8203 1151.0313,810.8203 Q1149.25,810.8203 1148.3125,809.6641 Q1147.3906,808.4922 1147.3906,806.2891 Q1147.3906,804.0703 1148.3125,802.9141 Q1149.25,801.7422 1151.0313,801.7422 Q1151.5156,801.7422 1151.9688,801.8516 Q1152.4375,801.9453 1152.8281,802.1641 L1152.8281,804.0859 Q1152.3906,803.6797 1151.9688,803.4922 Q1151.5469,803.2891 1151.1094,803.2891 Q1150.1563,803.2891 1149.6719,804.0547 Q1149.1875,804.8047 1149.1875,806.2891 Q1149.1875,807.7578 1149.6719,808.5078 Q1150.1563,809.2578 1151.1094,809.2578 Q1151.5469,809.2578 1151.9688,809.0703 Q1152.3906,808.8828 1152.8281,808.4766 L1152.8281,810.3984 Z "/><text fill="#000000" font-family="sans-serif" font-size="14" font-weight="bold" lengthAdjust="spacingAndGlyphs" textLength="34" x="1174" y="810.9951">Role</text><line style="stroke: #708090; stroke-width: 1.5;" x1="1138" x2="1220" y1="829.2969" y2="829.2969"/><line style="stroke: #708090; stroke-width: 1.5;" x1="1138" x2="1220" y1="837.2969" y2="837.2969"/><!--MD5=[3fd616f346a44cd59a91eb10b19e157c]
class User--><rect fill="#FFF8DC" filter="url(#fxvfcg8v2vznv)" height="96.2656" id="User" rx="12.5" ry="12.5" style="stroke: #708090; stroke-width: 1.5;" width="87" x="1133.5" y="555"/><ellipse cx="1147.5" cy="578.1484" fill="#FFFAFA" rx="10" ry="10" style="stroke: #708090; stroke-width: 1.0;"/><path d="M1149.3281,582.3984 Q1148.9219,582.6016 1148.4688,582.7109 Q1148.0156,582.8203 1147.5313,582.8203 Q1145.75,582.8203 1144.8125,581.6641 Q1143.8906,580.4922 1143.8906,578.2891 Q1143.8906,576.0703 1144.8125,574.9141 Q1145.75,573.7422 1147.5313,573.7422 Q1148.0156,573.7422 1148.4688,573.8516 Q1148.9375,573.9453 1149.3281,574.1641 L1149.3281,576.0859 Q1148.8906,575.6797 1148.4688,575.4922 Q1148.0469,575.2891 1147.6094,575.2891 Q1146.6563,575.2891 1146.1719,576.0547 Q1145.6875,576.8047 1145.6875,578.2891 Q1145.6875,579.7578 1146.1719,580.5078 Q1146.6563,581.2578 1147.6094,581.2578 Q1148.0469,581.2578 1148.4688,581.0703 Q1148.8906,580.8828 1149.3281,580.4766 L1149.3281,582.3984 Z "/><text fill="#000000" font-family="sans-serif" font-size="14" font-weight="bold" lengthAdjust="spacingAndGlyphs" textLength="37" x="1170.5" y="582.9951">User</text><line style="stroke: #708090; stroke-width: 1.5;" x1="1134.5" x2="1219.5" y1="601.2969" y2="601.2969"/><text fill="#000000" font-family="sans-serif" font-size="12" lengthAdjust="spacingAndGlyphs" textLength="30" x="1149.5" y="626.4355">UUID</text><line style="stroke: #708090; stroke-width: 1.5;" x1="1134.5" x2="1219.5" y1="643.2656" y2="643.2656"/><!--MD5=[0612e3ad1f3e0bbf67c9e8686966830a]
class ImportLink--><rect fill="#FFF8DC" filter="url(#fxvfcg8v2vznv)" height="62.2969" id="ImportLink" rx="12.5" ry="12.5" style="stroke: #708090; stroke-width: 1.5;" width="133" x="844.5" y="783"/><ellipse cx="858.5" cy="806.1484" fill="#FFFAFA" rx="10" ry="10" style="stroke: #708090; stroke-width: 1.0;"/><path d="M860.3281,810.3984 Q859.9219,810.6016 859.4688,810.7109 Q859.0156,810.8203 858.5313,810.8203 Q856.75,810.8203 855.8125,809.6641 Q854.8906,808.4922 854.8906,806.2891 Q854.8906,804.0703 855.8125,802.9141 Q856.75,801.7422 858.5313,801.7422 Q859.0156,801.7422 859.4688,801.8516 Q859.9375,801.9453 860.3281,802.1641 L860.3281,804.0859 Q859.8906,803.6797 859.4688,803.4922 Q859.0469,803.2891 858.6094,803.2891 Q857.6563,803.2891 857.1719,804.0547 Q856.6875,804.8047 856.6875,806.2891 Q856.6875,807.7578 857.1719,808.5078 Q857.6563,809.2578 858.6094,809.2578 Q859.0469,809.2578 859.4688,809.0703 Q859.8906,808.8828 860.3281,808.4766 L860.3281,810.3984 Z "/><text fill="#000000" font-family="sans-serif" font-size="14" font-weight="bold" lengthAdjust="spacingAndGlyphs" textLength="83" x="881.5" y="810.9951">ImportLink</text><line style="stroke: #708090; stroke-width: 1.5;" x1="845.5" x2="976.5" y1="829.2969" y2="829.2969"/><line style="stroke: #708090; stroke-width: 1.5;" x1="845.5" x2="976.5" y1="837.2969" y2="837.2969"/><!--MD5=[dda496a2ed7283fc728b8870bbd50c15]
class Read--><rect fill="#FFF8DC" filter="url(#fxvfcg8v2vznv)" height="62.2969" id="Read" rx="12.5" ry="12.5" style="stroke: #708090; stroke-width: 1.5;" width="89" x="1012.5" y="783"/><ellipse cx="1026.5" cy="806.1484" fill="#FFFAFA" rx="10" ry="10" style="stroke: #708090; stroke-width: 1.0;"/><path d="M1028.3281,810.3984 Q1027.9219,810.6016 1027.4688,810.7109 Q1027.0156,810.8203 1026.5313,810.8203 Q1024.75,810.8203 1023.8125,809.6641 Q1022.8906,808.4922 1022.8906,806.2891 Q1022.8906,804.0703 1023.8125,802.9141 Q1024.75,801.7422 1026.5313,801.7422 Q1027.0156,801.7422 1027.4688,801.8516 Q1027.9375,801.9453 1028.3281,802.1641 L1028.3281,804.0859 Q1027.8906,803.6797 1027.4688,803.4922 Q1027.0469,803.2891 1026.6094,803.2891 Q1025.6563,803.2891 1025.1719,804.0547 Q1024.6875,804.8047 1024.6875,806.2891 Q1024.6875,807.7578 1025.1719,808.5078 Q1025.6563,809.2578 1026.6094,809.2578 Q1027.0469,809.2578 1027.4688,809.0703 Q1027.8906,808.8828 1028.3281,808.4766 L1028.3281,810.3984 Z "/><text fill="#000000" font-family="sans-serif" font-size="14" font-weight="bold" lengthAdjust="spacingAndGlyphs" textLength="39" x="1049.5" y="810.9951">Read</text><line style="stroke: #708090; stroke-width: 1.5;" x1="1013.5" x2="1100.5" y1="829.2969" y2="829.2969"/><line style="stroke: #708090; stroke-width: 1.5;" x1="1013.5" x2="1100.5" y1="837.2969" y2="837.2969"/><!--MD5=[4cf87534c235239d37db4adfd136fff4]
class Rule--><rect fill="#DDA0DD" filter="url(#fxvfcg8v2vznv)" height="96.2656" id="Rule" rx="12.5" ry="12.5" style="stroke: #708090; stroke-width: 1.5;" width="84" x="1012" y="1264"/><ellipse cx="1026" cy="1287.1484" fill="#FFFAFA" rx="10" ry="10" style="stroke: #708090; stroke-width: 1.0;"/><path d="M1027.8281,1291.3984 Q1027.4219,1291.6016 1026.9688,1291.7109 Q1026.5156,1291.8203 1026.0313,1291.8203 Q1024.25,1291.8203 1023.3125,1290.6641 Q1022.3906,1289.4922 1022.3906,1287.2891 Q1022.3906,1285.0703 1023.3125,1283.9141 Q1024.25,1282.7422 1026.0313,1282.7422 Q1026.5156,1282.7422 1026.9688,1282.8516 Q1027.4375,1282.9453 1027.8281,1283.1641 L1027.8281,1285.0859 Q1027.3906,1284.6797 1026.9688,1284.4922 Q1026.5469,1284.2891 1026.1094,1284.2891 Q1025.1563,1284.2891 1024.6719,1285.0547 Q1024.1875,1285.8047 1024.1875,1287.2891 Q1024.1875,1288.7578 1024.6719,1289.5078 Q1025.1563,1290.2578 1026.1094,1290.2578 Q1026.5469,1290.2578 1026.9688,1290.0703 Q1027.3906,1289.8828 1027.8281,1289.4766 L1027.8281,1291.3984 Z "/><text fill="#000000" font-family="sans-serif" font-size="14" font-weight="bold" lengthAdjust="spacingAndGlyphs" textLength="34" x="1049" y="1291.9951">Rule</text><line style="stroke: #708090; stroke-width: 1.5;" x1="1013" x2="1095" y1="1310.2969" y2="1310.2969"/><text fill="#000000" font-family="sans-serif" font-size="12" lengthAdjust="spacingAndGlyphs" textLength="47" x="1028" y="1335.4355">pattern</text><line style="stroke: #708090; stroke-width: 1.5;" x1="1013" x2="1095" y1="1352.2656" y2="1352.2656"/><!--MD5=[2986c7513eb31cc9a7d08cb983b766c4]
class Modifyable--><rect fill="#DDA0DD" filter="url(#fxvfcg8v2vznv)" height="62.2969" id="Modifyable" rx="12.5" ry="12.5" style="stroke: #708090; stroke-width: 1.5;" width="135" x="844.5" y="1019"/><ellipse cx="858.5" cy="1042.1484" fill="#FFFAFA" rx="10" ry="10" style="stroke: #708090; stroke-width: 1.0;"/><path d="M860.3281,1046.3984 Q859.9219,1046.6016 859.4688,1046.7109 Q859.0156,1046.8203 858.5313,1046.8203 Q856.75,1046.8203 855.8125,1045.6641 Q854.8906,1044.4922 854.8906,1042.2891 Q854.8906,1040.0703 855.8125,1038.9141 Q856.75,1037.7422 858.5313,1037.7422 Q859.0156,1037.7422 859.4688,1037.8516 Q859.9375,1037.9453 860.3281,1038.1641 L860.3281,1040.0859 Q859.8906,1039.6797 859.4688,1039.4922 Q859.0469,1039.2891 858.6094,1039.2891 Q857.6563,1039.2891 857.1719,1040.0547 Q856.6875,1040.8047 856.6875,1042.2891 Q856.6875,1043.7578 857.1719,1044.5078 Q857.6563,1045.2578 858.6094,1045.2578 Q859.0469,1045.2578 859.4688,1045.0703 Q859.8906,1044.8828 860.3281,1044.4766 L860.3281,1046.3984 Z "/><text fill="#000000" font-family="sans-serif" font-size="14" font-weight="bold" lengthAdjust="spacingAndGlyphs" textLength="85" x="881.5" y="1046.9951">Modifyable</text><line style="stroke: #708090; stroke-width: 1.5;" x1="845.5" x2="978.5" y1="1065.2969" y2="1065.2969"/><line style="stroke: #708090; stroke-width: 1.5;" x1="845.5" x2="978.5" y1="1073.2969" y2="1073.2969"/><!--MD5=[e22b377fdee134cc691ca5772e976162]
class Allow--><rect fill="#DDA0DD" filter="url(#fxvfcg8v2vznv)" height="62.2969" id="Allow" rx="12.5" ry="12.5" style="stroke: #708090; stroke-width: 1.5;" width="93" x="1014.5" y="1019"/><ellipse cx="1028.5" cy="1042.1484" fill="#FFFAFA" rx="10" ry="10" style="stroke: #708090; stroke-width: 1.0;"/><path d="M1030.3281,1046.3984 Q1029.9219,1046.6016 1029.4688,1046.7109 Q1029.0156,1046.8203 1028.5313,1046.8203 Q1026.75,1046.8203 1025.8125,1045.6641 Q1024.8906,1044.4922 1024.8906,1042.2891 Q1024.8906,1040.0703 1025.8125,1038.9141 Q1026.75,1037.7422 1028.5313,1037.7422 Q1029.0156,1037.7422 1029.4688,1037.8516 Q1029.9375,1037.9453 1030.3281,1038.1641 L1030.3281,1040.0859 Q1029.8906,1039.6797 1029.4688,1039.4922 Q1029.0469,1039.2891 1028.6094,1039.2891 Q1027.6563,1039.2891 1027.1719,1040.0547 Q1026.6875,1040.8047 1026.6875,1042.2891 Q1026.6875,1043.7578 1027.1719,1044.5078 Q1027.6563,1045.2578 1028.6094,1045.2578 Q1029.0469,1045.2578 1029.4688,1045.0703 Q1029.8906,1044.8828 1030.3281,1044.4766 L1030.3281,1046.3984 Z "/><text fill="#000000" font-family="sans-serif" font-size="14" font-weight="bold" lengthAdjust="spacingAndGlyphs" textLength="43" x="1051.5" y="1046.9951">Allow</text><line style="stroke: #708090; stroke-width: 1.5;" x1="1015.5" x2="1106.5" y1="1065.2969" y2="1065.2969"/><line style="stroke: #708090; stroke-width: 1.5;" x1="1015.5" x2="1106.5" y1="1073.2969" y2="1073.2969"/><!--MD5=[862a72e8ee5ccde404fa80ac21773f88]
class DisAllow--><rect fill="#DDA0DD" filter="url(#fxvfcg8v2vznv)" height="62.2969" id="DisAllow" rx="12.5" ry="12.5" style="stroke: #708090; stroke-width: 1.5;" width="117" x="831.5" y="1483"/><ellipse cx="845.5" cy="1506.1484" fill="#FFFAFA" rx="10" ry="10" style="stroke: #708090; stroke-width: 1.0;"/><path d="M847.3281,1510.3984 Q846.9219,1510.6016 846.4688,1510.7109 Q846.0156,1510.8203 845.5313,1510.8203 Q843.75,1510.8203 842.8125,1509.6641 Q841.8906,1508.4922 841.8906,1506.2891 Q841.8906,1504.0703 842.8125,1502.9141 Q843.75,1501.7422 845.5313,1501.7422 Q846.0156,1501.7422 846.4688,1501.8516 Q846.9375,1501.9453 847.3281,1502.1641 L847.3281,1504.0859 Q846.8906,1503.6797 846.4688,1503.4922 Q846.0469,1503.2891 845.6094,1503.2891 Q844.6563,1503.2891 844.1719,1504.0547 Q843.6875,1504.8047 843.6875,1506.2891 Q843.6875,1507.7578 844.1719,1508.5078 Q844.6563,1509.2578 845.6094,1509.2578 Q846.0469,1509.2578 846.4688,1509.0703 Q846.8906,1508.8828 847.3281,1508.4766 L847.3281,1510.3984 Z "/><text fill="#000000" font-family="sans-serif" font-size="14" font-weight="bold" lengthAdjust="spacingAndGlyphs" textLength="67" x="868.5" y="1510.9951">DisAllow</text><line style="stroke: #708090; stroke-width: 1.5;" x1="832.5" x2="947.5" y1="1529.2969" y2="1529.2969"/><line style="stroke: #708090; stroke-width: 1.5;" x1="832.5" x2="947.5" y1="1537.2969" y2="1537.2969"/><!--MD5=[fca1a1cf771ede4ee5724c80f986db9c]
class CreateRule--><rect fill="#DDA0DD" filter="url(#fxvfcg8v2vznv)" height="62.2969" id="CreateRule" rx="12.5" ry="12.5" style="stroke: #708090; stroke-width: 1.5;" width="137" x="1142.5" y="1019"/><ellipse cx="1156.5" cy="1042.1484" fill="#FFFAFA" rx="10" ry="10" style="stroke: #708090; stroke-width: 1.0;"/><path d="M1158.3281,1046.3984 Q1157.9219,1046.6016 1157.4688,1046.7109 Q1157.0156,1046.8203 1156.5313,1046.8203 Q1154.75,1046.8203 1153.8125,1045.6641 Q1152.8906,1044.4922 1152.8906,1042.2891 Q1152.8906,1040.0703 1153.8125,1038.9141 Q1154.75,1037.7422 1156.5313,1037.7422 Q1157.0156,1037.7422 1157.4688,1037.8516 Q1157.9375,1037.9453 1158.3281,1038.1641 L1158.3281,1040.0859 Q1157.8906,1039.6797 1157.4688,1039.4922 Q1157.0469,1039.2891 1156.6094,1039.2891 Q1155.6563,1039.2891 1155.1719,1040.0547 Q1154.6875,1040.8047 1154.6875,1042.2891 Q1154.6875,1043.7578 1155.1719,1044.5078 Q1155.6563,1045.2578 1156.6094,1045.2578 Q1157.0469,1045.2578 1157.4688,1045.0703 Q1157.8906,1044.8828 1158.3281,1044.4766 L1158.3281,1046.3984 Z "/><text fill="#000000" font-family="sans-serif" font-size="14" font-weight="bold" lengthAdjust="spacingAndGlyphs" textLength="87" x="1179.5" y="1046.9951">CreateRule</text><line style="stroke: #708090; stroke-width: 1.5;" x1="1143.5" x2="1278.5" y1="1065.2969" y2="1065.2969"/><line style="stroke: #708090; stroke-width: 1.5;" x1="1143.5" x2="1278.5" y1="1073.2969" y2="1073.2969"/><!--MD5=[6b117240a185dcc11c7a786b22745e3e]
class ModifyRule--><rect fill="#DDA0DD" filter="url(#fxvfcg8v2vznv)" height="62.2969" id="ModifyRule" rx="12.5" ry="12.5" style="stroke: #708090; stroke-width: 1.5;" width="136" x="984" y="1483"/><ellipse cx="998" cy="1506.1484" fill="#FFFAFA" rx="10" ry="10" style="stroke: #708090; stroke-width: 1.0;"/><path d="M999.8281,1510.3984 Q999.4219,1510.6016 998.9688,1510.7109 Q998.5156,1510.8203 998.0313,1510.8203 Q996.25,1510.8203 995.3125,1509.6641 Q994.3906,1508.4922 994.3906,1506.2891 Q994.3906,1504.0703 995.3125,1502.9141 Q996.25,1501.7422 998.0313,1501.7422 Q998.5156,1501.7422 998.9688,1501.8516 Q999.4375,1501.9453 999.8281,1502.1641 L999.8281,1504.0859 Q999.3906,1503.6797 998.9688,1503.4922 Q998.5469,1503.2891 998.1094,1503.2891 Q997.1563,1503.2891 996.6719,1504.0547 Q996.1875,1504.8047 996.1875,1506.2891 Q996.1875,1507.7578 996.6719,1508.5078 Q997.1563,1509.2578 998.1094,1509.2578 Q998.5469,1509.2578 998.9688,1509.0703 Q999.3906,1508.8828 999.8281,1508.4766 L999.8281,1510.3984 Z "/><text fill="#000000" font-family="sans-serif" font-size="14" font-weight="bold" lengthAdjust="spacingAndGlyphs" textLength="86" x="1021" y="1510.9951">ModifyRule</text><line style="stroke: #708090; stroke-width: 1.5;" x1="985" x2="1119" y1="1529.2969" y2="1529.2969"/><line style="stroke: #708090; stroke-width: 1.5;" x1="985" x2="1119" y1="1537.2969" y2="1537.2969"/><!--MD5=[62ab7431544a0ae8be0f4a3b954cd430]
class MatchRule--><rect fill="#DDA0DD" filter="url(#fxvfcg8v2vznv)" height="62.2969" id="MatchRule" rx="12.5" ry="12.5" style="stroke: #708090; stroke-width: 1.5;" width="131" x="1155.5" y="1483"/><ellipse cx="1169.5" cy="1506.1484" fill="#FFFAFA" rx="10" ry="10" style="stroke: #708090; stroke-width: 1.0;"/><path d="M1171.3281,1510.3984 Q1170.9219,1510.6016 1170.4688,1510.7109 Q1170.0156,1510.8203 1169.5313,1510.8203 Q1167.75,1510.8203 1166.8125,1509.6641 Q1165.8906,1508.4922 1165.8906,1506.2891 Q1165.8906,1504.0703 1166.8125,1502.9141 Q1167.75,1501.7422 1169.5313,1501.7422 Q1170.0156,1501.7422 1170.4688,1501.8516 Q1170.9375,1501.9453 1171.3281,1502.1641 L1171.3281,1504.0859 Q1170.8906,1503.6797 1170.4688,1503.4922 Q1170.0469,1503.2891 1169.6094,1503.2891 Q1168.6563,1503.2891 1168.1719,1504.0547 Q1167.6875,1504.8047 1167.6875,1506.2891 Q1167.6875,1507.7578 1168.1719,1508.5078 Q1168.6563,1509.2578 1169.6094,1509.2578 Q1170.0469,1509.2578 1170.4688,1509.0703 Q1170.8906,1508.8828 1171.3281,1508.4766 L1171.3281,1510.3984 Z "/><text fill="#000000" font-family="sans-serif" font-size="14" font-weight="bold" lengthAdjust="spacingAndGlyphs" textLength="81" x="1192.5" y="1510.9951">MatchRule</text><line style="stroke: #708090; stroke-width: 1.5;" x1="1156.5" x2="1285.5" y1="1529.2969" y2="1529.2969"/><line style="stroke: #708090; stroke-width: 1.5;" x1="1156.5" x2="1285.5" y1="1537.2969" y2="1537.2969"/><!--MD5=[974f42fcacf8ac3433a80aaf64f5303a]
class DeleteRule--><rect fill="#DDA0DD" filter="url(#fxvfcg8v2vznv)" height="62.2969" id="DeleteRule" rx="12.5" ry="12.5" style="stroke: #708090; stroke-width: 1.5;" width="135" x="1131.5" y="1281"/><ellipse cx="1145.5" cy="1304.1484" fill="#FFFAFA" rx="10" ry="10" style="stroke: #708090; stroke-width: 1.0;"/><path d="M1147.3281,1308.3984 Q1146.9219,1308.6016 1146.4688,1308.7109 Q1146.0156,1308.8203 1145.5313,1308.8203 Q1143.75,1308.8203 1142.8125,1307.6641 Q1141.8906,1306.4922 1141.8906,1304.2891 Q1141.8906,1302.0703 1142.8125,1300.9141 Q1143.75,1299.7422 1145.5313,1299.7422 Q1146.0156,1299.7422 1146.4688,1299.8516 Q1146.9375,1299.9453 1147.3281,1300.1641 L1147.3281,1302.0859 Q1146.8906,1301.6797 1146.4688,1301.4922 Q1146.0469,1301.2891 1145.6094,1301.2891 Q1144.6563,1301.2891 1144.1719,1302.0547 Q1143.6875,1302.8047 1143.6875,1304.2891 Q1143.6875,1305.7578 1144.1719,1306.5078 Q1144.6563,1307.2578 1145.6094,1307.2578 Q1146.0469,1307.2578 1146.4688,1307.0703 Q1146.8906,1306.8828 1147.3281,1306.4766 L1147.3281,1308.3984 Z "/><text fill="#000000" font-family="sans-serif" font-size="14" font-weight="bold" lengthAdjust="spacingAndGlyphs" textLength="85" x="1168.5" y="1308.9951">DeleteRule</text><line style="stroke: #708090; stroke-width: 1.5;" x1="1132.5" x2="1265.5" y1="1327.2969" y2="1327.2969"/><line style="stroke: #708090; stroke-width: 1.5;" x1="1132.5" x2="1265.5" y1="1335.2969" y2="1335.2969"/><!--MD5=[fdf6a7140b22ca240cbdf051adcedc3d]
class RequireRule--><rect fill="#DDA0DD" filter="url(#fxvfcg8v2vznv)" height="62.2969" id="RequireRule" rx="12.5" ry="12.5" style="stroke: #708090; stroke-width: 1.5;" width="145" x="831.5" y="1281"/><ellipse cx="845.5" cy="1304.1484" fill="#FFFAFA" rx="10" ry="10" style="stroke: #708090; stroke-width: 1.0;"/><path d="M847.3281,1308.3984 Q846.9219,1308.6016 846.4688,1308.7109 Q846.0156,1308.8203 845.5313,1308.8203 Q843.75,1308.8203 842.8125,1307.6641 Q841.8906,1306.4922 841.8906,1304.2891 Q841.8906,1302.0703 842.8125,1300.9141 Q843.75,1299.7422 845.5313,1299.7422 Q846.0156,1299.7422 846.4688,1299.8516 Q846.9375,1299.9453 847.3281,1300.1641 L847.3281,1302.0859 Q846.8906,1301.6797 846.4688,1301.4922 Q846.0469,1301.2891 845.6094,1301.2891 Q844.6563,1301.2891 844.1719,1302.0547 Q843.6875,1302.8047 843.6875,1304.2891 Q843.6875,1305.7578 844.1719,1306.5078 Q844.6563,1307.2578 845.6094,1307.2578 Q846.0469,1307.2578 846.4688,1307.0703 Q846.8906,1306.8828 847.3281,1306.4766 L847.3281,1308.3984 Z "/><text fill="#000000" font-family="sans-serif" font-size="14" font-weight="bold" lengthAdjust="spacingAndGlyphs" textLength="95" x="868.5" y="1308.9951">RequireRule</text><line style="stroke: #708090; stroke-width: 1.5;" x1="832.5" x2="975.5" y1="1327.2969" y2="1327.2969"/><line style="stroke: #708090; stroke-width: 1.5;" x1="832.5" x2="975.5" y1="1335.2969" y2="1335.2969"/><!--MD5=[7f45976635210019d8fdbf63ea652dc0]
class SupplyChain--><rect fill="#D2B48C" filter="url(#fxvfcg8v2vznv)" height="130.2344" id="SupplyChain" rx="12.5" ry="12.5" style="stroke: #708090; stroke-width: 1.5;" width="147" x="762.5" y="232"/><ellipse cx="776.5" cy="255.1484" fill="#FFFAFA" rx="10" ry="10" style="stroke: #708090; stroke-width: 1.0;"/><path d="M778.3281,259.3984 Q777.9219,259.6016 777.4688,259.7109 Q777.0156,259.8203 776.5313,259.8203 Q774.75,259.8203 773.8125,258.6641 Q772.8906,257.4922 772.8906,255.2891 Q772.8906,253.0703 773.8125,251.9141 Q774.75,250.7422 776.5313,250.7422 Q777.0156,250.7422 777.4688,250.8516 Q777.9375,250.9453 778.3281,251.1641 L778.3281,253.0859 Q777.8906,252.6797 777.4688,252.4922 Q777.0469,252.2891 776.6094,252.2891 Q775.6563,252.2891 775.1719,253.0547 Q774.6875,253.8047 774.6875,255.2891 Q774.6875,256.7578 775.1719,257.5078 Q775.6563,258.2578 776.6094,258.2578 Q777.0469,258.2578 777.4688,258.0703 Q777.8906,257.8828 778.3281,257.4766 L778.3281,259.3984 Z "/><text fill="#000000" font-family="sans-serif" font-size="14" font-weight="bold" lengthAdjust="spacingAndGlyphs" textLength="97" x="799.5" y="259.9951">SupplyChain</text><line style="stroke: #708090; stroke-width: 1.5;" x1="763.5" x2="908.5" y1="278.2969" y2="278.2969"/><text fill="#000000" font-family="sans-serif" font-size="12" lengthAdjust="spacingAndGlyphs" textLength="30" x="778.5" y="303.4355">UUID</text><text fill="#000000" font-family="sans-serif" font-size="12" lengthAdjust="spacingAndGlyphs" textLength="35" x="778.5" y="337.4043">name</text><line style="stroke: #708090; stroke-width: 1.5;" x1="763.5" x2="908.5" y1="354.2344" y2="354.2344"/><!--MD5=[e84c991d4d3bbf916ee1653c86a9249d]
class Label--><rect fill="#D2B48C" filter="url(#fxvfcg8v2vznv)" height="62.2969" id="Label" rx="12.5" ry="12.5" style="stroke: #708090; stroke-width: 1.5;" width="92" x="993" y="423"/><ellipse cx="1007" cy="446.1484" fill="#FFFAFA" rx="10" ry="10" style="stroke: #708090; stroke-width: 1.0;"/><path d="M1008.8281,450.3984 Q1008.4219,450.6016 1007.9688,450.7109 Q1007.5156,450.8203 1007.0313,450.8203 Q1005.25,450.8203 1004.3125,449.6641 Q1003.3906,448.4922 1003.3906,446.2891 Q1003.3906,444.0703 1004.3125,442.9141 Q1005.25,441.7422 1007.0313,441.7422 Q1007.5156,441.7422 1007.9688,441.8516 Q1008.4375,441.9453 1008.8281,442.1641 L1008.8281,444.0859 Q1008.3906,443.6797 1007.9688,443.4922 Q1007.5469,443.2891 1007.1094,443.2891 Q1006.1563,443.2891 1005.6719,444.0547 Q1005.1875,444.8047 1005.1875,446.2891 Q1005.1875,447.7578 1005.6719,448.5078 Q1006.1563,449.2578 1007.1094,449.2578 Q1007.5469,449.2578 1007.9688,449.0703 Q1008.3906,448.8828 1008.8281,448.4766 L1008.8281,450.3984 Z "/><text fill="#000000" font-family="sans-serif" font-size="14" font-weight="bold" lengthAdjust="spacingAndGlyphs" textLength="42" x="1030" y="450.9951">Label</text><line style="stroke: #708090; stroke-width: 1.5;" x1="994" x2="1084" y1="469.2969" y2="469.2969"/><line style="stroke: #708090; stroke-width: 1.5;" x1="994" x2="1084" y1="477.2969" y2="477.2969"/><!--MD5=[01a1d1c61194c5abb9b94c9e20f3f455]
link Signature to Key--><path d="M544,345.1491 C544,402.4581 544,497.5832 544,554.8795 " fill="none" id="Signature-Key" style="stroke: #2F4F4F; stroke-width: 2.0;"/><text fill="#000000" font-family="sans-serif" font-size="12" font-weight="bold" lengthAdjust="spacingAndGlyphs" textLength="24" x="507.3188" y="374.2097">0..*</text><text fill="#000000" font-family="sans-serif" font-size="12" font-weight="bold" lengthAdjust="spacingAndGlyphs" textLength="8" x="524.0313" y="533.9804">1</text><!--MD5=[932c3ab2ae12c1926429f54ba9ee4019]
link Key to PubKey--><path d="M584.1172,633.7244 C595.7036,638.6375 607.2901,640.119 618.8766,638.1688 " fill="none" id="Key-PubKey" style="stroke: #2F4F4F; stroke-width: 2.0;"/><text fill="#000000" font-family="sans-serif" font-size="12" font-weight="bold" lengthAdjust="spacingAndGlyphs" textLength="8" x="592.937" y="626.2502">1</text><text fill="#000000" font-family="sans-serif" font-size="12" font-weight="bold" lengthAdjust="spacingAndGlyphs" textLength="8" x="593.2005" y="666.9812">1</text><!--MD5=[932c3ab2ae12c1926429f54ba9ee4019]
link Key to PubKey--><path d="M584.1172,572.2756 C595.7036,567.3625 607.2901,565.881 618.8766,567.8312 " fill="none" id="Key-PubKey-1" style="stroke: #2F4F4F; stroke-width: 2.0;"/><text fill="#000000" font-family="sans-serif" font-size="12" font-weight="bold" lengthAdjust="spacingAndGlyphs" textLength="8" x="592.937" y="546.3062">1</text><text fill="#000000" font-family="sans-serif" font-size="12" font-weight="bold" lengthAdjust="spacingAndGlyphs" textLength="8" x="593.2005" y="586.2678">1</text><!--MD5=[340a49dceead4662fbe20ba28d0724b4]
reverse link Key to GPGKey--><path d="M586.2013,667.9962 C610.9711,706.1452 641.1499,752.625 660.7034,782.7403 " fill="none" id="Key&lt;-GPGKey" style="stroke: #2F4F4F; stroke-width: 2.0;"/><polygon fill="none" points="580.2793,671.7295,575.2588,651.1432,592.0213,664.1055,580.2793,671.7295" style="stroke: #2F4F4F; stroke-width: 2.0;"/><!--MD5=[6d74af857fc86cf013bcba32b2c0b860]
reverse link Key to RSAKey--><path d="M540.4358,671.3679 C538.4816,708.853 536.1537,753.5068 534.6297,782.7403 " fill="none" id="Key&lt;-RSAKey" style="stroke: #2F4F4F; stroke-width: 2.0;"/><polygon fill="none" points="533.4583,670.7516,541.4902,651.1432,547.4393,671.4805,533.4583,670.7516" style="stroke: #2F4F4F; stroke-width: 2.0;"/><!--MD5=[c2fb049a6b614a05ceef69b7411a554a]
reverse link Verifyable to LayoutMetablock--><path d="M265.498,127.4813 C285.6245,169.8632 313.9944,229.6036 331.127,265.6808 " fill="none" id="Verifyable&lt;-LayoutMetablock" style="stroke: #2F4F4F; stroke-width: 2.0;"/><polygon fill="none" points="259.1569,130.4465,256.9007,109.3774,271.8034,124.4409,259.1569,130.4465" style="stroke: #2F4F4F; stroke-width: 2.0;"/><!--MD5=[8b59ddd73ab686702e1e6a6ad4ad4892]
reverse link Verifyable to LinkMetablock--><path d="M218.502,127.4813 C198.3755,169.8632 170.0056,229.6036 152.873,265.6808 " fill="none" id="Verifyable&lt;-LinkMetablock" style="stroke: #2F4F4F; stroke-width: 2.0;"/><polygon fill="none" points="212.1966,124.4409,227.0993,109.3774,224.8431,130.4465,212.1966,124.4409" style="stroke: #2F4F4F; stroke-width: 2.0;"/><!--MD5=[fff0dda1d7430378c6ea2d37b64bc3a3]
link Layout to Layout--><path d="M315.5057,588.4071 C334.7001,587.9287 350.5,592.793 350.5,603 C350.5,613.207 334.7001,618.0713 315.5057,617.5929 " fill="none" id="Layout-Layout" style="stroke: #2F4F4F; stroke-width: 2.0;"/><text fill="#000000" font-family="sans-serif" font-size="12" font-weight="bold" lengthAdjust="spacingAndGlyphs" textLength="72" x="366.5" y="607.6387">Sublayout</text><text fill="#000000" font-family="sans-serif" font-size="12" font-weight="bold" lengthAdjust="spacingAndGlyphs" textLength="24" x="333.5454" y="609.7911">0..*</text><text fill="#000000" font-family="sans-serif" font-size="12" font-weight="bold" lengthAdjust="spacingAndGlyphs" textLength="24" x="333.5454" y="642.1691">0..*</text><!--MD5=[aa25861726b1928c35e82e465862d345]
link Layout to Signable--><path d="M212.4977,603 C194.9419,603 177.386,603 159.8302,603 " fill="none" id="Layout-&gt;Signable" style="stroke: #2F4F4F; stroke-width: 2.0;"/><polygon fill="none" points="159.6172,609.9999,139.6172,603,159.6172,595.9999,159.6172,609.9999" style="stroke: #2F4F4F; stroke-width: 2.0;"/><!--MD5=[f98e75c4cceb6ba644f5e1ccdfc51b9d]
reverse link Signable to Link--><path d="M100.0515,653.079 C105.5034,671.4857 110,692.6759 110,712.5 C110,712.5 110,712.5 110,923.5 C110,971.7827 156.6381,1008.4221 192.7098,1029.5396 " fill="none" id="Signable&lt;-Link" style="stroke: #2F4F4F; stroke-width: 2.0;"/><polygon fill="none" points="93.3917,655.2346,93.8042,634.049,106.6933,650.8679,93.3917,655.2346" style="stroke: #2F4F4F; stroke-width: 2.0;"/><!--MD5=[6e0fe58ea72936dc6d42cc7ca277c4f1]
link Link to Step--><path d="M275.0416,1090.1834 C304.8478,1119.504 340.4024,1154.8245 343,1159 C363.0801,1191.278 376.4716,1232.2504 384.6294,1263.6706 " fill="none" id="Link-Step" style="stroke: #2F4F4F; stroke-width: 2.0; stroke-dasharray: 7.0,7.0;"/><text fill="#000000" font-family="sans-serif" font-size="12" font-weight="bold" lengthAdjust="spacingAndGlyphs" textLength="24" x="293.1188" y="1118.6297">0..*</text><text fill="#000000" font-family="sans-serif" font-size="12" font-weight="bold" lengthAdjust="spacingAndGlyphs" textLength="8" x="363.3546" y="1243.1451">1</text><!--MD5=[ccb43da9acbbf5a5e7c62164fd1a6149]
link LinkMetablock to Link--><path d="M150.1279,328.0398 C161.2489,359.3322 176,409.2699 176,454 C176,454 176,454 176,923.5 C176,951.0426 187.5016,979.1404 200.2612,1001.8372 " fill="none" id="LinkMetablock-Link" style="stroke: #2F4F4F; stroke-width: 2.0;"/><text fill="#000000" font-family="sans-serif" font-size="12" font-weight="bold" lengthAdjust="spacingAndGlyphs" textLength="8" x="131.8061" y="357.4071">1</text><text fill="#000000" font-family="sans-serif" font-size="12" font-weight="bold" lengthAdjust="spacingAndGlyphs" textLength="8" x="175.8463" y="981.334">1</text><!--MD5=[7cc389c5c9e669d413d456863fbdce35]
link LayoutMetablock to Layout--><path d="M337.6861,328.0249 C321.9696,386.6743 288.0693,513.1803 272.3359,571.893 " fill="none" id="LayoutMetablock-Layout" style="stroke: #2F4F4F; stroke-width: 2.0;"/><text fill="#000000" font-family="sans-serif" font-size="12" font-weight="bold" lengthAdjust="spacingAndGlyphs" textLength="8" x="315.8509" y="357.3897">1</text><text fill="#000000" font-family="sans-serif" font-size="12" font-weight="bold" lengthAdjust="spacingAndGlyphs" textLength="8" x="253.2916" y="551.3161">1</text><!--MD5=[d99b807618542cb84fb3e26205dfbee7]
reverse link Layout to Link--><path d="M254.0554,654.2033 C251.2763,672.5206 249,693.3645 249,712.5 C249,712.5 249,712.5 249,923.5 C249,949.4859 245.84,978.2669 242.4208,1001.8028 " fill="none" id="Layout&lt;-Link" style="stroke: #2F4F4F; stroke-width: 2.0;"/><polygon fill="none" points="247.1544,653.03,257.3771,634.4693,260.9602,655.3538,247.1544,653.03" style="stroke: #2F4F4F; stroke-width: 2.0;"/><!--MD5=[6f7d5829cf0f0de2745085b8c655a37b]
link Link to Artifact--><path d="M192.7328,1077.8029 C157.2485,1105.4529 114.6126,1149.9908 134,1194 C149.9684,1230.2481 183.1786,1260.2038 211.9025,1280.8628 " fill="none" id="Link-Artifact" style="stroke: #2F4F4F; stroke-width: 2.0;"/><text fill="#000000" font-family="sans-serif" font-size="12" font-weight="bold" lengthAdjust="spacingAndGlyphs" textLength="67" x="145" y="1181.1387">Materials</text><text fill="#000000" font-family="sans-serif" font-size="12" font-weight="bold" lengthAdjust="spacingAndGlyphs" textLength="24" x="151.0221" y="1067.362">0..*</text><text fill="#000000" font-family="sans-serif" font-size="12" font-weight="bold" lengthAdjust="spacingAndGlyphs" textLength="24" x="167.1663" y="1262.0541">0..*</text><!--MD5=[6f7d5829cf0f0de2745085b8c655a37b]
link Link to Artifact--><path d="M239.319,1098.0548 C245.2056,1151.2372 254.5217,1235.4031 259.5343,1280.6894 " fill="none" id="Link-Artifact-1" style="stroke: #2F4F4F; stroke-width: 2.0;"/><text fill="#000000" font-family="sans-serif" font-size="12" font-weight="bold" lengthAdjust="spacingAndGlyphs" textLength="63" x="261" y="1181.1387">Products</text><text fill="#000000" font-family="sans-serif" font-size="12" font-weight="bold" lengthAdjust="spacingAndGlyphs" textLength="24" x="203.1817" y="1127.5096">0..*</text><text fill="#000000" font-family="sans-serif" font-size="12" font-weight="bold" lengthAdjust="spacingAndGlyphs" textLength="24" x="220.8391" y="1260.0749">0..*</text><!--MD5=[ffed4036c202b67bc91f5ed664fd560a]
link Link to Command--><path d="M275.0156,1050 C286.6154,1050 298.2151,1050 309.8148,1050 " fill="none" id="Link-Command" style="stroke: #2F4F4F; stroke-width: 2.0;"/><text fill="#000000" font-family="sans-serif" font-size="12" font-weight="bold" lengthAdjust="spacingAndGlyphs" textLength="8" x="284.204" y="1033.6237">1</text><text fill="#000000" font-family="sans-serif" font-size="12" font-weight="bold" lengthAdjust="spacingAndGlyphs" textLength="8" x="284.1754" y="1073.4672">1</text><!--MD5=[253a7f7478d3de8cde6bd71dd6456ef1]
reverse link Privilege to ImportLink--><path d="M999.4146,668.2541 C976.3015,706.3545 948.1911,752.6929 929.9633,782.7403 " fill="none" id="Privilege&lt;-ImportLink" style="stroke: #2F4F4F; stroke-width: 2.0;"/><polygon fill="none" points="993.4365,664.6122,1009.7947,651.1432,1005.4063,671.8734,993.4365,664.6122" style="stroke: #2F4F4F; stroke-width: 2.0;"/><!--MD5=[e2f114a5224f788b11f7fe58e0a3660a]
link Label to Privilege--><path d="M1039,485.2353 C1039,505.3744 1039,531.9684 1039,554.788 " fill="none" id="Label-Privilege" style="stroke: #2F4F4F; stroke-width: 2.0;"/><!--MD5=[56ff74fa3aa8b89e1192b44f0b31fd5f]
reverse link Privilege to Read--><path d="M1044.8101,671.1071 C1048.0124,708.6457 1051.8337,753.439 1054.3333,782.7403 " fill="none" id="Privilege&lt;-Read" style="stroke: #2F4F4F; stroke-width: 2.0;"/><polygon fill="none" points="1037.8324,671.6658,1043.107,651.1432,1051.7817,670.4758,1037.8324,671.6658" style="stroke: #2F4F4F; stroke-width: 2.0;"/><!--MD5=[8f7f99506195280e19a4b3efbf1695f9]
link SupplyChain to Label--><path d="M909.5747,353.9026 C939.6434,377.1577 973.2577,403.155 998.6923,422.8261 " fill="none" id="SupplyChain-Label" style="stroke: #2F4F4F; stroke-width: 2.0;"/><text fill="#000000" font-family="sans-serif" font-size="12" font-weight="bold" lengthAdjust="spacingAndGlyphs" textLength="24" x="927.4895" y="345.4175">0..*</text><text fill="#000000" font-family="sans-serif" font-size="12" font-weight="bold" lengthAdjust="spacingAndGlyphs" textLength="24" x="953.2043" y="402.2368">0..*</text><!--MD5=[70c37dc9bfbc8656942103c36f1181e4]
link User to Role--><path d="M1177.4563,651.1432 C1177.8391,691.5243 1178.3745,748.0128 1178.7037,782.7403 " fill="none" id="User-Role" style="stroke: #2F4F4F; stroke-width: 2.0;"/><text fill="#000000" font-family="sans-serif" font-size="12" font-weight="bold" lengthAdjust="spacingAndGlyphs" textLength="8" x="1157.8057" y="680.2031">1</text><text fill="#000000" font-family="sans-serif" font-size="12" font-weight="bold" lengthAdjust="spacingAndGlyphs" textLength="24" x="1140.5928" y="762.1352">0..*</text><!--MD5=[b1acf8123dc85dbb254f4a3ac2bb325e]
link User to Label--><path d="M1141.8565,554.6923 C1133.6984,544.2863 1124.8134,533.551 1116,524 C1103.6256,510.59 1089.0299,496.8654 1075.8919,485.1619 " fill="none" id="User-Label" style="stroke: #2F4F4F; stroke-width: 2.0;"/><text fill="#000000" font-family="sans-serif" font-size="12" font-weight="bold" lengthAdjust="spacingAndGlyphs" textLength="24" x="1114.7459" y="534.0731">0..*</text><text fill="#000000" font-family="sans-serif" font-size="12" font-weight="bold" lengthAdjust="spacingAndGlyphs" textLength="24" x="1044.4514" y="514.5502">0..*</text><!--MD5=[f3f3933bce629452ed49903371cc559f]
link Privilege to Role--><path d="M1070.9433,651.1432 C1097.7365,691.5243 1135.217,748.0128 1158.2589,782.7403 " fill="none" id="Privilege-Role" style="stroke: #2F4F4F; stroke-width: 2.0;"/><text fill="#000000" font-family="sans-serif" font-size="12" font-weight="bold" lengthAdjust="spacingAndGlyphs" textLength="24" x="1038.1551" y="680.2031">1..*</text><text fill="#000000" font-family="sans-serif" font-size="12" font-weight="bold" lengthAdjust="spacingAndGlyphs" textLength="24" x="1168.491" y="762.1352">1..*</text><!--MD5=[c03eb4e22041656ea6553382b6e45112]
link Allow to Rule--><path d="M1060.1695,1081.0837 C1059.1072,1120.8438 1057.2372,1190.8373 1055.8336,1243.3727 " fill="none" id="Allow-&gt;Rule" style="stroke: #2F4F4F; stroke-width: 2.0;"/><polygon fill="none" points="1062.8245,1243.8077,1055.2928,1263.6136,1048.8295,1243.4337,1062.8245,1243.8077" style="stroke: #2F4F4F; stroke-width: 2.0;"/><!--MD5=[1e2180d05b97e06557390bcf6bd97b5b]
link CreateRule to Rule--><path d="M1192.3735,1081.0837 C1168.1252,1121.549 1125.1114,1193.3299 1093.4588,1246.1516 " fill="none" id="CreateRule-&gt;Rule" style="stroke: #2F4F4F; stroke-width: 2.0;"/><polygon fill="none" points="1099.2797,1250.056,1082.9949,1263.6136,1087.2708,1242.8598,1099.2797,1250.056" style="stroke: #2F4F4F; stroke-width: 2.0;"/><!--MD5=[d4e53339337740aaa1b08c1827cfd815]
reverse link Rule to DeleteRule--><path d="M1116.3951,1312 C1121.3081,1312 1126.2211,1312 1131.1341,1312 " fill="none" id="Rule&lt;-DeleteRule" style="stroke: #2F4F4F; stroke-width: 2.0;"/><polygon fill="none" points="1116.1973,1318.9999,1096.1973,1312,1116.1972,1304.9999,1116.1973,1318.9999" style="stroke: #2F4F4F; stroke-width: 2.0;"/><!--MD5=[ebd7323bd83b0088a3121e66060ce73c]
reverse link Rule to DisAllow--><path d="M1002.0845,1375.9447 C973.1062,1411.6375 938.3084,1454.4982 915.2537,1482.8948 " fill="none" id="Rule&lt;-DisAllow" style="stroke: #2F4F4F; stroke-width: 2.0;"/><polygon fill="none" points="996.8857,1371.2423,1014.9263,1360.1274,1007.7546,1380.0665,996.8857,1371.2423" style="stroke: #2F4F4F; stroke-width: 2.0;"/><!--MD5=[e296bde6a703fe5188c0f2e4e65f6940]
reverse link Rule to MatchRule--><path d="M1106.8652,1375.9447 C1136.3736,1411.6375 1171.8079,1454.4982 1195.2844,1482.8948 " fill="none" id="Rule&lt;-MatchRule" style="stroke: #2F4F4F; stroke-width: 2.0;"/><polygon fill="none" points="1101.137,1380.002,1093.7885,1360.1274,1111.9271,1371.0815,1101.137,1380.002" style="stroke: #2F4F4F; stroke-width: 2.0;"/><!--MD5=[ccb8f02aac5fe7927d101caa3a1f6775]
reverse link Rule to ModifyRule--><path d="M1053.3236,1380.3196 C1052.9793,1415.0889 1052.5777,1455.6494 1052.308,1482.8948 " fill="none" id="Rule&lt;-ModifyRule" style="stroke: #2F4F4F; stroke-width: 2.0;"/><polygon fill="none" points="1046.3257,1380.0571,1053.5235,1360.1274,1060.325,1380.1958,1046.3257,1380.0571" style="stroke: #2F4F4F; stroke-width: 2.0;"/><!--MD5=[794b143d8d0455d2f4d9f1a04b39677c]
link RequireRule to Rule--><path d="M976.6563,1312 C981.5846,1312 986.513,1312 991.4414,1312 " fill="none" id="RequireRule-&gt;Rule" style="stroke: #2F4F4F; stroke-width: 2.0;"/><polygon fill="none" points="991.7027,1304.9999,1011.7026,1312,991.7026,1318.9999,991.7027,1304.9999" style="stroke: #2F4F4F; stroke-width: 2.0;"/><!--MD5=[ff4f850990088b2f9a461d2b57e3881b]
link Modifyable to Rule--><path d="M928.8469,1081.0837 C950.7307,1121.4609 989.5132,1193.0173 1018.1239,1245.8061 " fill="none" id="Modifyable-&gt;Rule" style="stroke: #2F4F4F; stroke-width: 2.0;"/><polygon fill="none" points="1024.3995,1242.6945,1027.7753,1263.6136,1012.091,1249.3656,1024.3995,1242.6945" style="stroke: #2F4F4F; stroke-width: 2.0;"/><!--MD5=[84d3cf0de11e72a95b6f38c1ff0b5ed8]
link PubKey to Layout--><path d="M643.7068,554.8771 C627.1361,533.1723 604.5032,509.7985 577.6667,498 C481.4638,455.7049 362.5168,527.5338 302.5025,571.9378 " fill="none" id="PubKey-Layout" style="stroke: #2F4F4F; stroke-width: 2.0;"/><text fill="#000000" font-family="sans-serif" font-size="12" font-weight="bold" lengthAdjust="spacingAndGlyphs" textLength="24" x="652.5406" y="533.9776">0..*</text><text fill="#000000" font-family="sans-serif" font-size="12" font-weight="bold" lengthAdjust="spacingAndGlyphs" textLength="24" x="333.2774" y="560.0662">0..*</text><!--MD5=[6c51240bf1efb9f3f98a5a092d1acbef]
link Key to Step--><path d="M584.0004,646.9418 C589.4021,651.4337 595.1196,655.59 601,659 C676.8909,703.0093 791,624.7717 791,712.5 C791,712.5 791,712.5 791,1176.5 C791,1250.4349 540.7673,1292.4474 438.1328,1306.5696 " fill="none" id="Key-Step" style="stroke: #2F4F4F; stroke-width: 2.0;"/><text fill="#000000" font-family="sans-serif" font-size="12" font-weight="bold" lengthAdjust="spacingAndGlyphs" textLength="78" x="802" y="928.1387">authorized</text><text fill="#000000" font-family="sans-serif" font-size="12" font-weight="bold" lengthAdjust="spacingAndGlyphs" textLength="24" x="553.713" y="680.6191">1..*</text><text fill="#000000" font-family="sans-serif" font-size="12" font-weight="bold" lengthAdjust="spacingAndGlyphs" textLength="5" x="455.9562" y="1329.3144">-</text><!--MD5=[23e0bbe62cab2ce685671c337870a036]
link SupplyChain to LayoutMetablock--><path d="M790.4688,231.9362 C776.354,216.8185 759.4572,202.7477 740.5,194.5 C685.6853,170.6518 527.8072,174.428 471.5,194.5 C432.0174,208.5745 395.9806,240.9884 372.7536,265.6255 " fill="none" id="SupplyChain-LayoutMetablock" style="stroke: #2F4F4F; stroke-width: 2.0;"/><!--MD5=[25e70e2bcc8cbfd10a5fb9cc756abc5a]
link SupplyChain to LinkMetablock--><path d="M790.4688,231.9362 C776.354,216.8185 759.4572,202.7477 740.5,194.5 C690.9834,172.9568 305.0236,175.4378 254.5,194.5 C216.944,208.6696 183.64,241.0678 162.3608,265.6753 " fill="none" id="SupplyChain-LinkMetablock" style="stroke: #2F4F4F; stroke-width: 2.0;"/><!--MD5=[abdd0bce8f1fcdc263ace47b6cac4a87]
link Rule to Step--><path d="M1029.6581,1263.7717 C1016.8423,1244.0655 999.0534,1223.5636 976.5,1213.5 C879.2533,1170.1073 556.1516,1262.2531 438.4073,1298.3333 " fill="none" id="Rule-Step" style="stroke: #2F4F4F; stroke-width: 2.0;"/><text fill="#000000" font-family="sans-serif" font-size="12" font-weight="bold" lengthAdjust="spacingAndGlyphs" textLength="24" x="989.4309" y="1243.2597">0..*</text><text fill="#000000" font-family="sans-serif" font-size="12" font-weight="bold" lengthAdjust="spacingAndGlyphs" textLength="8" x="456.1214" y="1282.4656">1</text><!--MD5=[b87215bd981f2d996a5d2fd9d2ae4e54]
@startuml

skinparam roundcorner 25
skinparam defaultFontColor Black
skinparam defaultFontSize 12
skinparam Padding 10
skinparam pageMargin 40
skinparam classFontSize 14
skinparam classFontColor black
skinparam classFontStyle bold
skinparam ArrowFontStyle bold
skinparam ArrowThickness 2
skinparam class {
	BackgroundColor PaleGreen
	ArrowColor DarkSlateGray
	ArrowFontColor Black
	BorderColor SlateGray
}
skinparam stereotypeCBackgroundColor Snow

class SupplyChain #Tan {
  UUID
  name
}

class Label #Tan {
}

together  {
    class Signature #pink {
    signature
    }

    together {
        class Key #pink {
        keyId
        }

        class PubKey #pink {
        keyId
        }
    }

    together {
        class RSAKey #pink {
        }

        class GPGKey #pink {
        }
    }
    Signature "0..*" -down- "1" Key
    Key "1" - "1" PubKey
    Key <|-down- GPGKey
    Key <|-down- RSAKey
}


together {
    class Verifyable #PaleTurquoise {
    }

    together {
        class LayoutMetablock {
        }

        class LinkMetablock {
        }
    }

    class Signable #PaleTurquoise {
    }

    together {
        class Layout #Gainsboro {
        }

        class Link  #Gainsboro {
        runID
        }

        class Command  #Gainsboro {
        }
    }

    together {
        class Step  #Gainsboro {
        name
        }

        class Artifact  #Gainsboro {
        }
    }
    Verifyable <|-down- LayoutMetablock
    Verifyable <|-down LinkMetablock
    Layout  "0..*" - "0..*" Layout : Sublayout
    Signable <|-left- Layout
    Signable <|-down- Link
    Link "0..*" .. "1" Step
    LinkMetablock "1" -down- "1" Link
    LayoutMetablock "1" -down- "1" Layout
    Layout <|-down- Link
    Artifact "0..*" -up- "0..*" Link : Materials
    Artifact "0..*" -up- "0..*" Link : Products
    Command "1" -left- "1" Link
}


together {
    class Privilege #cornsilk {
        type
    }

    class Role #cornsilk {
    }

    class User #cornsilk {
        UUID
    }

        Class ImportLink #cornsilk {
        }

        Class Read #cornsilk {
        }
    ImportLink -up-|> Privilege
    Label -down- Privilege
    Read -up-|> Privilege
    SupplyChain  "0..*" -down- "0..*" Label
    User "1" -down- "0..*" Role
    User "0..*" - "0..*" Label
    Privilege "1..*" -down- "1..*" Role
}

together {
    class Rule #Plum
    {
        pattern
    }


        Class Modifyable #Plum {
        }

        Class Allow  #Plum {
        }

        Class DisAllow #Plum {
        }

        Class CreateRule #Plum {
        }

        Class ModifyRule #Plum {

        }
        Class MatchRule #Plum {
        }

        Class DeleteRule #Plum {
        }

        Class RequireRule #Plum {
        }
    }
    Rule <|-up- Allow
    Rule <|-up- CreateRule
    Rule <|-right- DeleteRule
    Rule <|-down- DisAllow
    Rule <|-down- MatchRule
    Rule <|-down- ModifyRule
    Rule <|-left- RequireRule
    Rule <|-up- Modifyable


PubKey "0..*" - "0..*" Layout
Key "1..*" -down- "-" Step : authorized
Key "1" - "1" PubKey

SupplyChain - LayoutMetablock
SupplyChain - LinkMetablock

Rule "0..*" - "1" Step

@enduml

PlantUML version 1.2020.10(Sun May 17 11:35:57 CEST 2020)
(GPL source distribution)
Java Runtime: OpenJDK Runtime Environment
JVM: OpenJDK 64-Bit Server VM
Java Version: 1.8.0_252-8u252-b09-1~18.04-b09
Operating System: Linux
Default Encoding: UTF-8
Language: en
Country: US
--></g></svg>