<?xml version="1.0" encoding="UTF-8" standalone="no"?><svg xmlns="http://www.w3.org/2000/svg" xmlns:xlink="http://www.w3.org/1999/xlink" contentScriptType="application/ecmascript" contentStyleType="text/css" height="658px" preserveAspectRatio="none" style="width:835px;height:658px;background:#FFF5EE;" version="1.1" viewBox="0 0 835 658" width="835px" zoomAndPan="magnify"><defs><filter height="300%" id="fj2tooq5w6i9q" width="300%" x="-1" y="-1"><feGaussianBlur result="blurOut" stdDeviation="2.0"/><feColorMatrix in="blurOut" result="blurOut2" type="matrix" values="0 0 0 0 0 0 0 0 0 0 0 0 0 0 0 0 0 0 .4 0"/><feOffset dx="4.0" dy="4.0" in="blurOut2" result="blurOut3"/><feBlend in="SourceGraphic" in2="blurOut3" mode="normal"/></filter></defs><g><!--MD5=[caebf2ddd0fe15aa1cd7c0f919e7d6a1]
class Layout--><rect fill="#FEFECE" filter="url(#fj2tooq5w6i9q)" height="60.8047" id="Layout" style="stroke: #A80036; stroke-width: 1.5;" width="132" x="221" y="13.5"/><ellipse cx="262.55" cy="29.5" fill="#ADD1B2" rx="11" ry="11" style="stroke: #A80036; stroke-width: 1.0;"/><path d="M265.5188,35.1406 Q264.9406,35.4375 264.3,35.5781 Q263.6594,35.7344 262.9563,35.7344 Q260.4563,35.7344 259.1281,34.0938 Q257.8156,32.4375 257.8156,29.3125 Q257.8156,26.1875 259.1281,24.5313 Q260.4563,22.875 262.9563,22.875 Q263.6594,22.875 264.3,23.0313 Q264.9563,23.1875 265.5188,23.4844 L265.5188,26.2031 Q264.8938,25.625 264.3,25.3594 Q263.7063,25.0781 263.0813,25.0781 Q261.7375,25.0781 261.05,26.1563 Q260.3625,27.2188 260.3625,29.3125 Q260.3625,31.4063 261.05,32.4844 Q261.7375,33.5469 263.0813,33.5469 Q263.7063,33.5469 264.3,33.2813 Q264.8938,33 265.5188,32.4219 L265.5188,35.1406 Z "/><text fill="#000000" font-family="sans-serif" font-size="12" lengthAdjust="spacingAndGlyphs" textLength="41" x="282.45" y="33.6543">Layout</text><line style="stroke: #A80036; stroke-width: 1.5;" x1="222" x2="352" y1="45.5" y2="45.5"/><text fill="#000000" font-family="sans-serif" font-size="11" lengthAdjust="spacingAndGlyphs" textLength="120" x="227" y="59.7104">List authorizedKeyIds</text><line style="stroke: #A80036; stroke-width: 1.5;" x1="222" x2="352" y1="66.3047" y2="66.3047"/><!--MD5=[2086e18d236f9616263f91fe5276f8cf]
class Key--><rect fill="#FEFECE" filter="url(#fj2tooq5w6i9q)" height="48" id="Key" style="stroke: #A80036; stroke-width: 1.5;" width="53" x="132.5" y="20"/><ellipse cx="147.5" cy="36" fill="#ADD1B2" rx="11" ry="11" style="stroke: #A80036; stroke-width: 1.0;"/><path d="M150.4688,41.6406 Q149.8906,41.9375 149.25,42.0781 Q148.6094,42.2344 147.9063,42.2344 Q145.4063,42.2344 144.0781,40.5938 Q142.7656,38.9375 142.7656,35.8125 Q142.7656,32.6875 144.0781,31.0313 Q145.4063,29.375 147.9063,29.375 Q148.6094,29.375 149.25,29.5313 Q149.9063,29.6875 150.4688,29.9844 L150.4688,32.7031 Q149.8438,32.125 149.25,31.8594 Q148.6563,31.5781 148.0313,31.5781 Q146.6875,31.5781 146,32.6563 Q145.3125,33.7188 145.3125,35.8125 Q145.3125,37.9063 146,38.9844 Q146.6875,40.0469 148.0313,40.0469 Q148.6563,40.0469 149.25,39.7813 Q149.8438,39.5 150.4688,38.9219 L150.4688,41.6406 Z "/><text fill="#000000" font-family="sans-serif" font-size="12" lengthAdjust="spacingAndGlyphs" textLength="21" x="161.5" y="40.1543">Key</text><line style="stroke: #A80036; stroke-width: 1.5;" x1="133.5" x2="184.5" y1="52" y2="52"/><line style="stroke: #A80036; stroke-width: 1.5;" x1="133.5" x2="184.5" y1="60" y2="60"/><!--MD5=[f9a29335b499db729be669fd1bd54958]
class Account--><rect fill="#FEFECE" filter="url(#fj2tooq5w6i9q)" height="48" id="Account" style="stroke: #A80036; stroke-width: 1.5;" width="83" x="117.5" y="209"/><ellipse cx="132.5" cy="225" fill="#ADD1B2" rx="11" ry="11" style="stroke: #A80036; stroke-width: 1.0;"/><path d="M135.4688,230.6406 Q134.8906,230.9375 134.25,231.0781 Q133.6094,231.2344 132.9063,231.2344 Q130.4063,231.2344 129.0781,229.5938 Q127.7656,227.9375 127.7656,224.8125 Q127.7656,221.6875 129.0781,220.0313 Q130.4063,218.375 132.9063,218.375 Q133.6094,218.375 134.25,218.5313 Q134.9063,218.6875 135.4688,218.9844 L135.4688,221.7031 Q134.8438,221.125 134.25,220.8594 Q133.6563,220.5781 133.0313,220.5781 Q131.6875,220.5781 131,221.6563 Q130.3125,222.7188 130.3125,224.8125 Q130.3125,226.9063 131,227.9844 Q131.6875,229.0469 133.0313,229.0469 Q133.6563,229.0469 134.25,228.7813 Q134.8438,228.5 135.4688,227.9219 L135.4688,230.6406 Z "/><text fill="#000000" font-family="sans-serif" font-size="12" lengthAdjust="spacingAndGlyphs" textLength="51" x="146.5" y="229.1543">Account</text><line style="stroke: #A80036; stroke-width: 1.5;" x1="118.5" x2="199.5" y1="241" y2="241"/><line style="stroke: #A80036; stroke-width: 1.5;" x1="118.5" x2="199.5" y1="249" y2="249"/><!--MD5=[4780b93a58732a310f8ecb67ba60e08e]
class PublicKey--><rect fill="#FEFECE" filter="url(#fj2tooq5w6i9q)" height="48" id="PublicKey" style="stroke: #A80036; stroke-width: 1.5;" width="90" x="7" y="20"/><ellipse cx="22" cy="36" fill="#ADD1B2" rx="11" ry="11" style="stroke: #A80036; stroke-width: 1.0;"/><path d="M24.9688,41.6406 Q24.3906,41.9375 23.75,42.0781 Q23.1094,42.2344 22.4063,42.2344 Q19.9063,42.2344 18.5781,40.5938 Q17.2656,38.9375 17.2656,35.8125 Q17.2656,32.6875 18.5781,31.0313 Q19.9063,29.375 22.4063,29.375 Q23.1094,29.375 23.75,29.5313 Q24.4063,29.6875 24.9688,29.9844 L24.9688,32.7031 Q24.3438,32.125 23.75,31.8594 Q23.1563,31.5781 22.5313,31.5781 Q21.1875,31.5781 20.5,32.6563 Q19.8125,33.7188 19.8125,35.8125 Q19.8125,37.9063 20.5,38.9844 Q21.1875,40.0469 22.5313,40.0469 Q23.1563,40.0469 23.75,39.7813 Q24.3438,39.5 24.9688,38.9219 L24.9688,41.6406 Z "/><text fill="#000000" font-family="sans-serif" font-size="12" lengthAdjust="spacingAndGlyphs" textLength="58" x="36" y="40.1543">PublicKey</text><line style="stroke: #A80036; stroke-width: 1.5;" x1="8" x2="96" y1="52" y2="52"/><line style="stroke: #A80036; stroke-width: 1.5;" x1="8" x2="96" y1="60" y2="60"/><!--MD5=[a538883d7f0f7706ce941341ae97cf4d]
class LayoutSegment--><rect fill="#FEFECE" filter="url(#fj2tooq5w6i9q)" height="48" id="LayoutSegment" style="stroke: #A80036; stroke-width: 1.5;" width="129" x="388.5" y="20"/><ellipse cx="403.5" cy="36" fill="#ADD1B2" rx="11" ry="11" style="stroke: #A80036; stroke-width: 1.0;"/><path d="M406.4688,41.6406 Q405.8906,41.9375 405.25,42.0781 Q404.6094,42.2344 403.9063,42.2344 Q401.4063,42.2344 400.0781,40.5938 Q398.7656,38.9375 398.7656,35.8125 Q398.7656,32.6875 400.0781,31.0313 Q401.4063,29.375 403.9063,29.375 Q404.6094,29.375 405.25,29.5313 Q405.9063,29.6875 406.4688,29.9844 L406.4688,32.7031 Q405.8438,32.125 405.25,31.8594 Q404.6563,31.5781 404.0313,31.5781 Q402.6875,31.5781 402,32.6563 Q401.3125,33.7188 401.3125,35.8125 Q401.3125,37.9063 402,38.9844 Q402.6875,40.0469 404.0313,40.0469 Q404.6563,40.0469 405.25,39.7813 Q405.8438,39.5 406.4688,38.9219 L406.4688,41.6406 Z "/><text fill="#000000" font-family="sans-serif" font-size="12" lengthAdjust="spacingAndGlyphs" textLength="97" x="417.5" y="40.1543">LayoutSegment</text><line style="stroke: #A80036; stroke-width: 1.5;" x1="389.5" x2="516.5" y1="52" y2="52"/><line style="stroke: #A80036; stroke-width: 1.5;" x1="389.5" x2="516.5" y1="60" y2="60"/><!--MD5=[5a2ba6e4c7f78036fecb159f353da9e9]
class Step--><rect fill="#FEFECE" filter="url(#fj2tooq5w6i9q)" height="73.6094" id="Step" style="stroke: #A80036; stroke-width: 1.5;" width="165" x="552.5" y="7"/><ellipse cx="616.25" cy="23" fill="#ADD1B2" rx="11" ry="11" style="stroke: #A80036; stroke-width: 1.0;"/><path d="M619.2188,28.6406 Q618.6406,28.9375 618,29.0781 Q617.3594,29.2344 616.6563,29.2344 Q614.1563,29.2344 612.8281,27.5938 Q611.5156,25.9375 611.5156,22.8125 Q611.5156,19.6875 612.8281,18.0313 Q614.1563,16.375 616.6563,16.375 Q617.3594,16.375 618,16.5313 Q618.6563,16.6875 619.2188,16.9844 L619.2188,19.7031 Q618.5938,19.125 618,18.8594 Q617.4063,18.5781 616.7813,18.5781 Q615.4375,18.5781 614.75,19.6563 Q614.0625,20.7188 614.0625,22.8125 Q614.0625,24.9063 614.75,25.9844 Q615.4375,27.0469 616.7813,27.0469 Q617.4063,27.0469 618,26.7813 Q618.5938,26.5 619.2188,25.9219 L619.2188,28.6406 Z "/><text fill="#000000" font-family="sans-serif" font-size="12" lengthAdjust="spacingAndGlyphs" textLength="29" x="636.75" y="27.1543">Step</text><line style="stroke: #A80036; stroke-width: 1.5;" x1="553.5" x2="716.5" y1="39" y2="39"/><text fill="#000000" font-family="sans-serif" font-size="11" lengthAdjust="spacingAndGlyphs" textLength="153" x="558.5" y="53.2104">int requiredNumberOfLinks</text><text fill="#000000" font-family="sans-serif" font-size="11" lengthAdjust="spacingAndGlyphs" textLength="120" x="558.5" y="66.0151">List authorizedKeyIds</text><line style="stroke: #A80036; stroke-width: 1.5;" x1="553.5" x2="716.5" y1="72.6094" y2="72.6094"/><!--MD5=[8e3e8bdd45f0aaad585c39f385f3d00b]
class RuleType--><rect fill="#FEFECE" filter="url(#fj2tooq5w6i9q)" height="150.4375" id="RuleType" style="stroke: #A80036; stroke-width: 1.5;" width="125" x="463.5" y="158"/><ellipse cx="495.15" cy="174" fill="#EB937F" rx="11" ry="11" style="stroke: #A80036; stroke-width: 1.0;"/><path d="M499.2594,180 L491.5406,180 L491.5406,167.6094 L499.2594,167.6094 L499.2594,169.7656 L493.9938,169.7656 L493.9938,172.4375 L498.7594,172.4375 L498.7594,174.5938 L493.9938,174.5938 L493.9938,177.8438 L499.2594,177.8438 L499.2594,180 Z "/><text fill="#000000" font-family="sans-serif" font-size="12" lengthAdjust="spacingAndGlyphs" textLength="56" x="512.85" y="178.1543">RuleType</text><line style="stroke: #A80036; stroke-width: 1.5;" x1="464.5" x2="587.5" y1="190" y2="190"/><text fill="#000000" font-family="sans-serif" font-size="11" lengthAdjust="spacingAndGlyphs" textLength="37" x="469.5" y="204.2104">ALLOW</text><text fill="#000000" font-family="sans-serif" font-size="11" lengthAdjust="spacingAndGlyphs" textLength="43" x="469.5" y="217.0151">CREATE</text><text fill="#000000" font-family="sans-serif" font-size="11" lengthAdjust="spacingAndGlyphs" textLength="113" x="469.5" y="229.8198">CREATE_OR_MODIFY</text><text fill="#000000" font-family="sans-serif" font-size="11" lengthAdjust="spacingAndGlyphs" textLength="42" x="469.5" y="242.6245">DELETE</text><text fill="#000000" font-family="sans-serif" font-size="11" lengthAdjust="spacingAndGlyphs" textLength="56" x="469.5" y="255.4292">DISALLOW</text><text fill="#000000" font-family="sans-serif" font-size="11" lengthAdjust="spacingAndGlyphs" textLength="39" x="469.5" y="268.2339">MATCH</text><text fill="#000000" font-family="sans-serif" font-size="11" lengthAdjust="spacingAndGlyphs" textLength="42" x="469.5" y="281.0386">MODIFY</text><text fill="#000000" font-family="sans-serif" font-size="11" lengthAdjust="spacingAndGlyphs" textLength="48" x="469.5" y="293.8433">REQUIRE</text><line style="stroke: #A80036; stroke-width: 1.5;" x1="464.5" x2="587.5" y1="300.4375" y2="300.4375"/><!--MD5=[4cf87534c235239d37db4adfd136fff4]
class Rule--><rect fill="#FEFECE" filter="url(#fj2tooq5w6i9q)" height="60.8047" id="Rule" style="stroke: #A80036; stroke-width: 1.5;" width="59" x="660.5" y="202.5"/><ellipse cx="675.5" cy="218.5" fill="#ADD1B2" rx="11" ry="11" style="stroke: #A80036; stroke-width: 1.0;"/><path d="M678.4688,224.1406 Q677.8906,224.4375 677.25,224.5781 Q676.6094,224.7344 675.9063,224.7344 Q673.4063,224.7344 672.0781,223.0938 Q670.7656,221.4375 670.7656,218.3125 Q670.7656,215.1875 672.0781,213.5313 Q673.4063,211.875 675.9063,211.875 Q676.6094,211.875 677.25,212.0313 Q677.9063,212.1875 678.4688,212.4844 L678.4688,215.2031 Q677.8438,214.625 677.25,214.3594 Q676.6563,214.0781 676.0313,214.0781 Q674.6875,214.0781 674,215.1563 Q673.3125,216.2188 673.3125,218.3125 Q673.3125,220.4063 674,221.4844 Q674.6875,222.5469 676.0313,222.5469 Q676.6563,222.5469 677.25,222.2813 Q677.8438,222 678.4688,221.4219 L678.4688,224.1406 Z "/><text fill="#000000" font-family="sans-serif" font-size="12" lengthAdjust="spacingAndGlyphs" textLength="27" x="689.5" y="222.6543">Rule</text><line style="stroke: #A80036; stroke-width: 1.5;" x1="661.5" x2="718.5" y1="234.5" y2="234.5"/><text fill="#000000" font-family="sans-serif" font-size="11" lengthAdjust="spacingAndGlyphs" textLength="24" x="666.5" y="248.7104">type</text><line style="stroke: #A80036; stroke-width: 1.5;" x1="661.5" x2="718.5" y1="255.3047" y2="255.3047"/><!--MD5=[62ab7431544a0ae8be0f4a3b954cd430]
class MatchRule--><rect fill="#FEFECE" filter="url(#fj2tooq5w6i9q)" height="99.2188" id="MatchRule" style="stroke: #A80036; stroke-width: 1.5;" width="197" x="208.5" y="369"/><ellipse cx="270.25" cy="385" fill="#ADD1B2" rx="11" ry="11" style="stroke: #A80036; stroke-width: 1.0;"/><path d="M273.2188,390.6406 Q272.6406,390.9375 272,391.0781 Q271.3594,391.2344 270.6563,391.2344 Q268.1563,391.2344 266.8281,389.5938 Q265.5156,387.9375 265.5156,384.8125 Q265.5156,381.6875 266.8281,380.0313 Q268.1563,378.375 270.6563,378.375 Q271.3594,378.375 272,378.5313 Q272.6563,378.6875 273.2188,378.9844 L273.2188,381.7031 Q272.5938,381.125 272,380.8594 Q271.4063,380.5781 270.7813,380.5781 Q269.4375,380.5781 268.75,381.6563 Q268.0625,382.7188 268.0625,384.8125 Q268.0625,386.9063 268.75,387.9844 Q269.4375,389.0469 270.7813,389.0469 Q271.4063,389.0469 272,388.7813 Q272.5938,388.5 273.2188,387.9219 L273.2188,390.6406 Z "/><text fill="#000000" font-family="sans-serif" font-size="12" lengthAdjust="spacingAndGlyphs" textLength="65" x="290.75" y="389.1543">MatchRule</text><line style="stroke: #A80036; stroke-width: 1.5;" x1="209.5" x2="404.5" y1="401" y2="401"/><text fill="#000000" font-family="sans-serif" font-size="11" lengthAdjust="spacingAndGlyphs" textLength="134" x="214.5" y="415.2104">String sourcePathPrefix</text><text fill="#000000" font-family="sans-serif" font-size="11" lengthAdjust="spacingAndGlyphs" textLength="158" x="214.5" y="428.0151">String destinationPathPrefix</text><text fill="#000000" font-family="sans-serif" font-size="11" lengthAdjust="spacingAndGlyphs" textLength="185" x="214.5" y="440.8198">String destinationSegmentName</text><text fill="#000000" font-family="sans-serif" font-size="11" lengthAdjust="spacingAndGlyphs" textLength="160" x="214.5" y="453.6245">String destinationStepName</text><line style="stroke: #A80036; stroke-width: 1.5;" x1="209.5" x2="404.5" y1="460.2188" y2="460.2188"/><!--MD5=[ee58d554a12ce2a7ed61f9176d620f8c]
class ArtifactType--><rect fill="#FEFECE" filter="url(#fj2tooq5w6i9q)" height="73.6094" id="ArtifactType" style="stroke: #A80036; stroke-width: 1.5;" width="106" x="254" y="545"/><ellipse cx="269" cy="561" fill="#EB937F" rx="11" ry="11" style="stroke: #A80036; stroke-width: 1.0;"/><path d="M273.1094,567 L265.3906,567 L265.3906,554.6094 L273.1094,554.6094 L273.1094,556.7656 L267.8438,556.7656 L267.8438,559.4375 L272.6094,559.4375 L272.6094,561.5938 L267.8438,561.5938 L267.8438,564.8438 L273.1094,564.8438 L273.1094,567 Z "/><text fill="#000000" font-family="sans-serif" font-size="12" lengthAdjust="spacingAndGlyphs" textLength="74" x="283" y="565.1543">ArtifactType</text><line style="stroke: #A80036; stroke-width: 1.5;" x1="255" x2="359" y1="577" y2="577"/><text fill="#000000" font-family="sans-serif" font-size="11" lengthAdjust="spacingAndGlyphs" textLength="61" x="260" y="591.2104">MATERIALS</text><text fill="#000000" font-family="sans-serif" font-size="11" lengthAdjust="spacingAndGlyphs" textLength="62" x="260" y="604.0151">PRODUCTS</text><line style="stroke: #A80036; stroke-width: 1.5;" x1="255" x2="359" y1="610.6094" y2="610.6094"/><!--MD5=[e296bde6a703fe5188c0f2e4e65f6940]
reverse link Rule to MatchRule--><path d="M646.4204,277.4663 C634.0791,288.4543 620.1363,299.4989 606,308 C543.5163,345.5758 466.1528,373.7423 405.7749,392.2321 " fill="none" id="Rule&lt;-MatchRule" style="stroke: #A80036; stroke-width: 1.0;"/><polygon fill="none" points="641.6928,272.3035,661.0901,263.7742,651.2454,282.5382,641.6928,272.3035" style="stroke: #A80036; stroke-width: 1.0;"/><!--MD5=[51f73d4a21d8e1d2777c1ee614281dd8]
reverse link RuleType to Rule--><path d="M594.1529,233 C617.2674,233 641.8936,233 660.3958,233 " fill="none" id="RuleType&lt;-Rule" style="stroke: #A80036; stroke-width: 1.0;"/><polygon fill="#A80036" points="588.9377,233,597.9377,237,593.9377,233,597.9377,229,588.9377,233" style="stroke: #A80036; stroke-width: 1.0;"/><text fill="#000000" font-family="sans-serif" font-size="13" lengthAdjust="spacingAndGlyphs" textLength="35" x="607" y="226.0669">has a</text><!--MD5=[e76c52c9c70b3836d93f81fe9de18327]
link MatchRule to ArtifactType--><path d="M307,468.4438 C307,493.0484 307,522.2072 307,544.8163 " fill="none" id="MatchRule-ArtifactType" style="stroke: #A80036; stroke-width: 1.0;"/><text fill="#000000" font-family="sans-serif" font-size="13" lengthAdjust="spacingAndGlyphs" textLength="101" x="308" y="511.0669">destinationType</text><text fill="#000000" font-family="sans-serif" font-size="13" lengthAdjust="spacingAndGlyphs" textLength="8" x="298.4625" y="488.2239">1</text><text fill="#000000" font-family="sans-serif" font-size="13" lengthAdjust="spacingAndGlyphs" textLength="8" x="298.2875" y="533.9705">1</text><!--MD5=[704ddff186113afeeec12b5f4a76b0da]
link Layout to LayoutSegment--><path d="M353.1406,44 C363.1058,44 373.0711,44 383.0363,44 " fill="none" id="Layout-&gt;LayoutSegment" style="stroke: #A80036; stroke-width: 1.0;"/><polygon fill="#A80036" points="388.2474,44,379.2474,40,383.2474,44,379.2474,48,388.2474,44" style="stroke: #A80036; stroke-width: 1.0;"/><text fill="#000000" font-family="sans-serif" font-size="13" lengthAdjust="spacingAndGlyphs" textLength="8" x="360.8122" y="40.2645">1</text><text fill="#000000" font-family="sans-serif" font-size="13" lengthAdjust="spacingAndGlyphs" textLength="23" x="357.3839" y="40.3003">1..*</text><!--MD5=[9af194cb173835e74a79e996c8dffe48]
reverse link Key to Layout--><path d="M190.7379,44 C200.7543,44 210.7707,44 220.7871,44 " fill="none" id="Key&lt;-Layout" style="stroke: #A80036; stroke-width: 1.0;"/><polygon fill="#A80036" points="185.5,44,194.5,48,190.5,44,194.5,40,185.5,44" style="stroke: #A80036; stroke-width: 1.0;"/><text fill="#000000" font-family="sans-serif" font-size="13" lengthAdjust="spacingAndGlyphs" textLength="23" x="193.3375" y="39.5337">1..*</text><text fill="#000000" font-family="sans-serif" font-size="13" lengthAdjust="spacingAndGlyphs" textLength="8" x="205.1076" y="40.2645">1</text><!--MD5=[58828663ce0ec4a2bbfa4ca3bc13e701]
link Layout to MatchRule--><path d="M288.6367,74.6469 C292.0144,137.8938 299.7974,283.6311 304.0665,363.5703 " fill="none" id="Layout-&gt;MatchRule" style="stroke: #A80036; stroke-width: 1.0;"/><polygon fill="#A80036" points="304.3425,368.7391,307.8567,359.5385,304.0758,363.7462,299.8681,359.9653,304.3425,368.7391" style="stroke: #A80036; stroke-width: 1.0;"/><text fill="#000000" font-family="sans-serif" font-size="13" lengthAdjust="spacingAndGlyphs" textLength="139" x="303" y="237.5669">expectedEndProducts</text><text fill="#000000" font-family="sans-serif" font-size="13" lengthAdjust="spacingAndGlyphs" textLength="8" x="280.1714" y="94.2563">1</text><text fill="#000000" font-family="sans-serif" font-size="13" lengthAdjust="spacingAndGlyphs" textLength="23" x="279.4401" y="358.1058">1..*</text><!--MD5=[2e4f5e8b8d2c97b15fccf554ea4368d3]
link PublicKey to Key--><path d="M97.1406,44 C108.9003,44 120.6601,44 132.4198,44 " fill="none" id="PublicKey-Key" style="stroke: #A80036; stroke-width: 1.0;"/><text fill="#000000" font-family="sans-serif" font-size="13" lengthAdjust="spacingAndGlyphs" textLength="8" x="104.9724" y="39.8822">1</text><text fill="#000000" font-family="sans-serif" font-size="13" lengthAdjust="spacingAndGlyphs" textLength="8" x="116.5836" y="39.162">1</text><!--MD5=[a263db43295751bcd15eff1220047a80]
link Key to Account--><path d="M159,68.3215 C159,104.612 159,172.5357 159,208.7718 " fill="none" id="Key-Account" style="stroke: #A80036; stroke-width: 1.0;"/><text fill="#000000" font-family="sans-serif" font-size="13" lengthAdjust="spacingAndGlyphs" textLength="8" x="150.025" y="88.1611">1</text><text fill="#000000" font-family="sans-serif" font-size="13" lengthAdjust="spacingAndGlyphs" textLength="8" x="150.025" y="198.1211">1</text><!--MD5=[edee868d0827e6f463eb67775695443c]
link LayoutSegment to Step--><path d="M517.6953,44 C527.4504,44 537.2055,44 546.9606,44 " fill="none" id="LayoutSegment-&gt;Step" style="stroke: #A80036; stroke-width: 1.0;"/><polygon fill="#A80036" points="552.0619,44,543.0619,40,547.0619,44,543.0619,48,552.0619,44" style="stroke: #A80036; stroke-width: 1.0;"/><text fill="#000000" font-family="sans-serif" font-size="13" lengthAdjust="spacingAndGlyphs" textLength="8" x="525.6382" y="40.2074">1</text><text fill="#000000" font-family="sans-serif" font-size="13" lengthAdjust="spacingAndGlyphs" textLength="23" x="521.5364" y="40.4901">1..*</text><!--MD5=[33627ab4b46d8f3aa6179801f35e654a]
link Step to Rule--><path d="M591.3108,81.2909 C580.1741,95.3247 573.074,111.814 580,128 C584.125,137.6401 625.4927,175.7523 656.2908,203.2859 " fill="none" id="Step-&gt;Rule" style="stroke: #A80036; stroke-width: 1.0;"/><polygon fill="#A80036" points="660.3708,206.927,656.3191,197.9501,656.6403,203.5979,650.9925,203.919,660.3708,206.927" style="stroke: #A80036; stroke-width: 1.0;"/><text fill="#000000" font-family="sans-serif" font-size="13" lengthAdjust="spacingAndGlyphs" textLength="117" x="581" y="124.0669">expectedMaterials</text><text fill="#000000" font-family="sans-serif" font-size="13" lengthAdjust="spacingAndGlyphs" textLength="8" x="575.7103" y="100.5381">1</text><text fill="#000000" font-family="sans-serif" font-size="13" lengthAdjust="spacingAndGlyphs" textLength="23" x="629.5305" y="197.6253">0..*</text><!--MD5=[33627ab4b46d8f3aa6179801f35e654a]
link Step to Rule--><path d="M682.7486,81.0223 C690.9981,89.877 698.3927,99.9926 703,111 C714.5267,138.5389 709.5354,172.4918 702.6578,197.5811 " fill="none" id="Step-&gt;Rule-1" style="stroke: #A80036; stroke-width: 1.0;"/><polygon fill="#A80036" points="701.2614,202.4762,707.5768,194.9187,702.633,197.668,699.8837,192.7242,701.2614,202.4762" style="stroke: #A80036; stroke-width: 1.0;"/><text fill="#000000" font-family="sans-serif" font-size="13" lengthAdjust="spacingAndGlyphs" textLength="115" x="708" y="124.0669">expectedProducts</text><text fill="#000000" font-family="sans-serif" font-size="13" lengthAdjust="spacingAndGlyphs" textLength="8" x="682.2679" y="100.7864">1</text><text fill="#000000" font-family="sans-serif" font-size="13" lengthAdjust="spacingAndGlyphs" textLength="23" x="678.2092" y="191.2613">0..*</text><text fill="#000000" font-family="sans-serif" font-size="14" lengthAdjust="spacingAndGlyphs" textLength="185" x="316" y="644.6045">Layout and related Classes</text><!--MD5=[3130219eb15eee6e7eaf6bf0875a0fcc]
@startuml

caption Layout and related Classes

skinparam shadowing<<with_shadow>> true
skinparam backgroundColor #SeaShell

class Layout {
  
}

class Key {
}

class Account {
}

class PublicKey {
}

class Layout {
    List authorizedKeyIds
}

class LayoutSegment {
}

class Step {
    int requiredNumberOfLinks
    List authorizedKeyIds
}


enum RuleType {
    ALLOW
    CREATE
    CREATE_OR_MODIFY
    DELETE
    DISALLOW
    MATCH
    MODIFY
    REQUIRE
}

class Rule {
    type
}

class MatchRule {
    String sourcePathPrefix
    String destinationPathPrefix
    String destinationSegmentName
    String destinationStepName
}

enum ArtifactType {
    MATERIALS
    PRODUCTS
}

Rule <|- - MatchRule

Rule -left-> RuleType: has a
MatchRule "1" - - "1" ArtifactType: destinationType

Layout "1" -right-> "1..*" LayoutSegment
Layout "1" -left-> "1..*" Key
Layout "1" - -> "1..*" MatchRule: expectedEndProducts
Key "1" -left- "1" PublicKey
Key "1" - - "1" Account
LayoutSegment "1" -right-> "1..*" Step
Step "1" - -> "0..*" Rule: expectedMaterials
Step "1" - -> "0..*" Rule: expectedProducts

@enduml

PlantUML version 1.2020.15(Sun Jun 28 13:39:45 CEST 2020)
(GPL source distribution)
Java Runtime: OpenJDK Runtime Environment
JVM: OpenJDK 64-Bit Server VM
Default Encoding: UTF-8
Language: en
Country: US
--></g></svg>