<?xml version="1.0" standalone="no"?>
<!DOCTYPE svg PUBLIC "-//W3C//DTD SVG 20010904//EN"
 "http://www.w3.org/TR/2001/REC-SVG-20010904/DTD/svg10.dtd">
<svg version="1.0" xmlns="http://www.w3.org/2000/svg"
 width="404.000000pt" height="342.000000pt" viewBox="0 0 404.000000 342.000000"
 preserveAspectRatio="xMidYMid meet">

<g transform="translate(0.000000,342.000000) scale(0.100000,-0.100000)"
fill="#000000" stroke="none">
<path d="M745 3335 c22 -13 46 -25 54 -25 8 0 -7 11 -33 25 -60 32 -73 32 -21
0z"/>
<path d="M674 3334 c-18 -14 -18 -15 4 -4 12 6 22 13 22 15 0 8 -5 6 -26 -11z"/>
<path d="M520 3319 c-14 -4 -40 -7 -57 -8 -45 -1 -77 -34 -68 -69 4 -15 11
-30 17 -33 7 -4 6 -13 -1 -27 -16 -30 10 -52 60 -52 41 0 62 -21 41 -42 -16
-16 -84 -12 -94 6 -12 22 -28 20 -28 -4 0 -10 9 -24 19 -30 29 -15 93 -12 119
6 48 33 13 94 -55 94 -23 0 -33 5 -33 15 0 10 10 15 34 15 55 0 84 54 49 92
-15 17 -15 18 10 18 15 0 27 4 27 9 0 15 -13 18 -40 10z m-25 -69 c0 -32 -2
-35 -30 -35 -24 0 -31 5 -33 23 -6 38 5 54 35 50 25 -3 28 -7 28 -38z"/>
<path d="M90 3294 c0 -12 7 -14 30 -9 19 4 36 2 45 -5 26 -22 16 -37 -27 -43
-68 -9 -93 -70 -42 -104 22 -14 31 -15 56 -5 20 7 37 8 49 2 21 -12 32 0 18
20 -5 8 -9 42 -9 75 0 34 -5 66 -12 73 -7 7 -34 12 -60 12 -37 0 -48 -4 -48
-16z m90 -98 c0 -28 -35 -57 -56 -49 -23 9 -17 52 9 63 36 15 47 11 47 -14z"/>
<path d="M280 3215 c0 -78 3 -95 15 -95 11 0 15 13 15 55 0 65 15 103 43 107
11 2 22 9 25 16 6 19 -45 15 -57 -5 -10 -17 -10 -17 -11 0 0 9 -7 17 -15 17
-12 0 -15 -17 -15 -95z"/>
<path d="M592 3253 l2 -58 3 50 c3 27 10 53 16 57 8 5 6 8 -5 8 -15 0 -18 -9
-16 -57z"/>
<path d="M662 3287 c-32 -34 -31 -109 3 -142 56 -57 135 -11 135 78 0 78 -87
118 -138 64z m85 -9 c17 -22 22 -57 12 -93 -9 -30 -14 -35 -39 -35 -33 0 -50
23 -50 67 0 55 51 94 77 61z"/>
<path d="M730 3225 c-8 -10 -20 -13 -34 -9 -18 6 -19 5 -7 -9 13 -17 42 -10
56 14 11 17 -1 21 -15 4z"/>
<path d="M828 3241 c3 -49 -1 -78 -13 -100 -20 -40 -72 -73 -107 -68 -15 2
-25 0 -22 -5 9 -14 48 -9 82 12 53 32 72 74 72 158 0 39 -3 72 -7 72 -5 0 -7
-31 -5 -69z"/>
<path d="M887 3289 c-23 -32 -7 -61 42 -77 34 -11 42 -18 39 -36 -3 -18 -10
-21 -44 -21 -52 0 -57 -17 -9 -30 47 -12 89 9 93 46 3 29 -19 52 -63 66 -20 6
-30 16 -30 29 0 16 7 19 43 17 60 -3 50 21 -10 25 -38 2 -49 -1 -61 -19z"/>
<path d="M601 3167 c-1 -9 14 -32 32 -50 17 -18 23 -22 12 -10 -11 13 -25 36
-31 51 -9 19 -13 22 -13 9z"/>
<path d="M400 2664 c0 -8 5 -12 10 -9 6 4 8 11 5 16 -9 14 -15 11 -15 -7z"/>
<path d="M833 2605 c0 -53 1 -61 6 -31 7 45 28 59 35 24 3 -13 7 -32 9 -43 3
-11 5 1 6 28 1 43 -1 47 -23 47 -18 0 -26 7 -29 23 -2 12 -4 -9 -4 -48z"/>
<path d="M292 2600 c0 -44 2 -55 7 -35 4 21 13 31 29 33 19 3 22 -1 22 -27 0
-17 5 -31 10 -31 6 0 10 27 10 60 0 58 -15 84 -22 38 -4 -32 -40 -30 -49 2 -4
16 -7 1 -7 -40z"/>
<path d="M400 2585 c0 -25 5 -45 10 -45 6 0 10 20 10 45 0 25 -4 45 -10 45 -5
0 -10 -20 -10 -45z"/>
<path d="M444 2604 c-11 -45 31 -83 59 -55 8 8 4 11 -16 11 -15 0 -27 5 -27
10 0 6 12 10 26 10 21 0 25 4 22 23 -2 16 -11 23 -30 25 -23 3 -29 -2 -34 -24z
m46 1 c0 -8 -7 -15 -15 -15 -16 0 -20 12 -8 23 11 12 23 8 23 -8z"/>
<path d="M541 2583 c2 -34 3 -39 6 -18 3 17 12 38 20 48 15 16 14 17 -5 17
-20 0 -22 -5 -21 -47z"/>
<path d="M620 2618 l25 -11 -25 -6 c-18 -5 -25 -14 -25 -31 0 -21 5 -25 33
-25 28 -1 32 2 32 26 0 44 -10 59 -39 58 l-26 0 25 -11z m20 -43 c0 -8 -7 -15
-15 -15 -8 0 -15 7 -15 15 0 8 7 15 15 15 8 0 15 -7 15 -15z"/>
<path d="M691 2583 c2 -34 3 -39 6 -18 3 17 12 38 20 48 15 16 14 17 -5 17
-20 0 -22 -5 -21 -47z"/>
<path d="M752 2618 c-15 -15 -15 -51 0 -66 15 -15 48 -16 48 -2 0 6 -9 10 -21
10 -16 0 -20 5 -17 28 2 19 8 27 21 26 9 -1 17 2 17 7 0 13 -34 11 -48 -3z"/>
<path d="M910 2626 c0 -2 7 -23 15 -46 11 -32 12 -46 4 -56 -7 -9 -7 -14 -1
-14 15 0 28 20 45 73 9 26 11 47 6 47 -5 0 -12 -7 -14 -15 -16 -49 -17 -50
-27 -17 -5 17 -13 32 -18 32 -6 0 -10 -2 -10 -4z"/>
<path d="M1544 2101 c1 -48 5 -66 16 -69 12 -4 13 -2 3 9 -6 8 -14 39 -16 69
-4 51 -4 50 -3 -9z"/>
<path d="M1861 2098 c0 -38 2 -68 7 -68 4 0 6 21 4 48 -5 82 -9 89 -11 20z"/>
<path d="M435 2125 c-14 -13 -25 -29 -25 -35 0 -6 11 -22 25 -35 13 -14 29
-25 35 -25 6 0 22 11 35 25 14 13 25 29 25 35 0 14 -46 60 -60 60 -6 0 -22
-11 -35 -25z m51 -20 c14 -13 14 -17 0 -31 -15 -14 -17 -14 -32 0 -12 13 -13
18 -2 30 16 19 16 19 34 1z"/>
<path d="M666 2134 c-9 -8 -16 -28 -16 -44 0 -45 47 -79 66 -48 4 6 3 8 -4 5
-5 -4 -17 -4 -25 -1 -37 14 -24 101 13 91 11 -3 18 -1 14 4 -8 14 -31 11 -48
-7z"/>
<path d="M1161 2095 c-1 -58 0 -61 24 -63 18 -1 29 5 36 22 15 31 -5 70 -31
63 -13 -3 -20 1 -23 17 -2 11 -5 -6 -6 -39z m44 -21 c0 -19 -5 -29 -15 -29
-16 0 -25 28 -16 51 10 25 31 10 31 -22z"/>
<path d="M1670 2091 c0 -56 1 -58 25 -58 32 0 47 19 43 54 -2 22 -8 28 -25 27
-16 0 -23 5 -23 18 0 10 -4 18 -10 18 -6 0 -10 -26 -10 -59z m58 -7 c3 -25
-13 -48 -27 -40 -12 8 -15 49 -4 60 11 11 28 1 31 -20z"/>
<path d="M969 2128 c-5 -51 9 -98 29 -97 10 0 12 3 5 6 -16 6 -17 73 -2 73 6
0 4 7 -5 15 -18 18 -26 19 -27 3z"/>
<path d="M740 2074 c0 -24 5 -44 10 -44 6 0 10 16 10 35 0 21 6 37 17 43 13 8
11 10 -10 10 -25 0 -27 -4 -27 -44z"/>
<path d="M804 2107 c-11 -29 0 -72 20 -75 10 -2 22 0 27 5 6 6 1 9 -12 9 -12
-1 -24 5 -26 12 -3 7 5 12 22 12 22 0 26 4 23 23 -4 26 -45 37 -54 14z m44
-15 c2 -7 -6 -12 -17 -12 -21 0 -27 11 -14 24 9 9 26 2 31 -12z"/>
<path d="M910 2109 l25 -11 -28 -10 c-21 -7 -27 -16 -25 -32 2 -16 10 -21 33
-21 30 -1 31 0 25 40 -4 34 -9 40 -30 42 l-25 3 25 -11z m20 -43 c0 -20 -19
-31 -32 -18 -6 6 -7 15 -4 21 10 16 36 13 36 -3z"/>
<path d="M1029 2099 c-15 -29 3 -69 31 -69 11 0 20 4 20 9 0 5 -7 8 -16 7 -9
0 -19 5 -21 12 -3 7 5 12 21 12 28 0 34 18 14 38 -18 18 -36 15 -49 -9z m49
-7 c2 -7 -6 -12 -17 -12 -21 0 -27 11 -14 24 9 9 26 2 31 -12z"/>
<path d="M1273 2113 c20 -5 23 -23 3 -23 -20 0 -37 -25 -30 -44 4 -11 16 -15
35 -14 24 2 29 7 29 29 0 42 -10 59 -34 58 -16 -1 -17 -2 -3 -6z m17 -47 c0
-16 -18 -31 -27 -22 -8 8 5 36 17 36 5 0 10 -6 10 -14z"/>
<path d="M1337 2113 c-13 -13 -7 -32 13 -38 28 -9 27 -39 -1 -32 -15 4 -19 3
-12 -4 16 -16 47 -7 51 14 2 11 -6 20 -23 27 -15 6 -23 15 -20 21 4 6 13 8 21
5 8 -3 14 -1 14 4 0 11 -33 14 -43 3z"/>
<path d="M1414 2107 c-11 -29 0 -72 20 -75 10 -2 22 0 27 5 6 6 1 9 -12 9 -12
-1 -24 5 -26 12 -3 7 5 12 22 12 22 0 26 4 23 23 -4 26 -45 37 -54 14z m44
-15 c2 -7 -6 -12 -17 -12 -21 0 -27 11 -14 24 9 9 26 2 31 -12z"/>
<path d="M1610 2109 l25 -11 -28 -10 c-21 -7 -27 -16 -25 -32 2 -16 10 -21 33
-21 30 -1 31 0 25 40 -4 34 -9 40 -30 42 l-25 3 25 -11z m20 -43 c0 -20 -19
-31 -32 -18 -6 6 -7 15 -4 21 10 16 36 13 36 -3z"/>
<path d="M1769 2099 c-15 -29 3 -69 31 -69 11 0 20 4 20 9 0 5 -7 8 -16 7 -9
0 -19 5 -21 12 -3 7 5 12 21 12 28 0 34 18 14 38 -18 18 -36 15 -49 -9z m49
-7 c2 -7 -6 -12 -17 -12 -21 0 -27 11 -14 24 9 9 26 2 31 -12z"/>
<path d="M1900 2039 c0 -5 5 -7 10 -4 6 3 10 8 10 11 0 2 -4 4 -10 4 -5 0 -10
-5 -10 -11z"/>
<path d="M443 1811 l-23 -30 31 -6 c40 -9 46 -1 28 36 l-14 30 -22 -30z"/>
<path d="M932 1808 c-25 -25 -8 -78 26 -78 9 0 6 6 -8 18 -26 21 -21 58 8 65
14 4 14 5 2 6 -9 0 -21 -4 -28 -11z"/>
<path d="M999 1799 c-15 -29 3 -69 31 -69 28 0 46 40 31 69 -7 11 -20 21 -31
21 -11 0 -24 -10 -31 -21z m46 -25 c0 -19 -5 -29 -15 -29 -16 0 -25 28 -16 51
10 25 31 10 31 -22z"/>
<path d="M1091 1771 l1 -46 8 38 c4 20 10 40 13 43 13 13 27 -9 28 -44 l2 -37
6 39 c8 55 31 60 31 7 0 -23 5 -41 11 -41 6 0 9 17 7 43 l-3 42 -52 1 -53 1 1
-46z"/>
<path d="M1713 1525 c-1 -43 2 -61 6 -45 l7 25 15 -22 c7 -13 17 -23 22 -23 4
0 0 11 -9 26 -13 19 -14 28 -5 37 6 6 11 16 11 22 -1 5 -9 0 -20 -13 l-19 -23
-4 43 c-2 27 -4 17 -4 -27z"/>
<path d="M1240 1521 c0 -56 1 -58 25 -58 32 0 47 19 43 54 -2 22 -8 28 -25 27
-16 0 -23 5 -23 18 0 10 -4 18 -10 18 -6 0 -10 -26 -10 -59z m58 -7 c3 -25
-13 -48 -27 -40 -12 8 -15 49 -4 60 11 11 28 1 31 -20z"/>
<path d="M1431 1525 c-1 -56 1 -61 21 -62 29 -3 48 14 48 42 0 27 -24 49 -44
42 -10 -4 -16 2 -19 16 -2 12 -5 -5 -6 -38z m48 -36 c-5 -11 -14 -19 -19 -19
-16 0 -22 40 -9 56 12 14 14 14 26 -1 8 -13 9 -23 2 -36z"/>
<path d="M623 1541 l-23 -30 31 -6 c40 -9 46 -1 28 36 l-14 30 -22 -30z"/>
<path d="M1101 1500 c1 -43 1 -44 9 -13 4 18 12 39 18 46 8 10 6 13 -9 13 -16
0 -19 -7 -18 -46z"/>
<path d="M1180 1539 l25 -11 -28 -10 c-21 -7 -27 -16 -25 -32 2 -16 10 -21 33
-21 30 -1 31 0 25 40 -4 34 -9 40 -30 42 l-25 3 25 -11z m20 -43 c0 -20 -19
-31 -32 -18 -6 6 -7 15 -4 21 10 16 36 13 36 -3z"/>
<path d="M1339 1529 c-15 -29 3 -69 31 -69 28 0 46 40 31 69 -7 11 -20 21 -31
21 -11 0 -24 -10 -31 -21z m46 -25 c0 -19 -5 -29 -15 -29 -16 0 -25 28 -16 51
10 25 31 10 31 -22z"/>
<path d="M1550 1539 l25 -11 -28 -10 c-21 -7 -27 -16 -25 -32 2 -16 10 -21 33
-21 30 -1 31 0 25 40 -4 34 -9 40 -30 42 l-25 3 25 -11z m20 -43 c0 -20 -19
-31 -32 -18 -6 6 -7 15 -4 21 10 16 36 13 36 -3z"/>
<path d="M1611 1505 l1 -50 8 40 c5 22 4 44 -1 50 -5 5 -9 -11 -8 -40z"/>
<path d="M1647 1543 c6 -4 13 -26 16 -48 4 -40 4 -40 3 4 -1 30 -6 46 -16 48
-10 3 -11 2 -3 -4z"/>
<path d="M863 1261 l-23 -30 31 -6 c40 -9 46 -1 28 36 l-14 30 -22 -30z"/>
<path d="M1363 1263 c20 -5 23 -23 3 -23 -20 0 -37 -25 -30 -44 4 -11 16 -15
35 -14 24 2 29 7 29 29 0 42 -10 59 -34 58 -16 -1 -17 -2 -3 -6z m17 -47 c0
-16 -18 -31 -27 -22 -8 8 5 36 17 36 5 0 10 -6 10 -14z"/>
<path d="M1432 1220 c1 -40 2 -41 5 -10 2 19 11 40 20 47 13 10 13 12 -6 10
-18 -1 -21 -7 -19 -47z"/>
<path d="M1485 1258 c-11 -30 2 -73 24 -78 12 -3 22 -9 22 -15 0 -16 -33 -18
-43 -3 -8 10 -9 10 -5 -2 4 -18 36 -24 56 -11 19 12 6 41 -19 41 -25 0 -26 16
-1 23 10 2 20 16 23 31 5 23 2 26 -24 26 -16 0 -31 -6 -33 -12z m43 -21 c2
-10 -3 -17 -12 -17 -18 0 -29 16 -21 31 9 14 29 6 33 -14z"/>
<path d="M1572 1258 c-30 -30 -2 -86 38 -73 15 5 20 15 20 40 0 41 -32 59 -58
33z m46 -27 c5 -34 -16 -51 -33 -27 -10 14 -11 24 -4 38 13 24 33 18 37 -11z"/>
<path d="M1661 1256 c-10 -12 -7 -18 13 -31 29 -19 25 -39 -6 -29 -14 4 -18 2
-14 -5 11 -17 46 -13 53 6 4 11 -1 22 -15 31 -28 18 -29 36 -2 29 11 -3 18 -1
14 4 -8 14 -30 11 -43 -5z"/>
<path d="M2087 1008 c-5 -18 3 -48 14 -48 5 0 9 7 9 15 0 8 5 15 11 15 6 0 4
7 -5 15 -18 18 -23 19 -29 3z"/>
<path d="M2307 1008 c-5 -17 3 -48 13 -48 10 0 18 31 13 48 -3 6 -8 12 -13 12
-5 0 -10 -6 -13 -12z"/>
<path d="M1660 989 l25 -11 -28 -10 c-21 -7 -27 -16 -25 -32 2 -16 10 -21 33
-21 30 -1 31 0 25 40 -4 34 -9 40 -30 42 l-25 3 25 -11z m20 -43 c0 -20 -19
-31 -32 -18 -6 6 -7 15 -4 21 10 16 36 13 36 -3z"/>
<path d="M1720 954 c0 -24 5 -44 10 -44 6 0 10 16 10 35 0 21 6 37 17 43 13 8
11 10 -10 10 -25 0 -27 -4 -27 -44z"/>
<path d="M1785 988 c-3 -7 -4 -26 -2 -43 2 -22 8 -31 25 -33 12 -2 22 -10 22
-19 0 -11 -7 -14 -25 -11 -14 3 -25 1 -25 -3 0 -15 47 -10 60 6 15 18 5 35
-20 35 -28 0 -34 18 -8 22 15 2 23 10 23 23 0 11 5 23 10 27 6 4 -5 8 -23 8
-18 0 -35 -6 -37 -12z m40 -19 c0 -7 -8 -15 -17 -17 -18 -3 -25 18 -11 32 10
10 28 1 28 -15z"/>
<path d="M1872 988 c-17 -17 -15 -53 3 -68 17 -14 45 -7 44 12 0 10 -2 10 -6
1 -14 -35 -49 2 -38 38 8 23 31 25 39 3 4 -9 9 -14 13 -11 8 8 -16 37 -31 37
-7 0 -17 -5 -24 -12z"/>
<path d="M1957 993 c-11 -10 -8 -33 3 -33 6 0 9 6 8 13 -2 6 5 11 15 11 9 -1
17 2 17 7 0 10 -34 12 -43 2z"/>
<path d="M2150 980 c-13 -25 -2 -26 16 -2 13 16 15 16 29 -2 8 -11 15 -15 15
-10 0 14 -22 34 -37 34 -7 0 -17 -9 -23 -20z"/>
<path d="M2237 993 c-11 -10 -8 -33 3 -33 6 0 9 6 8 13 -2 6 5 11 15 11 9 -1
17 2 17 7 0 10 -34 12 -43 2z"/>
<path d="M2033 963 c9 -2 23 -2 30 0 6 3 -1 5 -18 5 -16 0 -22 -2 -12 -5z"/>
<path d="M2621 798 c0 -32 2 -58 7 -58 4 0 6 19 4 43 -5 70 -10 76 -11 15z"/>
<path d="M2968 824 c-3 -2 -2 -21 1 -41 5 -27 12 -39 26 -41 18 -2 19 -2 3 8
-20 12 -24 56 -6 62 8 3 6 6 -4 10 -9 4 -18 5 -20 2z"/>
<path d="M2073 780 c0 -25 2 -35 4 -22 2 12 2 32 0 45 -2 12 -4 2 -4 -23z"/>
<path d="M2097 809 c6 -8 13 -27 16 -44 4 -23 4 -20 3 9 -1 25 -6 41 -16 44
-12 4 -13 2 -3 -9z"/>
<path d="M2137 813 c6 -4 13 -24 16 -43 4 -34 4 -33 3 4 -1 26 -6 41 -16 43
-10 3 -11 2 -3 -4z"/>
<path d="M2210 808 l25 -11 -25 -6 c-36 -10 -34 -46 3 -47 22 -1 27 3 27 22 0
37 -11 54 -34 53 -19 0 -19 -1 4 -11z m20 -37 c0 -14 -18 -23 -30 -16 -6 4 -8
11 -5 16 8 12 35 12 35 0z"/>
<path d="M2271 775 l2 -40 6 34 c9 49 29 51 34 4 l4 -38 1 42 c2 40 0 43 -23
41 -22 -2 -25 -6 -24 -43z"/>
<path d="M2373 814 c23 -7 22 -20 -3 -27 -12 -3 -20 -14 -20 -26 0 -16 6 -20
28 -18 26 2 28 4 22 37 -4 25 -11 35 -25 37 -16 1 -16 1 -2 -3z m15 -46 c-6
-18 -28 -21 -28 -4 0 9 7 16 16 16 9 0 14 -5 12 -12z"/>
<path d="M2426 811 c-3 -5 -3 -23 0 -40 5 -21 12 -31 25 -31 11 0 19 -5 19
-11 0 -7 -11 -9 -26 -6 -16 3 -22 1 -16 -5 15 -15 46 -5 50 15 2 12 -3 17 -17
17 -26 0 -27 16 -2 23 29 7 24 47 -6 47 -12 0 -24 -4 -27 -9z m39 -10 c7 -12
-12 -24 -25 -16 -11 7 -4 25 10 25 5 0 11 -4 15 -9z"/>
<path d="M2507 813 c-4 -3 -7 -19 -7 -35 0 -31 24 -48 42 -30 7 7 5 10 -7 9
-10 -1 -20 4 -22 11 -3 7 5 12 22 12 23 0 24 2 15 20 -11 20 -31 26 -43 13z
m33 -13 c0 -5 -7 -10 -15 -10 -8 0 -15 5 -15 10 0 6 7 10 15 10 8 0 15 -4 15
-10z"/>
<path d="M2680 809 l24 -10 -24 -12 c-34 -17 -32 -42 3 -43 26 -1 28 1 25 35
-3 30 -7 36 -28 38 l-25 3 25 -11z m18 -41 c-6 -18 -28 -21 -28 -4 0 9 7 16
16 16 9 0 14 -5 12 -12z"/>
<path d="M2735 779 c12 -34 13 -45 3 -57 -11 -12 -10 -14 1 -11 8 3 22 29 32
57 20 58 17 70 -4 20 l-14 -33 -7 33 c-4 17 -12 32 -16 32 -5 0 -3 -19 5 -41z"/>
<path d="M2812 808 c-27 -27 0 -77 34 -64 10 4 14 16 12 38 -3 35 -25 47 -46
26z m33 -28 c0 -13 -6 -25 -12 -27 -16 -6 -27 21 -19 43 9 23 31 11 31 -16z"/>
<path d="M2894 786 c1 -26 6 -41 16 -43 10 -3 11 -2 3 4 -6 4 -13 24 -16 43
-4 34 -4 33 -3 -4z"/>
<path d="M2933 780 c0 -25 2 -35 4 -22 2 12 2 32 0 45 -2 12 -4 2 -4 -23z"/>
</g>
</svg>
